<svg width="13" height="13" viewBox="0 0 13 13" fill="none" xmlns="http://www.w3.org/2000/svg">
<g clip-path="url(#clip0_944_250)">
<path d="M6.5 0C3.81225 0 1.625 2.20242 1.625 4.91021C1.625 8.75766 6.04175 12.7302 6.22971 12.8971C6.30717 12.9659 6.40358 13 6.5 13C6.59642 13 6.69283 12.9659 6.77029 12.8976C6.95825 12.7302 11.375 8.75766 11.375 4.91021C11.375 2.20242 9.18775 0 6.5 0ZM6.5 7.58333C5.00662 7.58333 3.79167 6.36837 3.79167 4.875C3.79167 3.38162 5.00662 2.16667 6.5 2.16667C7.99337 2.16667 9.20833 3.38162 9.20833 4.875C9.20833 6.36837 7.99337 7.58333 6.5 7.58333Z" fill="#D0D5DD"/>
</g>
<defs>
<clipPath id="clip0_944_250">
<rect width="13" height="13" fill="white"/>
</clipPath>
</defs>
</svg>
