<svg width="25" height="24" viewBox="0 0 25 24" fill="none" xmlns="http://www.w3.org/2000/svg">
<path d="M16.2594 12.8068C17.2939 11.9929 18.049 10.8768 18.4197 9.61378C18.7903 8.35074 18.758 7.00359 18.3274 5.75974C17.8967 4.51589 17.0891 3.4372 16.0168 2.67374C14.9446 1.91027 13.661 1.5 12.3447 1.5C11.0284 1.5 9.74485 1.91027 8.67258 2.67374C7.60032 3.4372 6.79268 4.51589 6.36203 5.75974C5.93137 7.00359 5.89912 8.35074 6.26975 9.61378C6.64038 10.8768 7.39547 11.9929 8.42997 12.8068C6.65734 13.517 5.11066 14.6949 3.95481 16.215C2.79897 17.7351 2.07729 19.5403 1.86672 21.4382C1.85147 21.5768 1.86367 21.717 1.90262 21.8509C1.94157 21.9847 2.00649 22.1096 2.0937 22.2184C2.26982 22.438 2.52598 22.5787 2.80583 22.6095C3.08568 22.6403 3.3663 22.5586 3.58596 22.3825C3.80561 22.2064 3.9463 21.9502 3.97709 21.6704C4.20879 19.6077 5.19233 17.7027 6.73979 16.3193C8.28725 14.936 10.2901 14.1712 12.3658 14.1712C14.4415 14.1712 16.4444 14.936 17.9918 16.3193C19.5393 17.7027 20.5228 19.6077 20.7545 21.6704C20.7832 21.9297 20.9069 22.1691 21.1018 22.3425C21.2967 22.516 21.5488 22.6111 21.8097 22.6095H21.9258C22.2024 22.5777 22.4552 22.4378 22.6291 22.2204C22.8031 22.003 22.884 21.7256 22.8543 21.4488C22.6428 19.5455 21.9172 17.7356 20.7554 16.2132C19.5936 14.6908 18.0394 13.5133 16.2594 12.8068ZM12.3447 12.0576C11.5099 12.0576 10.6939 11.8101 9.99978 11.3463C9.30569 10.8825 8.7647 10.2234 8.44525 9.45212C8.12579 8.68088 8.0422 7.83223 8.20506 7.01348C8.36792 6.19474 8.76991 5.44268 9.36019 4.85239C9.95047 4.26211 10.7025 3.86013 11.5213 3.69727C12.34 3.53441 13.1887 3.618 13.9599 3.93745C14.7311 4.25691 15.3903 4.79789 15.8541 5.49199C16.3179 6.18609 16.5654 7.00212 16.5654 7.83691C16.5654 8.95632 16.1208 10.0299 15.3292 10.8214C14.5377 11.613 13.4641 12.0576 12.3447 12.0576Z" fill="#004B52"/>
</svg>
