<svg width="18" height="18" viewBox="0 0 18 18" fill="none" xmlns="http://www.w3.org/2000/svg">
<g clip-path="url(#clip0_387_123)">
<path d="M17.881 8.71163L13.7902 4.62078C13.6433 4.44919 13.385 4.42919 13.2134 4.57617C13.0418 4.72312 13.0218 4.98138 13.1688 5.15297C13.1825 5.16897 13.1974 5.18391 13.2134 5.19758L16.6047 8.59298H0.409071C0.183161 8.59298 0 8.77614 0 9.00209C0 9.22803 0.183161 9.41116 0.409071 9.41116H16.6047L13.2134 12.8024C13.0418 12.9494 13.0218 13.2077 13.1688 13.3792C13.3158 13.5508 13.574 13.5708 13.7456 13.4239C13.7616 13.4101 13.7765 13.3952 13.7902 13.3792L17.8811 9.2884C18.0397 9.1289 18.0397 8.87121 17.881 8.71163Z" fill="#101828"/>
</g>
<defs>
<clipPath id="clip0_387_123">
<rect width="18" height="18" fill="white"/>
</clipPath>
</defs>
</svg>
