<svg width="268" height="76" viewBox="0 0 268 76" fill="none" xmlns="http://www.w3.org/2000/svg">
<g clip-path="url(#clip0_2_486)">
<path d="M36.1816 22.2849C34.6216 21.9895 33.0015 21.8122 31.4414 21.8122C28.4413 21.8122 25.4411 22.344 22.561 23.4074H22.501C22.081 23.5256 21.721 23.7028 21.361 23.88L21.2409 23.9391C20.8809 24.1163 20.4609 24.2936 20.1009 24.4708L19.9809 24.5299C19.6209 24.7071 19.2609 24.9435 18.9008 25.1207C18.8408 25.1798 18.7808 25.1798 18.7208 25.2389C18.4208 25.4161 18.0608 25.5933 17.7608 25.8297C17.7008 25.8297 17.7008 25.8887 17.5808 25.9478C16.2607 26.834 15.0007 27.8384 13.8006 29.02C13.8006 29.02 13.8006 29.02 13.7406 29.079C13.8006 28.9609 13.8006 28.8427 13.8606 28.7836V28.7246C14.1006 28.2519 14.2806 27.7793 14.5806 27.3657C16.0207 24.7071 18.0008 22.344 20.4009 20.4534C20.5209 20.3353 20.7009 20.2171 20.8209 20.158C20.9409 20.0989 21.0009 19.9808 21.1209 19.9217C21.1809 19.8626 21.3009 19.8035 21.361 19.7445C21.541 19.6263 21.661 19.5081 21.841 19.39C22.081 19.2127 22.321 19.0946 22.561 18.9173C22.861 18.681 23.101 18.5038 23.401 18.3856C26.1012 16.8496 29.1613 15.8452 32.4015 15.4907C34.0815 17.5585 35.4016 19.8626 36.1816 22.2849Z" fill="#DDE1E2"/>
<path d="M39.2418 47.9846C39.3018 47.4529 39.3018 46.9211 39.3018 46.3894C39.3018 43.4355 38.7618 40.4815 37.6817 37.6456V37.5866C37.5617 37.2321 37.3817 36.8776 37.2617 36.5822C37.2017 36.405 37.0817 36.2277 37.0217 36.1096C36.9617 35.9914 36.9017 35.8142 36.8417 35.6369L36.7817 35.5188C36.7217 35.4597 36.7217 35.4006 36.6617 35.3415V35.2825C36.6017 35.2234 36.6017 35.1052 36.5417 35.0461C36.4817 34.928 36.4217 34.8098 36.3617 34.6917L36.3017 34.6326C36.2417 34.4553 36.1217 34.3372 36.0617 34.1599C35.9417 33.9827 35.8216 33.7464 35.7016 33.5692C35.5816 33.3919 35.4616 33.2147 35.3416 32.9784C35.2816 32.9193 35.2216 32.8011 35.1616 32.683L35.1016 32.6239L34.8016 32.2694C34.6816 32.1512 34.6216 31.974 34.5016 31.8558C34.3816 31.7377 34.3216 31.6195 34.2016 31.5014C34.1416 31.4423 34.0816 31.3832 34.0816 31.3241C33.9616 31.206 33.9016 31.0878 33.7816 30.9696L33.6615 30.7924C33.5415 30.6742 33.4215 30.497 33.3015 30.3789C32.8815 29.9062 32.4615 29.4927 32.0415 29.02C32.1615 29.0791 32.2815 29.1382 32.4015 29.1973C36.7817 31.1469 40.5019 34.3963 42.902 38.4728C44.462 41.1313 45.4821 44.1444 45.8421 47.3347C43.742 48.9889 41.3419 50.2296 38.8818 51.0567C38.8818 50.9976 38.8818 50.8795 38.9418 50.8204C39.0018 50.6432 39.0018 50.4659 39.0618 50.2887C39.1218 49.757 39.2418 49.2843 39.2418 48.7526C39.2418 48.5754 39.2418 48.4572 39.3018 48.3391C39.2418 48.2209 39.2418 48.1027 39.2418 47.9846Z" fill="#DDE1E2"/>
<path d="M32.0414 46.9211C32.0414 46.9802 31.9814 47.0393 31.9814 47.0393C31.9214 47.1575 31.9214 47.2165 31.8614 47.2756C29.8813 51.5884 26.5812 55.2514 22.441 57.6146C19.7409 59.1506 16.6807 60.155 13.4406 60.5685C11.7605 58.4417 10.4404 56.1376 9.6004 53.7153C11.1605 54.0107 12.7805 54.1879 14.3406 54.1879C17.3408 54.1879 20.3409 53.6562 23.221 52.5928C23.581 52.4746 23.9411 52.2974 24.3011 52.1202L24.3611 52.0611C24.5411 52.002 24.7211 51.8838 24.9011 51.8248C25.0211 51.7657 25.1411 51.7066 25.2611 51.6475H25.3211L25.3811 51.5884H25.4411C25.5011 51.5294 25.6211 51.5294 25.6811 51.4703H25.7411H25.8011C25.9212 51.4112 25.9812 51.3521 26.0412 51.3521C26.1012 51.3521 26.1612 51.293 26.2212 51.293H26.2812C26.4012 51.234 26.5812 51.1158 26.7012 51.0567L26.7612 50.9976C26.7612 50.9976 26.8212 50.9386 26.9412 50.8795C27.0612 50.8204 27.1812 50.7613 27.2412 50.7022L27.3012 50.6432C27.3612 50.6432 27.4212 50.5841 27.4812 50.525C27.6612 50.4068 27.7812 50.3478 27.9612 50.2296C28.0812 50.1114 28.2613 50.0524 28.4413 49.9342C28.5613 49.816 28.6813 49.757 28.8013 49.6388C29.0413 49.4616 29.2213 49.3434 29.4613 49.1662L29.5213 49.1071C29.6413 49.048 29.7613 48.9298 29.8813 48.8708L29.9413 48.8117C30.0613 48.6935 30.2413 48.5754 30.3614 48.4572C31.0814 47.8073 31.5614 47.3938 32.0414 46.9211Z" fill="#DDE1E2"/>
<path d="M13.8606 46.9801C13.7406 46.921 13.6806 46.921 13.5606 46.8619L13.5006 46.8028C9.78044 45.1486 6.5403 42.5491 4.20019 39.2997C3.78017 38.7089 3.36015 38.1181 3.00013 37.5273C1.44006 34.8687 0.420014 31.8557 0.0599976 28.6654C2.2201 27.0111 4.5602 25.7114 7.02032 24.9434C6.7203 26.4794 6.54029 28.0746 6.54029 29.6107C6.54029 32.5646 7.08032 35.5186 8.16037 38.3544C8.8204 40.0677 9.66044 41.6629 10.6805 43.199C11.5805 44.4987 12.6006 45.7985 13.8606 46.9801C13.8006 46.9801 13.8006 46.9801 13.8606 46.9801Z" fill="#DDE1E2"/>
<path d="M21.061 17.6176C17.2208 20.158 14.1607 23.7619 12.2406 27.9565C11.4605 29.6108 10.9205 31.3241 10.5605 33.1555C10.2605 34.6916 10.0805 36.3458 10.0805 37.941V38.0001C10.0205 37.8819 9.96046 37.7637 9.90046 37.6456C8.88041 35.0461 8.40039 32.3284 8.40039 29.5517C8.40039 27.602 8.6404 25.6524 9.18043 23.7619C9.96046 20.8079 11.4005 17.9721 13.4406 15.4316C16.1407 15.727 18.7209 16.4951 21.061 17.6176Z" fill="#C3C9CB"/>
<path d="M45.8421 28.6653C45.5421 31.3239 44.7621 33.8643 43.622 36.1684C41.0419 32.3873 37.4417 29.3743 33.1815 27.4837C32.4015 27.1293 31.5615 26.8339 30.7214 26.5385C30.6014 26.4794 30.4814 26.4794 30.3614 26.4203C30.2414 26.3612 30.1214 26.3612 29.9414 26.3021H29.8814C29.6414 26.2431 29.4614 26.184 29.2814 26.1249C29.1013 26.0658 28.8613 26.0067 28.6213 25.9477C28.3813 25.8886 28.2013 25.8295 27.9613 25.8295C27.8413 25.8295 27.7213 25.7704 27.6013 25.7704H27.5413C27.4813 25.7704 27.4813 25.7704 27.4213 25.7704C27.2413 25.7113 27.0613 25.7113 26.8812 25.7113H26.8212C26.6412 25.7113 26.5212 25.6523 26.3412 25.6523C26.2212 25.6523 26.1612 25.6523 26.1012 25.6523C25.9812 25.6523 25.8012 25.5932 25.6212 25.5932H25.5612C25.3812 25.5932 25.2012 25.5341 25.0212 25.5341C24.4211 25.475 23.7611 25.475 23.1611 25.475H23.1011C23.2211 25.416 23.3411 25.3569 23.4611 25.2978C26.1012 24.2934 28.8613 23.8208 31.6815 23.8208C33.6616 23.8208 35.6416 24.0571 37.5617 24.5888C40.3819 25.2387 43.262 26.6566 45.8421 28.6653Z" fill="#C3C9CB"/>
<path d="M37.4417 46.3893C37.4417 48.3389 37.2017 50.2886 36.6617 52.1791C35.8816 55.1331 34.4416 58.028 32.4015 60.5093C29.7014 60.214 27.1212 59.4459 24.7811 58.3234C28.6213 55.783 31.6814 52.2382 33.6015 48.0435C33.7815 47.6891 33.9615 47.2755 34.0816 46.921C34.1416 46.7438 34.2016 46.5075 34.3216 46.3302C34.3816 46.2121 34.4416 46.0939 34.4416 45.9167V45.8576C34.5016 45.7394 34.5016 45.6213 34.5616 45.5031V45.444C34.6216 45.2668 34.6816 45.0896 34.7416 44.9123C34.8016 44.7351 34.8616 44.4988 34.9216 44.3215C34.9216 44.3215 34.9216 44.2034 34.9816 44.1443C35.0416 44.0261 35.0416 43.908 35.1016 43.7898V43.7307C35.1016 43.6717 35.1016 43.6126 35.1616 43.4944C35.2216 43.3172 35.2216 43.1399 35.2816 42.9627C35.3416 42.7855 35.3416 42.6082 35.4016 42.3719C35.4616 42.1947 35.4616 42.0174 35.4616 41.8993C35.5216 41.6039 35.5216 41.3675 35.5816 41.1312V41.0721C35.5816 40.954 35.6416 40.7768 35.6416 40.6586V40.5995C35.6416 40.4223 35.7016 40.245 35.7016 40.0678C35.7616 39.477 35.7616 38.8271 35.7616 38.2363V38.1772C35.8216 38.2954 35.8816 38.4136 35.9416 38.5317C36.9617 40.8949 37.4417 43.6717 37.4417 46.3893Z" fill="#C3C9CB"/>
<path d="M22.9811 50.6431C22.861 50.7022 22.741 50.7613 22.621 50.8204C19.9809 51.8247 17.2208 52.2973 14.4007 52.2973C12.4206 52.2973 10.4405 52.061 8.52039 51.5293C5.46025 50.7613 2.58012 49.3434 0 47.3347C0.300014 44.6761 1.08005 42.1356 2.2201 39.8315C4.80022 43.6126 8.46039 46.6257 12.6606 48.5163C14.3407 49.2843 16.0807 49.816 17.9408 50.1705C19.5609 50.525 21.241 50.7022 22.9811 50.6431C22.9211 50.6431 22.9211 50.7022 22.9811 50.6431Z" fill="#C3C9CB"/>
</g>
<path d="M65.7201 20.3829H73.9778L83.8096 53.2686H78.3125L75.3097 43.2188H64.6788L61.8213 53.2686H56.1789L65.7201 20.3829ZM74.1715 39.0052L69.74 22.8772L65.7443 39.0052H74.1715ZM86.5635 18.4214H91.5762V49.2002L93.005 50.2173V53.2686H91.6246L91.5762 53.2201V53.2686C89.9779 53.2686 88.7429 52.9457 87.8711 52.2999C86.9993 51.6541 86.5635 50.5886 86.5635 49.1034V18.4214ZM101.45 24.3302C100.998 24.3302 100.57 24.2495 100.166 24.088C99.7787 23.9266 99.4316 23.7086 99.1249 23.4342C98.8343 23.1597 98.6002 22.8449 98.4226 22.4897C98.245 22.1184 98.1562 21.7229 98.1562 21.3032C98.1562 20.8673 98.245 20.4637 98.4226 20.0923C98.6002 19.721 98.8343 19.3981 99.1249 19.1237C99.4316 18.8492 99.7787 18.6394 100.166 18.4941C100.57 18.3326 100.998 18.2519 101.45 18.2519C101.902 18.2519 102.329 18.3326 102.733 18.4941C103.137 18.6394 103.484 18.8492 103.774 19.1237C104.081 19.3981 104.323 19.721 104.501 20.0923C104.678 20.4637 104.767 20.8673 104.767 21.3032C104.767 21.7229 104.678 22.1184 104.501 22.4897C104.323 22.8449 104.081 23.1597 103.774 23.4342C103.484 23.7086 103.137 23.9266 102.733 24.088C102.329 24.2495 101.902 24.3302 101.45 24.3302ZM98.6648 28.5196H103.702V49.2002L105.131 50.2173V53.2686H103.75L103.702 53.2201V53.2686C102.103 53.2686 100.86 52.9457 99.9725 52.2999C99.1007 51.6541 98.6648 50.5886 98.6648 49.1034V28.5196ZM112.268 32.2731H109.095C109.079 32.0955 109.063 31.9018 109.047 31.6919C109.031 31.5143 109.014 31.3045 108.998 31.0623C108.998 30.8201 108.998 30.5537 108.998 30.2632C108.998 29.9726 109.006 29.7062 109.023 29.464C109.039 29.2057 109.063 28.8909 109.095 28.5196H112.268V24.6692L115.052 21.5211H117.208V28.5196H124.061C124.093 28.681 124.117 28.8748 124.133 29.1008C124.166 29.3268 124.182 29.5447 124.182 29.7546C124.182 30.1259 124.142 30.465 124.061 30.7717C123.996 31.0784 123.924 31.3448 123.843 31.5708C123.746 31.8291 123.633 32.0632 123.504 32.2731H117.208V46.3185C117.208 47.497 117.401 48.3527 117.789 48.8854C118.192 49.4182 118.83 49.6846 119.702 49.6846C120.073 49.6846 120.461 49.6442 120.864 49.5635C121.284 49.4666 121.68 49.3536 122.051 49.2244C122.471 49.0791 122.898 48.9177 123.334 48.7401C123.657 49.1599 123.907 49.5715 124.085 49.9751C124.279 50.3788 124.416 50.742 124.497 51.0649C124.594 51.4362 124.65 51.7833 124.666 52.1062C124.214 52.4129 123.706 52.6874 123.141 52.9295C122.64 53.1394 122.043 53.3251 121.349 53.4865C120.654 53.6641 119.855 53.7529 118.951 53.7529C117.692 53.7529 116.635 53.5914 115.779 53.2686C114.939 52.9618 114.253 52.5017 113.72 51.8882C113.204 51.2586 112.833 50.4837 112.607 49.5635C112.381 48.6271 112.268 47.5535 112.268 46.3427V32.2731ZM129.139 18.3972H134.346V26.5339L134.104 30.2389H134.249C134.362 30.1421 134.628 29.9645 135.048 29.7062C135.484 29.4317 136.017 29.1573 136.646 28.8828C137.292 28.6084 138.011 28.3662 138.802 28.1563C139.609 27.9465 140.44 27.8415 141.296 27.8415C142.652 27.8415 143.847 28.0433 144.88 28.4469C145.929 28.8505 146.809 29.4317 147.52 30.1905C148.23 30.9331 148.763 31.8291 149.118 32.8785C149.489 33.9279 149.675 35.1064 149.675 36.4141V53.2686H144.468V36.9226C144.468 35.1629 144.113 33.8714 143.403 33.048C142.709 32.2085 141.554 31.7888 139.94 31.7888C139.165 31.7888 138.438 31.8614 137.76 32.0067C137.098 32.1359 136.509 32.2892 135.993 32.4668C135.395 32.6606 134.846 32.8866 134.346 33.1449V53.2686H129.139V18.3972ZM154.996 41.1362C154.996 38.8115 155.278 36.8096 155.843 35.1306C156.408 33.4516 157.199 32.0713 158.216 30.9896C159.233 29.908 160.444 29.1169 161.849 28.6165C163.269 28.0998 164.827 27.8415 166.522 27.8415C168.088 27.8415 169.485 28.1079 170.712 28.6407C171.955 29.1573 173.004 29.8918 173.86 30.8443C174.716 31.7968 175.369 32.935 175.822 34.2588C176.274 35.5826 176.5 37.0437 176.5 38.642C176.5 39.1909 176.475 39.6994 176.427 40.1676C176.378 40.6358 176.322 41.0394 176.257 41.3784C176.193 41.782 176.12 42.1452 176.039 42.4681L160.154 42.3955C160.17 43.8323 160.323 45.027 160.614 45.9795C160.904 46.9158 161.332 47.6585 161.897 48.2074C162.478 48.7563 163.205 49.1437 164.077 49.3697C164.948 49.5796 165.982 49.6846 167.176 49.6846C168.193 49.6846 169.106 49.62 169.913 49.4908C170.72 49.3617 171.406 49.2083 171.971 49.0307C172.617 48.837 173.198 48.611 173.715 48.3527C173.957 48.9177 174.143 49.4424 174.272 49.9267C174.417 50.411 174.522 50.8308 174.586 51.186C174.651 51.6057 174.699 51.977 174.732 52.2999C174.199 52.5744 173.553 52.8165 172.794 53.0264C172.149 53.204 171.358 53.3654 170.421 53.5107C169.485 53.6722 168.403 53.7529 167.176 53.7529C165.239 53.7529 163.512 53.5349 161.994 53.099C160.493 52.6631 159.217 51.9528 158.168 50.968C157.135 49.9671 156.344 48.6675 155.795 47.0692C155.262 45.4548 154.996 43.4771 154.996 41.1362ZM171.317 38.8599V38.0366C171.317 37.0195 171.188 36.1235 170.93 35.3486C170.688 34.5575 170.349 33.8956 169.913 33.3628C169.477 32.8301 168.96 32.4265 168.363 32.152C167.766 31.8776 167.12 31.7403 166.426 31.7403C165.409 31.7403 164.513 31.8776 163.738 32.152C162.963 32.4103 162.309 32.8301 161.776 33.4113C161.259 33.9763 160.872 34.7109 160.614 35.6149C160.355 36.519 160.226 37.6007 160.226 38.8599H171.317ZM180.149 30.9896V28.2532H184.605L186.688 30.36L187.342 29.9726C187.422 29.8918 187.656 29.7385 188.044 29.5125C188.448 29.2703 188.948 29.0281 189.545 28.786C190.143 28.5277 190.813 28.3016 191.555 28.1079C192.314 27.9142 193.081 27.8173 193.856 27.8173C195.293 27.8173 196.471 28.0272 197.391 28.4469C198.328 28.8667 199.143 29.4721 199.837 30.2632C200.096 30.0533 200.475 29.8111 200.975 29.5367C201.476 29.2461 202.049 28.9716 202.695 28.7133C203.357 28.455 204.067 28.2451 204.826 28.0837C205.585 27.9061 206.351 27.8173 207.126 27.8173C208.482 27.8173 209.717 28.0191 210.831 28.4227C211.961 28.8263 212.922 29.4075 213.713 30.1663C214.52 30.9089 215.142 31.8049 215.578 32.8543C216.03 33.9037 216.256 35.0822 216.256 36.3899V53.2686H211.049V36.8984C211.049 35.1548 210.581 33.8633 209.645 33.0238C208.708 32.1843 207.433 31.7646 205.819 31.7646C204.866 31.7646 203.97 31.8453 203.131 32.0067C202.307 32.152 201.694 32.3135 201.29 32.491C201.516 33.0077 201.694 33.5566 201.823 34.1377C201.952 34.7189 202.017 35.3082 202.017 35.9055V53.2686H196.81V36.4141C196.81 34.8481 196.487 33.6857 195.842 32.9269C195.196 32.152 194.09 31.7646 192.524 31.7646C191.781 31.7646 191.087 31.8372 190.441 31.9825C189.796 32.1117 189.239 32.265 188.77 32.4426C188.221 32.6363 187.713 32.8543 187.245 33.0964V53.2686H182.063V32.9512L180.149 30.9896ZM221.577 41.1362C221.577 38.8115 221.859 36.8096 222.424 35.1306C222.989 33.4516 223.78 32.0713 224.797 30.9896C225.814 29.908 227.025 29.1169 228.43 28.6165C229.85 28.0998 231.408 27.8415 233.104 27.8415C234.669 27.8415 236.066 28.1079 237.293 28.6407C238.536 29.1573 239.585 29.8918 240.441 30.8443C241.297 31.7968 241.95 32.935 242.403 34.2588C242.855 35.5826 243.081 37.0437 243.081 38.642C243.081 39.1909 243.056 39.6994 243.008 40.1676C242.96 40.6358 242.903 41.0394 242.838 41.3784C242.774 41.782 242.701 42.1452 242.62 42.4681L226.735 42.3955C226.751 43.8323 226.904 45.027 227.195 45.9795C227.485 46.9158 227.913 47.6585 228.478 48.2074C229.059 48.7563 229.786 49.1437 230.658 49.3697C231.529 49.5796 232.563 49.6846 233.757 49.6846C234.774 49.6846 235.687 49.62 236.494 49.4908C237.301 49.3617 237.987 49.2083 238.552 49.0307C239.198 48.837 239.779 48.611 240.296 48.3527C240.538 48.9177 240.724 49.4424 240.853 49.9267C240.998 50.411 241.103 50.8308 241.168 51.186C241.232 51.6057 241.281 51.977 241.313 52.2999C240.78 52.5744 240.134 52.8165 239.376 53.0264C238.73 53.204 237.939 53.3654 237.002 53.5107C236.066 53.6722 234.984 53.7529 233.757 53.7529C231.82 53.7529 230.093 53.5349 228.575 53.099C227.074 52.6631 225.798 51.9528 224.749 50.968C223.716 49.9671 222.925 48.6675 222.376 47.0692C221.843 45.4548 221.577 43.4771 221.577 41.1362ZM237.898 38.8599V38.0366C237.898 37.0195 237.769 36.1235 237.511 35.3486C237.269 34.5575 236.93 33.8956 236.494 33.3628C236.058 32.8301 235.541 32.4265 234.944 32.152C234.347 31.8776 233.701 31.7403 233.007 31.7403C231.99 31.7403 231.094 31.8776 230.319 32.152C229.544 32.4103 228.89 32.8301 228.357 33.4113C227.841 33.9763 227.453 34.7109 227.195 35.6149C226.936 36.519 226.807 37.6007 226.807 38.8599H237.898ZM247.045 52.1546C247.045 51.7833 247.078 51.3797 247.142 50.9438C247.191 50.5725 247.263 50.1527 247.36 49.6846C247.473 49.2002 247.635 48.6998 247.844 48.1832C248.555 48.4576 249.297 48.6998 250.072 48.9096C250.734 49.0872 251.453 49.2567 252.228 49.4182C253.002 49.5635 253.769 49.6361 254.528 49.6361C255.206 49.6361 255.836 49.6119 256.417 49.5635C256.998 49.515 257.499 49.3859 257.918 49.176C258.354 48.95 258.693 48.619 258.935 48.1832C259.178 47.7311 259.299 47.1096 259.299 46.3185C259.299 45.366 259 44.6153 258.403 44.0664C257.821 43.5175 256.804 43.1058 255.351 42.8314C253.85 42.5408 252.583 42.1533 251.549 41.669C250.532 41.1847 249.701 40.6277 249.055 39.9981C248.426 39.3523 247.965 38.6339 247.675 37.8428C247.4 37.0518 247.263 36.2042 247.263 35.3001C247.263 33.944 247.481 32.7897 247.917 31.8372C248.353 30.8847 248.983 30.1179 249.806 29.5367C250.645 28.9393 251.679 28.5115 252.906 28.2532C254.149 27.9788 255.569 27.8415 257.168 27.8415C258.282 27.8415 259.266 27.9223 260.122 28.0837C260.994 28.229 261.72 28.3904 262.301 28.568C262.98 28.7779 263.569 29.0201 264.069 29.2945C264.021 29.6497 263.932 30.0371 263.803 30.4569C263.69 30.8121 263.536 31.2157 263.343 31.6677C263.165 32.1197 262.923 32.5798 262.616 33.048C262.18 32.7897 261.68 32.5637 261.115 32.37C260.631 32.1924 260.049 32.039 259.371 31.9099C258.693 31.7646 257.918 31.6919 257.047 31.6919C256.368 31.6919 255.739 31.7242 255.158 31.7888C254.593 31.8534 254.1 31.9986 253.68 32.2247C253.277 32.4507 252.962 32.7978 252.736 33.266C252.51 33.718 252.397 34.3395 252.397 35.1306C252.397 35.5181 252.445 35.8732 252.542 36.1961C252.655 36.5029 252.865 36.7854 253.172 37.0437C253.495 37.302 253.939 37.5442 254.504 37.7702C255.085 37.9801 255.852 38.1899 256.804 38.3998C258.29 38.7227 259.525 39.094 260.509 39.5137C261.51 39.9335 262.301 40.442 262.883 41.0394C263.48 41.6367 263.9 42.339 264.142 43.1462C264.4 43.9372 264.529 44.8817 264.529 45.9795C264.529 47.158 264.344 48.2235 263.972 49.176C263.601 50.1285 263.02 50.9438 262.229 51.6219C261.438 52.2999 260.421 52.8246 259.178 53.1959C257.934 53.5672 256.433 53.7529 254.673 53.7529C253.543 53.7529 252.51 53.6722 251.574 53.5107C250.653 53.3493 249.854 53.1636 249.176 52.9537C248.385 52.7277 247.675 52.4613 247.045 52.1546Z" fill="#C3C9CB"/>
<defs>
<clipPath id="clip0_2_486">
<rect width="45.8421" height="45.1368" fill="white" transform="translate(0 15.4316)"/>
</clipPath>
</defs>
</svg>
