<svg width="148" height="45" viewBox="0 0 148 45" fill="none" xmlns="http://www.w3.org/2000/svg">
<g clip-path="url(#clip0_2_503)">
<path d="M147.499 39.6558V39.7523C147.45 41.8839 145.772 43.5664 143.738 43.5664H4.26741C2.20335 43.5664 0.5 41.8319 0.5 39.6558V4.48276C0.5 2.30682 2.20426 0.566406 4.26741 0.566406H143.737C145.801 0.566406 147.499 2.30579 147.499 4.48276V39.6558Z" stroke="#E1E1E1"/>
<path fill-rule="evenodd" clip-rule="evenodd" d="M32.9804 21.7235C32.9486 18.1953 35.8692 16.4789 36.0028 16.3979C34.3487 13.9863 31.785 13.6568 30.8841 13.6316C28.7308 13.405 26.6422 14.9201 25.5453 14.9201C24.4266 14.9201 22.7364 13.6535 20.9171 13.6907C18.5756 13.7269 16.3829 15.0832 15.181 17.1893C12.7004 21.4837 14.5504 27.7945 16.927 31.2657C18.1158 32.9658 19.5049 34.8639 21.3221 34.7972C23.1009 34.7227 23.7654 33.662 25.9132 33.662C28.0401 33.662 28.6641 34.7972 30.5185 34.7545C32.4276 34.7227 33.6295 33.0468 34.7767 31.3314C36.1506 29.3818 36.7023 27.4628 36.7242 27.3643C36.6793 27.3501 33.0165 25.9522 32.9804 21.7235Z" fill="white"/>
<path fill-rule="evenodd" clip-rule="evenodd" d="M29.4774 11.3481C30.4331 10.1516 31.0877 8.52381 30.906 6.87195C29.5212 6.93325 27.7894 7.82869 26.7933 9C25.911 10.0312 25.1228 11.7214 25.3264 13.3108C26.8819 13.4269 28.4791 12.5259 29.4774 11.3481Z" fill="white"/>
<path fill-rule="evenodd" clip-rule="evenodd" d="M54.4656 28.4787L53.2341 24.6758C53.1038 24.2861 52.8597 23.3709 52.4984 21.9303H52.4557C52.3123 22.551 52.0814 23.4651 51.7639 24.6758L50.5543 28.4787H54.4656ZM58.7238 34.553H56.2378L54.8761 30.274H50.1438L48.8466 34.553H46.4263L51.1159 19.9851H54.0124L58.7238 34.553Z" fill="white"/>
<path fill-rule="evenodd" clip-rule="evenodd" d="M68.4062 29.257C68.4062 28.2346 68.1763 27.3917 67.7144 26.7283C67.2097 26.0376 66.5332 25.6905 65.6827 25.6905C65.1069 25.6905 64.5836 25.8832 64.1162 26.2642C63.6477 26.6462 63.3412 27.1465 63.1978 27.7671C63.1255 28.055 63.0894 28.2926 63.0894 28.4787V30.2302C63.0894 30.9942 63.3237 31.639 63.7922 32.1645C64.2607 32.691 64.8693 32.9537 65.6181 32.9537C66.4971 32.9537 67.1824 32.6144 67.6717 31.9379C68.161 31.2603 68.4062 30.367 68.4062 29.257ZM70.7839 29.1716C70.7839 30.9581 70.3011 32.3703 69.3356 33.4069C68.4708 34.3297 67.398 34.7906 66.1151 34.7906C64.7325 34.7906 63.7385 34.2936 63.1332 33.2985H63.0894V38.8321H60.7555V27.5066C60.7555 26.3835 60.726 25.2308 60.6691 24.0485H62.7216L62.8518 25.7135H62.8956C63.6729 24.459 64.8551 23.8329 66.4391 23.8329C67.6794 23.8329 68.7127 24.3222 69.5414 25.3019C70.3701 26.2828 70.7839 27.5723 70.7839 29.1716Z" fill="white"/>
<path fill-rule="evenodd" clip-rule="evenodd" d="M80.4882 29.257C80.4882 28.2346 80.2572 27.3917 79.7963 26.7283C79.2917 26.0376 78.6152 25.6905 77.7646 25.6905C77.1877 25.6905 76.6656 25.8832 76.197 26.2642C75.7296 26.6462 75.4242 27.1465 75.2797 27.7671C75.2086 28.055 75.1713 28.2926 75.1713 28.4787V30.2302C75.1713 30.9942 75.4056 31.639 75.8719 32.1645C76.3404 32.691 76.9502 32.9537 77.7 32.9537C78.5791 32.9537 79.2632 32.6144 79.7525 31.9379C80.243 31.2603 80.4882 30.367 80.4882 29.257ZM82.8658 29.1716C82.8658 30.9581 82.383 32.3703 81.4165 33.4069C80.5528 34.3297 79.4789 34.7906 78.197 34.7906C76.8133 34.7906 75.8194 34.2936 75.2151 33.2985H75.1713V38.8321H72.8375V27.5066C72.8375 26.3835 72.8079 25.2308 72.751 24.0485H74.8046L74.9338 25.7135H74.9776C75.7548 24.459 76.9349 23.8329 78.521 23.8329C79.7591 23.8329 80.7947 24.3222 81.6233 25.3019C82.4509 26.2828 82.8658 27.5723 82.8658 29.1716Z" fill="white"/>
<path fill-rule="evenodd" clip-rule="evenodd" d="M96.3741 30.4688C96.3741 31.7068 95.9439 32.715 95.0802 33.4933C94.1311 34.345 92.8098 34.7686 91.112 34.7686C89.5455 34.7686 88.2877 34.4665 87.3364 33.8612L87.8772 31.9159C88.9018 32.5355 90.026 32.8453 91.251 32.8453C92.13 32.8453 92.8142 32.6472 93.3057 32.2498C93.7961 31.8535 94.0391 31.3226 94.0391 30.6581C94.0391 30.067 93.8388 29.5689 93.4338 29.165C93.032 28.7611 92.361 28.3856 91.425 28.0386C88.8744 27.0873 87.5992 25.6938 87.5992 23.8602C87.5992 22.6637 88.0469 21.6818 88.9401 20.9166C89.8312 20.1515 91.02 19.7694 92.5066 19.7694C93.8322 19.7694 94.9335 19.9993 95.8114 20.4601L95.2279 22.3627C94.4069 21.9161 93.4787 21.6928 92.4398 21.6928C91.6188 21.6928 90.9773 21.8942 90.5176 22.2981C90.1289 22.6583 89.9341 23.0972 89.9341 23.6172C89.9341 24.193 90.1563 24.6692 90.604 25.0425C90.9926 25.3895 91.6987 25.7638 92.7222 26.1678C93.9756 26.6724 94.8963 27.2625 95.4885 27.939C96.0796 28.6166 96.3741 29.4606 96.3741 30.4688Z" fill="white"/>
<path fill-rule="evenodd" clip-rule="evenodd" d="M104.09 25.7999H101.518V30.9C101.518 32.1972 101.971 32.8452 102.88 32.8452C103.297 32.8452 103.644 32.8091 103.917 32.7379L103.981 34.5102C103.521 34.6821 102.917 34.7686 102.166 34.7686C101.244 34.7686 100.524 34.4872 100.004 33.9267C99.4871 33.3641 99.2255 32.4205 99.2255 31.0948V25.7999H97.6929V24.0484H99.2255V22.1251L101.518 21.4332V24.0484H104.09V25.7999Z" fill="white"/>
<path fill-rule="evenodd" clip-rule="evenodd" d="M113.276 29.2898C113.276 28.3221 113.068 27.4913 112.649 26.7973C112.159 25.9587 111.46 25.5406 110.554 25.5406C109.615 25.5406 108.903 25.9587 108.414 26.7973C107.994 27.4913 107.787 28.3353 107.787 29.3336C107.787 30.3024 107.994 31.1333 108.414 31.8262C108.918 32.6636 109.624 33.0829 110.533 33.0829C111.424 33.0829 112.123 32.6571 112.628 31.8043C113.059 31.0971 113.276 30.2575 113.276 29.2898ZM115.697 29.2143C115.697 30.829 115.237 32.1546 114.315 33.1913C113.348 34.2575 112.065 34.7906 110.466 34.7906C108.925 34.7906 107.698 34.2794 106.782 33.2558C105.867 32.2334 105.41 30.9428 105.41 29.3873C105.41 27.7595 105.88 26.4262 106.825 25.3895C107.768 24.3518 109.04 23.8329 110.639 23.8329C112.181 23.8329 113.421 24.3441 114.358 25.3676C115.251 26.3616 115.697 27.6434 115.697 29.2143Z" fill="white"/>
<path fill-rule="evenodd" clip-rule="evenodd" d="M123.283 26.1011C123.052 26.0584 122.807 26.0376 122.548 26.0376C121.727 26.0376 121.092 26.3474 120.645 26.9669C120.255 27.5143 120.062 28.2061 120.062 29.0413V34.553H117.729L117.75 27.3566C117.75 26.1448 117.72 25.0425 117.662 24.0485H119.696L119.781 26.0584H119.845C120.091 25.3676 120.481 24.8115 121.013 24.3955C121.532 24.0201 122.095 23.8329 122.7 23.8329C122.916 23.8329 123.11 23.8482 123.283 23.8756V26.1011Z" fill="white"/>
<path fill-rule="evenodd" clip-rule="evenodd" d="M131.496 28.1984C131.511 27.5065 131.359 26.9099 131.043 26.4042C130.639 25.7562 130.018 25.4321 129.183 25.4321C128.42 25.4321 127.799 25.7485 127.325 26.3834C126.935 26.888 126.704 27.4934 126.634 28.1984H131.496ZM133.721 28.8037C133.721 29.2219 133.694 29.5744 133.636 29.8623H126.634C126.662 30.9 127 31.6937 127.649 32.241C128.239 32.7303 129.003 32.9755 129.939 32.9755C130.976 32.9755 131.922 32.8091 132.772 32.4775L133.138 34.0987C132.144 34.5311 130.97 34.7478 129.616 34.7478C127.987 34.7478 126.709 34.2683 125.778 33.3094C124.851 32.3516 124.385 31.0653 124.385 29.4518C124.385 27.8667 124.816 26.5476 125.683 25.4967C126.59 24.3725 127.814 23.8109 129.356 23.8109C130.87 23.8109 132.016 24.3725 132.794 25.4967C133.412 26.39 133.721 27.4934 133.721 28.8037Z" fill="white"/>
<path fill-rule="evenodd" clip-rule="evenodd" d="M52.4842 11.0548C52.4842 10.2195 52.2631 9.57913 51.8197 9.1325C51.3775 8.68697 50.7316 8.46366 49.8822 8.46366C49.5209 8.46366 49.2122 8.48883 48.9583 8.53809V13.89C49.0995 13.9119 49.3578 13.9217 49.7333 13.9217C50.6112 13.9217 51.2888 13.6776 51.7672 13.1894C52.2445 12.7011 52.4842 11.9896 52.4842 11.0548ZM53.6938 11.023C53.6938 12.3114 53.3085 13.2813 52.5367 13.9327C51.8208 14.5336 50.8061 14.8347 49.4892 14.8347C48.8378 14.8347 48.2785 14.8062 47.811 14.7504V7.70943C48.4208 7.61091 49.0776 7.56165 49.7869 7.56165C51.0392 7.56165 51.985 7.83422 52.6221 8.37937C53.3359 8.99457 53.6938 9.87579 53.6938 11.023Z" fill="white"/>
<path fill-rule="evenodd" clip-rule="evenodd" d="M58.9176 12.1856C58.9176 11.7105 58.8147 11.3022 58.6089 10.9618C58.3692 10.5491 58.0254 10.3433 57.5799 10.3433C57.1191 10.3433 56.7688 10.5491 56.5279 10.9618C56.3232 11.3022 56.2203 11.7171 56.2203 12.2064C56.2203 12.6826 56.3232 13.0909 56.5279 13.4325C56.7764 13.843 57.1223 14.0488 57.569 14.0488C58.0079 14.0488 58.3506 13.8397 58.5991 13.4215C58.8114 13.0734 58.9176 12.6618 58.9176 12.1856ZM60.1075 12.1484C60.1075 12.942 59.8809 13.5923 59.4277 14.1024C58.9526 14.6267 58.3232 14.8884 57.5372 14.8884C56.7797 14.8884 56.1765 14.6377 55.7266 14.1341C55.2778 13.6317 55.0523 12.9979 55.0523 12.2338C55.0523 11.4336 55.2833 10.779 55.7474 10.2688C56.2116 9.75873 56.8355 9.50476 57.6215 9.50476C58.3801 9.50476 58.9877 9.75654 59.4485 10.259C59.8864 10.7472 60.1075 11.3777 60.1075 12.1484Z" fill="white"/>
<path fill-rule="evenodd" clip-rule="evenodd" d="M68.707 9.61072L67.0924 14.771H66.0426L65.3727 12.5302C65.203 11.9708 65.0651 11.4158 64.9578 10.863H64.9381C64.8385 11.4301 64.7005 11.9862 64.5232 12.5302L63.8117 14.771H62.7498L61.2315 9.61072H62.4105L62.9939 12.0628C63.1351 12.6441 63.2523 13.1958 63.3453 13.7201H63.365C63.4504 13.2888 63.5916 12.7393 63.7909 12.0737L64.5232 9.61072H65.457L66.1586 12.0212C66.3283 12.609 66.4662 13.175 66.5724 13.7201H66.6042C66.6819 13.1892 66.799 12.6233 66.9556 12.0212L67.5817 9.61072H68.707Z" fill="white"/>
<path fill-rule="evenodd" clip-rule="evenodd" d="M74.6546 14.7712H73.5074V11.8156C73.5074 10.9048 73.1615 10.4495 72.4674 10.4495C72.127 10.4495 71.8511 10.5754 71.6388 10.826C71.4264 11.0767 71.3202 11.3712 71.3202 11.7105V14.7712H70.173V11.0866C70.173 10.6334 70.1588 10.1419 70.1314 9.61094H71.1396L71.1932 10.4177H71.225C71.3585 10.167 71.5578 9.95905 71.8194 9.79485C72.1303 9.60109 72.4784 9.50476 72.8593 9.50476C73.341 9.50476 73.7416 9.6602 74.0602 9.97219C74.4565 10.3542 74.6546 10.9235 74.6546 11.681V14.7712Z" fill="white"/>
<path fill-rule="evenodd" clip-rule="evenodd" d="M76.6719 14.7711H77.8181V7.24304H76.6719V14.7711Z" fill="white"/>
<path fill-rule="evenodd" clip-rule="evenodd" d="M83.3812 12.1856C83.3812 11.7105 83.2783 11.3022 83.0736 10.9618C82.8339 10.5491 82.4891 10.3433 82.0446 10.3433C81.5827 10.3433 81.2324 10.5491 80.9927 10.9618C80.7879 11.3022 80.6851 11.7171 80.6851 12.2064C80.6851 12.6826 80.7879 13.0909 80.9927 13.4325C81.2411 13.843 81.5871 14.0488 82.0337 14.0488C82.4726 14.0488 82.8142 13.8397 83.0627 13.4215C83.2761 13.0734 83.3812 12.6618 83.3812 12.1856ZM84.5722 12.1484C84.5722 12.942 84.3456 13.5923 83.8924 14.1024C83.4174 14.6267 82.7868 14.8884 82.0019 14.8884C81.2433 14.8884 80.6402 14.6377 80.1914 14.1341C79.7425 13.6317 79.5181 12.9979 79.5181 12.2338C79.5181 11.4336 79.7491 10.779 80.2122 10.2688C80.6763 9.75873 81.3013 9.50476 82.0851 9.50476C82.8448 9.50476 83.4513 9.75654 83.9132 10.259C84.3522 10.7472 84.5722 11.3777 84.5722 12.1484Z" fill="white"/>
<path fill-rule="evenodd" clip-rule="evenodd" d="M88.9337 12.9979V12.202C87.6683 12.1801 87.0356 12.5272 87.0356 13.242C87.0356 13.5113 87.1078 13.7127 87.2556 13.8473C87.4034 13.982 87.5917 14.0488 87.8161 14.0488C88.0679 14.0488 88.3032 13.9699 88.5167 13.8101C88.7334 13.6514 88.8659 13.4478 88.9151 13.2004C88.9272 13.1435 88.9337 13.0756 88.9337 12.9979ZM90.1248 14.7712H89.0947L89.0082 14.1768H88.9764C88.624 14.6508 88.1215 14.8884 87.4691 14.8884C86.9819 14.8884 86.589 14.7329 86.2912 14.4209C86.0219 14.1374 85.8873 13.7871 85.8873 13.3701C85.8873 12.7395 86.15 12.259 86.6787 11.9251C87.2064 11.5934 87.9485 11.4303 88.9042 11.4369V11.3416C88.9042 10.6618 88.5473 10.3225 87.8325 10.3225C87.3235 10.3225 86.8747 10.4495 86.4882 10.7045L86.2551 9.95029C86.7335 9.65364 87.3257 9.50476 88.0252 9.50476C89.3738 9.50476 90.0503 10.2163 90.0503 11.6394V13.5397C90.0503 14.0564 90.0755 14.4669 90.1248 14.7712Z" fill="white"/>
<path fill-rule="evenodd" clip-rule="evenodd" d="M95.4546 12.5949V11.7345C95.4546 11.5856 95.4436 11.4652 95.4228 11.3732C95.3582 11.0974 95.2192 10.8653 95.0079 10.6781C94.7945 10.4898 94.5372 10.3968 94.2406 10.3968C93.8126 10.3968 93.4776 10.5665 93.2313 10.9058C92.9872 11.2463 92.8635 11.6809 92.8635 12.2118C92.8635 12.7219 92.9806 13.1357 93.216 13.4542C93.4644 13.7936 93.7994 13.9643 94.2187 13.9643C94.5952 13.9643 94.8963 13.822 95.1251 13.5396C95.3462 13.278 95.4546 12.9627 95.4546 12.5949ZM96.6434 14.7711H95.6253L95.5728 13.9425H95.5399C95.2148 14.573 94.662 14.8882 93.8837 14.8882C93.2608 14.8882 92.7442 14.6441 92.3336 14.1559C91.9231 13.6666 91.7173 13.0339 91.7173 12.2545C91.7173 11.4192 91.9396 10.7427 92.3862 10.2271C92.8186 9.74547 93.3484 9.50464 93.98 9.50464C94.6719 9.50464 95.1579 9.73781 95.4338 10.2052H95.4546V7.24304H96.6029V13.3809C96.6029 13.8833 96.616 14.3464 96.6434 14.7711Z" fill="white"/>
<path fill-rule="evenodd" clip-rule="evenodd" d="M105.266 12.1856C105.266 11.7105 105.163 11.3022 104.959 10.9618C104.717 10.5491 104.375 10.3433 103.927 10.3433C103.469 10.3433 103.117 10.5491 102.875 10.9618C102.671 11.3022 102.568 11.7171 102.568 12.2064C102.568 12.6826 102.671 13.0909 102.875 13.4325C103.124 13.843 103.47 14.0488 103.918 14.0488C104.355 14.0488 104.7 13.8397 104.948 13.4215C105.159 13.0734 105.266 12.6618 105.266 12.1856ZM106.455 12.1484C106.455 12.942 106.228 13.5923 105.775 14.1024C105.3 14.6267 104.672 14.8884 103.885 14.8884C103.128 14.8884 102.525 14.6377 102.074 14.1341C101.625 13.6317 101.401 12.9979 101.401 12.2338C101.401 11.4336 101.632 10.779 102.096 10.2688C102.559 9.75873 103.184 9.50476 103.971 9.50476C104.728 9.50476 105.337 9.75654 105.796 10.259C106.235 10.7472 106.455 11.3777 106.455 12.1484Z" fill="white"/>
<path fill-rule="evenodd" clip-rule="evenodd" d="M112.623 14.7712H111.477V11.8156C111.477 10.9048 111.131 10.4495 110.436 10.4495C110.096 10.4495 109.82 10.5754 109.608 10.826C109.397 11.0767 109.29 11.3712 109.29 11.7105V14.7712H108.142V11.0866C108.142 10.6334 108.129 10.1419 108.101 9.61094H109.108L109.162 10.4177H109.194C109.328 10.167 109.527 9.95905 109.788 9.79485C110.1 9.60109 110.447 9.50476 110.829 9.50476C111.311 9.50476 111.71 9.6602 112.029 9.97219C112.426 10.3542 112.623 10.9235 112.623 11.681V14.7712Z" fill="white"/>
<path fill-rule="evenodd" clip-rule="evenodd" d="M120.344 10.47H119.08V12.9768C119.08 13.6139 119.304 13.9325 119.75 13.9325C119.954 13.9325 120.125 13.915 120.26 13.8788L120.291 14.7502C120.064 14.8345 119.766 14.8772 119.398 14.8772C118.945 14.8772 118.593 14.7393 118.339 14.4634C118.081 14.1864 117.956 13.7234 117.956 13.0721V10.47H117.2V9.61071H117.956V8.66491L119.08 8.32556V9.61071H120.344V10.47Z" fill="white"/>
<path fill-rule="evenodd" clip-rule="evenodd" d="M126.418 14.7711H125.27V11.8374C125.27 10.9124 124.923 10.4493 124.23 10.4493C123.698 10.4493 123.335 10.7175 123.136 11.255C123.102 11.3678 123.083 11.5057 123.083 11.6677V14.7711H121.937V7.24304H123.083V10.353H123.104C123.465 9.78707 123.983 9.50464 124.654 9.50464C125.129 9.50464 125.522 9.66008 125.834 9.97207C126.224 10.3607 126.418 10.9387 126.418 11.7027V14.7711Z" fill="white"/>
<path fill-rule="evenodd" clip-rule="evenodd" d="M131.588 11.6491C131.596 11.3097 131.521 11.0152 131.365 10.7679C131.166 10.4493 130.863 10.2906 130.452 10.2906C130.078 10.2906 129.773 10.446 129.539 10.758C129.349 11.0054 129.236 11.3031 129.199 11.6491H131.588ZM132.682 11.9468C132.682 12.1526 132.667 12.3256 132.64 12.4668H129.199C129.214 12.9769 129.379 13.3655 129.697 13.6348C129.988 13.8756 130.365 13.996 130.825 13.996C131.334 13.996 131.797 13.915 132.216 13.7519L132.395 14.5478C131.906 14.7601 131.331 14.8674 130.664 14.8674C129.865 14.8674 129.236 14.6321 128.781 14.1602C128.323 13.6895 128.097 13.0579 128.097 12.2654C128.097 11.4871 128.308 10.839 128.734 10.3223C129.178 9.76951 129.779 9.49365 130.538 9.49365C131.28 9.49365 131.844 9.76951 132.225 10.3223C132.53 10.7613 132.682 11.3031 132.682 11.9468Z" fill="white"/>
</g>
<defs>
<clipPath id="clip0_2_503">
<rect width="148" height="44" fill="white" transform="translate(0 0.0664062)"/>
</clipPath>
</defs>
</svg>
