<svg width="18" height="16" viewBox="0 0 18 16" fill="none" xmlns="http://www.w3.org/2000/svg">
<g clip-path="url(#clip0_2_999)">
<path d="M15.8186 5.39326L11.7844 1.35901C11.4678 1.04259 11.0385 0.864885 10.5909 0.86499C10.1433 0.865096 9.71411 1.043 9.39769 1.35957C9.08127 1.67614 8.90357 2.10544 8.90367 2.55303C8.90378 3.00062 9.08169 3.42984 9.39825 3.74626L12.1421 6.49013H2.25C1.80245 6.49013 1.37323 6.66792 1.05676 6.98439C0.74029 7.30086 0.5625 7.73008 0.5625 8.17763C0.5625 8.62518 0.74029 9.05441 1.05676 9.37087C1.37323 9.68734 1.80245 9.86513 2.25 9.86513H12.1421L9.39825 12.609C9.08169 12.9254 8.90378 13.3546 8.90367 13.8022C8.90357 14.2498 9.08127 14.6791 9.39769 14.9957C9.71411 15.3123 10.1433 15.4902 10.5909 15.4903C11.0385 15.4904 11.4678 15.3127 11.7844 14.9963L15.8186 10.962C16.5558 10.2228 16.9697 9.22153 16.9697 8.17763C16.9697 7.13373 16.5558 6.13242 15.8186 5.39326Z" fill="white"/>
</g>
<defs>
<clipPath id="clip0_2_999">
<rect width="18" height="15" fill="white" transform="translate(0 0.677734)"/>
</clipPath>
</defs>
</svg>
