<svg width="20" height="20" viewBox="0 0 20 20" fill="none" xmlns="http://www.w3.org/2000/svg">
<g clip-path="url(#clip0_2_774)">
<path d="M14.2469 1.29773C13.3357 1.3119 12.4444 1.56627 11.6629 2.03515C10.8815 2.50402 10.2376 3.1708 9.79626 3.96814C9.35494 3.1708 8.71104 2.50402 7.92959 2.03515C7.14813 1.56627 6.25678 1.3119 5.34557 1.29773C3.89297 1.36084 2.5244 1.99629 1.53884 3.06525C0.553272 4.1342 0.030834 5.54978 0.0856588 7.00271C0.0856588 12.4851 8.95143 18.8173 9.32853 19.0859L9.79626 19.4169L10.264 19.0859C10.6411 18.8189 19.5069 12.4851 19.5069 7.00271C19.5617 5.54978 19.0392 4.1342 18.0537 3.06525C17.0681 1.99629 15.6995 1.36084 14.2469 1.29773ZM9.79626 17.4246C7.16387 15.4582 1.70409 10.6272 1.70409 7.00271C1.64877 5.97882 2.00056 4.97459 2.68273 4.20905C3.3649 3.4435 4.3221 2.97876 5.34557 2.91616C6.36904 2.97876 7.32624 3.4435 8.0084 4.20905C8.69057 4.97459 9.04236 5.97882 8.98704 7.00271H10.6055C10.5502 5.97882 10.9019 4.97459 11.5841 4.20905C12.2663 3.4435 13.2235 2.97876 14.2469 2.91616C15.2704 2.97876 16.2276 3.4435 16.9098 4.20905C17.5919 4.97459 17.9437 5.97882 17.8884 7.00271C17.8884 10.6288 12.4286 15.4582 9.79626 17.4246Z" fill="#006D77"/>
</g>
<defs>
<clipPath id="clip0_2_774">
<rect width="19.4212" height="19.4212" fill="white" transform="translate(0.0853119 0.555664)"/>
</clipPath>
</defs>
</svg>
