<svg width="268" height="70" viewBox="0 0 268 70" fill="none" xmlns="http://www.w3.org/2000/svg">
<g clip-path="url(#clip0_2_487)">
<path d="M21.1969 36.0578C21.1263 36.0578 21.0558 36.0578 20.9853 35.9873C21.0558 35.9873 21.1263 36.0578 21.1969 36.0578Z" fill="#DDE1E2"/>
<path d="M46.3042 24.6326C43.8358 20.3305 40.0274 16.9452 35.4432 14.8999C33.8211 14.1947 32.1284 13.6305 30.4358 13.2778C30.5768 13.3484 30.7179 13.4894 30.9295 13.6305C31.0705 13.701 31.2116 13.842 31.3526 13.9126C31.5642 14.0536 31.7758 14.1947 31.9874 14.4063C31.9874 14.4063 31.9874 14.4063 32.0579 14.4063C32.1989 14.4768 32.2695 14.6178 32.4105 14.6884L32.4811 14.7589C32.6221 14.8999 32.7632 14.9705 32.9042 15.1115C33.3274 15.4641 33.8211 15.8873 34.2442 16.3105C34.6674 16.7336 35.0905 17.1568 35.4432 17.6505C35.5842 17.7915 35.6547 17.9326 35.7958 18.0736C35.7958 18.0736 35.7958 18.1441 35.8663 18.1441C35.9368 18.2852 36.0779 18.3557 36.1484 18.4968C36.2189 18.5673 36.2189 18.6378 36.2895 18.6378C36.36 18.7789 36.5011 18.9199 36.5716 19.061C36.6421 19.202 36.7832 19.3431 36.8537 19.4841C36.8537 19.5547 36.9242 19.5547 36.9242 19.6252C36.9947 19.7663 37.1358 19.9073 37.2063 20.0484L37.2768 20.3305C37.2768 20.2599 37.2768 20.1189 37.2063 20.0484C37.3474 20.2599 37.4179 20.401 37.5589 20.6126C37.7 20.8241 37.7705 20.9652 37.9116 21.1768C37.9821 21.3178 38.1232 21.4589 38.1937 21.6705C38.1937 21.6705 38.1937 21.6705 38.1937 21.741C38.2642 21.882 38.3347 21.9526 38.3347 22.0936C38.4053 22.2347 38.4758 22.4463 38.6168 22.5873C38.6874 22.7989 38.8284 22.9399 38.8989 23.1515C38.8989 23.222 38.9695 23.222 38.9695 23.2926C39.04 23.4336 39.1105 23.5747 39.1811 23.7157C39.3221 24.0684 39.5337 24.4915 39.6747 24.8441C41.4379 29.4989 41.72 34.6473 40.4505 39.4431C39.6042 42.7578 37.9821 45.861 35.7253 48.6115C36.4305 48.682 37.1358 48.682 37.9116 48.682C41.3674 48.682 44.6821 47.9063 47.6442 46.5663C48.9842 43.6041 49.76 40.2894 49.76 36.8336C49.76 36.1284 49.76 35.3526 49.6895 34.6473C49.1253 30.9094 47.9968 27.5947 46.3042 24.6326Z" fill="#DDE1E2"/>
<path d="M5.11685 24.6325C7.58527 28.9346 11.3937 32.3199 15.9779 34.3651C16.1895 34.4357 16.4011 34.5767 16.6126 34.6472C16.7537 34.7178 16.8947 34.7883 17.0358 34.7883C17.2474 34.8588 17.3884 34.9294 17.6 34.9999C17.6705 34.9999 17.8116 35.0704 17.8821 35.0704C18.0232 35.1409 18.1642 35.1409 18.3053 35.2115H18.3758C18.5168 35.282 18.7284 35.3525 18.94 35.3525C19.0105 35.3525 19.0105 35.3525 19.0811 35.423C19.2926 35.4936 19.4337 35.5641 19.6453 35.5641C19.7863 35.5641 19.8568 35.6346 19.9979 35.6346C20.139 35.6346 20.2095 35.7051 20.3505 35.7051C20.5621 35.7757 20.7737 35.7757 20.9853 35.8462C19.7158 34.9999 18.4463 34.0125 17.3179 32.8841C16.1895 31.7557 15.2021 30.4862 14.2853 29.2167C13.2979 27.7357 12.4516 26.1136 11.8874 24.4915C10.1242 19.8367 9.84211 14.6883 11.1116 9.89251C11.9579 6.57777 13.58 3.47462 15.8368 0.724091C15.1316 0.653564 14.4263 0.653564 13.6505 0.653564C10.2653 0.794617 6.95053 1.57041 3.98842 2.91041C2.64842 5.87251 1.87263 9.18725 1.87263 12.643C1.87263 13.3483 1.87263 14.1241 1.94316 14.8294C2.29579 18.3557 3.42421 21.6704 5.11685 24.6325Z" fill="#DDE1E2"/>
<path d="M17.3179 16.2402C18.4463 15.1117 19.7158 14.1244 20.9853 13.2075C22.4663 12.2202 24.0884 11.3738 25.7105 10.8096C30.3653 9.04647 35.5137 8.76437 40.3095 10.0338C43.6242 10.8802 46.7274 12.5023 49.4779 14.7591C49.5484 14.0538 49.5484 13.3486 49.5484 12.5728C49.5484 9.117 48.7726 5.80226 47.4326 2.84015C44.4705 1.50015 41.1558 0.724365 37.7 0.724365C36.9947 0.724365 36.2895 0.724365 35.5137 0.794892C31.9169 1.077 28.6021 2.20542 25.7105 3.89805C21.4084 6.50752 17.9526 10.3159 15.9074 14.9002C15.2021 16.5223 14.6379 18.2149 14.2853 19.9781C15.2021 18.6381 16.1895 17.3686 17.3179 16.2402Z" fill="#C3C9CB"/>
<path d="M36.0074 33.0958C36.0779 32.9548 36.1484 32.7432 36.2189 32.6021C36.2189 32.6021 36.2189 32.6021 36.2189 32.5316V32.4611C36.2895 32.32 36.36 32.179 36.36 32.0379C36.4305 31.8263 36.5011 31.6853 36.5011 31.4737C36.5011 31.4032 36.5716 31.2621 36.5716 31.1916V31.1211C36.6421 30.98 36.6421 30.839 36.7126 30.6979C36.7832 30.4863 36.7832 30.2748 36.8537 30.0632V29.9926C36.9242 29.7811 36.9242 29.5695 36.9947 29.3579C36.9947 29.3579 36.9947 29.3579 36.9947 29.4284C36.9242 29.5695 36.7832 29.7105 36.7126 29.8516C36.5716 29.9926 36.5011 30.1337 36.36 30.3453C36.2895 30.4863 36.1484 30.6274 36.0779 30.6979C35.9368 30.839 35.8663 30.98 35.7253 31.1211C35.6547 31.1916 35.5842 31.3326 35.5137 31.4032C35.4432 31.4737 35.3726 31.5442 35.3021 31.6148C34.9495 32.0379 34.5263 32.5316 34.1032 32.9548C33.68 33.3779 33.2568 33.8011 32.7632 34.1537C32.6926 34.2242 32.6221 34.2948 32.5516 34.2948C32.4811 34.3653 32.4105 34.4358 32.34 34.4358C32.34 34.4358 32.2695 34.4358 32.2695 34.5063C32.1284 34.5769 32.0579 34.7179 31.9168 34.7884C31.9168 34.7884 31.9168 34.7884 31.8463 34.7884C31.7758 34.859 31.6347 34.9295 31.5642 35C31.4937 35.0705 31.3526 35.1411 31.2821 35.2116C31.1411 35.2821 31 35.4232 30.8589 35.4937C30.7179 35.5642 30.5768 35.7053 30.4358 35.7758C30.4358 35.7758 30.4358 35.7758 30.3653 35.7758C30.2242 35.8463 30.0832 35.9874 29.8716 36.0579C29.8011 36.1284 29.7305 36.1284 29.66 36.199C29.66 36.199 29.5895 36.199 29.5895 36.2695C29.5189 36.34 29.3779 36.4105 29.3074 36.4811C29.2368 36.4811 29.2368 36.5516 29.1663 36.5516C28.9547 36.6221 28.8137 36.7632 28.6021 36.8337C28.4611 36.9042 28.32 36.9748 28.1084 37.1158H28.0379C27.8968 37.1863 27.8263 37.2569 27.6853 37.2569C27.6853 37.2569 27.6853 37.2569 27.6147 37.2569C27.4737 37.3274 27.3326 37.3979 27.2621 37.4684C27.1211 37.539 26.9095 37.6095 26.7684 37.68C26.6274 37.7505 26.4863 37.8211 26.3453 37.8916C26.2042 37.9621 26.0632 37.9621 25.9926 38.0326C25.8516 38.1032 25.7105 38.1737 25.5695 38.1737C20.9147 39.9369 15.7663 40.219 10.9705 38.9495C7.86737 38.3148 4.69369 36.7632 1.94316 34.4358C1.87263 35.1411 1.87263 35.8463 1.87263 36.6221C1.87263 40.0779 2.64842 43.3926 3.98842 46.3548C6.95053 47.6948 10.2653 48.4705 13.7211 48.4705C14.4263 48.4705 15.2021 48.4705 15.9074 48.4C19.4337 48.0474 22.8189 46.9895 25.7105 45.2969C30.0126 42.8284 33.3979 39.02 35.4432 34.4358C35.5137 34.2242 35.6547 34.0126 35.7253 33.8011C35.8663 33.519 35.9368 33.3074 36.0074 33.0958Z" fill="#C3C9CB"/>
</g>
<path d="M87.3222 22.2096C87.3222 20.5468 88.5168 19.7153 90.9062 19.7153C91.4551 19.7153 91.9878 19.9252 92.5044 20.345C93.0211 20.7647 93.2794 21.3459 93.2794 22.0885C93.2794 22.8312 93.0453 23.8159 92.5771 25.0429C92.1089 26.2699 91.8183 27.4322 91.7053 28.53C91.5923 29.6278 91.3421 33.4379 90.9546 39.9601C90.5671 46.4823 90.3169 49.9856 90.2039 50.4699C89.9779 51.4386 89.5016 51.9229 88.7751 51.9229C87.3383 51.9229 85.8853 50.9785 84.4162 49.0896C84.0772 48.6537 81.8574 45.0778 77.7568 38.3618C73.6723 31.6297 71.2749 28.2637 70.5646 28.2637L70.2497 28.4574C70.1206 28.6511 70.0076 29.1354 69.9107 29.9104C69.3941 34.3339 69.1358 39.1206 69.1358 44.2706C69.1358 44.8195 69.1681 45.4168 69.2327 46.0626L69.3295 46.8859C69.4264 47.6931 69.4748 48.1936 69.4748 48.3873C69.4748 49.5013 69.0954 50.3973 68.3367 51.0753C67.594 51.7534 66.7222 52.0924 65.7213 52.0924H64.898C63.8809 52.0924 63.3723 51.713 63.3723 50.9542C63.3723 50.1793 63.5903 49.3156 64.0262 48.3631C64.4621 47.4106 64.7527 46.3289 64.898 45.1181C65.5922 39.2901 65.9393 33.0342 65.9393 26.3506C65.9393 25.2043 65.8585 24.2518 65.6971 23.4931L65.4791 22.6697L65.237 21.919C65.1078 21.467 65.0433 21.023 65.0433 20.5871C65.0433 19.9898 65.6164 19.6911 66.7626 19.6911C68.9582 19.6911 70.9197 20.6598 72.6471 22.5971C74.3907 24.5182 77.0141 28.3202 80.5174 34.0029C84.0207 39.6856 85.9096 42.527 86.184 42.527L86.523 42.4301C86.6199 42.2848 86.7168 41.7682 86.8136 40.8803C87.411 35.2783 87.7096 30.3624 87.7096 26.1326C87.7096 25.7613 87.6693 25.1963 87.5885 24.4375L87.4917 23.6626C87.3787 22.8715 87.3222 22.3872 87.3222 22.2096ZM102.402 38.0712V38.4587C102.402 38.943 102.846 39.1852 103.734 39.1852H104.315L104.46 39.161L105.647 39.0641C106.89 38.8865 107.697 38.7977 108.069 38.7977C109.828 38.7977 111.152 38.4668 112.04 37.8048C112.46 37.482 112.67 36.9088 112.67 36.0855V35.8191C112.67 34.6083 112.266 33.6477 111.459 32.9374C110.668 32.227 109.715 31.8719 108.601 31.8719H108.432L108.287 31.8961C106.721 31.8961 105.348 32.558 104.17 33.8818C102.991 35.2056 102.402 36.6021 102.402 38.0712ZM107.681 53.1095H107.148C104.065 53.1095 101.611 52.1328 99.7867 50.1793C97.9625 48.2097 97.0503 45.5863 97.0503 42.3091V41.2435C97.0503 39.6776 97.357 38.0874 97.9705 36.473C99.2136 33.2441 101.24 31.0162 104.049 29.7893C105.534 29.1274 107.044 28.7964 108.577 28.7964H109.619C111.733 28.7964 113.517 29.5068 114.97 30.9274C116.439 32.332 117.174 34.1482 117.174 36.3761V36.8604C117.174 38.4425 116.544 39.5646 115.285 40.2265C114.413 40.6946 112.379 41.1628 109.183 41.631C105.986 42.0992 104.243 42.3817 103.952 42.4786C102.983 42.8176 102.499 43.4634 102.499 44.4159C102.499 45.7397 103.064 46.8698 104.194 47.8061C105.324 48.7425 106.842 49.2107 108.747 49.2107C109.635 49.2107 110.845 48.9685 112.379 48.4842C113.913 47.9999 114.801 47.7577 115.043 47.7577C115.866 47.7577 116.278 48.1129 116.278 48.8232C116.278 49.7757 115.35 50.7282 113.493 51.6807C111.637 52.6332 109.699 53.1095 107.681 53.1095ZM124.117 39.282C123.132 38.2811 122.64 36.8766 122.64 35.0684C122.64 33.2603 123.447 31.7104 125.062 30.4189C126.676 29.1112 128.678 28.4574 131.067 28.4574H131.697C133.812 28.4574 135.491 28.7561 136.734 29.3534C137.993 29.9507 138.623 30.8467 138.623 32.0414C138.623 33.2199 138.098 33.8092 137.049 33.8092C136.774 33.8092 135.999 33.4863 134.724 32.8405C133.449 32.1786 132.246 31.8477 131.116 31.8477C129.986 31.8477 129.074 32.106 128.379 32.6226C127.701 33.123 127.362 33.8172 127.362 34.7052C127.362 35.5931 127.838 36.368 128.791 37.0299C129.34 37.4174 130.631 38.0309 132.666 38.8704C134.716 39.7099 136.177 40.5171 137.049 41.292C138.453 42.5351 139.156 44.1253 139.156 46.0626C139.156 47.9999 138.332 49.6627 136.685 51.0511C135.039 52.4234 132.9 53.1095 130.268 53.1095H129.639C126.991 53.1095 125.005 52.7301 123.681 51.9713C122.358 51.1964 121.696 50.1955 121.696 48.9685C121.696 47.7254 122.212 47.1039 123.245 47.1039C123.585 47.1039 124.464 47.5398 125.885 48.4115C127.322 49.2833 128.726 49.7192 130.099 49.7192C131.487 49.7192 132.528 49.4286 133.223 48.8474C133.917 48.2501 134.264 47.5075 134.264 46.6195C134.264 45.7155 133.828 44.9244 132.956 44.2464C132.488 43.875 131.148 43.2051 128.936 42.2364C126.725 41.2516 125.118 40.2668 124.117 39.282ZM156.972 50.2035C156.972 50.8493 156.576 51.4305 155.785 51.9471C155.01 52.4476 153.953 52.6978 152.613 52.6978C150.111 52.6978 148.351 51.7695 147.334 49.9129C146.704 48.7506 146.389 46.0303 146.389 41.7521C146.389 37.4739 146.317 34.9877 146.171 34.2935C146.026 33.5993 145.623 32.9212 144.961 32.2593C144.299 31.5974 143.968 31.0889 143.968 30.7337C143.968 30.6046 144.751 29.757 146.317 28.191C146.656 27.852 146.995 27.1013 147.334 25.9389C147.689 24.7765 147.939 24.0097 148.085 23.6384C148.569 22.476 149.207 21.8948 149.998 21.8948H150.385C151.079 21.8948 151.572 22.1612 151.862 22.6939C151.975 22.9038 152.145 23.6626 152.371 24.9702C152.613 26.2618 152.887 27.0932 153.194 27.4645C153.501 27.8358 154.268 28.2475 155.495 28.6995C156.738 29.1354 157.359 29.6036 157.359 30.1041V30.3705C157.359 31.0162 156.649 31.5651 155.228 32.0172C153.824 32.4531 152.92 33.1553 152.516 34.124C151.725 36.0774 151.329 39.2578 151.329 43.6652C151.329 45.7316 151.685 47.1362 152.395 47.8788C152.831 48.3308 153.703 48.6456 155.01 48.8232C156.318 49.0008 156.972 49.4609 156.972 50.2035ZM165.683 25.5757L165.271 21.241C165.271 20.9019 165.489 20.5629 165.925 20.2239C166.361 19.8687 167.007 19.6911 167.862 19.6911C169.816 19.6911 171.39 20.5871 172.585 22.3791C173.795 24.1711 175.668 28.2394 178.203 34.5841C179.301 37.264 179.946 38.7816 180.14 39.1367L180.673 39.839C181.028 39.839 182.61 37.2075 185.419 31.9445C188.228 26.6654 189.98 23.5415 190.674 22.5728C192.062 20.6355 193.83 19.6669 195.977 19.6669C197.495 19.6669 198.254 20.2239 198.254 21.3378L198.108 22.137L197.89 23.1056C197.713 24.0904 197.592 26.286 197.527 29.6924C197.463 33.0827 197.366 36.4891 197.237 39.9117L197.116 43.7378C197.116 45.3684 197.204 46.5146 197.382 47.1765L197.721 48.1209C198.044 48.9927 198.205 49.6466 198.205 50.0825C198.205 50.5022 197.971 50.8977 197.503 51.2691C197.035 51.6404 196.51 51.826 195.929 51.826H195.009C194.185 51.826 193.443 51.4951 192.781 50.8332C192.119 50.1713 191.788 49.4771 191.788 48.7506C191.788 48.0079 191.861 46.9021 192.006 45.4329C192.167 43.9638 192.248 40.8238 192.248 36.0128C192.248 31.1857 192.103 28.7722 191.812 28.7722C191.376 28.7722 189.867 31.5167 187.284 37.0057C184.717 42.4947 183.078 45.772 182.368 46.8375C181.658 47.903 180.866 48.4358 179.995 48.4358C179.139 48.4358 178.396 47.8304 177.767 46.6195C177.525 46.1514 176.378 43.084 174.328 37.4174C172.294 31.7346 171.035 28.8933 170.55 28.8933C170.341 28.8933 170.139 29.1758 169.945 29.7408C169.767 30.2897 169.436 32.8405 168.952 37.3932C168.484 41.9458 168.25 45.0132 168.25 46.5953C168.25 48.1613 167.992 49.3398 167.475 50.1309C166.958 50.9058 166.062 51.2933 164.787 51.2933C163.512 51.2933 162.874 50.6798 162.874 49.4528C162.874 49.2914 163.108 48.5972 163.576 47.3702C164.044 46.1433 164.359 44.7791 164.521 43.2777C165.295 36.1581 165.683 30.2575 165.683 25.5757ZM212.438 49.7434H213.067C214.391 49.7434 215.553 49.2995 216.554 48.4115C217.571 47.5075 218.08 46.4662 218.08 45.2877L218.128 44.9728V44.658L218.177 43.9073V42.527C218.177 41.5906 217.701 41.1225 216.748 41.1225H215.658L215.489 41.1467L214.544 41.2193C214.092 41.2839 213.77 41.3162 213.576 41.3162C212.268 41.3162 211.057 41.8086 209.943 42.7934C209.168 43.4876 208.781 44.4724 208.781 45.7478V46.2321C208.781 47.3137 209.128 48.1694 209.822 48.799C210.533 49.4286 211.404 49.7434 212.438 49.7434ZM207.037 34.2693C205.956 34.2693 205.415 33.5751 205.415 32.1867C205.415 31.1535 206.287 30.2575 208.03 29.4987C209.79 28.7238 211.614 28.3363 213.503 28.3363H214.714C216.345 28.3363 217.781 28.643 219.024 29.2565C220.268 29.8539 221.212 30.6691 221.858 31.7024C222.52 32.7356 222.923 34.0836 223.069 35.7465C223.101 36.1339 223.117 38.0147 223.117 41.3888C223.117 44.763 223.157 46.7083 223.238 47.2249C223.335 47.7254 223.593 48.3389 224.013 49.0654C224.449 49.7919 224.667 50.3892 224.667 50.8574C224.667 51.3256 224.441 51.7292 223.989 52.0682C223.553 52.3911 222.915 52.5525 222.076 52.5525C221.236 52.5525 220.324 52.3507 219.339 51.9471C218.354 51.5274 217.636 51.3175 217.184 51.3175C217.136 51.3175 216.328 51.6081 214.762 52.1893C213.196 52.7543 211.873 53.0368 210.791 53.0368H210.258C208.45 53.0368 206.908 52.4637 205.633 51.3175C204.374 50.1713 203.744 48.5407 203.744 46.4258C203.744 44.3109 204.438 42.6642 205.827 41.4857C207.215 40.291 208.902 39.4758 210.888 39.0399C211.485 38.9107 212.478 38.7412 213.866 38.5313C215.255 38.3215 216.199 38.1035 216.7 37.8775C217.571 37.4739 218.007 36.7151 218.007 35.6012C218.007 34.4711 217.636 33.5912 216.893 32.9616C216.151 32.3158 215.263 31.993 214.23 31.993C213.213 31.993 211.873 32.3723 210.21 33.1311C208.547 33.8899 207.489 34.2693 207.037 34.2693ZM231.828 40.2022V38.3376C231.828 36.0936 231.707 34.4549 231.465 33.4217C231.223 32.3723 231.102 31.6378 231.102 31.218C231.102 30.2332 231.82 29.7408 233.257 29.7408C234.694 29.7408 235.735 30.0072 236.381 30.54C236.558 30.6853 236.784 30.9678 237.059 31.3875C237.349 31.8073 237.608 32.0172 237.834 32.0172C237.882 32.0172 238.584 31.6055 239.94 30.7821C241.297 29.9588 242.459 29.5471 243.428 29.5471H243.791C244.582 29.5471 245.212 29.7408 245.68 30.1283C246.148 30.4996 246.382 30.9597 246.382 31.5086V31.8234C246.382 32.4853 246.148 32.9616 245.68 33.2522C245.228 33.5428 244.501 33.6881 243.5 33.6881C241.224 33.6881 239.561 34.4872 238.512 36.0855C237.479 37.6838 236.962 40.509 236.962 44.5612C236.962 45.1424 237.059 46.0384 237.252 47.2492C237.462 48.46 237.567 49.3721 237.567 49.9856C237.567 50.5991 237.236 51.1883 236.574 51.7534C235.913 52.3184 235.073 52.6009 234.056 52.6009H233.233C232.345 52.6009 231.659 52.3911 231.174 51.9713C230.706 51.5354 230.472 51.0108 230.472 50.3973C230.472 49.7677 230.585 49.13 230.811 48.4842C231.424 46.7406 231.731 44.8195 231.731 42.7207C231.796 41.5584 231.828 40.7189 231.828 40.2022ZM263.012 50.2035C263.012 50.8493 262.616 51.4305 261.825 51.9471C261.05 52.4476 259.993 52.6978 258.653 52.6978C256.15 52.6978 254.391 51.7695 253.374 49.9129C252.744 48.7506 252.429 46.0303 252.429 41.7521C252.429 37.4739 252.357 34.9877 252.211 34.2935C252.066 33.5993 251.662 32.9212 251.001 32.2593C250.339 31.5974 250.008 31.0889 250.008 30.7337C250.008 30.6046 250.791 29.757 252.357 28.191C252.696 27.852 253.035 27.1013 253.374 25.9389C253.729 24.7765 253.979 24.0097 254.124 23.6384C254.609 22.476 255.246 21.8948 256.037 21.8948H256.425C257.119 21.8948 257.612 22.1612 257.902 22.6939C258.015 22.9038 258.185 23.6626 258.411 24.9702C258.653 26.2618 258.927 27.0932 259.234 27.4645C259.541 27.8358 260.308 28.2475 261.535 28.6995C262.778 29.1354 263.399 29.6036 263.399 30.1041V30.3705C263.399 31.0162 262.689 31.5651 261.268 32.0172C259.864 32.4531 258.96 33.1553 258.556 34.124C257.765 36.0774 257.369 39.2578 257.369 43.6652C257.369 45.7316 257.725 47.1362 258.435 47.8788C258.871 48.3308 259.743 48.6456 261.05 48.8232C262.358 49.0008 263.012 49.4609 263.012 50.2035Z" fill="#C3C9CB"/>
<defs>
<clipPath id="clip0_2_487">
<rect width="47.6758" height="47.6758" fill="white" transform="translate(1.87263 0.794678)"/>
</clipPath>
</defs>
</svg>
