<svg width="27" height="27" viewBox="0 0 27 27" fill="none" xmlns="http://www.w3.org/2000/svg">
<path d="M18.4582 23.9448C17.9423 24.1635 17.3607 24.1683 16.8413 23.9581C16.3219 23.748 15.9072 23.3401 15.6885 22.8242C15.4698 22.3083 15.465 21.7267 15.6752 21.2073C15.8853 20.6879 16.2932 20.2732 16.8091 20.0545C17.0645 19.9462 17.3388 19.8893 17.6162 19.887C17.8936 19.8847 18.1688 19.9371 18.426 20.0412C18.6832 20.1452 18.9174 20.2989 19.1152 20.4935C19.313 20.688 19.4705 20.9196 19.5788 21.1751C19.6871 21.4305 19.744 21.7048 19.7463 21.9822C19.7485 22.2596 19.6962 22.5348 19.5921 22.792C19.4881 23.0492 19.3344 23.2834 19.1398 23.4812C18.9453 23.679 18.7136 23.8365 18.4582 23.9448V23.9448ZM8.77483 7.19972C9.94825 7.19972 10.8891 6.25887 10.8891 5.08545C10.8891 4.52471 10.6664 3.98694 10.2698 3.59043C9.87334 3.19393 9.33557 2.97118 8.77483 2.97118C7.59083 2.97118 6.66055 3.9226 6.66055 5.08545C6.66055 6.25887 7.59083 7.19972 8.77483 7.19972V7.19972ZM24.0293 18.1305L19.9593 19.8854C20.1919 20.1179 20.4033 20.4139 20.5513 20.7522C20.6993 21.1011 20.7628 21.4711 20.805 21.8094L24.8539 20.0757L24.0293 18.1305V18.1305ZM11.46 10.1386L12.2422 12.052C11.9885 11.9568 11.756 11.83 11.5657 11.7031C10.9314 11.2908 10.4662 10.7728 10.1597 10.1597L9.3774 8.5C9.17654 8.13001 8.9334 7.85515 8.59512 7.66487C8.28855 7.48515 7.96083 7.39001 7.62255 7.39001C7.28427 7.39001 6.96712 7.47458 6.66055 7.62258C5.18056 8.78543 4.81056 10.942 4.81056 10.942L4.45114 12.6017C4.356 13.1514 4.30314 13.7011 4.30314 14.2614V19.5048L1.77658 22.9194L3.36229 24.1139L6.29056 20.1497L6.47027 16.714L8.24626 19.1877V24.1139H10.202V17.7077L8.24626 14.9485V14.2614C8.24626 13.7963 8.24626 13.3417 8.36255 12.8977L8.73254 11.6291C9.13426 12.2106 9.62054 12.718 10.202 13.1514C10.6777 13.5108 12.0097 14.1451 13.2677 14.4517L15.5194 19.6739C15.7519 19.4414 16.0479 19.2299 16.3968 19.0819C16.7351 18.9339 17.1051 18.8705 17.4434 18.8282L13.4051 9.314L11.46 10.1386ZM16.9571 13.6694L19.0291 18.5322L24.9807 15.9845L22.9193 11.1323" fill="white"/>
</svg>
