<svg width="268" height="80" viewBox="0 0 268 80" fill="none" xmlns="http://www.w3.org/2000/svg">
<g clip-path="url(#clip0_2_489)">
<path fill-rule="evenodd" clip-rule="evenodd" d="M54.3202 14.8624C52.1439 12.6893 48.6199 12.6932 46.4478 14.8684C44.2726 17.0404 44.2703 20.5661 46.4435 22.7425L50.3783 26.6773L54.3159 22.7397C56.4911 20.5677 56.4934 17.042 54.3202 14.8624ZM43.8135 25.369L33.324 14.8795C31.1476 12.7063 27.622 12.7086 25.4499 14.8839C23.2731 17.0543 23.2708 20.5799 25.4424 22.7578L35.9336 33.249C38.11 35.4222 41.6356 35.42 43.8077 33.2448C45.9845 31.0711 45.9867 27.5455 43.8135 25.369Z" fill="#C3C9CB"/>
<path fill-rule="evenodd" clip-rule="evenodd" d="M64.7915 54.2253C66.9667 52.0533 66.9691 48.5277 64.7959 46.3513C62.6196 44.1782 59.0939 44.1805 56.9219 46.3557L52.981 50.2966L56.9158 54.2314C59.0924 56.4045 62.6179 56.4021 64.7915 54.2253ZM54.3003 43.734L64.8069 33.2274C66.9805 31.057 66.9845 27.533 64.8129 25.355C62.6366 23.1819 59.1109 23.1841 56.9389 25.3594L46.4323 35.866C44.2554 38.0365 44.2532 41.5621 46.4246 43.7401C48.6011 45.9132 52.1266 45.9109 54.3003 43.734Z" fill="#DDE1E2"/>
<path fill-rule="evenodd" clip-rule="evenodd" d="M25.413 64.755C27.5894 66.9282 31.1151 66.9259 33.2871 64.7505C35.4623 62.5787 35.4647 59.053 33.2914 56.8765L29.3566 52.9417L25.4175 56.8809C23.2438 59.0514 23.2416 62.577 25.413 64.755ZM35.9212 54.2468L46.4125 64.738C48.589 66.9111 52.1145 66.9088 54.2866 64.7335C56.4634 62.563 56.4658 59.0376 54.2941 56.8595L43.8029 46.3683C41.6266 44.1952 38.101 44.1974 35.9289 46.3726C33.7521 48.5463 33.7483 52.0703 35.9212 54.2468Z" fill="#C3C9CB"/>
<path fill-rule="evenodd" clip-rule="evenodd" d="M14.9434 25.3906C12.7681 27.5626 12.7659 31.0882 14.9391 33.2646C17.1154 35.4377 20.641 35.4355 22.813 33.2602L26.7522 29.321L22.8174 25.3862C20.641 23.2131 17.1154 23.2153 14.9434 25.3906ZM25.4346 35.8818L14.928 46.3885C12.7511 48.5589 12.7488 52.0845 14.9203 54.2624C17.0968 56.4356 20.6224 56.4334 22.7943 54.258L33.2994 43.753C35.4764 41.5826 35.4786 38.057 33.3071 35.8791C31.1307 33.7027 27.6067 33.7065 25.4346 35.8818Z" fill="#DDE1E2"/>
</g>
<path d="M87.281 49.2079C88.9878 49.2079 89.9685 48.5965 90.2233 47.3738C90.2488 47.1954 90.2615 47.0299 90.2615 46.877C90.2615 45.5778 89.4463 44.4951 87.8159 43.629C87.4593 43.4252 86.8861 43.1577 86.0964 42.8265C84.1858 41.9859 82.9248 41.2089 82.3134 40.4956C81.6511 39.7314 81.3199 38.827 81.3199 37.7826C81.3199 35.6172 82.5045 34.1524 84.8736 33.3882C85.8671 33.057 86.9753 32.8914 88.198 32.8914C90.1851 32.8914 91.739 33.2481 92.8599 33.9614C92.8599 33.1971 93.0892 32.7768 93.5477 32.7004C93.6496 32.6749 93.7515 32.6622 93.8534 32.6622V37.4387H92.6306C92.5287 35.1205 91.2677 33.9486 88.8476 33.9232C87.2173 33.9232 86.211 34.4581 85.8289 35.5281C85.7525 35.7828 85.7143 36.0375 85.7143 36.2923C85.7143 37.3877 86.4785 38.3175 88.007 39.0818C88.3127 39.2601 88.8222 39.5021 89.5355 39.8078C91.5225 40.6994 92.8472 41.5146 93.5095 42.2534C94.2737 43.1195 94.6559 44.1512 94.6559 45.3485C94.6559 47.5648 93.5095 49.0551 91.2168 49.8193C90.2742 50.125 89.217 50.2779 88.0452 50.2779C85.8034 50.2779 83.9183 49.883 82.3898 49.0933C82.3898 49.7556 82.2242 50.1378 81.8931 50.2397C81.7402 50.2651 81.5619 50.2779 81.3581 50.2779V44.4697H82.6573C82.7083 47.603 84.2495 49.1825 87.281 49.2079ZM96.3509 34.6492H98.9876V44.2022C98.9876 47.896 100.516 49.9212 103.573 50.2779C103.879 50.3033 104.184 50.3161 104.49 50.3161C106.452 50.3161 107.802 49.6792 108.541 48.4055C108.897 47.7686 109.177 46.928 109.381 45.8835L108.349 45.7306C107.84 47.7941 107.089 48.9277 106.095 49.1315C105.942 49.157 105.789 49.1697 105.636 49.1697C104.694 49.1697 104.121 48.5074 103.917 47.1827C103.866 46.877 103.84 46.5586 103.84 46.2274V34.6492H108.884V33.6557H103.84V29.2231L98.9876 30.0255V33.6557H96.3509V34.6492ZM124.374 50.2779C126.234 50.2779 127.393 49.6028 127.851 48.2526C128.004 47.7431 128.119 47.0935 128.195 46.3038L127.202 46.2656C127.049 48.0234 126.603 48.915 125.864 48.9405C125.304 48.8895 125.024 48.2526 125.024 47.0299V39.0436C125.024 35.8592 123.546 33.8977 120.591 33.1589C119.827 32.9806 118.999 32.8914 118.107 32.8914C114.643 32.8914 112.465 33.6429 111.573 35.1459C111.344 35.5281 111.229 35.9357 111.229 36.3687C111.229 37.3622 111.7 37.9864 112.643 38.2411C112.872 38.3175 113.114 38.3557 113.369 38.3557C114.464 38.3557 115.203 37.8208 115.585 36.7508C115.636 36.598 115.713 36.3432 115.815 35.9866C116.095 34.9676 116.451 34.3307 116.885 34.076C117.165 33.9486 117.483 33.8849 117.84 33.8849C119.037 33.8849 119.763 34.611 120.018 36.063C120.12 36.598 120.171 37.2349 120.171 37.9736V40.4574C113.624 40.5848 110.338 42.317 110.312 45.6542C110.312 47.9215 111.306 49.3735 113.293 50.0104C113.879 50.1887 114.528 50.2779 115.241 50.2779C117.407 50.2779 118.999 49.4627 120.018 47.8323C120.222 47.5011 120.387 47.1572 120.515 46.8006C121.05 48.9914 122.336 50.1505 124.374 50.2779ZM117.228 48.6348C115.955 48.5838 115.305 47.4502 115.28 45.2339C115.28 43.5526 115.967 42.4572 117.343 41.9477C118.082 41.7184 119.024 41.5783 120.171 41.5273V45.2339C119.687 47.0171 118.91 48.1125 117.84 48.5201C117.611 48.5965 117.407 48.6348 117.228 48.6348ZM129.508 41.642C129.508 45.3613 130.922 47.9215 133.75 49.3226C135.074 49.9594 136.59 50.2779 138.297 50.2779C140.946 50.2779 142.984 49.4754 144.411 47.8705C144.895 47.3101 145.264 46.6987 145.519 46.0363L144.526 45.7689C143.812 47.2973 142.602 48.3291 140.895 48.864C140.233 49.0678 139.571 49.1697 138.908 49.1697C137.151 49.1697 135.979 48.38 135.393 46.8006C134.96 45.6288 134.743 43.9729 134.743 41.833C134.743 37.5533 135.418 35.0058 136.768 34.1906C137.176 33.9614 137.66 33.8467 138.221 33.8467C139.341 33.8467 140.029 34.369 140.284 35.4134C140.335 35.6172 140.399 35.9611 140.475 36.4451C140.628 37.617 140.934 38.3685 141.392 38.6996C141.749 38.9544 142.233 39.0818 142.844 39.0818C144.143 39.0818 144.946 38.5978 145.252 37.6297C145.303 37.4259 145.328 37.2221 145.328 37.0183C145.328 35.8974 144.653 34.9167 143.303 34.076C141.978 33.2863 140.322 32.8914 138.335 32.8914C135.635 32.8914 133.444 33.7703 131.763 35.5281C130.26 37.1075 129.508 39.1455 129.508 41.642ZM156.003 48.9022H154.016V43.0176L155.2 41.8712L159.862 49.934L166.205 49.8958C166.205 49.3353 166.053 49.0169 165.747 48.9405C165.62 48.915 165.467 48.9022 165.288 48.9022H164.715L158.563 38.6232L161.391 35.9102C162.282 35.0695 162.97 34.5982 163.454 34.4963C163.658 34.4709 163.862 34.4581 164.066 34.4581C164.626 34.4581 164.944 34.2543 165.021 33.8467C165.046 33.7194 165.059 33.592 165.059 33.4646H158.601V34.4581H161.391L154.016 41.4509V25.058H146.259V26.0515H149.163V46.9152C149.112 48.2399 148.144 48.9022 146.259 48.9022V49.8958H156.92C156.92 49.3098 156.754 48.9914 156.423 48.9405C156.296 48.915 156.156 48.9022 156.003 48.9022ZM175.505 33.8849C177.135 33.9359 177.963 35.3243 177.988 38.05C177.988 39.2474 177.632 39.9861 176.919 40.2663C176.409 40.4447 175.645 40.5083 174.626 40.4574L172.18 40.3428C172.359 36.114 173.467 33.9614 175.505 33.8849ZM182.65 45.9599L181.733 45.6542C181.02 47.2082 179.899 48.2654 178.371 48.8258C177.759 49.0551 177.135 49.1697 176.498 49.1697C174.46 49.1697 173.148 47.8705 172.562 45.2721C172.333 44.2022 172.206 42.9284 172.18 41.4509L175.696 41.5655C179.797 41.6929 182.179 41.0433 182.841 39.6167C182.994 39.2601 183.071 38.8652 183.071 38.4322C183.071 36.2668 181.963 34.6874 179.746 33.6939C178.498 33.1589 177.084 32.8914 175.505 32.8914C172.626 32.8914 170.384 33.8722 168.779 35.8338C167.557 37.3622 166.945 39.2601 166.945 41.5273C166.945 45.2212 168.334 47.7941 171.11 49.2461C172.435 49.934 173.938 50.2779 175.619 50.2779C178.6 50.2779 180.74 49.2334 182.039 47.1445C182.294 46.7624 182.498 46.3675 182.65 45.9599ZM194.624 48.9022H191.797V40.6485C191.975 37.9736 192.625 36.3432 193.746 35.7573C193.924 35.6809 194.089 35.6427 194.242 35.6427C194.523 35.6427 194.828 35.9357 195.159 36.5216C195.618 37.3368 196.115 37.8462 196.65 38.05C196.904 38.1265 197.185 38.1647 197.49 38.1647C198.509 38.1647 199.235 37.6807 199.668 36.7126C199.821 36.3815 199.898 36.0375 199.898 35.6809C199.898 34.4072 199.274 33.6047 198.025 33.2736C197.72 33.1971 197.401 33.1589 197.07 33.1589C195.491 33.1589 194.102 33.783 192.905 35.0313C192.37 35.6427 191.962 36.305 191.682 37.0183L191.415 33.4646H184.728V34.4581H186.944V46.9152C186.944 48.0361 186.498 48.673 185.606 48.8258C185.352 48.8768 185.059 48.9022 184.728 48.9022V49.8958H195.542C195.542 49.3098 195.376 48.9914 195.045 48.9405C194.917 48.915 194.777 48.9022 194.624 48.9022Z" fill="#C3C9CB"/>
<defs>
<clipPath id="clip0_2_489">
<rect width="56.4211" height="56.4211" fill="white" transform="translate(39.8957) rotate(45)"/>
</clipPath>
</defs>
</svg>
