<svg width="12" height="12" viewBox="0 0 12 12" fill="none" xmlns="http://www.w3.org/2000/svg">
<path d="M11.4485 4.58597C11.3734 4.35354 11.1672 4.18846 10.9233 4.16648L7.61036 3.86566L6.30032 0.799381C6.20373 0.574662 5.98374 0.429199 5.73932 0.429199C5.49489 0.429199 5.2749 0.574662 5.17831 0.799906L3.86827 3.86566L0.554762 4.16648C0.311303 4.18899 0.105676 4.35354 0.030098 4.58597C-0.0454796 4.81839 0.024318 5.07332 0.208489 5.23403L2.71271 7.43024L1.97427 10.6831C1.92024 10.9222 2.01307 11.1695 2.21151 11.3129C2.31818 11.39 2.44298 11.4292 2.56882 11.4292C2.67733 11.4292 2.78496 11.3999 2.88155 11.3421L5.73932 9.63417L8.59603 11.3421C8.80507 11.4679 9.06858 11.4564 9.26659 11.3129C9.46513 11.169 9.55787 10.9217 9.50383 10.6831L8.7654 7.43024L11.2696 5.23446C11.4538 5.07332 11.5241 4.81883 11.4485 4.58597Z" fill="#FFD166"/>
</svg>
