<svg width="268" height="56" viewBox="0 0 268 56" fill="none" xmlns="http://www.w3.org/2000/svg">
<g clip-path="url(#clip0_2_488)">
<path d="M40.4821 28.2169C41.3989 27.9348 42.4568 27.9348 43.4442 28.2875C43.7968 28.4285 44.1495 28.5696 44.5021 28.7811C44.8547 28.9927 45.2074 29.1338 45.4895 29.4159C46.1947 29.839 46.7589 30.4032 47.3232 30.9675C48.4516 32.1664 49.4389 33.718 50.0032 35.4811C50.5674 37.2443 50.8495 39.3601 50.5674 41.4759C50.3558 43.6622 49.6505 45.8485 48.4516 47.9643C47.7463 49.2338 46.5474 50.2211 45.3484 50.7148C45.0663 50.8559 44.7137 50.9264 44.4316 50.9969C44.1495 51.0675 43.7968 51.0675 43.5147 51.0675C42.9505 51.0675 42.3863 50.9264 41.8926 50.7148C40.9758 50.2211 40.5526 49.3748 40.4821 48.3875C40.4116 47.4706 40.7642 46.4127 41.3989 45.4959C42.1747 44.2969 42.7389 43.0275 43.021 41.758C43.3032 40.4885 43.3032 39.1485 43.0916 37.9496C43.021 37.6675 42.9505 37.3148 42.88 37.0327C42.8095 36.8917 42.8095 36.7506 42.7389 36.6096C42.6684 36.4685 42.6684 36.3275 42.5979 36.1864C42.4568 35.9043 42.3863 35.6222 42.2453 35.4106C42.1042 35.1285 41.9632 34.9169 41.8221 34.6348C41.1874 33.6475 40.4821 32.8717 39.5653 32.1664C38.86 31.6022 38.3663 30.9675 38.2253 30.4738C38.0137 29.9096 38.1547 29.4864 38.6484 28.9927C38.86 28.7811 39.1421 28.6401 39.4242 28.4285C39.7768 28.4285 40.1295 28.2875 40.4821 28.2169Z" fill="#DDE1E2"/>
<path d="M34.2053 38.6546C34.84 39.2893 35.4747 40.2062 35.6158 41.2641C35.6863 41.6872 35.6863 42.0398 35.6863 42.3925C35.6863 42.8156 35.6863 43.1683 35.6863 43.5914C35.6863 44.0146 35.6158 44.3672 35.5453 44.7904C35.4747 45.2135 35.4042 45.5662 35.2632 45.9893C34.7695 47.6114 33.9232 49.163 32.6537 50.5735C31.3842 51.9841 29.6916 53.183 27.7168 54.0998C25.7421 54.9462 23.4147 55.5104 21.0168 55.5104C19.6063 55.5104 18.1253 55.0167 17.0674 54.1704C16.0095 53.3241 15.3747 52.2662 15.3042 51.2083C15.2337 50.1504 15.7979 49.3746 16.5737 48.8104C16.9968 48.5283 17.42 48.3872 17.9137 48.2462C18.4074 48.1051 18.9716 48.1051 19.5358 48.1051C20.9463 48.1756 22.3568 48.0346 23.5558 47.6114C24.1905 47.3998 24.7547 47.1177 25.3189 46.8356C25.6011 46.6946 25.8832 46.483 26.0947 46.342C26.3768 46.2009 26.5884 45.9893 26.8 45.7777C27.2937 45.4251 27.7168 44.9314 28.0695 44.5083C28.281 44.2967 28.4221 44.0146 28.5632 43.803C28.7042 43.5914 28.8453 43.3093 28.9863 43.0977C29.5505 42.1104 29.8326 40.982 30.0442 39.9241C30.1147 39.4304 30.1853 39.0777 30.3263 38.7251C30.3968 38.5841 30.4674 38.3725 30.5379 38.2314C30.6084 38.1609 30.6084 38.0904 30.6789 38.0198C30.7495 37.9493 30.7495 37.8788 30.82 37.8788C31.1726 37.4556 31.6663 37.3146 32.301 37.5262C32.4421 37.5967 32.5832 37.5967 32.7242 37.6672C32.8653 37.7377 33.0063 37.8083 33.1474 37.8788C33.6411 38.1609 33.9937 38.3725 34.2053 38.6546Z" fill="#C3C9CB"/>
<path d="M22.0747 38.4432C21.8632 39.36 21.3695 40.2769 20.5232 40.9821C19.3242 41.899 17.8432 42.6748 16.2211 43.0274C14.5989 43.38 12.8358 43.4506 10.9316 43.0979C9.09789 42.7453 7.19368 41.899 5.43053 40.6295C3.73789 39.2895 2.11579 37.5969 0.846316 35.4811C0.141053 34.2116 -0.141053 32.7305 9.31323e-08 31.3905C9.31323e-08 31.2495 0.0705264 31.0379 0.0705264 30.8969C0.141053 30.7558 0.141053 30.6148 0.211579 30.4032C0.282105 30.1211 0.423158 29.839 0.564211 29.5569C0.846316 29.0632 1.26947 28.64 1.69263 28.3579C2.60947 27.7937 3.52632 27.8642 4.37263 28.2874C4.79579 28.499 5.21895 28.7811 5.50105 29.2042C5.71263 29.4158 5.85368 29.6274 5.99474 29.839C6.13579 30.0505 6.27684 30.3327 6.41789 30.5442C7.05263 31.8137 7.89895 32.9421 8.88632 33.7884C9.87368 34.7053 11.0021 35.34 12.1305 35.7632C12.6947 35.9748 13.2589 36.1158 13.8937 36.1863C14.4579 36.2569 15.0926 36.3274 15.6568 36.2569C16.2211 36.2569 16.7853 36.1863 17.3495 36.0453C17.9137 35.9042 18.4074 35.7632 18.9011 35.5516C19.3242 35.4106 19.7474 35.2695 20.1 35.199C20.3116 35.199 20.4526 35.1284 20.5937 35.199C20.7347 35.199 20.8758 35.199 21.0168 35.2695C21.5811 35.4105 21.9337 35.6927 22.0747 36.3274C22.2863 36.9621 22.2863 37.7379 22.0747 38.4432Z" fill="#DDE1E2"/>
<path d="M16.1505 27.7936C15.2337 28.0757 14.1758 28.0757 13.1884 27.7231C12.8358 27.5821 12.4832 27.441 12.1305 27.2294C11.7779 27.0179 11.4253 26.8768 11.1432 26.5947C10.4379 26.1715 9.87368 25.6073 9.30947 25.0431C8.18105 23.8442 7.19368 22.2926 6.62947 20.5294C6.06526 18.7663 5.78316 16.6505 6.06526 14.5347C6.27684 12.3484 6.9821 10.1621 8.18105 8.04627C8.88631 6.7768 10.0853 5.78943 11.2842 5.29575C11.5663 5.15469 11.9189 5.08417 12.201 5.01364C12.4832 4.94312 12.8358 4.94312 13.1179 4.94312C13.6821 4.94312 14.2463 5.08417 14.74 5.29575C15.6568 5.78943 16.08 6.63575 16.1505 7.62312C16.2211 8.53996 15.8684 9.59785 15.2337 10.5147C14.4579 11.7136 13.8937 12.9831 13.6116 14.2526C13.3295 15.5221 13.3295 16.8621 13.5411 18.061C13.6116 18.3431 13.6821 18.6957 13.7526 18.9779C13.8232 19.1189 13.8232 19.26 13.8937 19.401C13.9642 19.5421 13.9642 19.6831 14.0347 19.8242C14.1758 20.1063 14.2463 20.3884 14.3874 20.6C14.5284 20.8821 14.6695 21.0936 14.8105 21.3757C15.4453 22.3631 16.1505 23.1389 17.0674 23.8442C17.7726 24.4084 18.2663 25.0431 18.4074 25.5368C18.6189 26.101 18.4779 26.5242 17.9842 27.0179C17.7726 27.2294 17.4905 27.3705 17.2084 27.5821C16.8558 27.5821 16.5032 27.7231 16.1505 27.7936Z" fill="#C3C9CB"/>
<path d="M22.4274 17.3558C21.7926 16.7211 21.1579 15.8042 21.0168 14.7463C20.9463 14.3232 20.9463 13.9705 20.9463 13.6179C20.9463 13.1947 20.9463 12.8421 20.9463 12.4189C20.9463 11.9958 21.0168 11.6432 21.0874 11.22C21.1579 10.7968 21.2284 10.4442 21.3695 10.0211C21.8632 8.39895 22.7095 6.84737 23.9789 5.43684C25.2484 4.02632 26.941 2.82737 28.9158 1.91053C30.8905 1.06421 33.2179 0.5 35.6158 0.5C37.0263 0.5 38.5074 0.993684 39.5653 1.84C40.6232 2.68632 41.2579 3.74421 41.3284 4.8021C41.3989 5.86 40.8347 6.63579 40.0589 7.2C39.6358 7.48211 39.2126 7.62316 38.7189 7.76421C38.2253 7.90526 37.661 7.90526 37.0968 7.90526C35.6863 7.83474 34.2758 7.97579 33.0768 8.39895C32.4421 8.61053 31.8779 8.89263 31.3137 9.17474C31.0316 9.31579 30.7495 9.52737 30.5379 9.66842C30.2558 9.80947 30.0442 10.0211 29.8326 10.2326C29.3389 10.5853 28.9158 11.0789 28.5632 11.5021C28.3516 11.7137 28.2105 11.9958 28.0695 12.2074C27.9284 12.4189 27.7874 12.7011 27.6463 12.9126C27.0821 13.9 26.8 15.0284 26.5884 16.0863C26.5179 16.58 26.4474 16.9326 26.3063 17.2853C26.2358 17.4263 26.1653 17.6379 26.0947 17.7789C26.0242 17.8495 26.0242 17.92 25.9537 17.9905C25.8832 18.0611 25.8832 18.1316 25.8126 18.1316C25.46 18.5547 24.9663 18.6958 24.3316 18.4842C24.1905 18.4137 24.0495 18.4137 23.9084 18.3432C23.7674 18.2726 23.6263 18.2021 23.4853 18.1316C22.9916 17.8495 22.7095 17.6379 22.4274 17.3558Z" fill="#DDE1E2"/>
<path d="M34.5579 17.5675C34.7695 16.6506 35.2632 15.7338 36.1095 15.0285C37.3084 14.1117 38.7895 13.3359 40.4116 12.9833C42.0337 12.6306 43.7968 12.5601 45.701 12.9127C47.5347 13.2654 49.4389 14.1117 51.2021 15.3812C52.9653 16.6506 54.5168 18.4138 55.7863 20.4591C56.4916 21.7285 56.7737 23.2096 56.6326 24.5496C56.6326 24.6906 56.5621 24.9022 56.5621 25.0433C56.4916 25.1843 56.4916 25.3254 56.421 25.537C56.3505 25.8191 56.2095 26.1012 56.0684 26.3833C55.7863 26.877 55.3632 27.3001 54.94 27.5822C54.0232 28.1464 53.1063 28.0759 52.26 27.6527C51.8368 27.4412 51.4137 27.1591 51.1316 26.7359C50.92 26.5243 50.7789 26.3127 50.6379 26.1012C50.4968 25.8896 50.3558 25.6075 50.2147 25.3959C49.58 24.1264 48.7337 22.998 47.7463 22.1517C46.7589 21.2349 45.6305 20.6001 44.5021 20.177C43.9379 19.9654 43.3737 19.8243 42.7389 19.7538C42.1747 19.6833 41.6105 19.6127 40.9758 19.6833C40.4116 19.6833 39.8474 19.7538 39.2832 19.8949C38.7189 20.0359 38.2253 20.177 37.7316 20.3885C37.3084 20.5296 36.8853 20.6706 36.5326 20.7412C36.321 20.7412 36.18 20.8117 36.0389 20.7412C35.8979 20.7412 35.7568 20.7412 35.6158 20.6706C35.0516 20.5296 34.6989 20.2475 34.5579 19.6127C34.3463 19.0485 34.4168 18.3433 34.5579 17.5675Z" fill="#C3C9CB"/>
</g>
<path d="M67.8768 13.4367H92.6063V19.4626H83.5284V41.9618H77.4634V19.4626H67.8768V13.4367ZM107.727 31.1622C107.727 30.4579 107.636 29.884 107.453 29.4405C107.297 28.9971 107.075 28.6449 106.788 28.384C106.501 28.1232 106.175 27.9406 105.81 27.8362C105.471 27.7319 105.132 27.6797 104.793 27.6797H102.954C102.719 27.6797 102.445 27.7189 102.132 27.7971C101.819 27.8493 101.519 27.9406 101.232 28.071C100.971 28.2014 100.749 28.371 100.567 28.5797C100.384 28.7884 100.293 29.0232 100.293 29.284V41.9618H95.0103V13.4367H100.293V24.1972C100.684 23.9885 101.154 23.8059 101.701 23.6494C102.275 23.4668 102.849 23.3755 103.423 23.3755H105.536C106.319 23.3755 107.088 23.506 107.845 23.7668C108.627 24.0277 109.332 24.4451 109.958 25.0189C110.584 25.5668 111.092 26.2972 111.484 27.2102C111.875 28.0971 112.071 29.1797 112.071 30.4579V41.9618H107.727V31.1622ZM123.925 23.3364C124.838 23.3364 125.712 23.4799 126.546 23.7668C127.381 24.0538 128.112 24.4581 128.738 24.9798C129.39 25.5015 129.899 26.1537 130.264 26.9363C130.655 27.6928 130.851 28.5406 130.851 29.4797V33.9012H119.229V35.7012C119.229 35.936 119.268 36.2229 119.347 36.562C119.451 36.9011 119.621 37.2272 119.855 37.5402C120.09 37.8272 120.416 38.075 120.834 38.2837C121.251 38.4924 121.786 38.5967 122.438 38.5967H123.964C125.842 38.5967 126.781 37.7359 126.781 36.0142H131.203V37.1881C131.203 38.1272 131.02 38.9098 130.655 39.5358C130.29 40.1358 129.807 40.6184 129.207 40.9836C128.607 41.3488 127.916 41.5966 127.133 41.727C126.351 41.8836 125.542 41.9618 124.707 41.9618H120.951C120.299 41.9618 119.621 41.8705 118.916 41.6879C118.238 41.5053 117.586 41.1923 116.96 40.7488C116.36 40.3314 115.838 39.7706 115.395 39.0663C114.951 38.3359 114.651 37.4489 114.495 36.4055V29.4797C114.495 28.6188 114.69 27.8232 115.082 27.0928C115.473 26.3363 115.995 25.6841 116.647 25.1363C117.299 24.5624 118.055 24.119 118.916 23.8059C119.803 23.4929 120.729 23.3364 121.694 23.3364H123.925ZM119.229 30.9666H126.39V29.7927C126.39 29.4536 126.299 29.1275 126.116 28.8145C125.96 28.4753 125.738 28.1884 125.451 27.9536C125.164 27.6928 124.838 27.4971 124.473 27.3667C124.107 27.2102 123.742 27.1319 123.377 27.1319H122.125C121.76 27.1319 121.395 27.2102 121.029 27.3667C120.69 27.4971 120.377 27.6928 120.09 27.9536C119.829 28.1884 119.621 28.4753 119.464 28.8145C119.308 29.1275 119.229 29.4536 119.229 29.7927V30.9666ZM154.15 17.3497H141.668V25.1755H152.663V28.971H141.668V41.9618H135.055V13.4759H154.15V17.3497ZM161.823 41.9618H156.697V13.4367H161.823V41.9618ZM171.353 41.9618C170.518 41.9618 169.709 41.8444 168.927 41.6097C168.17 41.3749 167.505 41.0097 166.931 40.514C166.357 40.0445 165.901 39.4445 165.562 38.7141C165.223 37.9576 165.053 37.0707 165.053 36.0533V29.0884C165.053 28.2797 165.236 27.5232 165.601 26.8189C165.992 26.1146 166.501 25.5015 167.127 24.9798C167.779 24.4581 168.536 24.0538 169.396 23.7668C170.257 23.4799 171.17 23.3364 172.135 23.3364H174.561C175.657 23.3364 176.648 23.4929 177.535 23.8059C178.448 24.119 179.231 24.5364 179.883 25.0581C180.535 25.5798 181.031 26.2059 181.37 26.9363C181.735 27.6667 181.918 28.4362 181.918 29.2449V36.4446C181.918 37.2533 181.774 37.9967 181.487 38.675C181.2 39.3532 180.783 39.9271 180.235 40.3967C179.687 40.8923 179.035 41.2705 178.279 41.5314C177.522 41.8184 176.674 41.9618 175.735 41.9618H171.353ZM174.366 38.4011C174.809 38.4011 175.188 38.3228 175.501 38.1663C175.84 37.9837 176.114 37.775 176.322 37.5402C176.557 37.2794 176.727 37.0055 176.831 36.7185C176.935 36.4055 176.987 36.1055 176.987 35.8186V30.2622C176.987 29.6362 176.727 29.0362 176.205 28.4623C175.709 27.8623 175.005 27.5623 174.092 27.5623H172.996C172.631 27.5623 172.266 27.6145 171.901 27.7189C171.562 27.8232 171.236 27.9928 170.922 28.2275C170.636 28.4362 170.401 28.7101 170.218 29.0492C170.036 29.3884 169.944 29.8057 169.944 30.3014V35.6229C169.944 35.8316 169.97 36.1055 170.023 36.4446C170.101 36.7577 170.231 37.0576 170.414 37.3446C170.623 37.6315 170.896 37.8794 171.236 38.088C171.601 38.2967 172.057 38.4011 172.605 38.4011H174.366ZM205.299 23.3755H212.538L205.455 41.9618H200.447L197.982 35.5055L195.517 41.9618H190.782L183.7 23.3755H189.256C189.908 25.0711 190.547 26.7537 191.173 28.4232C191.799 30.0666 192.452 31.7361 193.13 33.4317C193.156 33.3273 193.234 33.1056 193.365 32.7665C193.521 32.4274 193.691 32.023 193.873 31.5535C194.056 31.0579 194.251 30.5231 194.46 29.9492C194.695 29.3492 194.93 28.7492 195.164 28.1493L193.365 23.3755H197.512C198.164 25.0711 198.803 26.7537 199.43 28.4232C200.056 30.0666 200.708 31.7361 201.386 33.4317L205.299 23.3755Z" fill="#C3C9CB"/>
<defs>
<clipPath id="clip0_2_488">
<rect width="56.6326" height="55.0105" fill="white" transform="translate(0 0.5)"/>
</clipPath>
</defs>
</svg>
