<svg width="21" height="20" viewBox="0 0 21 20" fill="none" xmlns="http://www.w3.org/2000/svg">
<g clip-path="url(#clip0_2_781)">
<path d="M20.2418 9.60348C19.5313 8.04978 16.7451 2.98328 10.676 2.98328C4.60689 2.98328 1.82075 8.04978 1.11026 9.60348C1.01489 9.81169 0.965515 10.038 0.965515 10.267C0.965515 10.4961 1.01489 10.7224 1.11026 10.9306C1.82075 12.4827 4.60689 17.5492 10.676 17.5492C16.7451 17.5492 19.5313 12.4827 20.2418 10.929C20.3369 10.721 20.3862 10.495 20.3862 10.2662C20.3862 10.0375 20.3369 9.81145 20.2418 9.60348ZM10.676 15.9307C5.57228 15.9307 3.19076 11.5885 2.58384 10.2751C3.19076 8.94396 5.57228 4.60171 10.676 4.60171C15.7676 4.60171 18.1499 8.92535 18.7682 10.2662C18.1499 11.6071 15.7676 15.9307 10.676 15.9307Z" fill="#006D77"/>
<path d="M10.6757 6.22009C9.87542 6.22009 9.09315 6.45739 8.42778 6.90198C7.7624 7.34657 7.24381 7.97848 6.93757 8.71781C6.63133 9.45713 6.5512 10.2707 6.70732 11.0555C6.86344 11.8404 7.24879 12.5613 7.81465 13.1272C8.3805 13.693 9.10145 14.0784 9.88631 14.2345C10.6712 14.3906 11.4847 14.3105 12.224 14.0043C12.9634 13.698 13.5953 13.1794 14.0399 12.5141C14.4844 11.8487 14.7217 11.0664 14.7217 10.2662C14.7205 9.19348 14.2938 8.16509 13.5353 7.40658C12.7767 6.64807 11.7484 6.22138 10.6757 6.22009ZM10.6757 12.6938C10.1955 12.6938 9.72616 12.5514 9.32693 12.2847C8.92771 12.0179 8.61655 11.6388 8.43281 11.1952C8.24906 10.7516 8.20099 10.2635 8.29466 9.79257C8.38833 9.32165 8.61954 8.88908 8.95905 8.54957C9.29857 8.21006 9.73113 7.97884 10.2021 7.88517C10.673 7.7915 11.1611 7.83958 11.6047 8.02332C12.0483 8.20706 12.4274 8.51822 12.6942 8.91745C12.9609 9.31667 13.1033 9.78603 13.1033 10.2662C13.1033 10.91 12.8475 11.5275 12.3923 11.9828C11.937 12.4381 11.3195 12.6938 10.6757 12.6938Z" fill="#006D77"/>
</g>
<defs>
<clipPath id="clip0_2_781">
<rect width="19.4212" height="19.4212" fill="white" transform="translate(0.965736 0.555664)"/>
</clipPath>
</defs>
</svg>
