<svg width="21" height="18" viewBox="0 0 21 18" fill="none" xmlns="http://www.w3.org/2000/svg">
<g clip-path="url(#clip0_162_3198)">
<path fill-rule="evenodd" clip-rule="evenodd" d="M20.9994 2.57115C20.2278 2.92253 19.3971 3.16015 18.5256 3.26632C19.4156 2.72029 20.0984 1.85448 20.4201 0.823088C19.5869 1.32867 18.6662 1.69648 17.6826 1.89366C16.8986 1.03543 15.7782 0.499512 14.5383 0.499512C12.1606 0.499512 10.2316 2.47761 10.2316 4.91705C10.2316 5.26337 10.2686 5.59959 10.3426 5.92317C6.76192 5.73863 3.58803 3.98172 1.46184 1.30592C1.09083 1.96065 0.878821 2.72029 0.878821 3.52923C0.878821 5.06114 1.63933 6.41358 2.79549 7.20609C2.09045 7.1846 1.42486 6.98363 0.843081 6.655V6.70935C0.843081 8.85049 2.32834 10.6365 4.30046 11.0409C3.93932 11.1446 3.55845 11.1964 3.16526 11.1964C2.88793 11.1964 2.61676 11.1699 2.35422 11.118C2.90272 12.8724 4.49274 14.1503 6.37858 14.1844C4.90442 15.37 3.0457 16.0766 1.02797 16.0766C0.680379 16.0766 0.336494 16.0563 0 16.0159C1.9068 17.2672 4.17227 17.999 6.60415 17.999C14.5296 17.999 18.8621 11.2684 18.8621 5.43022C18.8621 5.2381 18.8584 5.04597 18.851 4.85764C19.6929 4.23451 20.4238 3.45718 20.9994 2.57115Z" fill="#98A2B3"/>
</g>
<defs>
<clipPath id="clip0_162_3198">
<rect width="20.9994" height="17.4995" fill="white" transform="translate(0 0.499512)"/>
</clipPath>
</defs>
</svg>
