<svg width="18" height="18" viewBox="0 0 18 18" fill="none" xmlns="http://www.w3.org/2000/svg">
<g clip-path="url(#clip0_162_3204)">
<path fill-rule="evenodd" clip-rule="evenodd" d="M8.75027 -0.000976562C3.91828 -0.000976562 0 3.91627 0 8.7493C0 12.3311 2.15465 15.4098 5.23844 16.7628C5.21375 16.1527 5.23432 15.418 5.3897 14.7533C5.55845 14.0433 6.51537 9.98611 6.51537 9.98611C6.51537 9.98611 6.23652 9.42739 6.23652 8.60113C6.23652 7.30465 6.9887 6.33639 7.92402 6.33639C8.71941 6.33639 9.10425 6.93421 9.10425 7.65037C9.10425 8.44987 8.59388 9.64655 8.3315 10.7547C8.11233 11.6839 8.79658 12.4402 9.71235 12.4402C11.37 12.4402 12.4864 10.3113 12.4864 7.78825C12.4864 5.8713 11.1951 4.4359 8.84597 4.4359C6.19228 4.4359 4.53874 6.41459 4.53874 8.6248C4.53874 9.38829 4.76306 9.9254 5.11496 10.3411C5.27754 10.5335 5.29915 10.6097 5.2405 10.8299C5.19934 10.9894 5.10261 11.3783 5.06248 11.5316C5.00383 11.7528 4.8248 11.8331 4.62518 11.7508C3.40175 11.2517 2.83273 9.91306 2.83273 8.40769C2.83273 5.92275 4.92872 2.94082 9.08572 2.94082C12.4268 2.94082 14.6256 5.35991 14.6256 7.95392C14.6256 11.3865 12.7179 13.9507 9.90374 13.9507C8.96018 13.9507 8.07116 13.4403 7.76659 12.861C7.76659 12.861 7.25828 14.8768 7.15127 15.2657C6.96606 15.9397 6.60283 16.6147 6.27048 17.1394C7.05763 17.372 7.88904 17.4985 8.75027 17.4985C13.5823 17.4985 17.4995 13.5813 17.4995 8.7493C17.4995 3.91627 13.5823 -0.000976562 8.75027 -0.000976562Z" fill="#98A2B3"/>
</g>
<defs>
<clipPath id="clip0_162_3204">
<rect width="17.4995" height="17.4995" fill="white" transform="translate(0 -0.000976562)"/>
</clipPath>
</defs>
</svg>
