<svg width="15" height="15" viewBox="0 0 15 15" fill="none" xmlns="http://www.w3.org/2000/svg">
<g clip-path="url(#clip0_2_1053)">
<path d="M9.53956 14.8047L6.03956 12.1797V9.19302L1.37289 3.94302V2.55469C1.37289 2.09056 1.55727 1.64544 1.88546 1.31725C2.21365 0.989062 2.65877 0.804688 3.12289 0.804688L12.4562 0.804688C12.9204 0.804688 13.3655 0.989062 13.6937 1.31725C14.0219 1.64544 14.2062 2.09056 14.2062 2.55469V3.94302L9.53956 9.19302V14.8047ZM7.20623 11.5964L8.37289 12.4714V8.74969L13.0396 3.49969V2.55469C13.0396 2.39998 12.9781 2.2516 12.8687 2.14221C12.7593 2.03281 12.6109 1.97135 12.4562 1.97135H3.12289C2.96818 1.97135 2.81981 2.03281 2.71042 2.14221C2.60102 2.2516 2.53956 2.39998 2.53956 2.55469V3.49969L7.20623 8.74969V11.5964Z" fill="#006D77"/>
</g>
<defs>
<clipPath id="clip0_2_1053">
<rect width="14" height="14" fill="white" transform="translate(0.789551 0.804688)"/>
</clipPath>
</defs>
</svg>
