<svg width="18" height="18" viewBox="0 0 18 18" fill="none" xmlns="http://www.w3.org/2000/svg">
<g clip-path="url(#clip0_2_1227)">
<path d="M15.75 0.75H2.25C1.65326 0.75 1.08097 0.987053 0.65901 1.40901C0.237053 1.83097 0 2.40326 0 3L0 17.25H18V3C18 2.40326 17.7629 1.83097 17.341 1.40901C16.919 0.987053 16.3467 0.75 15.75 0.75ZM2.25 2.25H15.75C15.9489 2.25 16.1397 2.32902 16.2803 2.46967C16.421 2.61032 16.5 2.80109 16.5 3V3.50025L10.5915 9.4095C10.1688 9.83049 9.59656 10.0669 9 10.0669C8.40344 10.0669 7.83118 9.83049 7.4085 9.4095L1.5 3.50025V3C1.5 2.80109 1.57902 2.61032 1.71967 2.46967C1.86032 2.32902 2.05109 2.25 2.25 2.25ZM1.5 15.75V5.625L6.348 10.47C7.05197 11.1722 8.00569 11.5665 9 11.5665C9.99431 11.5665 10.948 11.1722 11.652 10.47L16.5 5.625V15.75H1.5Z" fill="#98A2B3"/>
</g>
<defs>
<clipPath id="clip0_2_1227">
<rect width="18" height="18" fill="white"/>
</clipPath>
</defs>
</svg>
