<svg width="70" height="81" viewBox="0 0 70 81" fill="none" xmlns="http://www.w3.org/2000/svg">
<g clip-path="url(#clip0_103_1503)">
<path d="M11.7815 64.1329C12.6365 64.1274 13.0914 64.1386 13.5075 64.1145C14.742 64.1117 15.273 63.8049 15.3519 63.0523C15.4308 62.2997 14.9124 61.8897 13.7383 61.7522C13.1998 61.7022 12.6579 61.644 11.7308 61.5469C12.5769 60.9662 13.0942 60.6269 13.5954 60.261C13.9197 60.0314 14.3595 59.8258 14.4984 59.4979C14.7005 59.0514 14.7443 58.5498 14.6221 58.0816C14.4235 57.5221 13.8394 57.5226 13.315 57.7094C13.1549 57.7697 13.0025 57.8508 12.8616 57.9507C11.4228 58.8962 9.9748 59.8314 8.56119 60.8138C7.50384 61.5518 7.42004 62.0778 8.16112 63.1043C9.43134 64.8376 10.7838 66.5275 12.1031 68.2184C12.5383 68.7939 13.1241 69.148 13.8423 68.6271C14.4223 68.2098 14.4417 67.4071 13.8793 66.599C13.3168 65.7909 12.6517 65.1476 11.7815 64.1329Z" fill="#98A2B3"/>
<path d="M47.1706 35.9446C47.359 35.9347 47.5125 35.8788 47.6019 35.9224C48.1929 36.2337 48.8081 36.3648 49.4897 35.5759C50.1714 34.787 49.9803 33.9729 49.6014 33.3253C49.0729 32.4242 48.5445 31.5231 48.0062 30.6357C47.8938 30.3561 47.6903 30.1512 47.4242 30.0499C46.9283 30.0152 46.2489 29.9732 45.893 30.31C45.5371 30.6467 45.4208 31.4683 45.4571 31.9627C45.6055 32.536 45.8393 33.0551 46.1513 33.5035C45.4596 34.254 44.7875 34.9457 44.1603 35.6801C43.612 36.3257 43.2622 36.9894 43.6806 37.5823C43.7582 37.7057 43.8635 37.8021 43.9901 37.8656C44.1168 37.9292 44.2622 37.9586 44.4177 37.9521C44.5732 37.9456 44.7356 37.9034 44.8951 37.8279C45.0547 37.7524 45.2081 37.6452 45.3462 37.5128C45.9496 37.063 46.4983 36.5425 47.1706 35.9446Z" fill="#98A2B3"/>
<path d="M49.4753 6.64555C49.9424 6.98213 50.4894 7.46987 51.1202 7.83073C51.9446 8.26864 52.6727 8.0231 53.1609 7.21975C53.7231 6.30321 53.4733 5.69651 52.9366 5.3098C51.893 4.55788 50.8148 3.8539 49.7268 3.17406C49.4287 3.01932 49.084 2.94817 48.7147 2.96517C48.1099 2.97686 47.4714 3.30772 47.2853 4.01656C47.2238 4.28023 47.2127 4.53852 47.2528 4.77392C47.293 5.00931 47.3833 5.2163 47.5178 5.38083C48.1242 5.86816 48.7785 6.29092 49.4753 6.64555Z" fill="#98A2B3"/>
<path d="M53.1558 27.072C53.7363 25.69 54.3814 24.3232 54.8726 22.9184C54.9617 22.7237 55.0149 22.522 55.0285 22.3277C55.0421 22.1334 55.0157 21.9513 54.9513 21.7945C54.8868 21.6377 54.7859 21.51 54.6556 21.4206C54.5254 21.3311 54.3692 21.2822 54.198 21.2772C53.3599 21.2249 52.9111 21.9422 52.5815 22.7454C51.9955 23.9778 51.3599 25.1953 50.7044 26.3985C50.2312 27.2439 49.7628 28.072 50.4291 28.6561C50.9412 29.1083 51.7629 28.6909 52.627 27.5964L53.0367 27.0278L53.1558 27.072Z" fill="#98A2B3"/>
<path d="M28.1651 27.7664C28.7034 27.1136 29.3553 26.345 29.9874 25.562C30.5108 24.8985 30.8656 24.2384 30.4473 23.656C30.3655 23.5142 30.2485 23.4058 30.1051 23.339C29.9616 23.2721 29.7955 23.2485 29.6194 23.2699C29.4432 23.2913 29.2615 23.3573 29.0882 23.4627C28.9148 23.5681 28.7542 23.7103 28.6185 23.8785C27.4541 25.1824 26.3702 26.5676 25.3795 28.0177C25.2506 28.2126 25.1547 28.4245 25.0985 28.6386C25.0423 28.8528 25.0273 29.064 25.0543 29.2578C25.0813 29.4515 25.1499 29.6231 25.2551 29.7606C25.3604 29.8981 25.4998 29.9982 25.6638 30.054C26.4378 30.2266 26.9962 29.6716 27.4596 28.8504C27.6718 28.5349 27.8889 28.2126 28.1651 27.7664Z" fill="#98A2B3"/>
<path d="M52.7258 10.611C52.6615 11.1135 52.6631 11.6018 52.7305 12.0609C53.0316 13.204 53.4417 14.28 53.827 15.3693C53.932 15.6531 54.0274 16.0341 54.2508 16.1117C54.6333 16.2958 55.1027 16.308 55.5846 16.1466C55.775 15.9906 55.9402 15.7941 56.065 15.5751C56.1899 15.3561 56.2704 15.1214 56.2994 14.8925C56.3331 12.9105 55.747 11.1745 54.6324 9.95545C54.2343 9.48125 53.5851 9.57546 52.7258 10.611Z" fill="#98A2B3"/>
<path d="M19.3129 63.7849C19.6134 63.9076 19.9404 63.9788 20.2853 63.9964C21.6183 63.7705 22.9561 63.5168 24.2888 63.2075C24.4337 63.1877 24.5824 63.1354 24.7259 63.0536C24.8693 62.9718 25.0046 62.8623 25.1233 62.7318C25.2421 62.6013 25.3419 62.4524 25.4167 62.2943C25.4915 62.1362 25.5397 61.9721 25.5585 61.812C25.6047 61.6316 25.6163 61.4539 25.5925 61.2912C25.5687 61.1285 25.51 60.9847 25.4205 60.8697C25.331 60.7547 25.2128 60.6713 25.0742 60.6253C24.9355 60.5793 24.7797 60.5718 24.6175 60.6033C23.2321 60.7721 21.8325 61.0284 20.4256 61.371C20.1796 61.485 19.9438 61.653 19.7352 61.8627C19.5267 62.0724 19.3506 62.3186 19.2198 62.5835C19.0671 62.9001 19.2769 63.3948 19.3129 63.7849Z" fill="#98A2B3"/>
<path d="M24.8672 38.1591C25.5427 38.5626 26.7599 37.7849 26.7667 36.822C26.7445 35.3551 26.5754 33.9427 26.2622 32.6081C26.1439 32.4268 25.9742 32.2981 25.7691 32.2341C25.564 32.1702 25.3305 32.1732 25.0909 32.2429C24.8617 32.3743 24.6497 32.5601 24.4745 32.7831C24.2993 33.0061 24.1666 33.2591 24.0886 33.5188C24.1629 35.0292 24.4254 36.4671 24.6383 37.9214C24.6487 38.0641 24.7876 38.1018 24.8672 38.1591Z" fill="#98A2B3"/>
<path d="M35.877 42.2624C36.234 42.2833 36.6079 42.2442 36.9872 42.1466C37.8785 41.8106 38.7843 41.3601 39.6655 40.9544C40.3041 40.6548 40.8576 40.0858 40.7514 39.4473C40.6607 38.9865 40.138 38.3498 39.8211 38.4648C38.496 38.9016 37.1768 39.5143 35.8954 40.288C35.1334 40.7589 35.1368 41.8332 35.877 42.2624Z" fill="#98A2B3"/>
<path d="M48.5821 44.7043C48.6968 44.797 48.8371 44.8531 48.9933 44.8687C49.1495 44.8843 49.3176 44.859 49.4859 44.7945C49.6541 44.73 49.8182 44.6279 49.9667 44.4955C50.1152 44.3631 50.2443 44.2037 50.345 44.0284C51.021 43.0377 51.1852 40.1485 50.6079 39.4724C50.0305 38.7963 48.7927 39.3093 48.5927 40.2995C48.38 41.6293 48.2698 42.9425 48.2633 44.2248C48.2838 44.4269 48.5124 44.5916 48.5821 44.7043Z" fill="#98A2B3"/>
<path d="M42.683 23.5224C42.3675 23.2537 41.9948 23.0625 41.5805 22.957C41.1541 22.962 40.4953 23.1533 40.2188 23.5057C40.0646 23.746 39.9587 24.0087 39.911 24.2692C39.8633 24.5296 39.8753 24.7794 39.946 24.995C40.5935 25.7837 41.3494 26.4541 42.1984 26.9925C42.4519 27.1751 43.3433 26.86 43.5653 26.5308C43.734 26.2523 43.8517 25.9525 43.9092 25.6547C43.9667 25.3569 43.9625 25.069 43.8969 24.8133C43.5742 24.2957 43.165 23.8606 42.683 23.5224Z" fill="#98A2B3"/>
<path d="M37.3246 22.3152C37.2735 21.8518 37.3212 21.2721 37.1417 20.9346C36.5535 19.9801 33.9472 20.4437 32.9742 21.6054C32.8029 21.7883 32.6679 22.0066 32.5842 22.2363C32.5005 22.466 32.4712 22.6983 32.4995 22.9079C32.5278 23.1174 32.6127 23.296 32.7448 23.4242C32.8769 23.5524 33.0512 23.6252 33.2485 23.6346C34.3009 23.5231 35.37 23.3116 36.4443 23.0026C36.6623 22.9515 36.8944 22.6609 37.3246 22.3152Z" fill="#98A2B3"/>
<path d="M34.7333 59.5456C35.0306 59.4997 35.477 59.5612 35.8779 59.3297C36.6901 58.8848 37.4721 58.3222 38.1977 57.6606C38.3873 57.45 38.5382 57.2038 38.6361 56.9451C38.7341 56.6863 38.7761 56.4234 38.7581 56.1808C38.5883 55.7879 37.9177 55.4088 37.5663 55.5927C36.5751 56.1134 35.6221 56.795 34.7468 57.6094C34.0795 58.2317 34.1662 58.9497 34.7333 59.5456Z" fill="#98A2B3"/>
<path d="M43.7541 52.5896C44.2477 51.9046 44.4648 51.6031 44.6869 51.2949C45.1507 50.5884 45.3068 49.7954 44.7209 49.5294C44.4927 49.4631 44.2369 49.463 43.9731 49.5292C43.7094 49.5955 43.4449 49.7262 43.2 49.9113C42.5065 50.6021 41.8838 51.378 41.3532 52.2126C41.246 52.3501 41.1595 52.5026 41.0988 52.6609C41.038 52.8192 41.0044 52.9802 40.9998 53.1342C40.9952 53.2882 41.0198 53.4321 41.0721 53.5573C41.1243 53.6825 41.2032 53.7865 41.304 53.863C41.5114 54.0558 41.8083 54.1221 42.1296 54.0474C42.4509 53.9726 42.7705 53.7629 43.0182 53.4643C43.2792 53.1887 43.5253 52.8962 43.7541 52.5896Z" fill="#98A2B3"/>
<path d="M27.4551 41.1894C28.2007 41.4403 28.9919 41.5955 29.8166 41.6525C30.082 41.6222 30.3563 41.5228 30.6174 41.3622C30.8786 41.2017 31.1195 40.9844 31.3208 40.7278C31.4212 40.5625 31.493 40.3851 31.5311 40.2078C31.5693 40.0306 31.5729 39.8579 31.5417 39.7017C31.5105 39.5455 31.4453 39.4095 31.3505 39.3034C31.2558 39.1972 31.1339 39.1233 30.9932 39.0869C30.36 38.8517 29.6927 38.6842 28.9985 38.5863C28.3337 38.4612 27.6556 38.8051 27.3955 39.6167C27.2137 40.1414 27.4088 40.6774 27.4551 41.1894Z" fill="#98A2B3"/>
<path d="M29.0827 60.022C28.9557 60.1915 28.8621 60.3824 28.8109 60.5764C28.7598 60.7703 28.7528 60.9607 28.7908 61.1293C28.8287 61.2978 28.9102 61.4387 29.0274 61.5385C29.1446 61.6382 29.2936 61.6934 29.46 61.6988C30.2944 61.6754 31.1709 61.4396 32.026 61.0084C32.808 60.604 32.9726 59.3697 32.4158 58.9165C31.7894 58.3715 29.7143 59.0722 29.0827 60.022Z" fill="#98A2B3"/>
</g>
<defs>
<clipPath id="clip0_103_1503">
<rect width="77.9482" height="29.6149" fill="white" transform="matrix(-0.584577 0.811338 0.811338 0.584577 45.5667 0)"/>
</clipPath>
</defs>
</svg>
