<svg width="74" height="10" viewBox="0 0 74 10" fill="none" xmlns="http://www.w3.org/2000/svg">
<g clip-path="url(#clip0_103_1479)">
<path d="M67.914 7.46999C67.1099 7.02453 66.2945 6.60763 65.5071 6.13362C65.0534 5.8985 64.6507 5.57217 64.3232 5.17416C64.2028 4.99204 64.1221 4.78564 64.0865 4.56889C64.0508 4.35214 64.0611 4.13009 64.1165 3.91774C64.1732 3.79737 64.2548 3.69098 64.3555 3.6059C64.4562 3.52082 64.5738 3.45907 64.7001 3.42488C64.8264 3.39069 64.9584 3.38488 65.0871 3.40785C65.2158 3.43082 65.3382 3.48203 65.4457 3.55794C66.3615 3.99769 67.2439 4.56879 68.1318 5.04852C68.4507 5.2588 68.8149 5.38624 69.1929 5.41974C68.9639 4.92288 68.7461 4.42031 68.5116 3.92916C68.3046 3.55945 68.1182 3.17811 67.9531 2.78696C67.8442 2.5428 67.8334 2.26461 67.9233 2.01244C68.0131 1.76028 68.1964 1.55436 68.4334 1.43915C68.6602 1.30633 68.9269 1.26376 69.1825 1.31962C69.4381 1.37547 69.6645 1.52582 69.8184 1.74184C70.0575 2.08171 70.2758 2.43648 70.4718 2.80409C71.3653 4.32703 72.2607 5.84997 73.158 7.37291C73.338 7.62602 73.4915 7.89785 73.6159 8.18387C73.7017 8.36268 73.7431 8.56038 73.7363 8.75945C73.7296 8.95852 73.6749 9.15281 73.5771 9.32509C73.4793 9.49737 73.3415 9.64232 73.1759 9.7471C73.0102 9.85187 72.8218 9.91323 72.6274 9.92573C72.3246 9.97444 72.0178 9.99166 71.7116 9.97713C70.2763 9.97713 68.8411 9.97713 67.4114 9.92002C66.904 9.93997 66.3985 9.84439 65.9315 9.64018C65.7876 9.51209 65.6748 9.35147 65.6021 9.17106C65.5294 8.99064 65.4988 8.79539 65.5127 8.60078C65.5127 8.3552 65.9315 8.02967 66.2219 7.9383C66.7533 7.84738 67.2916 7.80533 67.8303 7.81266C67.8805 7.70986 67.8973 7.58993 67.914 7.46999Z" fill="#98A2B3"/>
<path d="M10.3874 0C11.2921 0.137065 12.2024 0.245574 13.1015 0.428327C13.2309 0.437503 13.3571 0.473376 13.4725 0.533783C13.588 0.59419 13.6903 0.677879 13.7733 0.779807C13.8562 0.881734 13.9182 0.999788 13.9553 1.12685C13.9925 1.25391 14.0041 1.38736 13.9894 1.51913C13.9224 2.15877 13.431 2.35865 12.8725 2.34152C11.4931 2.28441 10.1137 2.28441 8.73994 2.14734C8.14797 2.10166 7.62302 1.79326 7.6677 1.06796C7.71237 0.342661 8.22616 0.137065 8.84605 0.119931C9.35424 0.119931 9.86802 0.119931 10.3762 0.119931L10.3874 0Z" fill="#98A2B3"/>
<path d="M38.9358 5.32847C39.1201 5.13429 39.3546 4.71168 39.7065 4.52321C40.8234 3.91784 42.0017 3.38101 43.1633 2.85559C43.3782 2.71712 43.6302 2.65119 43.8837 2.66713C44.2411 2.77564 44.7102 2.9641 44.8387 3.23823C44.9671 3.51236 44.8387 4.20911 44.6097 4.31762C43.1131 5.07718 41.5885 5.79106 40.0248 6.39643C39.5333 6.60202 39.0363 6.23652 38.9358 5.32847Z" fill="#98A2B3"/>
<path d="M51.4173 0.491211C51.758 0.559743 52.0595 0.531188 52.2382 0.668253C52.5398 0.902405 52.9531 1.23935 52.9642 1.54775C52.9469 1.74405 52.8802 1.93241 52.7706 2.09453C52.661 2.25665 52.5122 2.38701 52.3388 2.47294C50.8924 2.80989 49.4292 3.04404 47.9605 3.26677C47.8456 3.29238 47.7267 3.29265 47.6118 3.26755C47.4968 3.24245 47.3884 3.19256 47.2938 3.12122C47.1992 3.04987 47.1205 2.9587 47.0631 2.85381C47.0057 2.74891 46.9708 2.63269 46.9608 2.51291C46.9316 2.3974 46.925 2.2771 46.9415 2.15897C46.958 2.04084 46.9973 1.92723 47.057 1.82473C47.1167 1.72222 47.1957 1.63284 47.2895 1.56177C47.3832 1.4907 47.4898 1.43935 47.603 1.41069C48.8875 1.06231 50.1887 0.782473 51.4173 0.491211Z" fill="#98A2B3"/>
<path d="M35.6743 6.17364C36.2942 6.07656 36.8415 6.25931 36.9588 6.93892C36.9843 7.08337 36.9796 7.23171 36.945 7.37417C36.9104 7.51663 36.8467 7.64998 36.758 7.76544C36.6694 7.8809 36.5579 7.97585 36.4308 8.04404C36.3037 8.11224 36.1639 8.15212 36.0206 8.16108C34.8625 8.34936 33.6956 8.47517 32.5246 8.53801C32.3839 8.56774 32.2384 8.56499 32.0988 8.52995C31.9592 8.4949 31.8291 8.42845 31.7178 8.33543C31.6065 8.24242 31.5169 8.12518 31.4555 7.99227C31.3942 7.85936 31.3626 7.71412 31.363 7.56713C31.363 6.83041 31.888 6.59626 32.48 6.52202C33.5354 6.37924 34.6244 6.28215 35.6743 6.17364Z" fill="#98A2B3"/>
<path d="M3.74168 1.31917C3.86454 1.41055 4.30014 1.56475 4.37274 1.82174C4.41575 2.01177 4.41703 2.20919 4.37647 2.39979C4.33591 2.59038 4.25453 2.76941 4.13819 2.92397C3.28439 3.74429 2.37966 4.50735 1.42966 5.20838C1.28364 5.29652 1.11874 5.34677 0.949357 5.35474C0.779974 5.3627 0.611259 5.32814 0.457945 5.25407C0.313435 5.12433 0.197789 4.96443 0.118796 4.78513C0.0398033 4.60584 -0.000701631 4.41131 9.19622e-06 4.21466C0.100532 3.10101 2.38463 1.26777 3.74168 1.31917Z" fill="#98A2B3"/>
<path d="M25.1307 6.05371C26.4766 6.32784 27.5935 6.48775 28.6658 6.81328C28.8592 6.90781 29.0282 7.04751 29.1592 7.22111C29.2902 7.39471 29.3794 7.59736 29.4197 7.81271C29.4338 7.94588 29.4169 8.08058 29.3705 8.20584C29.3241 8.3311 29.2494 8.44338 29.1525 8.53354C29.0556 8.62371 28.9393 8.68921 28.813 8.72472C28.6867 8.76023 28.554 8.76474 28.4256 8.73789C27.2184 8.5674 26.0228 8.31943 24.8459 7.99546C24.7175 7.96859 24.5972 7.91109 24.4946 7.82764C24.3921 7.74419 24.3103 7.63716 24.2558 7.51525C24.2014 7.39335 24.1759 7.26002 24.1814 7.12613C24.1869 6.99223 24.2232 6.86156 24.2875 6.74474C24.455 6.39066 24.9241 6.20791 25.1307 6.05371Z" fill="#98A2B3"/>
<path d="M57.2307 1.14209C58.1801 1.3534 59.1798 1.54186 60.1515 1.81599C60.7099 1.9759 61.1846 2.38709 61.0171 3.0667C60.9842 3.20765 60.9229 3.34002 60.8371 3.45532C60.7513 3.57061 60.6429 3.66629 60.5188 3.7362C60.3947 3.80611 60.2576 3.84871 60.1165 3.86127C59.9753 3.87383 59.8332 3.85607 59.6991 3.80914C58.7051 3.62067 57.711 3.38652 56.7337 3.12381C56.607 3.10451 56.4854 3.05934 56.3761 2.99098C56.2668 2.92261 56.1721 2.83246 56.0976 2.72589C56.0231 2.61932 55.9703 2.4985 55.9424 2.37064C55.9145 2.24277 55.912 2.11047 55.9351 1.98161C56.0524 1.27344 56.5718 1.14209 57.2307 1.14209Z" fill="#98A2B3"/>
<path d="M20.7076 4.16898C20.7467 4.74008 20.2441 5.34545 19.7415 5.13986C18.5814 4.64598 17.4611 4.05975 16.3908 3.38657C16.1953 3.27806 16.1953 2.66127 16.3014 2.38714C16.4075 2.11301 16.9492 1.81604 17.1167 1.87886C18.2895 2.44996 19.4232 3.12958 20.5569 3.79777C20.663 3.85488 20.663 4.07189 20.7076 4.16898Z" fill="#98A2B3"/>
</g>
<defs>
<clipPath id="clip0_103_1479">
<rect width="73.75" height="10" fill="white"/>
</clipPath>
</defs>
</svg>
