<svg width="75" height="10" viewBox="0 0 75 10" fill="none" xmlns="http://www.w3.org/2000/svg">
<g clip-path="url(#clip0_103_1467)">
<path d="M68.5536 2.53001C67.7418 2.97547 66.9188 3.39237 66.1239 3.86638C65.6659 4.1015 65.2595 4.42783 64.9289 4.82584C64.8074 5.00796 64.7259 5.21436 64.6899 5.43111C64.654 5.64786 64.6643 5.86991 64.7203 6.08226C64.7775 6.20263 64.8598 6.30902 64.9615 6.3941C65.0632 6.47918 65.1818 6.54093 65.3093 6.57512C65.4368 6.60931 65.5701 6.61512 65.7 6.59215C65.8299 6.56918 65.9534 6.51797 66.0619 6.44206C66.9864 6.00231 67.8771 5.43121 68.7734 4.95148C69.0952 4.7412 69.4629 4.61376 69.8445 4.58026C69.6133 5.07712 69.3935 5.57969 69.1567 6.07084C68.9478 6.44055 68.7596 6.82189 68.593 7.21304C68.483 7.4572 68.4722 7.73539 68.5629 7.98756C68.6536 8.23972 68.8385 8.44564 69.0778 8.56085C69.3067 8.69367 69.576 8.73624 69.834 8.68038C70.0919 8.62453 70.3205 8.47418 70.4758 8.25816C70.7172 7.91829 70.9375 7.56352 71.1354 7.19591C72.0373 5.67297 72.9412 4.15003 73.8469 2.62709C74.0286 2.37398 74.1836 2.10215 74.3091 1.81613C74.3957 1.63732 74.4375 1.43962 74.4307 1.24055C74.4238 1.04148 74.3686 0.84719 74.2699 0.674909C74.1713 0.502627 74.0321 0.357677 73.8649 0.252902C73.6977 0.148129 73.5076 0.0867701 73.3113 0.0742664C73.0057 0.0255594 72.6959 0.00833893 72.3868 0.0228662C70.9381 0.0228662 69.4893 0.0228662 68.0462 0.0799761C67.5339 0.060029 67.0237 0.155612 66.5524 0.359818C66.4071 0.487908 66.2932 0.648526 66.2198 0.828941C66.1464 1.00936 66.1155 1.20461 66.1296 1.39922C66.1296 1.6448 66.5524 1.97033 66.8455 2.0617C67.3819 2.15262 67.9252 2.19467 68.469 2.18734C68.5197 2.29014 68.5366 2.41007 68.5536 2.53001Z" fill="#98A2B3"/>
<path d="M10.4852 10C11.3984 9.86294 12.3172 9.75443 13.2248 9.57167C13.3554 9.5625 13.4828 9.52662 13.5994 9.46622C13.7159 9.40581 13.8192 9.32212 13.9029 9.22019C13.9867 9.11827 14.0492 9.00021 14.0867 8.87315C14.1242 8.74609 14.1359 8.61264 14.1211 8.48087C14.0535 7.84123 13.5574 7.64135 12.9937 7.65848C11.6013 7.71559 10.2089 7.71559 8.8222 7.85266C8.22466 7.89834 7.69477 8.20674 7.73987 8.93204C7.78496 9.65734 8.30358 9.86294 8.92931 9.88007C9.44229 9.88007 9.96091 9.88007 10.4739 9.88007L10.4852 10Z" fill="#98A2B3"/>
<path d="M39.3024 4.67153C39.4884 4.86571 39.7252 5.28832 40.0803 5.47679C41.2077 6.08216 42.3972 6.61899 43.5697 7.14441C43.7866 7.28288 44.041 7.34881 44.2969 7.33287C44.6577 7.22436 45.1312 7.0359 45.2609 6.76177C45.3905 6.48764 45.2609 5.79089 45.0297 5.68238C43.519 4.92282 41.98 4.20894 40.4016 3.60357C39.9055 3.39798 39.4038 3.76348 39.3024 4.67153Z" fill="#98A2B3"/>
<path d="M51.9014 9.50879C52.2453 9.44026 52.5497 9.46881 52.7301 9.33175C53.0345 9.0976 53.4517 8.76065 53.4629 8.45225C53.4454 8.25595 53.3781 8.06759 53.2675 7.90547C53.1568 7.74335 53.0067 7.61299 52.8316 7.52706C51.3715 7.19011 49.8946 6.95596 48.412 6.73323C48.2961 6.70762 48.1761 6.70735 48.0601 6.73245C47.944 6.75755 47.8346 6.80744 47.7391 6.87878C47.6436 6.95013 47.5642 7.0413 47.5062 7.14619C47.4483 7.25109 47.4131 7.36731 47.403 7.48709C47.3734 7.6026 47.3668 7.7229 47.3835 7.84103C47.4001 7.95916 47.4398 8.07277 47.5 8.17527C47.5603 8.27778 47.6401 8.36716 47.7347 8.43823C47.8293 8.5093 47.9369 8.56065 48.0513 8.58931C49.3478 8.93769 50.6613 9.21753 51.9014 9.50879Z" fill="#98A2B3"/>
<path d="M36.0102 3.82636C36.636 3.92344 37.1884 3.74069 37.3068 3.06108C37.3325 2.91663 37.3278 2.76829 37.2928 2.62583C37.2579 2.48337 37.1936 2.35002 37.1041 2.23456C37.0147 2.1191 36.9021 2.02415 36.7738 1.95596C36.6455 1.88776 36.5043 1.84788 36.3597 1.83892C35.1908 1.65064 34.0129 1.52483 32.8309 1.46199C32.6888 1.43226 32.5419 1.43501 32.401 1.47005C32.2601 1.5051 32.1287 1.57155 32.0164 1.66457C31.9041 1.75758 31.8136 1.87482 31.7517 2.00773C31.6897 2.14064 31.6578 2.28588 31.6583 2.43287C31.6583 3.16959 32.1882 3.40374 32.7858 3.47798C33.8512 3.62076 34.9504 3.71785 36.0102 3.82636Z" fill="#98A2B3"/>
<path d="M3.77691 8.68083C3.90093 8.58945 4.34063 8.43525 4.41391 8.17826C4.45733 7.98823 4.45862 7.79081 4.41768 7.60021C4.37674 7.40962 4.29459 7.23059 4.17715 7.07603C3.31531 6.25571 2.40207 5.49265 1.44312 4.79162C1.29573 4.70348 1.12927 4.65323 0.958296 4.64526C0.787318 4.6373 0.617015 4.67186 0.462257 4.74593C0.316386 4.87567 0.199651 5.03557 0.119915 5.21487C0.0401781 5.39416 -0.000708238 5.58869 9.28281e-06 5.78534C0.101478 6.89899 2.40708 8.73223 3.77691 8.68083Z" fill="#98A2B3"/>
<path d="M25.3672 3.94629C26.7258 3.67216 27.8532 3.51225 28.9355 3.18672C29.1308 3.09219 29.3014 2.95249 29.4336 2.77889C29.5658 2.60529 29.6559 2.40264 29.6966 2.18729C29.7108 2.05412 29.6938 1.91942 29.6469 1.79416C29.6 1.6689 29.5246 1.55662 29.4268 1.46646C29.3291 1.37629 29.2116 1.31079 29.0841 1.27528C28.9566 1.23977 28.8227 1.23526 28.6931 1.26211C27.4745 1.4326 26.2676 1.68057 25.0797 2.00454C24.9501 2.03141 24.8286 2.08891 24.7251 2.17236C24.6216 2.25581 24.539 2.36284 24.4841 2.48475C24.4291 2.60665 24.4034 2.73998 24.4089 2.87387C24.4145 3.00777 24.4512 3.13844 24.516 3.25526C24.6851 3.60934 25.1586 3.79209 25.3672 3.94629Z" fill="#98A2B3"/>
<path d="M57.7697 8.85791C58.728 8.6466 59.7371 8.45814 60.7179 8.18401C61.2817 8.0241 61.7608 7.61291 61.5917 6.9333C61.5585 6.79235 61.4967 6.65998 61.41 6.54468C61.3234 6.42939 61.214 6.33371 61.0887 6.2638C60.9634 6.19389 60.8251 6.15129 60.6826 6.13873C60.5401 6.12617 60.3966 6.14393 60.2613 6.19086C59.2579 6.37933 58.2545 6.61348 57.268 6.87619C57.1401 6.89549 57.0173 6.94066 56.907 7.00902C56.7967 7.07739 56.7011 7.16754 56.6259 7.27411C56.5506 7.38068 56.4974 7.5015 56.4692 7.62936C56.441 7.75723 56.4385 7.88953 56.4619 8.01839C56.5803 8.72656 57.1045 8.85791 57.7697 8.85791Z" fill="#98A2B3"/>
<path d="M20.9026 5.83102C20.9421 5.25992 20.4347 4.65455 19.9274 4.86014C18.7564 5.35402 17.6255 5.94025 16.5451 6.61343C16.3478 6.72194 16.3478 7.33873 16.4549 7.61286C16.562 7.88699 17.1088 8.18396 17.2779 8.12114C18.4617 7.55004 19.6061 6.87042 20.7504 6.20223C20.8575 6.14512 20.8575 5.92811 20.9026 5.83102Z" fill="#98A2B3"/>
</g>
<defs>
<clipPath id="clip0_103_1467">
<rect width="74.4444" height="10" fill="white" transform="matrix(1 0 0 -1 0 10)"/>
</clipPath>
</defs>
</svg>
