<svg width="74" height="10" viewBox="0 0 74 10" fill="none" xmlns="http://www.w3.org/2000/svg">
<g clip-path="url(#clip0_103_1491)">
<path d="M5.83595 2.53001C6.64013 2.97547 7.45548 3.39237 8.24291 3.86638C8.69664 4.1015 9.09933 4.42783 9.42684 4.82584C9.54716 5.00796 9.62787 5.21436 9.66352 5.43111C9.69917 5.64786 9.68892 5.86991 9.63347 6.08226C9.57677 6.20263 9.49524 6.30902 9.39451 6.3941C9.29377 6.47918 9.17621 6.54093 9.04991 6.57512C8.92361 6.60931 8.79157 6.61512 8.66287 6.59215C8.53416 6.56918 8.41185 6.51797 8.30434 6.44206C7.38847 6.00231 6.5061 5.4312 5.61816 4.95148C5.29932 4.7412 4.93506 4.61376 4.55708 4.58026C4.78605 5.07712 5.00385 5.57969 5.2384 6.07084C5.44538 6.44055 5.63183 6.82189 5.79686 7.21304C5.90584 7.4572 5.91657 7.73539 5.82671 7.98756C5.73685 8.23972 5.55362 8.44564 5.31659 8.56085C5.08981 8.69367 4.82307 8.73624 4.56749 8.68038C4.31192 8.62453 4.0855 8.47418 3.93161 8.25816C3.69246 7.91829 3.47424 7.56352 3.27822 7.19591C2.38468 5.67297 1.48929 4.15003 0.592035 2.62709C0.411952 2.37397 0.258454 2.10215 0.134096 1.81613C0.0482651 1.63732 0.00690333 1.43962 0.0136716 1.24055C0.0204389 1.04148 0.0751273 0.847189 0.172893 0.674908C0.270659 0.502627 0.408483 0.357676 0.57414 0.252901C0.739797 0.148128 0.928172 0.0867693 1.12257 0.0742657C1.42538 0.0255587 1.73223 0.00833823 2.03844 0.0228656C3.47368 0.0228657 4.90892 0.0228658 6.33857 0.0799758C6.84605 0.0600288 7.35153 0.155612 7.81848 0.359817C7.96243 0.487908 8.07522 0.648526 8.14792 0.828941C8.22062 1.00936 8.25123 1.20461 8.23732 1.39922C8.23732 1.6448 7.81848 1.97033 7.52808 2.0617C6.99671 2.15262 6.45844 2.19467 5.91972 2.18734C5.86946 2.29014 5.85271 2.41007 5.83595 2.53001Z" fill="#98A2B3"/>
<path d="M63.3626 10C62.4579 9.86294 61.5476 9.75443 60.6485 9.57167C60.5191 9.5625 60.3929 9.52662 60.2775 9.46622C60.162 9.40581 60.0597 9.32212 59.9767 9.22019C59.8938 9.11827 59.8318 9.00021 59.7947 8.87315C59.7575 8.74608 59.7459 8.61264 59.7606 8.48087C59.8276 7.84123 60.319 7.64135 60.8775 7.65848C62.2569 7.71559 63.6363 7.71559 65.0101 7.85266C65.602 7.89834 66.127 8.20674 66.0823 8.93204C66.0376 9.65734 65.5238 9.86294 64.904 9.88007C64.3958 9.88007 63.882 9.88007 63.3738 9.88007L63.3626 10Z" fill="#98A2B3"/>
<path d="M34.8142 4.67153C34.6299 4.86571 34.3954 5.28832 34.0435 5.47679C32.9266 6.08216 31.7483 6.61899 30.5867 7.14441C30.3718 7.28288 30.1198 7.34881 29.8663 7.33287C29.5089 7.22436 29.0398 7.0359 28.9113 6.76177C28.7829 6.48764 28.9113 5.79089 29.1403 5.68238C30.6369 4.92282 32.1615 4.20894 33.7252 3.60357C34.2167 3.39798 34.7137 3.76348 34.8142 4.67153Z" fill="#98A2B3"/>
<path d="M22.3327 9.50879C21.992 9.44026 21.6905 9.46881 21.5118 9.33175C21.2102 9.09759 20.7969 8.76064 20.7858 8.45225C20.8031 8.25595 20.8698 8.06759 20.9794 7.90547C21.089 7.74335 21.2378 7.61299 21.4112 7.52706C22.8576 7.19011 24.3208 6.95596 25.7895 6.73323C25.9044 6.70762 26.0233 6.70735 26.1382 6.73245C26.2532 6.75755 26.3616 6.80744 26.4562 6.87878C26.5508 6.95013 26.6295 7.0413 26.6869 7.14619C26.7443 7.25109 26.7792 7.36731 26.7892 7.48709C26.8184 7.6026 26.825 7.7229 26.8085 7.84103C26.792 7.95916 26.7527 8.07277 26.693 8.17527C26.6333 8.27778 26.5543 8.36716 26.4605 8.43823C26.3668 8.5093 26.2602 8.56065 26.147 8.58931C24.8625 8.93769 23.5613 9.21753 22.3327 9.50879Z" fill="#98A2B3"/>
<path d="M38.0757 3.82635C37.4558 3.92344 36.9085 3.74069 36.7912 3.06108C36.7657 2.91663 36.7704 2.76829 36.805 2.62583C36.8396 2.48337 36.9033 2.35002 36.992 2.23456C37.0806 2.1191 37.1921 2.02415 37.3192 1.95596C37.4463 1.88776 37.5861 1.84788 37.7294 1.83892C38.8875 1.65064 40.0544 1.52483 41.2254 1.46199C41.3661 1.43226 41.5116 1.43501 41.6512 1.47005C41.7908 1.5051 41.9209 1.57155 42.0322 1.66457C42.1435 1.75758 42.2331 1.87482 42.2945 2.00773C42.3558 2.14064 42.3874 2.28588 42.387 2.43287C42.387 3.16959 41.862 3.40374 41.27 3.47798C40.2146 3.62076 39.1256 3.71785 38.0757 3.82635Z" fill="#98A2B3"/>
<path d="M70.0083 8.68083C69.8855 8.58945 69.4499 8.43525 69.3773 8.17826C69.3342 7.98823 69.333 7.79081 69.3735 7.60021C69.4141 7.40962 69.4955 7.23059 69.6118 7.07603C70.4656 6.25571 71.3703 5.49265 72.3203 4.79162C72.4664 4.70348 72.6313 4.65323 72.8006 4.64526C72.97 4.6373 73.1387 4.67186 73.2921 4.74593C73.4366 4.87567 73.5522 5.03557 73.6312 5.21487C73.7102 5.39416 73.7507 5.58869 73.75 5.78534C73.6495 6.89899 71.3654 8.73223 70.0083 8.68083Z" fill="#98A2B3"/>
<path d="M48.6193 3.94629C47.2734 3.67216 46.1565 3.51225 45.0842 3.18672C44.8908 3.09219 44.7218 2.95249 44.5908 2.77889C44.4598 2.60529 44.3706 2.40264 44.3303 2.18729C44.3162 2.05411 44.3331 1.91942 44.3795 1.79416C44.4259 1.6689 44.5006 1.55662 44.5975 1.46646C44.6944 1.37629 44.8107 1.31079 44.937 1.27528C45.0633 1.23977 45.196 1.23526 45.3244 1.26211C46.5316 1.4326 47.7272 1.68057 48.9041 2.00454C49.0325 2.03141 49.1528 2.08891 49.2554 2.17236C49.3579 2.25581 49.4397 2.36284 49.4942 2.48475C49.5486 2.60665 49.5741 2.73998 49.5686 2.87387C49.5631 3.00777 49.5268 3.13844 49.4625 3.25526C49.295 3.60934 48.8259 3.79209 48.6193 3.94629Z" fill="#98A2B3"/>
<path d="M16.5193 8.85791C15.5699 8.6466 14.5702 8.45814 13.5985 8.18401C13.0401 8.0241 12.5654 7.61291 12.7329 6.9333C12.7658 6.79235 12.8271 6.65998 12.9129 6.54468C12.9987 6.42939 13.1071 6.33371 13.2312 6.2638C13.3553 6.19389 13.4924 6.15129 13.6335 6.13873C13.7747 6.12617 13.9168 6.14393 14.0509 6.19086C15.0449 6.37933 16.039 6.61348 17.0163 6.87619C17.143 6.89549 17.2646 6.94066 17.3739 7.00902C17.4832 7.07739 17.5779 7.16754 17.6524 7.27411C17.7269 7.38068 17.7797 7.5015 17.8076 7.62936C17.8355 7.75723 17.838 7.88953 17.8149 8.01839C17.6976 8.72656 17.1782 8.85791 16.5193 8.85791Z" fill="#98A2B3"/>
<path d="M53.0424 5.83102C53.0033 5.25992 53.5059 4.65455 54.0085 4.86014C55.1686 5.35402 56.2889 5.94025 57.3592 6.61343C57.5547 6.72194 57.5547 7.33873 57.4486 7.61286C57.3425 7.88699 56.8008 8.18396 56.6333 8.12114C55.4605 7.55004 54.3268 6.87042 53.1931 6.20223C53.087 6.14512 53.087 5.9281 53.0424 5.83102Z" fill="#98A2B3"/>
</g>
<defs>
<clipPath id="clip0_103_1491">
<rect width="73.75" height="10" fill="white" transform="translate(73.75 10) rotate(-180)"/>
</clipPath>
</defs>
</svg>
