<svg width="80" height="80" viewBox="0 0 80 80" fill="none" xmlns="http://www.w3.org/2000/svg">
<circle cx="40" cy="40" r="40" fill="white"/>
<path d="M41.0099 52.967V51.3855H52.63L49.4906 29.0078L39.9999 21.0129L30.5094 29.0078L27.3699 51.3855H38.99V52.967H23V54.9869H57V52.967H41.0099ZM41.0099 24.5048L47.5977 30.0543L48.1524 34.0074L41.01 27.9907V24.5048H41.0099ZM41.0099 30.6318L48.5725 37.0026L49.1271 40.9557L41.0099 34.1178V30.6318ZM41.0099 36.7589L49.5473 43.9508L50.1019 47.9039L41.0099 40.2448V36.7589ZM41.0099 42.8858L48.702 49.3656H41.0099V42.8858ZM32.4022 30.0543L38.99 24.5048V27.9908L31.8476 34.0075L32.4022 30.0543ZM38.99 49.3657H31.2979L38.99 42.8859V49.3657ZM38.99 40.2447L29.898 47.9038L30.4526 43.9506L38.99 36.7588V40.2447ZM38.9901 34.1177L30.8728 40.9557L31.4275 37.0025L38.9901 30.6318V34.1177Z" fill="#101828"/>
</svg>
