<svg width="80" height="80" viewBox="0 0 80 80" fill="none" xmlns="http://www.w3.org/2000/svg">
<circle cx="40" cy="40" r="40" fill="white"/>
<g clip-path="url(#clip0_103_1440)">
<path d="M50.7998 46.9924C48.666 46.9924 47.5646 47.767 46.5932 48.45C45.7398 49.0499 45.0658 49.5237 43.5994 49.5237C42.1333 49.5237 41.4593 49.0499 40.6062 48.45C39.6347 47.7667 38.5333 46.9924 36.3995 46.9924C34.266 46.9924 33.1646 47.767 32.1931 48.45C31.34 49.0499 30.666 49.5237 29.1999 49.5237C27.7338 49.5237 27.0598 49.0499 26.2067 48.45C25.2349 47.767 24.1335 46.9924 22 46.9924V49.1018C23.4664 49.1018 24.1401 49.5756 24.9932 50.1757C25.965 50.8588 27.0661 51.6331 29.1999 51.6331C31.3334 51.6331 32.4348 50.8588 33.4063 50.1757C34.2594 49.5756 34.9334 49.1018 36.3995 49.1018C37.8659 49.1018 38.5396 49.5756 39.393 50.1757C40.3645 50.8588 41.4659 51.6331 43.5994 51.6331C45.7332 51.6331 46.8346 50.8588 47.8063 50.1757C48.6594 49.5759 49.3334 49.1018 50.7998 49.1018C52.2662 49.1018 52.94 49.5756 53.7933 50.1757C54.7648 50.8588 55.8662 51.6331 58 51.6331V49.5237C56.5336 49.5237 55.8596 49.0499 55.0065 48.45C54.0348 47.767 52.9334 46.9924 50.7998 46.9924Z" fill="#101828"/>
<path d="M50.7998 34.5498C48.666 34.5498 47.5646 35.3241 46.5932 36.0071C45.7398 36.607 45.0658 37.0811 43.5994 37.0811C42.1333 37.0811 41.4593 36.607 40.6062 36.0071C39.6347 35.3241 38.5333 34.5498 36.3995 34.5498C34.266 34.5498 33.1646 35.3241 32.1931 36.0071C31.34 36.607 30.666 37.0811 29.1999 37.0811C27.7338 37.0811 27.0598 36.607 26.2067 36.0071C25.2349 35.3241 24.1335 34.5498 22 34.5498V36.6592C23.4664 36.6592 24.1401 37.133 24.9932 37.7328C25.965 38.4162 27.0661 39.1904 29.1999 39.1904C31.3334 39.1904 32.4348 38.4159 33.4063 37.7328C34.2594 37.133 34.9334 36.6592 36.3995 36.6592C37.8659 36.6592 38.5396 37.133 39.393 37.7328C40.3645 38.4162 41.4659 39.1904 43.5994 39.1904C45.7332 39.1904 46.8346 38.4159 47.8063 37.7328C48.6594 37.133 49.3334 36.6592 50.7998 36.6592C52.2662 36.6592 52.94 37.133 53.7933 37.7328C54.7648 38.4162 55.8662 39.1904 58 39.1904V37.0811C56.5336 37.0811 55.8596 36.607 55.0065 36.0071C54.0348 35.3241 52.9334 34.5498 50.7998 34.5498Z" fill="#101828"/>
<path d="M50.7998 40.7712C48.666 40.7712 47.5646 41.5455 46.5932 42.2286C45.7398 42.8284 45.0658 43.3025 43.5994 43.3025C42.1333 43.3025 41.4593 42.8284 40.6062 42.2286C39.6347 41.5455 38.5333 40.7712 36.3995 40.7712C34.266 40.7712 33.1646 41.5455 32.1931 42.2286C31.34 42.8284 30.666 43.3025 29.1999 43.3025C27.7338 43.3025 27.0598 42.8284 26.2067 42.2286C25.2349 41.5455 24.1335 40.7712 22 40.7712V42.8806C23.4664 42.8806 24.1401 43.3544 24.9932 43.9543C25.965 44.6373 27.0661 45.4119 29.1999 45.4119C31.3334 45.4119 32.4348 44.6373 33.4063 43.9543C34.2594 43.3544 34.9334 42.8806 36.3995 42.8806C37.8659 42.8806 38.5396 43.3544 39.393 43.9543C40.3645 44.6373 41.4659 45.4119 43.5994 45.4119C45.7332 45.4119 46.8346 44.6373 47.8063 43.9543C48.6594 43.3544 49.3334 42.8806 50.7998 42.8806C52.2662 42.8806 52.94 43.3544 53.7933 43.9543C54.7648 44.6373 55.8662 45.4119 58 45.4119V43.3025C56.5336 43.3025 55.8596 42.8284 55.0065 42.2286C54.0348 41.5455 52.9334 40.7712 50.7998 40.7712Z" fill="#101828"/>
<path d="M55.0065 29.7857C54.0348 29.1024 52.9334 28.3281 50.7998 28.3281C48.666 28.3281 47.5646 29.1024 46.5932 29.7857C45.7398 30.3856 45.0658 30.8594 43.5994 30.8594C42.1333 30.8594 41.4593 30.3856 40.6062 29.7857C39.6347 29.1024 38.5333 28.3281 36.3995 28.3281C34.266 28.3281 33.1646 29.1024 32.1931 29.7857C31.34 30.3856 30.666 30.8594 29.1999 30.8594C27.7338 30.8594 27.0598 30.3856 26.2067 29.7857C25.2349 29.1024 24.1335 28.3281 22 28.3281V30.4375C23.4664 30.4375 24.1401 30.9113 24.9932 31.5111C25.965 32.1945 27.0661 32.9688 29.1999 32.9688C31.3334 32.9688 32.4348 32.1945 33.4063 31.5111C34.2594 30.9113 34.9334 30.4375 36.3995 30.4375C37.8659 30.4375 38.5396 30.9113 39.393 31.5111C40.3645 32.1945 41.4659 32.9688 43.5994 32.9688C45.7332 32.9688 46.8346 32.1945 47.8063 31.5111C48.6594 30.9113 49.3334 30.4375 50.7998 30.4375C52.2662 30.4375 52.94 30.9113 53.7933 31.5111C54.7648 32.1945 55.8662 32.9688 58 32.9688V30.8594C56.5336 30.8594 55.8596 30.3856 55.0065 29.7857Z" fill="#101828"/>
</g>
<defs>
<clipPath id="clip0_103_1440">
<rect width="36" height="36" fill="white" transform="translate(22 22)"/>
</clipPath>
</defs>
</svg>
