<svg width="80" height="80" viewBox="0 0 80 80" fill="none" xmlns="http://www.w3.org/2000/svg">
<circle cx="40" cy="40" r="40" fill="white"/>
<path d="M39.4101 33.2332L35.7801 37.6885L32.1502 33.2332L30.4402 34.6263L35.7801 41.1806L41.1201 34.6263L39.4101 33.2332Z" fill="#101828"/>
<path d="M53.1376 41.5749H56.5307L51.6782 32.6035H54.8235L47.5483 22.0103L44.5273 26.4099C42.4547 23.705 39.2887 22 35.7802 22C30.1608 22 25.4376 26.3533 24.6465 32.1903C22.8975 34.063 22.0107 36.262 22.0107 38.7332C22.0107 43.8666 25.8942 48.103 30.8534 48.6081V58H40.7423V49.3676H43.8479V58H51.1995V49.3676H57.9894L53.1376 41.5749ZM45.7926 28.4634L47.5484 25.907L50.6327 30.3978H46.5345H44.4641L45.7926 28.4634ZM45.3426 33.6828L45.9264 32.6035H47.3344H49.1703L52.8303 39.3692H49.582H47.3703H43.3648H42.2671L42.6031 38.7486L45.3426 33.6828ZM38.5366 47.0722L37.1073 49.3677H38.5366V55.7944H33.0591V42.4623L29.6189 38.2391L27.9088 39.6323L30.8534 43.2467V46.3869C27.1132 45.8921 24.2164 42.6482 24.2164 38.7331C24.2164 36.7435 24.9774 34.9724 26.478 33.4688L26.7537 33.1931L26.7942 32.8049C27.3073 27.9025 31.1703 24.2057 35.7802 24.2057C38.827 24.2057 41.554 25.8284 43.1972 28.3465L40.2739 32.6035H43.4193L38.566 41.5749H39.2594H41.9599L41.4908 42.3285L40.7423 43.5298L38.5366 47.0722ZM48.9938 55.7943H46.0536V49.3676H48.9938V55.7943ZM44.9537 47.1619H41.079L41.6738 46.2068L44.5581 41.5749H46.8609H49.1916H50.5393L54.0176 47.1619H44.9537Z" fill="#101828"/>
</svg>
