<svg width="80" height="80" viewBox="0 0 80 80" fill="none" xmlns="http://www.w3.org/2000/svg">
<circle cx="40" cy="40" r="40" fill="white"/>
<path d="M42.2407 25.5989V24.2406C42.2407 23.0031 41.2375 22 40 22C38.7625 22 37.7594 23.0031 37.7594 24.2406V25.5989C38.49 25.4857 39.2382 25.4266 40 25.4266C40.7619 25.4266 41.5101 25.4857 42.2407 25.5989Z" fill="#101828"/>
<path d="M51.7623 31.4064L52.728 30.4408C53.603 29.5657 53.603 28.147 52.728 27.272C51.8529 26.397 50.4342 26.397 49.5592 27.272L48.5935 28.2377C49.805 29.1252 50.8747 30.195 51.7623 31.4064Z" fill="#101828"/>
<path d="M55.7593 37.7593H54.4011C54.5143 38.4899 54.5734 39.2382 54.5734 39.9999C54.5734 40.7617 54.5143 41.51 54.4011 42.2406H55.7593C56.9968 42.2406 58 41.2374 58 39.9999C58 38.7624 56.9968 37.7593 55.7593 37.7593Z" fill="#101828"/>
<path d="M48.5935 51.7623L49.5592 52.728C50.4342 53.603 51.8529 53.603 52.728 52.728C53.603 51.8529 53.603 50.4342 52.728 49.5592L51.7623 48.5935C50.8747 49.805 49.805 50.8747 48.5935 51.7623Z" fill="#101828"/>
<path d="M37.7594 54.4011V55.7593C37.7594 56.9968 38.7625 58 40 58C41.2375 58 42.2407 56.9968 42.2407 55.7593V54.4011C41.5101 54.5143 40.7618 54.5734 40 54.5734C39.2383 54.5734 38.4899 54.5143 37.7594 54.4011Z" fill="#101828"/>
<path d="M28.2377 48.5935L27.272 49.5592C26.397 50.4342 26.397 51.8529 27.272 52.728C28.147 53.603 29.5657 53.603 30.4408 52.728L31.4064 51.7623C30.195 50.8747 29.1252 49.805 28.2377 48.5935Z" fill="#101828"/>
<path d="M25.5989 37.7593H24.2406C23.0031 37.7593 22 38.7624 22 39.9999C22 41.2374 23.0031 42.2406 24.2406 42.2406H25.5989C25.4857 41.51 25.4266 40.7617 25.4266 39.9999C25.4266 39.2382 25.4857 38.4898 25.5989 37.7593Z" fill="#101828"/>
<path d="M31.4064 28.2377L30.4408 27.272C29.5657 26.397 28.147 26.397 27.272 27.272C26.397 28.147 26.397 29.5657 27.272 30.4408L28.2377 31.4064C29.1252 30.195 30.195 29.1252 31.4064 28.2377Z" fill="#101828"/>
<path d="M41.0547 35.7126C41.4942 35.8208 41.9084 35.9941 42.2854 36.2231L44.8467 33.6618C43.7659 32.8334 42.4682 32.2746 41.0547 32.0872V35.7126Z" fill="#101828"/>
<path d="M43.777 37.7146C44.006 38.0916 44.1793 38.5058 44.2874 38.9453H47.9129C47.7255 37.5319 47.1667 36.2341 46.3382 35.1533L43.777 37.7146Z" fill="#101828"/>
<path d="M44.2874 41.0547C44.1793 41.4942 44.006 41.9084 43.777 42.2854L46.3382 44.8467C47.1667 43.7659 47.7254 42.4682 47.9129 41.0547H44.2874Z" fill="#101828"/>
<path d="M38.9453 44.2873C38.5058 44.1792 38.0916 44.0059 37.7146 43.7769L35.1533 46.3381C36.2342 47.1665 37.5319 47.7253 38.9453 47.9128V44.2873Z" fill="#101828"/>
<path d="M27.536 39.9999C27.536 46.8726 33.1273 52.4639 40 52.4639C46.8727 52.4639 52.464 46.8726 52.464 39.9999C52.464 33.1272 46.8727 27.5359 40 27.5359C33.1273 27.5359 27.536 33.1272 27.536 39.9999ZM50.092 39.9999C50.092 45.5647 45.5648 50.0919 40 50.0919C34.4353 50.0919 29.908 45.5647 29.908 39.9999C29.908 34.4351 34.4352 29.9079 40 29.9079C45.5648 29.9079 50.092 34.4351 50.092 39.9999Z" fill="#101828"/>
<path d="M42.2854 43.7769C41.9084 44.0059 41.4942 44.1792 41.0547 44.2873V47.9128C42.4682 47.7254 43.7659 47.1666 44.8467 46.3381L42.2854 43.7769Z" fill="#101828"/>
<path d="M40 42.3062C41.2738 42.3062 42.3064 41.2737 42.3064 39.9999C42.3064 38.7262 41.2738 37.6936 40 37.6936C38.7263 37.6936 37.6937 38.7262 37.6937 39.9999C37.6937 41.2737 38.7263 42.3062 40 42.3062Z" fill="#101828"/>
<path d="M36.2231 42.2854C35.9941 41.9084 35.8208 41.4942 35.7126 41.0547H32.0872C32.2745 42.4682 32.8333 43.7659 33.6618 44.8467L36.2231 42.2854Z" fill="#101828"/>
<path d="M35.7126 38.9453C35.8208 38.5058 35.9941 38.0916 36.2231 37.7146L33.6618 35.1533C32.8334 36.2342 32.2746 37.5319 32.0872 38.9453H35.7126Z" fill="#101828"/>
<path d="M37.7146 36.2231C38.0916 35.9941 38.5058 35.8208 38.9453 35.7126V32.0872C37.5319 32.2745 36.2341 32.8333 35.1533 33.6618L37.7146 36.2231Z" fill="#101828"/>
</svg>
