<svg width="80" height="80" viewBox="0 0 80 80" fill="none" xmlns="http://www.w3.org/2000/svg">
<circle cx="40" cy="40" r="40" fill="white"/>
<g clip-path="url(#clip0_265_2868)">
<path d="M42.5242 56.9999C41.2552 56.9999 40.1004 56.4018 39.3442 55.3489C38.8589 54.6731 38.6024 53.876 38.6024 53.0441V26.8466C38.6024 26.7093 38.5707 26.5713 38.5103 26.4476L38.4644 26.3534C38.0649 25.5337 37.2906 25.6417 37.0626 25.694C36.832 25.7472 36.0794 25.9937 36.0794 26.9272V46.4437C36.0794 48.0447 35.1212 49.4688 33.6385 50.0719C32.1558 50.6753 30.4751 50.3243 29.3576 49.178C28.6401 48.4421 28.2451 47.4709 28.2451 46.4434V34.5974C28.2451 33.7922 27.6305 33.4773 27.4422 33.3998C27.2536 33.3225 26.595 33.1147 26.0293 33.6877C25.7883 33.9318 25.6557 34.2547 25.6557 34.5974V44.3853C25.6557 45.1187 25.0612 45.7132 24.3279 45.7132C23.5945 45.7132 23 45.1187 23 44.3853V34.5974C23 33.5518 23.4047 32.5661 24.1395 31.8218C25.2874 30.6595 26.9395 30.3225 28.4508 30.9433C29.962 31.5635 30.9008 32.964 30.9008 34.5974V46.4434C30.9008 46.7744 31.0282 47.0872 31.259 47.3241C31.8089 47.888 32.4533 47.687 32.638 47.612C32.8222 47.537 33.4237 47.2312 33.4237 46.4439V26.9272C33.4237 25.0619 34.646 23.5262 36.4654 23.1065C38.2776 22.6884 40.0402 23.5255 40.8516 25.1898L40.8975 25.2842C41.1333 25.7682 41.2581 26.3086 41.2581 26.8468L41.2578 53.0443C41.2578 53.317 41.3421 53.5782 41.5011 53.7997C41.8329 54.2617 42.2575 54.3507 42.5559 54.3439C43.182 54.3297 43.8474 53.8695 43.8474 53.0446V51.1575C43.8474 50.4239 44.4419 49.8296 45.1753 49.8296C45.9086 49.8296 46.5031 50.4239 46.5031 51.1575V53.0446C46.5031 55.4645 44.5268 56.9556 42.616 56.9989C42.5854 56.9997 42.5548 56.9999 42.5242 56.9999ZM53.0771 50.3606C54.5479 50.3593 55.8418 49.5692 56.5383 48.247C56.8358 47.6815 56.9932 47.045 56.9932 46.4061V36.9491C56.9932 36.2158 56.3987 35.6213 55.6654 35.6213C54.9321 35.6213 54.3375 36.2158 54.3375 36.9491V46.4061C54.3375 46.6157 54.2859 46.8242 54.1884 47.0094C53.8859 47.5837 53.4159 47.7046 53.075 47.7049C53.0745 47.7049 53.0742 47.7049 53.0737 47.7049C52.7272 47.7049 52.3871 47.5767 52.1407 47.3531C51.8802 47.1166 51.7482 46.798 51.7482 46.4061V34.5966C51.7482 33.1347 50.9835 31.841 49.7031 31.136C48.4224 30.4309 46.9205 30.4766 45.685 31.2584C44.5343 31.9868 43.8474 33.2348 43.8474 34.5964V44.5179C43.8474 45.2515 44.4419 45.8458 45.1753 45.8458C45.9086 45.8458 46.5031 45.2515 46.5031 44.5179V34.5966C46.5031 34.1502 46.7283 33.7414 47.1055 33.5025C47.6889 33.1334 48.2206 33.3515 48.4222 33.4625C48.6237 33.5733 49.0925 33.9061 49.0925 34.5966V46.4061C49.0925 47.5456 49.5412 48.5803 50.356 49.3196C51.0852 49.9814 52.0753 50.3606 53.0737 50.3606H53.0771Z" fill="#101828"/>
</g>
<defs>
<clipPath id="clip0_265_2868">
<rect width="34" height="34" fill="white" transform="translate(23 23)"/>
</clipPath>
</defs>
</svg>
