<svg width="80" height="80" viewBox="0 0 80 80" fill="none" xmlns="http://www.w3.org/2000/svg">
<circle cx="40" cy="40" r="40" fill="white"/>
<g clip-path="url(#clip0_103_1402)">
<path d="M57.9999 40L53.1272 35.1272C52.9908 34.9908 52.8493 34.8612 52.7038 34.7377C52.7196 34.5483 52.7279 34.3568 52.7279 34.1633V27.2721H45.8367C45.6425 27.2721 45.4502 27.2806 45.2601 27.2965C45.1373 27.1516 45.0095 27.0095 44.8728 26.8729L40 22L35.1272 26.8728C34.9908 27.0092 34.8612 27.1507 34.7377 27.2962C34.5482 27.2805 34.3567 27.2721 34.1633 27.2721H27.2721V34.1633C27.2721 34.3567 27.2806 34.5482 27.2963 34.7377C27.1507 34.8611 27.0093 34.9907 26.8729 35.1272L22 40L26.8728 44.8728C27.0092 45.0093 27.1507 45.1389 27.2963 45.2624C27.2805 45.4519 27.2721 45.6433 27.2721 45.8368V52.728H34.1633C34.3576 52.728 34.5498 52.7195 34.7401 52.7037C34.8628 52.8486 34.9907 52.9906 35.1273 53.1273L40.0001 58.0001L44.8729 53.1273C45.0096 52.9906 45.1373 52.8486 45.2602 52.7037C45.4504 52.7195 45.6426 52.728 45.8368 52.728H52.728V45.8367C52.728 45.6433 52.7196 45.4518 52.7038 45.2623C52.8493 45.1388 52.9908 45.0092 53.1272 44.8728L57.9999 40ZM45.8367 38.9456H42.5457L44.8728 36.6184C45.7761 35.7152 46.977 35.2177 48.2544 35.2177C48.9976 35.2177 49.7144 35.3872 50.3623 35.7059C49.719 37.588 47.934 38.9456 45.8367 38.9456ZM50.3623 44.2941C49.7145 44.6128 48.9977 44.7823 48.2544 44.7823C46.977 44.7823 45.7761 44.2848 44.8729 43.3816L42.5457 41.0544H45.8368C47.934 41.0545 49.7189 42.412 50.3623 44.2941ZM44.2919 50.3616C42.411 49.7176 41.0545 47.9332 41.0545 45.8367V42.5456L43.3816 44.8728C44.864 46.3552 45.1665 48.5762 44.2919 50.3616ZM35.7082 50.3616C34.8335 48.5762 35.1361 46.3552 36.6184 44.8728L38.9456 42.5457V45.8368C38.9456 47.9332 37.5891 49.7176 35.7082 50.3616ZM34.1633 41.0545H37.4544L35.1272 43.3816C34.2239 44.2849 33.023 44.7824 31.7456 44.7824C31.0024 44.7824 30.2857 44.6129 29.6378 44.2941C30.2812 42.412 32.0661 41.0545 34.1633 41.0545ZM29.6377 35.7059C30.2856 35.3872 31.0024 35.2177 31.7456 35.2177C33.023 35.2177 34.2239 35.7152 35.1272 36.6184L37.4544 38.9456H34.1633C32.0661 38.9456 30.2811 37.588 29.6377 35.7059ZM35.2177 31.7456C35.2177 31.0024 35.3872 30.2857 35.7059 29.6377C37.588 30.2811 38.9455 32.066 38.9455 34.1633V37.4544L36.6184 35.1272C35.7152 34.2239 35.2177 33.023 35.2177 31.7456ZM44.2919 29.6385C45.1665 31.4239 44.864 33.6448 43.3816 35.1272L41.0545 37.4544V34.1633C41.0545 32.0668 42.411 30.2825 44.2919 29.6385ZM50.619 29.381V33.5238C49.8714 33.2513 49.0739 33.1088 48.2544 33.1088C47.7296 33.1088 47.2138 33.1673 46.7144 33.2808C47.0071 31.9908 46.926 30.633 46.4707 29.381H50.619ZM40 24.9825L42.9326 27.9149C41.7241 28.4789 40.7053 29.3832 40 30.504C39.2948 29.3831 38.276 28.4788 37.0676 27.9149L40 24.9825ZM29.381 29.381H33.5238C33.2513 30.1287 33.1089 30.9262 33.1089 31.7456C33.1089 32.2682 33.1668 32.7818 33.2793 33.2793C32.7818 33.1668 32.2682 33.1088 31.7456 33.1088C30.9262 33.1088 30.1287 33.2513 29.381 33.5238V29.381ZM24.9825 40L27.9149 37.0676C28.4789 38.276 29.3832 39.2948 30.504 40C29.3831 40.7052 28.4788 41.7241 27.9149 42.9325L24.9825 40ZM29.381 50.619V46.4763C30.1287 46.7487 30.9262 46.8912 31.7456 46.8912C32.2704 46.8912 32.7862 46.8327 33.2857 46.7192C32.993 48.0092 33.074 49.3671 33.5294 50.619H29.381ZM40 55.0175L37.0676 52.0851C38.276 51.5211 39.2948 50.6168 40 49.4959C40.7052 50.6168 41.724 51.5211 42.9326 52.0851L40 55.0175ZM50.619 50.619H46.4707C46.926 49.3671 47.0071 48.0093 46.7144 46.7192C47.2138 46.8327 47.7296 46.8912 48.2544 46.8912C49.0739 46.8912 49.8714 46.7488 50.619 46.4762V50.619ZM49.496 40C50.6169 39.2948 51.5212 38.276 52.0851 37.0676L55.0176 40L52.0851 42.9325C51.5212 41.7241 50.6169 40.7052 49.496 40Z" fill="#101828"/>
</g>
<defs>
<clipPath id="clip0_103_1402">
<rect width="36" height="36" fill="white" transform="translate(22 22)"/>
</clipPath>
</defs>
</svg>
