<svg width="80" height="80" viewBox="0 0 80 80" fill="none" xmlns="http://www.w3.org/2000/svg">
<circle cx="40" cy="40" r="40" fill="white"/>
<path d="M40.0001 26.073C38.6891 26.073 37.6226 27.1395 37.6226 28.4505C37.6226 29.7615 38.6891 30.828 40.0001 30.828C41.3111 30.828 42.3776 29.7615 42.3776 28.4505C42.3776 27.1395 41.3111 26.073 40.0001 26.073ZM40.0001 28.8082C39.8029 28.8082 39.6424 28.6478 39.6424 28.4505C39.6424 28.2533 39.8029 28.0929 40.0001 28.0929C40.1973 28.0929 40.3578 28.2533 40.3578 28.4505C40.3578 28.6478 40.1973 28.8082 40.0001 28.8082Z" fill="#101828"/>
<path d="M47.4971 39.0704V44.6755H49.1016C48.1764 47.6806 45.8081 50.0487 42.8026 50.9739V40.268H46.1183V34.6628H42.8026V33.123C44.4303 32.1453 45.4506 30.3767 45.4506 28.4505C45.4506 25.4451 43.0054 23 40.0001 23C36.9947 23 34.5496 25.4451 34.5496 28.4506C34.5496 30.3767 35.5699 32.1453 37.1976 33.123V34.6629H33.8819V40.268H37.1976V50.974C34.1921 50.0488 31.8237 47.6807 30.8986 44.6756H32.503V39.0705H24.873V41.8731C24.873 50.2141 31.659 57 40.0001 57C48.3412 57 55.1271 50.214 55.1271 41.873V39.0704H47.4971ZM53.1071 41.8731C53.1071 49.1003 47.2274 54.9801 40.0001 54.9801C32.7727 54.9801 26.893 49.1003 26.893 41.8731V41.0904H30.4832V42.6557H28.4223L28.6257 43.837C29.4525 48.6383 33.2343 52.4198 38.0361 53.2468L39.2175 53.4502V38.2481H35.9018V36.6828H39.2175V31.8546L38.6167 31.5884C37.3731 31.0373 36.5695 29.8056 36.5695 28.4506C36.5695 26.5589 38.1085 25.0199 40.0001 25.0199C41.8918 25.0199 43.4307 26.5589 43.4307 28.4506C43.4307 29.8056 42.6272 31.0373 41.3836 31.5884L40.7828 31.8546V36.6828H44.0985V38.2481H40.7828V53.4503L41.9642 53.2469C46.7661 52.4199 50.5478 48.6384 51.3746 43.8371L51.578 42.6557H49.5171V41.0905H53.1073V41.8731H53.1071Z" fill="#101828"/>
</svg>
