<svg width="80" height="80" viewBox="0 0 80 80" fill="none" xmlns="http://www.w3.org/2000/svg">
<circle cx="40" cy="40" r="40" fill="white"/>
<g clip-path="url(#clip0_103_1411)">
<path d="M57.5614 42.3715C57.2327 41.8796 56.7571 41.5225 56.2021 41.3438C56.169 39.443 55.8093 37.5836 55.1279 35.8044C54.4387 34.0054 53.4489 32.3692 52.1816 30.926L53.4708 29.6367L52.7126 28.8785C49.3034 25.4691 44.7704 23.5916 39.9489 23.5916C35.1275 23.5916 30.5944 25.4691 27.1852 28.8785L26.4268 29.6367L27.7161 30.9259C26.4461 32.3718 25.4551 34.0116 24.7658 35.8146C24.0826 37.6019 23.7239 39.4699 23.6948 41.3791C22.5192 41.8144 21.798 43.0538 22.0502 44.3216L23.8938 53.5899C24.0292 54.2705 24.4215 54.8575 24.9984 55.2431C25.4307 55.532 25.9279 55.6818 26.4362 55.6818C26.6064 55.6818 26.7778 55.665 26.9485 55.631L28.1968 55.3827L28.4008 56.4082L34.3005 55.2347L31.0353 38.8195L25.9521 39.8306C26.0937 38.7219 26.3659 37.6348 26.7689 36.5805C27.3498 35.0609 28.1777 33.6744 29.2354 32.4457L30.4707 33.681L31.2289 32.9227C33.554 30.5977 36.6507 29.3172 39.9486 29.3172C43.2465 29.3172 46.3431 30.5976 48.6683 32.9227L49.4265 33.681L50.6618 32.4457C51.7174 33.672 52.5442 35.0556 53.1249 36.5717C53.5273 37.6221 53.7997 38.7051 53.9426 39.8098L48.9641 38.8195L45.699 55.2346L51.5987 56.4081L51.8028 55.3825L53.0511 55.6308C53.2218 55.6647 53.3932 55.6815 53.5634 55.6815C54.0718 55.6815 54.569 55.5317 55.0012 55.2429C55.5781 54.8573 55.9705 54.2703 56.1058 53.5897L57.9494 44.3214C58.0847 43.641 57.947 42.9485 57.5614 42.3715ZM29.3505 41.3413L31.7788 53.5497L30.086 53.8863L28.8718 47.7822L27.6576 41.6781L29.3505 41.3413ZM26.7682 48.2006L27.7785 53.2791L26.5301 53.5274C26.37 53.5594 26.2483 53.4987 26.1901 53.4597C26.1318 53.4209 26.0292 53.3316 25.9974 53.1714L24.1538 43.9031C24.1051 43.6581 24.2648 43.419 24.5098 43.3703L25.7581 43.122L26.7682 48.2006ZM49.3992 30.6753C46.7757 28.4089 43.4591 27.1723 39.9489 27.1723C36.4387 27.1723 33.122 28.4089 30.4986 30.6753L29.4849 29.6616C32.3835 27.1225 36.0597 25.7362 39.9488 25.7362C43.838 25.7362 47.5141 27.1226 50.4127 29.6616L49.3992 30.6753ZM51.1279 47.7821L49.9137 53.8863L48.2209 53.5495L50.6492 41.3412L52.3419 41.678L51.1279 47.7821ZM55.8458 43.9031L54.0022 53.1715C53.9704 53.3316 53.8678 53.4209 53.8096 53.4598C53.7514 53.4988 53.6294 53.5596 53.4695 53.5275L52.2211 53.2792L53.2313 48.2006L54.2414 43.122L55.4898 43.3703C55.65 43.4022 55.7392 43.5048 55.7783 43.563C55.8171 43.6213 55.8777 43.7429 55.8458 43.9031Z" fill="#101828"/>
</g>
<defs>
<clipPath id="clip0_103_1411">
<rect width="36" height="36" fill="white" transform="translate(22 22)"/>
</clipPath>
</defs>
</svg>
