<?xml version="1.0" standalone="no"?>
<!DOCTYPE svg PUBLIC "-//W3C//DTD SVG 20010904//EN"
 "http://www.w3.org/TR/2001/REC-SVG-20010904/DTD/svg10.dtd">
<svg version="1.0" xmlns="http://www.w3.org/2000/svg"
 width="70.000000pt" height="70.000000pt" viewBox="0 0 70.000000 70.000000"
 preserveAspectRatio="xMidYMid meet">
<metadata>
Created by potrace 1.14, written by Peter Selinger 2001-2017
</metadata>
<g transform="translate(0.000000,70.000000) scale(0.100000,-0.100000)"
fill="#000000" stroke="none">
<path d="M0 350 l0 -350 350 0 350 0 0 350 0 350 -350 0 -350 0 0 -350z m334
126 c69 -41 67 -47 -2 -12 -26 13 -63 41 -82 63 -29 31 -29 33 -5 11 17 -15
57 -43 89 -62z m-18 -44 c-5 -4 -66 26 -66 33 0 3 16 -3 35 -12 19 -9 33 -18
31 -21z m41 -8 c-3 -3 -12 -4 -19 -1 -8 3 -5 6 6 6 11 1 17 -2 13 -5z m6 -31
c-7 -2 -21 -2 -30 0 -10 3 -4 5 12 5 17 0 24 -2 18 -5z m10 -30 c-13 -2 -33
-2 -45 0 -13 2 -3 4 22 4 25 0 35 -2 23 -4z m-313 -77 c0 -3 -4 -8 -10 -11 -5
-3 -10 -1 -10 4 0 6 5 11 10 11 6 0 10 -2 10 -4z m60 -1 c0 -21 -53 -105 -66
-105 -15 0 -15 2 -2 23 8 12 23 37 32 55 14 27 36 44 36 27z m310 -50 c0 -42
-3 -55 -15 -55 -12 0 -15 13 -15 55 0 42 3 55 15 55 12 0 15 -13 15 -55z m165
0 c0 -37 -4 -55 -12 -55 -9 0 -13 18 -13 55 0 37 4 55 13 55 8 0 12 -18 12
-55z m51 40 c4 -8 1 -22 -6 -29 -8 -11 -8 -20 -1 -35 14 -25 14 -31 1 -31 -19
0 -34 48 -21 63 6 8 9 22 5 31 -3 9 -1 16 5 16 7 0 14 -7 17 -15z m-362 -42
c9 -25 14 -49 11 -51 -7 -8 -10 -2 -27 51 -20 61 -5 62 16 0z m-154 -43 c0 -5
-5 -10 -11 -10 -5 0 -7 5 -4 10 3 6 8 10 11 10 2 0 4 -4 4 -10z"/>
</g>
</svg>
