<svg width="17" height="16" viewBox="0 0 17 16" fill="none" xmlns="http://www.w3.org/2000/svg">
<g clip-path="url(#clip0_2_458)">
<path d="M16.4736 2H3.30157L3.27357 1.766C3.21627 1.27961 2.98249 0.831155 2.61657 0.505652C2.25064 0.180149 1.77799 0.000227862 1.28824 0L0.473572 0V1.33333H1.28824C1.45153 1.33335 1.60913 1.3933 1.73115 1.50181C1.85318 1.61032 1.93113 1.75983 1.95024 1.922L3.00691 10.9007C3.06421 11.3871 3.29798 11.8355 3.66391 12.161C4.02984 12.4865 4.50249 12.6664 4.99224 12.6667H13.8069V11.3333H4.99224C4.82885 11.3333 4.67116 11.2733 4.54912 11.1646C4.42708 11.056 4.34919 10.9063 4.33024 10.744L4.24291 10H15.0309L16.4736 2ZM13.9162 8.66667H4.08624L3.45891 3.33333H14.8782L13.9162 8.66667Z" fill="#006D77"/>
<path d="M5.14025 16C5.87663 16 6.47358 15.4031 6.47358 14.6667C6.47358 13.9303 5.87663 13.3334 5.14025 13.3334C4.40387 13.3334 3.80692 13.9303 3.80692 14.6667C3.80692 15.4031 4.40387 16 5.14025 16Z" fill="#006D77"/>
<path d="M11.8069 16C12.5433 16 13.1402 15.4031 13.1402 14.6667C13.1402 13.9303 12.5433 13.3334 11.8069 13.3334C11.0705 13.3334 10.4736 13.9303 10.4736 14.6667C10.4736 15.4031 11.0705 16 11.8069 16Z" fill="#006D77"/>
</g>
<defs>
<clipPath id="clip0_2_458">
<rect width="16" height="16" fill="white" transform="translate(0.473572)"/>
</clipPath>
</defs>
</svg>
