<svg width="17" height="17" viewBox="0 0 17 17" fill="none" xmlns="http://www.w3.org/2000/svg">
<g clip-path="url(#clip0_2_465)">
<path d="M11.8293 0.741333C11.0786 0.75301 10.3442 0.962569 9.70043 1.34885C9.05663 1.73513 8.52616 2.28445 8.16259 2.94133C7.79902 2.28445 7.26855 1.73513 6.62475 1.34885C5.98095 0.962569 5.24662 0.75301 4.49592 0.741333C3.29922 0.793327 2.17173 1.31684 1.35978 2.19749C0.54783 3.07814 0.117423 4.24435 0.16259 5.44133C0.16259 9.958 7.46659 15.1747 7.77726 15.396L8.16259 15.6687L8.54792 15.396C8.85859 15.176 16.1626 9.958 16.1626 5.44133C16.2078 4.24435 15.7774 3.07814 14.9654 2.19749C14.1535 1.31684 13.026 0.793327 11.8293 0.741333ZM8.16259 14.0273C5.99392 12.4073 1.49592 8.42733 1.49592 5.44133C1.45035 4.59781 1.74017 3.77049 2.30217 3.1398C2.86416 2.50911 3.65275 2.12623 4.49592 2.07467C5.3391 2.12623 6.12768 2.50911 6.68968 3.1398C7.25168 3.77049 7.5415 4.59781 7.49592 5.44133H8.82926C8.78368 4.59781 9.0735 3.77049 9.6355 3.1398C10.1975 2.50911 10.9861 2.12623 11.8293 2.07467C12.6724 2.12623 13.461 2.50911 14.023 3.1398C14.585 3.77049 14.8748 4.59781 14.8293 5.44133C14.8293 8.42867 10.3313 12.4073 8.16259 14.0273Z" fill="#004B52"/>
</g>
<defs>
<clipPath id="clip0_2_465">
<rect width="16" height="16" fill="white" transform="translate(0.162598 0.130005)"/>
</clipPath>
</defs>
</svg>
