<svg width="17" height="17" viewBox="0 0 17 17" fill="none" xmlns="http://www.w3.org/2000/svg">
<g clip-path="url(#clip0_2_470)">
<path d="M13.8374 8.99182L12.8948 9.93449L14.4228 11.4632H14.1681C11.9121 11.4632 10.4774 10.4418 9.20411 9.12449L9.00411 9.35649C8.78544 9.60982 8.56011 9.87049 8.32544 10.1325C9.05023 10.9717 9.94776 11.6445 10.9566 12.1047C11.9655 12.565 13.0619 12.8019 14.1708 12.7992H14.4228L12.8941 14.3278L13.8368 15.2705L16.0321 13.0752C16.2821 12.8251 16.4225 12.486 16.4225 12.1325C16.4225 11.7789 16.2821 11.4399 16.0321 11.1898L13.8374 8.99182Z" fill="#004B52"/>
<path d="M14.1686 4.79649H14.4226L12.8946 6.32515L13.8373 7.26782L16.0326 5.07249C16.2826 4.82245 16.423 4.48337 16.423 4.12982C16.423 3.77627 16.2826 3.43719 16.0326 3.18715L13.8373 0.991821L12.8946 1.93449L14.4226 3.46315H14.1679C10.8633 3.46315 9.0566 5.24315 7.41727 7.11515C5.79793 5.28649 3.85127 3.46315 0.395935 3.46315V4.79649C3.37194 4.79649 4.97793 6.35382 6.53527 8.12982C4.97793 9.90582 3.37194 11.4632 0.395935 11.4632V12.7965C4.26793 12.7965 6.2466 10.5058 7.99593 8.48582C9.63193 6.58849 11.1806 4.79649 14.1686 4.79649Z" fill="#004B52"/>
</g>
<defs>
<clipPath id="clip0_2_470">
<rect width="16" height="16" fill="white" transform="translate(0.422607 0.129883)"/>
</clipPath>
</defs>
</svg>
