<svg width="31" height="31" viewBox="0 0 31 31" fill="none" xmlns="http://www.w3.org/2000/svg">
<path d="M28.7525 27.3866L23.9088 22.9012C26.0687 20.462 27.1993 17.2805 27.063 14.0252C26.9266 10.7699 25.5339 7.69409 23.1775 5.44399C20.8211 3.1939 17.6843 1.94462 14.4262 1.95861C11.168 1.9726 8.04211 3.24876 5.7051 5.51901C3.36808 7.78925 2.00187 10.8769 1.89347 14.1332C1.78506 17.3896 2.94291 20.5613 5.12377 22.9819C7.30463 25.4025 10.3388 26.8838 13.5888 27.1144C16.8388 27.345 20.0517 26.3071 22.5525 24.2187V24.2672L27.3963 28.7816C27.487 28.8785 27.5967 28.9558 27.7186 29.0086C27.8405 29.0614 27.9719 29.0885 28.1047 29.0884C28.2375 29.0882 28.3689 29.0608 28.4906 29.0077C28.6124 28.9547 28.7219 28.8771 28.8125 28.7799C28.903 28.6828 28.9726 28.568 29.0169 28.4428C29.0612 28.3176 29.0793 28.1846 29.07 28.0521C29.0607 27.9196 29.0243 27.7905 28.9631 27.6726C28.9018 27.5548 28.8169 27.4508 28.7138 27.3672L28.7525 27.3866ZM14.5313 25.1875C12.4236 25.1875 10.3634 24.5625 8.61096 23.3916C6.85854 22.2207 5.49271 20.5564 4.68616 18.6092C3.87961 16.662 3.66858 14.5194 4.07976 12.4523C4.49093 10.3852 5.50584 8.48644 6.99615 6.99614C8.48645 5.50583 10.3852 4.49092 12.4523 4.07975C14.5194 3.66858 16.662 3.87961 18.6092 4.68615C20.5564 5.4927 22.2207 6.85854 23.3916 8.61095C24.5625 10.3634 25.1875 12.4236 25.1875 14.5312C25.1875 17.3575 24.0648 20.0679 22.0664 22.0664C20.0679 24.0648 17.3575 25.1875 14.5313 25.1875ZM21.7969 14.5312C21.7969 14.7882 21.6948 15.0346 21.5131 15.2163C21.3315 15.3979 21.0851 15.5 20.8281 15.5H15.5V20.8281C15.5 21.0851 15.3979 21.3315 15.2163 21.5131C15.0346 21.6948 14.7882 21.7969 14.5313 21.7969C14.2743 21.7969 14.0279 21.6948 13.8462 21.5131C13.6646 21.3315 13.5625 21.0851 13.5625 20.8281V15.5H8.23438C7.97745 15.5 7.73104 15.3979 7.54937 15.2163C7.36769 15.0346 7.26563 14.7882 7.26563 14.5312C7.26563 14.2743 7.36769 14.0279 7.54937 13.8462C7.73104 13.6646 7.97745 13.5625 8.23438 13.5625H13.5625V8.23437C13.5625 7.97744 13.6646 7.73104 13.8462 7.54936C14.0279 7.36768 14.2743 7.26562 14.5313 7.26562C14.7882 7.26562 15.0346 7.36768 15.2163 7.54936C15.3979 7.73104 15.5 7.97744 15.5 8.23437V13.5625H20.8281C21.0851 13.5625 21.3315 13.6646 21.5131 13.8462C21.6948 14.0279 21.7969 14.2743 21.7969 14.5312Z" fill="#667085"/>
</svg>
