<svg width="52" height="52" viewBox="0 0 52 52" fill="none" xmlns="http://www.w3.org/2000/svg">
<rect width="52" height="52" rx="11" fill="#FAD2E1"/>
<g clip-path="url(#clip0_118_2710)">
<path d="M40.6237 14.1479L17.4863 37.279C17.9865 37.5228 18.5352 37.6509 19.0916 37.6538H23.0542C23.3857 37.6529 23.7037 37.7847 23.9374 38.0199L26.0849 40.1661C27.2494 41.3387 28.8334 41.9987 30.486 42C31.1683 41.9993 31.8459 41.8875 32.4922 41.6689C34.7204 40.9384 36.3411 39.0069 36.6735 36.6857L40.8947 16.6352C41.0962 15.7998 41.0004 14.9203 40.6237 14.1479Z" fill="#101828"/>
<path d="M36.401 12.0968L16.3993 16.3105C12.9817 16.78 10.5918 19.9312 11.0613 23.3488C11.2468 24.6984 11.8684 25.9505 12.8314 26.9141L14.9777 29.0603C15.2122 29.2949 15.3439 29.6131 15.3437 29.9448V33.9074C15.3466 34.4638 15.4747 35.0125 15.7185 35.5127L38.852 12.3754C38.0918 12.0018 37.2256 11.9033 36.401 12.0968Z" fill="#101828"/>
</g>
<defs>
<clipPath id="clip0_118_2710">
<rect width="30" height="30" fill="white" transform="translate(11 12)"/>
</clipPath>
</defs>
</svg>
