<svg width="52" height="52" viewBox="0 0 52 52" fill="none" xmlns="http://www.w3.org/2000/svg">
<rect width="52" height="52" rx="11" fill="#BEE1E6"/>
<g clip-path="url(#clip0_118_2656)">
<path d="M32.1131 22.8214L30.2798 18.0001H33.5091C34.737 18.003 35.947 18.2941 37.0419 18.8499C38.1368 19.4057 39.086 20.2106 39.8131 21.2001L40.8625 22.6334C41.3097 23.2435 41.6356 23.9337 41.8225 24.6667H32.6025C32.5078 24.0355 32.3437 23.4166 32.1131 22.8214ZM25.9998 15.3334C26.3534 15.3334 26.6926 15.1929 26.9426 14.9429C27.1927 14.6928 27.3331 14.3537 27.3331 14.0001V11.3334C27.3331 10.9798 27.1927 10.6406 26.9426 10.3906C26.6926 10.1405 26.3534 10.0001 25.9998 10.0001C25.6462 10.0001 25.307 10.1405 25.057 10.3906C24.8069 10.6406 24.6665 10.9798 24.6665 11.3334V14.0001C24.6665 14.3537 24.8069 14.6928 25.057 14.9429C25.307 15.1929 25.6462 15.3334 25.9998 15.3334ZM29.6291 23.7907L27.4278 18.0001H24.5838L22.3465 23.9361C22.2606 24.1751 22.1894 24.4191 22.1331 24.6667H29.8945C29.8279 24.3686 29.7392 24.0758 29.6291 23.7907ZM32.0705 15.2001C32.2279 15.2792 32.3994 15.3264 32.5752 15.3388C32.7509 15.3513 32.9274 15.3288 33.0944 15.2726C33.2614 15.2164 33.4156 15.1277 33.5482 15.0116C33.6807 14.8955 33.7889 14.7543 33.8665 14.5961L35.1998 11.9294C35.3579 11.6129 35.3837 11.2466 35.2717 10.911C35.1597 10.5755 34.919 10.2981 34.6025 10.1401C34.286 9.982 33.9196 9.95613 33.5841 10.0682C33.2485 10.1802 32.9712 10.4209 32.8131 10.7374L31.4798 13.4041C31.4002 13.5607 31.3523 13.7315 31.3389 13.9067C31.3255 14.0819 31.3469 14.258 31.4018 14.4249C31.4567 14.5918 31.544 14.7462 31.6587 14.8792C31.7735 15.0122 31.9134 15.1213 32.0705 15.2001ZM25.9838 35.1827L29.6985 28.1787C29.7927 27.9026 29.8671 27.6201 29.9211 27.3334H21.9998C22.0597 27.6768 22.149 28.0145 22.2665 28.3427L25.9838 35.1827ZM19.8665 22.9721L21.7331 18.0001H18.5105C17.3078 18.0032 16.122 18.2824 15.0443 18.8162C13.9666 19.3499 13.0258 20.124 12.2945 21.0787L11.1998 22.5107C10.7175 23.152 10.3729 23.886 10.1878 24.6667H19.3878C19.4903 24.0873 19.6506 23.5195 19.8665 22.9721ZM32.6251 27.3334C32.5411 27.9706 32.3873 28.5965 32.1665 29.2001C32.1465 29.2534 27.1585 38.6321 27.1545 38.6334C27.0458 38.8444 26.8814 39.0215 26.6791 39.1456C26.4768 39.2696 26.2443 39.3358 26.007 39.3369C25.7697 39.338 25.5367 39.274 25.3332 39.1518C25.1298 39.0297 24.9637 38.854 24.8531 38.6441C24.8531 38.6441 19.8211 29.4281 19.7998 29.3707C19.561 28.713 19.4016 28.029 19.3251 27.3334H10.1611C10.4077 28.5264 11.0279 29.6099 11.9318 30.4267L22.5851 40.7027C23.5208 41.5372 24.7314 41.9972 25.9851 41.9947C27.2654 41.9922 28.4998 41.5175 29.4518 40.6614L40.0331 30.4841C40.9603 29.6549 41.5981 28.5509 41.8531 27.3334H32.6251ZM18.1398 14.5961C18.2979 14.9134 18.5755 15.155 18.9117 15.2677C19.2479 15.3803 19.6151 15.3548 19.9325 15.1967C20.2498 15.0387 20.4914 14.761 20.6041 14.4248C20.7167 14.0886 20.6912 13.7214 20.5331 13.4041L19.1998 10.7374C19.1215 10.5807 19.0132 10.4409 18.8809 10.3261C18.7486 10.2113 18.595 10.1236 18.4288 10.0682C18.0933 9.95613 17.727 9.982 17.4105 10.1401C17.094 10.2981 16.8532 10.5755 16.7412 10.911C16.6292 11.2466 16.6551 11.6129 16.8131 11.9294L18.1398 14.5961Z" fill="#101828"/>
</g>
<defs>
<clipPath id="clip0_118_2656">
<rect width="32" height="32" fill="white" transform="translate(10 10)"/>
</clipPath>
</defs>
</svg>
