<svg width="52" height="52" viewBox="0 0 52 52" fill="none" xmlns="http://www.w3.org/2000/svg">
<rect width="52" height="52" rx="11" fill="#FAEDE3"/>
<g clip-path="url(#clip0_118_2646)">
<path d="M33 14.4375C33 17.1413 29.475 20.5012 27.7188 21.91C27.4439 22.1303 27.1022 22.2504 26.75 22.2504C26.3978 22.2504 26.0561 22.1303 25.7812 21.91C24.025 20.5 20.5 17.1413 20.5 14.4375C20.4606 13.5678 20.7672 12.7178 21.3529 12.0736C21.9385 11.4294 22.7555 11.0434 23.625 11C24.4945 11.0434 25.3115 11.4294 25.8971 12.0736C26.4828 12.7178 26.7894 13.5678 26.75 14.4375C26.7106 13.5678 27.0172 12.7178 27.6029 12.0736C28.1885 11.4294 29.0055 11.0434 29.875 11C30.7445 11.0434 31.5615 11.4294 32.1471 12.0736C32.7328 12.7178 33.0394 13.5678 33 14.4375ZM42.1725 26.4375L32.5475 36.9488C31.3757 38.2265 29.9508 39.2465 28.3635 39.944C26.7763 40.6414 25.0613 41.0011 23.3275 41H18C16.6739 41 15.4021 40.4732 14.4645 39.5355C13.5268 38.5979 13 37.3261 13 36V29.75C13 28.4239 13.5268 27.1521 14.4645 26.2145C15.4021 25.2768 16.6739 24.75 18 24.75H27.7337C28.1469 24.7508 28.5547 24.8439 28.9273 25.0226C29.2999 25.2013 29.6278 25.461 29.8871 25.7827C30.1464 26.1044 30.3305 26.48 30.4259 26.882C30.5214 27.284 30.5257 27.7023 30.4388 28.1063C30.3034 28.6713 29.9986 29.1815 29.5652 29.5684C29.1318 29.9554 28.5905 30.2006 28.0138 30.2712L22.81 31C22.482 31.047 22.1861 31.2224 21.9874 31.4875C21.7886 31.7526 21.7032 32.0857 21.75 32.4137C21.7967 32.742 21.972 33.0381 22.2371 33.2372C22.5022 33.4362 22.8355 33.5217 23.1637 33.475L28.4788 32.725C29.7306 32.5406 30.8749 31.9138 31.7044 30.9583C32.5338 30.0027 32.9935 28.7816 33 27.5163C32.9939 27.2487 32.9667 26.982 32.9188 26.7188L37.3462 22.0475C37.9301 21.4153 38.7404 21.0398 39.6002 21.003C40.4599 20.9663 41.2993 21.2712 41.935 21.8512C42.5675 22.4309 42.9468 23.2359 42.9912 24.0926C43.0357 24.9494 42.7416 25.7893 42.1725 26.4313V26.4375Z" fill="#101828"/>
</g>
<defs>
<clipPath id="clip0_118_2646">
<rect width="30" height="30" fill="white" transform="translate(13 11)"/>
</clipPath>
</defs>
</svg>
