<svg width="52" height="52" viewBox="0 0 52 52" fill="none" xmlns="http://www.w3.org/2000/svg">
<rect width="52" height="52" rx="11" fill="#D1ECFD"/>
<g clip-path="url(#clip0_118_2700)">
<path d="M27.0303 30.752L17.7728 40.0095C17.4616 40.3362 17.0881 40.5974 16.6745 40.7777C16.2608 40.958 15.8152 41.0537 15.364 41.0592C14.9128 41.0647 14.4651 40.9799 14.0471 40.8098C13.6292 40.6396 13.2495 40.3876 12.9304 40.0685C12.6113 39.7494 12.3593 39.3697 12.1892 38.9518C12.019 38.5339 11.9342 38.0861 11.9397 37.6349C11.9452 37.1837 12.0409 36.7381 12.2212 36.3244C12.4015 35.9108 12.6627 35.5373 12.9895 35.2261L22.2469 25.9686L27.0303 30.752ZM31.9501 21.05C31.306 20.4344 30.4494 20.0909 29.5584 20.0909C28.6675 20.0909 27.8109 20.4344 27.1668 21.05L23.9001 24.3166L28.6834 29.1L31.9501 25.8333C32.5842 25.1989 32.9403 24.3386 32.9403 23.4416C32.9403 22.5447 32.5842 21.6844 31.9501 21.05ZM17.6736 19.0025L19.4819 19.5181L19.9976 21.3265C20.0807 21.6166 20.256 21.8719 20.497 22.0536C20.738 22.2353 21.0316 22.3335 21.3334 22.3335C21.6353 22.3335 21.9289 22.2353 22.1699 22.0536C22.4109 21.8719 22.5862 21.6166 22.6693 21.3265L23.1849 19.5181L24.9933 19.0025C25.2834 18.9194 25.5387 18.7441 25.7204 18.5031C25.9021 18.2621 26.0003 17.9685 26.0003 17.6666C26.0003 17.3648 25.9021 17.0712 25.7204 16.8302C25.5387 16.5892 25.2834 16.4139 24.9933 16.3308L23.1849 15.8151L22.6693 14.0068C22.5862 13.7166 22.4109 13.4614 22.1699 13.2797C21.9289 13.098 21.6353 12.9998 21.3334 12.9998C21.0316 12.9998 20.738 13.098 20.497 13.2797C20.256 13.4614 20.0807 13.7166 19.9976 14.0068L19.4819 15.8151L17.6736 16.3308C17.3834 16.4139 17.1282 16.5892 16.9465 16.8302C16.7648 17.0712 16.6666 17.3648 16.6666 17.6666C16.6666 17.9685 16.7648 18.2621 16.9465 18.5031C17.1282 18.7441 17.3834 18.9194 17.6736 19.0025ZM31.6736 33.0025L33.4819 33.5181L33.9976 35.3265C34.0807 35.6166 34.256 35.8719 34.497 36.0536C34.738 36.2352 35.0316 36.3335 35.3334 36.3335C35.6353 36.3335 35.9289 36.2352 36.1699 36.0536C36.4109 35.8719 36.5862 35.6166 36.6693 35.3265L37.1849 33.5181L38.9933 33.0025C39.2834 32.9194 39.5387 32.7441 39.7204 32.5031C39.902 32.2621 40.0003 31.9685 40.0003 31.6666C40.0003 31.3648 39.902 31.0712 39.7204 30.8302C39.5387 30.5892 39.2834 30.4139 38.9933 30.3308L37.1849 29.8151L36.6693 28.0068C36.5862 27.7166 36.4109 27.4614 36.1699 27.2797C35.9289 27.098 35.6353 26.9997 35.3334 26.9997C35.0316 26.9997 34.738 27.098 34.497 27.2797C34.256 27.4614 34.0807 27.7166 33.9976 28.0068L33.4819 29.8151L31.6736 30.3308C31.3834 30.4139 31.1282 30.5892 30.9465 30.8302C30.7648 31.0712 30.6665 31.3648 30.6665 31.6666C30.6665 31.9685 30.7648 32.2621 30.9465 32.5031C31.1282 32.7441 31.3834 32.9194 31.6736 33.0025ZM32.7154 18.25L34.2963 18.7015L34.7501 20.2846C34.824 20.5369 34.9776 20.7583 35.1879 20.9159C35.3982 21.0735 35.654 21.1586 35.9168 21.1586C36.1796 21.1586 36.4353 21.0735 36.6456 20.9159C36.856 20.7583 37.0096 20.5369 37.0834 20.2846L37.5349 18.7038L39.1181 18.25C39.3703 18.1761 39.5918 18.0225 39.7494 17.8122C39.9069 17.6018 39.9921 17.3461 39.9921 17.0833C39.9921 16.8205 39.9069 16.5648 39.7494 16.3544C39.5918 16.1441 39.3703 15.9905 39.1181 15.9166L37.5373 15.4651L37.0834 13.882C37.0096 13.6298 36.856 13.4083 36.6456 13.2507C36.4353 13.0931 36.1796 13.008 35.9168 13.008C35.654 13.008 35.3982 13.0931 35.1879 13.2507C34.9776 13.4083 34.824 13.6298 34.7501 13.882L34.2986 15.4628L32.7154 15.9166C32.4632 15.9905 32.2417 16.1441 32.0842 16.3544C31.9266 16.5648 31.8414 16.8205 31.8414 17.0833C31.8414 17.3461 31.9266 17.6018 32.0842 17.8122C32.2417 18.0225 32.4632 18.1761 32.7154 18.25Z" fill="#101828"/>
</g>
<defs>
<clipPath id="clip0_118_2700">
<rect width="28" height="28" fill="white" transform="translate(12 13)"/>
</clipPath>
</defs>
</svg>
