<svg width="52" height="52" viewBox="0 0 52 52" fill="none" xmlns="http://www.w3.org/2000/svg">
<rect width="52" height="52" rx="11" fill="#DDD3FA"/>
<g clip-path="url(#clip0_118_2602)">
<path d="M35.75 40.75C35.75 41.0815 35.6183 41.3995 35.3839 41.6339C35.1495 41.8683 34.8315 42 34.5 42H13.25C12.9185 42 12.6005 41.8683 12.3661 41.6339C12.1317 41.3995 12 41.0815 12 40.75C12 40.4185 12.1317 40.1006 12.3661 39.8661C12.6005 39.6317 12.9185 39.5 13.25 39.5H34.5C34.8315 39.5 35.1495 39.6317 35.3839 39.8661C35.6183 40.1006 35.75 40.4185 35.75 40.75ZM42 22C42 25.4675 39.2687 29.5 35.75 29.5H33.735L33.36 31.7763C33.1207 33.2384 32.3681 34.5675 31.2373 35.5248C30.1066 36.4822 28.6716 37.0052 27.19 37H20.565C19.0842 37.004 17.6505 36.4805 16.5207 35.5232C15.391 34.5659 14.6392 33.2376 14.4 31.7763L12.07 17.8213C11.9508 17.1052 11.9889 16.3718 12.1817 15.6719C12.3745 14.9721 12.7174 14.3226 13.1866 13.7687C13.6557 13.2147 14.2398 12.7696 14.8984 12.4641C15.5569 12.1587 16.2741 12.0003 17 12H30.75C31.4063 11.9975 32.0566 12.1253 32.6632 12.376C33.2697 12.6266 33.8205 12.9952 34.2836 13.4602C34.7467 13.9253 35.1129 14.4777 35.361 15.0853C35.609 15.6929 35.734 16.3437 35.7287 17H35.75C39.6637 17 42 18.875 42 22ZM39.5 22C39.5 21.375 39.5 19.5 35.75 19.5H35.4012L34.1512 27H35.75C37.6812 27 39.5 24.1825 39.5 22Z" fill="#101828"/>
</g>
<defs>
<clipPath id="clip0_118_2602">
<rect width="30" height="30" fill="white" transform="translate(12 12)"/>
</clipPath>
</defs>
</svg>
