<svg width="52" height="52" viewBox="0 0 52 52" fill="none" xmlns="http://www.w3.org/2000/svg">
<rect width="52" height="52" rx="11" fill="#FDE2E4"/>
<g clip-path="url(#clip0_118_2615)">
<path d="M22.5125 33.75H15.625C13.821 33.75 12 32.3798 12 29.3203V23.2303C12.0254 20.4537 13.0651 17.7823 14.9232 15.719C16.7813 13.6556 19.3296 12.3429 22.0884 12.0278C23.6451 11.9148 25.208 12.1382 26.6707 12.6829C28.1335 13.2276 29.4618 14.0808 30.5655 15.1845C31.6692 16.2882 32.5224 17.6165 33.0671 19.0793C33.6118 20.542 33.8352 22.1049 33.7222 23.6616C33.4067 26.4215 32.0928 28.9707 30.0281 30.8289C27.9633 32.6872 25.2902 33.7261 22.5125 33.75ZM36.1667 22.9717H36.1522C36.1522 23.2581 36.1522 23.5444 36.1377 23.832C35.6712 30.3667 29.6985 35.8984 22.9765 36.1437V36.1618C23.8231 37.6301 25.0408 38.85 26.5075 39.6991C27.9743 40.5483 29.6385 40.9969 31.3333 41H37.375C38.3364 41 39.2584 40.6181 39.9383 39.9383C40.6181 39.2584 41 38.3364 41 37.375V31.3333C40.9983 29.6382 40.5508 27.9733 39.7024 26.5056C38.8541 25.038 37.6347 23.8193 36.1667 22.9717Z" fill="#101828"/>
</g>
<defs>
<clipPath id="clip0_118_2615">
<rect width="29" height="29" fill="white" transform="translate(12 12)"/>
</clipPath>
</defs>
</svg>
