<svg width="52" height="52" viewBox="0 0 52 52" fill="none" xmlns="http://www.w3.org/2000/svg">
<rect width="52" height="52" rx="11" fill="#FAD2E1"/>
<g clip-path="url(#clip0_118_2684)">
<path d="M37.875 29.6487L33.5212 27L37.875 24.3512C38.3279 24.08 38.7222 23.7212 39.035 23.2959C39.3478 22.8707 39.5728 22.3873 39.6968 21.8742C39.8209 21.361 39.8414 20.8283 39.7574 20.3071C39.6734 19.7859 39.4864 19.2867 39.2074 18.8385C38.9283 18.3903 38.5629 18.0022 38.1322 17.6968C37.7016 17.3914 37.2145 17.1748 36.6993 17.0596C36.1841 16.9444 35.6511 16.933 35.1314 17.026C34.6117 17.119 34.1158 17.3145 33.6725 17.6012L29.75 20.1125V15.75C29.75 14.7554 29.3549 13.8016 28.6516 13.0983C27.9484 12.3951 26.9946 12 26 12C25.0054 12 24.0516 12.3951 23.3483 13.0983C22.6451 13.8016 22.25 14.7554 22.25 15.75V20.235L18.3275 17.6012C17.433 17.0655 16.3638 16.9025 15.3502 17.1475C14.3367 17.3924 13.46 18.0257 12.9089 18.9109C12.3578 19.796 12.1764 20.8623 12.4039 21.8799C12.6314 22.8975 13.2494 23.785 14.125 24.3512L18.4787 27L14.125 29.6487C13.2494 30.215 12.6314 31.1025 12.4039 32.1201C12.1764 33.1377 12.3578 34.2039 12.9089 35.0891C13.46 35.9743 14.3367 36.6076 15.3502 36.8525C16.3638 37.0975 17.433 36.9345 18.3275 36.3987L22.25 33.8512V38.25C22.25 39.2446 22.6451 40.1984 23.3483 40.9016C24.0516 41.6049 25.0054 42 26 42C26.9946 42 27.9484 41.6049 28.6516 40.9016C29.3549 40.1984 29.75 39.2446 29.75 38.25V33.775L33.6725 36.4C34.567 36.9358 35.6362 37.0987 36.6497 36.8538C37.6633 36.6088 38.54 35.9755 39.0911 35.0904C39.6422 34.2052 39.8236 33.139 39.5961 32.1214C39.3686 31.1038 38.7505 30.2163 37.875 29.65V29.6487Z" fill="#101828"/>
</g>
<defs>
<clipPath id="clip0_118_2684">
<rect width="30" height="30" fill="white" transform="translate(11 12)"/>
</clipPath>
</defs>
</svg>
