<svg id="Layer_1" data-name="Layer 1" xmlns="http://www.w3.org/2000/svg" viewBox="0 0 150 150"><defs><style>.cls-1{fill:#33ced4;}.cls-2{fill:#fff;}</style></defs><path class="cls-1" d="M68.07,108.45H48.83a2.27,2.27,0,0,1-2.19-1.66h0a125,125,0,0,0-16-35.09.61.61,0,0,1-.07-.1A44.07,44.07,0,0,1,51.19,8,43.56,43.56,0,0,1,68.07,4.59h.07V8.87h-.06A39.74,39.74,0,0,0,34.17,69.34a129,129,0,0,1,16.16,34.83H68.07Z"/><path class="cls-1" d="M74,106.07h2l12,0a.66.66,0,0,0,.65-.61l.64-9.69a.64.64,0,0,1,.5-.58,40.09,40.09,0,0,0,9.44-3.48.64.64,0,0,1,.77.12l6.75,7a.65.65,0,0,0,.88,0l10.71-9a.65.65,0,0,0,.1-.88L112.69,81a.65.65,0,0,1,0-.78,40.36,40.36,0,0,0,7.11-15.38.65.65,0,0,1,.58-.51l9.67-.71a.65.65,0,0,0,.6-.65l0-14a.65.65,0,0,0-.61-.64l-9.68-.64a.63.63,0,0,1-.58-.5,40.22,40.22,0,0,0-3.47-9.44.67.67,0,0,1,.12-.77l7-6.77a.64.64,0,0,0,0-.88l-9-10.7a.65.65,0,0,0-.88-.11l-7.82,5.74a.63.63,0,0,1-.77,0,40.59,40.59,0,0,0-15.37-7.1.64.64,0,0,1-.5-.58l-.7-9.68a.65.65,0,0,0-.65-.6l-14,.06"/><path class="cls-1" d="M74,108.21v-4.28l12.62-.05.55-8.3a2.77,2.77,0,0,1,2.15-2.53,38.1,38.1,0,0,0,8.94-3.29,2.76,2.76,0,0,1,3.28.53l5.79,6L115.87,89,111,82.29A2.76,2.76,0,0,1,111,79a38.2,38.2,0,0,0,6.73-14.57,2.76,2.76,0,0,1,2.51-2.17l8.29-.61,0-11.24-8.29-.54a2.78,2.78,0,0,1-2.53-2.16,38.07,38.07,0,0,0-3.28-8.94,2.76,2.76,0,0,1,.53-3.28l6-5.8-7.24-8.58L106.94,26a2.78,2.78,0,0,1-3.33,0,37.93,37.93,0,0,0-6.91-4.13,37.31,37.31,0,0,0-7.63-2.59,2.78,2.78,0,0,1-2.18-2.52l-.6-8.28L73.68,8.5l0-4.28,14,0h0a2.8,2.8,0,0,1,2.78,2.58l.62,8.58a42.76,42.76,0,0,1,14.21,6.57l6.94-5.09a2.79,2.79,0,0,1,3.77.45L125,28a2.8,2.8,0,0,1-.19,3.8l-6.18,6a42.11,42.11,0,0,1,2.9,7.88l8.58.57a2.78,2.78,0,0,1,2.6,2.77l.05,14a2.8,2.8,0,0,1-2.58,2.78l-8.58.63a42.79,42.79,0,0,1-6.58,14.24l5.08,6.94a2.79,2.79,0,0,1-.45,3.77l-10.71,9a2.79,2.79,0,0,1-3.79-.18l-6-6.18A42.11,42.11,0,0,1,91.32,97l-.57,8.6a2.79,2.79,0,0,1-2.77,2.6Z"/><path class="cls-2" d="M73.61,36.54A20.93,20.93,0,1,1,73.88,76"/><path class="cls-2" d="M80.78,79.26a19.88,19.88,0,0,1-7.08-1.15V73.59c4.81,1.69,11.08,1.67,15.65-.66A18.81,18.81,0,0,0,91.2,40.5a20,20,0,0,0-17.46-2l0-4.38c6.91-2.55,13.59-1.31,19.81,2.74A23,23,0,0,1,103,62.62,23.09,23.09,0,0,1,80.78,79.26Z"/><rect class="cls-1" x="49.46" y="114.63" width="38.79" height="6.07" rx="2.87"/><rect class="cls-1" x="49.46" y="124.83" width="38.79" height="6.07" rx="2.87"/><path class="cls-1" d="M58.62,135a9.67,9.67,0,0,0,19.33.11Z"/></svg>