<svg id="Layer_1" data-name="Layer 1" xmlns="http://www.w3.org/2000/svg" viewBox="0 0 150 150"><defs><style>.cls-1{fill:#33ced4;}</style></defs><path class="cls-1" d="M31.69,138.66A1.69,1.69,0,0,1,30,137.18l-4-31.69a1.69,1.69,0,0,1,1.18-1.82L55.41,95.1a22.45,22.45,0,0,1,12.74-.69l26.08,3.47c7,1.35,7.72,8.09,7.11,11.46a.63.63,0,0,0,.24.71.59.59,0,0,0,.69,0l29.09-18a8,8,0,0,1,9.5.67,8.49,8.49,0,0,1,2.6,9.57,19.8,19.8,0,0,1-3.35,5.8,40.6,40.6,0,0,1-4.29,4.23l-1.44,1.29a41.77,41.77,0,0,1-4,3.27L105,135a18.6,18.6,0,0,1-10.87,3.49l-62.43.14Zm-2.16-32.18,3.64,28.8,60.94-.13a15.24,15.24,0,0,0,8.92-2.86l25.39-18.17a39.16,39.16,0,0,0,3.67-3l1.48-1.34a36.13,36.13,0,0,0,4-3.87,16.44,16.44,0,0,0,2.78-4.81,5.16,5.16,0,0,0-1.59-5.8,4.6,4.6,0,0,0-5.48-.46l-29.18,18.09a4,4,0,0,1-6-4.24c.1-.6,1-6.46-4.35-7.49L67.63,97.74a19.39,19.39,0,0,0-11.16.56Z"/><path class="cls-1" d="M17,147.8a7,7,0,0,1-7-6.15L4.88,100.8A7,7,0,0,1,11,92.94l7.7-1a9,9,0,0,1,10,7.76l4.68,37a9,9,0,0,1-7.77,10l-7.69,1C17.6,147.78,17.3,147.8,17,147.8Zm2.8-52.53a5.74,5.74,0,0,0-.71,0l-7.69,1a3.67,3.67,0,0,0-3.18,4.09l5.17,40.86a3.62,3.62,0,0,0,1.38,2.43,3.66,3.66,0,0,0,2.71.74l7.69-1A5.59,5.59,0,0,0,30,137.18l-4.67-37a5.58,5.58,0,0,0-5.54-4.89Z"/><path class="cls-1" d="M78.48,111l-4.37-.45a1.69,1.69,0,0,1,.35-3.36l4.19.44a1.69,1.69,0,0,1-.17,3.37Z"/><path class="cls-1" d="M64.19,109.49,59.82,109a1.69,1.69,0,0,1,.35-3.36l4.19.45a1.68,1.68,0,0,1-.17,3.36Z"/><path class="cls-1" d="M102.29,113.51,78.3,111a1.69,1.69,0,0,1,.35-3.36l23.82,2.52a1.68,1.68,0,0,1-.18,3.36Z"/><path class="cls-1" d="M77.68,61.16A78,78,0,0,0,74,49c-.74-2-1.48-4-2.16-6.12l2.29-.74c.67,2.08,1.4,4.07,2.12,6A81.33,81.33,0,0,1,80,60.7Z"/><path class="cls-1" d="M119.36,14.23c-13,7-48.84,12.8-41.12,53.88h0l5.77,30,3.11-.6L81.38,67.68C128,56.94,116.9,17.86,119.36,14.23Z"/><path class="cls-1" d="M36.58,41.41c7.08-.12,27.1-3.95,38.51,27.48C53.09,74.71,36.58,41.41,36.58,41.41Z"/><path class="cls-1" d="M46.11,2.65S43.27,39,72,43.25c.25,0,.47.09.72.12l-.06-.15.05.07c.48.36.77,0,.91-.44a.52.52,0,0,1,0,.11C81,9.48,54.65,5.29,46.11,2.65Z"/><path class="cls-1" d="M82.44,77.42l-2.37.38a11.58,11.58,0,0,0-2.79-5.13,24.84,24.84,0,0,0-2.2-2.3,11.53,11.53,0,0,0-1.31-1c-.42-.31-.85-.62-1.25-1l1.56-1.83c.35.3.72.57,1.09.84a15.82,15.82,0,0,1,1.55,1.21,29.56,29.56,0,0,1,2.4,2.51A13.87,13.87,0,0,1,82.44,77.42Z"/><path class="cls-1" d="M79.25,62.71s-.17-.88-.43-2.42a19.49,19.49,0,0,1-.24-2.85,20.78,20.78,0,0,1,.1-3.73,29.85,29.85,0,0,1,.72-4.37,34.34,34.34,0,0,1,1.53-4.71,39.89,39.89,0,0,1,2.26-4.79c.44-.78,1-1.54,1.42-2.32a13.28,13.28,0,0,1,.78-1.18l.81-1.08a32.27,32.27,0,0,1,3.72-4.07l2-1.76,2.13-1.53c1.51-1,2.91-1.64,4.27-2.41s2.68-1.45,3.9-2c2.42-1.16,4.49-2,5.91-2.69s2.27-1,2.27-1-.74.52-2,1.38-3.19,2.09-5.49,3.48c-1.16.7-2.27,1.47-3.61,2.31s-2.76,1.7-4,2.6l-1.95,1.54-1.86,1.72a31.09,31.09,0,0,0-3.41,3.84l-.82,1.06c-.22.25-.46.7-.7,1-.46.73-1,1.44-1.39,2.18-.82,1.5-1.69,3-2.33,4.46s-1.2,3-1.75,4.37c-.36,1.44-.88,2.78-1.07,4.09a28.19,28.19,0,0,0-.57,3.53,20,20,0,0,0-.19,2.8C79.29,61.82,79.25,62.71,79.25,62.71Z"/><path class="cls-1" d="M48.72,5.07l.42.23a6.22,6.22,0,0,0,1.2.52c1.06.34,2.69.84,4.51,1.54.92.35,1.92.7,2.95,1.16s2.13,1,3.24,1.64l1.7.89c.68.46,1.06.79,1.6,1.21a20.05,20.05,0,0,1,2.93,2.85,32.27,32.27,0,0,1,2.38,3.33c.68,1.14,1.21,2.35,1.77,3.48s.87,2.32,1.21,3.42.53,2.17.75,3.15.24,1.9.32,2.71a14.29,14.29,0,0,1,.08,2.09c0,1.16,0,1.81,0,1.81s-.18-.65-.43-1.76a16.48,16.48,0,0,0-.5-2c-.24-.75-.51-1.6-.77-2.52s-.74-1.87-1.11-2.9L69.5,22.81l-1.82-3.15a31.87,31.87,0,0,0-2.22-3,16.8,16.8,0,0,0-2.58-2.63l-1.39-1.17L59.94,12c-1-.61-2-1.24-2.92-1.83L54.26,8.6,50.14,6.24A6.5,6.5,0,0,1,48.72,5.07Z"/><path class="cls-1" d="M39.78,42.79s.65,0,1.78,0,2.75,0,4.67.14L47,43a5.82,5.82,0,0,1,.84.14l1.57.33,1.66.35c.56.16,1.14.42,1.73.64A19.9,19.9,0,0,1,56.3,46a25.38,25.38,0,0,1,3.35,2.1,35.15,35.15,0,0,1,3.05,2.57c.9.89,1.74,1.8,2.56,2.68s1.47,2,2.14,2.89A18.55,18.55,0,0,1,69,59a15.27,15.27,0,0,1,1.15,2.41c.26.75.48,1.41.67,1.94.36,1.08.53,1.7.53,1.7s-.37-.55-1-1.5l-1-1.72a24.83,24.83,0,0,0-1.53-2.09A28.34,28.34,0,0,0,66,57.34c-.72-.78-1.47-1.6-2.22-2.48l-2.69-2.53a32.91,32.91,0,0,0-2.84-2.28,23.44,23.44,0,0,0-3.06-2,22.73,22.73,0,0,0-3.12-1.63c-.52-.24-1-.5-1.53-.71l-1.61-.54-1.52-.51a5.67,5.67,0,0,0-.64-.21L46,44.28c-1.89-.38-3.44-.8-4.54-1S39.78,42.79,39.78,42.79Z"/><path class="cls-1" d="M48.73,8.69S47.12,34.37,70.09,39.93C66.12,22.46,48.73,8.69,48.73,8.69Z"/><path class="cls-1" d="M95.69,46.91a11.28,11.28,0,0,0-3.87.34c-1.42.4-3,1.56-4.37,1.78-1.11.18-1.62-.21-.81-1.47,3.67-5.76,10.59-5.81,16.59-6.35,2-.18,5-.13,5,2.54,0,1.46-1.5,2.45-2.79,3C102.2,48.08,98.94,47.11,95.69,46.91Z"/><path class="cls-1" d="M110.59,34.65a11,11,0,0,1-2.58.64,29.09,29.09,0,0,1-4.65.19,24.42,24.42,0,0,0-5.67.38c-.5.11-2.7,1.16-2.62,0,.06-.78,2.17-2,2.77-2.42a14.41,14.41,0,0,1,4-1.64c2.21-.64,4.49-1.12,6.73-1.78a6.73,6.73,0,0,1,3.36-.44c1.56.44,1.3,2.84.44,3.89A4.5,4.5,0,0,1,110.59,34.65Z"/><path class="cls-1" d="M97.13,53.8c1.24.16,2.17.47,1.7,1.06-.65.81-1.81.69-2.7,1s-1.4.58-2.19.78A26.22,26.22,0,0,0,87.63,59c-1,.55-4.67,4.71-5.39,2.4-.64-2.07,2.92-5.7,4.42-6.69,1.92-1.26,4.14-1.22,6.34-1.1A38.81,38.81,0,0,1,97.13,53.8Z"/><path class="cls-1" d="M42.75,46.23c4.09.34,15.08-.86,26.57,19.23C57.48,67.77,42.75,46.23,42.75,46.23Z"/><path class="cls-1" d="M80.07,64.29s.06-.93.23-2.55.42-3.94,1-6.7c.23-1.38.64-2.86,1-4.43A43.61,43.61,0,0,1,84,45.79a38.35,38.35,0,0,1,2.47-4.92c.51-.78,1-1.58,1.56-2.37s1.18-1.49,1.77-2.25a37.45,37.45,0,0,1,4-4,53.09,53.09,0,0,1,4.38-3.28c2.92-2,5.76-3.57,8.16-5L109.64,22c1-.56,1.8-1.09,2.47-1.55,1.36-.89,2.16-1.38,2.16-1.38s-.66.65-1.88,1.75a28.09,28.09,0,0,1-2.24,1.91c-.89.71-1.88,1.54-3,2.33-2.24,1.67-5,3.47-7.68,5.54-1.41,1-2.7,2.18-4.08,3.3a34.85,34.85,0,0,0-3.7,3.85c-.56.69-1.29,1.46-1.71,2.08l-1.5,2.22a45.54,45.54,0,0,0-2.51,4.56c-.77,1.52-1.34,3.06-1.93,4.51S83,54,82.6,55.38c-.8,2.64-1.43,4.87-1.84,6.45S80.07,64.29,80.07,64.29Z"/><path class="cls-1" d="M82.21,55.83s.08-.4.25-1.09a4.27,4.27,0,0,1,.62-1.19,7,7,0,0,1,1.2-1.33A10,10,0,0,1,86,51.09a11.32,11.32,0,0,1,2.13-.88,15.93,15.93,0,0,1,2.36-.55l.62-.09.66,0L93,49.46a18.36,18.36,0,0,1,2.44.08c.85.05,1.59.17,2.32.23s1.47.19,2.1.21,1.27.15,1.84.11,1.12,0,1.6,0l1.23-.11,1.11-.08s-.34.2-1,.53c-.32.16-.71.38-1.18.57s-1,.3-1.63.45a10.86,10.86,0,0,1-2,.32,13.34,13.34,0,0,1-2.19.1c-.76,0-1.55,0-2.27,0a16,16,0,0,0-2.3,0l-1.19,0h-.52l-.55.06c-.73.08-1.46.17-2.14.31a17.59,17.59,0,0,0-2,.47c-.62.17-1.14.44-1.67.63a10.06,10.06,0,0,0-1.27.79c-.3.3-.7.47-.88.79C82.47,55.51,82.21,55.83,82.21,55.83Z"/><path class="cls-1" d="M87.19,43.57l.77-.94a9.08,9.08,0,0,1,.94-1c.4-.36.86-.78,1.39-1.21s1.16-.8,1.82-1.21a22,22,0,0,1,2.3-1.08c.8-.2,1.56-.49,2.43-.64s1.89-.25,2.78-.28l2.61,0c.42,0,.84,0,1.25,0l.56,0h.61c.79-.06,1.65,0,2.29-.09a18.94,18.94,0,0,0,1.94-.26c.59-.15,1.16-.27,1.67-.38l1.27-.45,1.15-.37s-.32.3-.92.79c-.31.24-.66.56-1.12.86s-1,.57-1.64.87a11.19,11.19,0,0,1-2.12.72,13.45,13.45,0,0,1-2.35.41l-.61.08-.68,0c-.42,0-.85.05-1.28.05l-2.54.09c-.84,0-1.58.11-2.36.15l-2.45.43-2,.64c-.65.29-1.28.54-1.87.77s-1.07.54-1.54.77-.86.48-1.2.66Z"/><path class="cls-1" d="M99.24,30a26.21,26.21,0,0,1,2.44-1c.37-.13.77-.28,1.2-.4s.84-.34,1.29-.48c.88-.35,1.83-.66,2.78-1s1.83-.8,2.73-1.12a13.44,13.44,0,0,0,1.27-.5c.38-.21.75-.38,1.1-.54,1.4-.63,2.44-1,2.44-1a22.64,22.64,0,0,1-1.89,1.85c-.3.27-.63.56-1,.84a6.75,6.75,0,0,1-1.22.75c-.88.48-1.84.93-2.81,1.39-1,.3-2.06.6-3,.81a11.19,11.19,0,0,1-2.66.35C100.31,30,99.24,30,99.24,30Z"/><path class="cls-1" d="M52.1,9.92s.52.37,1.39,1.05S55.61,12.6,57,13.88a60,60,0,0,1,4.65,4.52,32.87,32.87,0,0,1,2.42,2.77l2.31,3c.67,1.09,1.33,2.19,2,3.27A27.57,27.57,0,0,1,70,30.8,18.4,18.4,0,0,1,71.25,34c.32,1,.6,2,.85,3a14.12,14.12,0,0,1,.47,2.56c.11.77.2,1.44.27,2,.14,1.09.18,1.72.18,1.72s-.25-.59-.64-1.62c-.18-.51-.41-1.14-.67-1.86s-.5-1.53-.92-2.37-.8-1.76-1.21-2.73a28.28,28.28,0,0,0-1.48-3c-.57-1-1-2.08-1.73-3.08l-2-3.08c-1.45-2-2.86-4-4.35-5.77-.74-.89-1.39-1.81-2.1-2.61s-1.34-1.6-1.93-2.33L53.16,11.3C52.47,10.44,52.1,9.92,52.1,9.92Z"/><path class="cls-1" d="M57.2,31.71a3.06,3.06,0,0,0,.58.4,6.41,6.41,0,0,0,1.64.53l1.16.24,1.31.25c.93.16,1.91.4,2.89.64l1.42.34a13.87,13.87,0,0,1,1.43.43,8.38,8.38,0,0,1,2.42,1.28,3.31,3.31,0,0,1,.8.78,3.1,3.1,0,0,1,.48.69,6.77,6.77,0,0,1,.29.66s-.23-.16-.56-.43a5.11,5.11,0,0,0-1.53-.8,14.3,14.3,0,0,0-2.33-.65l-2.89-.57c-1-.27-1.94-.54-2.83-.85a11.38,11.38,0,0,1-1.31-.49c-.4-.18-.78-.37-1.13-.57a4.72,4.72,0,0,1-1.51-1.24A2.16,2.16,0,0,1,57.2,31.71Z"/><path class="cls-1" d="M49.39,12.12s.12.18.29.5.26.3.4.48.38.32.59.52a9.79,9.79,0,0,0,1.7,1.06c.32.18.67.33,1,.51s.68.33,1.07.47c.75.34,1.47.55,2.21.87a9.59,9.59,0,0,1,1.92,1,4.28,4.28,0,0,1,1.12,1.06c.23.31.33.48.33.48l-.48-.3a6.64,6.64,0,0,0-1.29-.65,14.93,14.93,0,0,0-1.94-.61A21.73,21.73,0,0,1,54,16.77a9.86,9.86,0,0,1-3.82-2.68,3.32,3.32,0,0,1-.49-.75,2.64,2.64,0,0,1-.24-.65C49.41,12.34,49.39,12.12,49.39,12.12Z"/><path class="cls-1" d="M52,21.71l.64.42a8.22,8.22,0,0,0,1.75.9,44.47,44.47,0,0,0,5.84,1.5A15.21,15.21,0,0,1,66,26.88a4,4,0,0,1,.85.83,2.83,2.83,0,0,1,.52.75c.23.44.34.69.34.69l-.52-.55a5.64,5.64,0,0,0-1.57-1.16,24.64,24.64,0,0,0-5.69-1.75,20.8,20.8,0,0,1-5.85-2.05,6.62,6.62,0,0,1-1.59-1.33Z"/><path class="cls-1" d="M81.46,65.91s.67-.28,1.85-.7l2.14-.74a23.52,23.52,0,0,0,2.67-1.13l3-1.34,3.33-2c1.21-.62,2.25-1.48,3.42-2.21l1.73-1.13,1.69-1.23a38.18,38.18,0,0,0,3.18-2.56c.93-1,2-1.83,2.81-2.85s1.71-1.92,2.44-2.88,1.4-1.87,2-2.72,1.14-1.68,1.64-2.39.9-1.35,1.23-1.89c.66-1,1.08-1.65,1.08-1.65s-.22.69-.66,1.86c-.23.59-.5,1.31-.86,2.11A24.93,24.93,0,0,1,113,45.18a28,28,0,0,1-1.75,3l-1,1.62-1.24,1.59a33.06,33.06,0,0,1-2.83,3.16,38.39,38.39,0,0,1-3.38,2.83l-1.8,1.26-1.83,1.15a36.39,36.39,0,0,1-3.62,2.08L92,63.58c-1.3.46-2.37.75-3.44,1.07a14.36,14.36,0,0,1-2.87.68l-2.24.33C82.18,65.84,81.46,65.91,81.46,65.91Z"/><path class="cls-1" d="M52.11,58.76s1.33.61,3.2,1.69c.93.54,2,1.29,3.11,2,.55.36,1.14.7,1.71,1.09s1.21.64,1.81,1l.9.5.23.12s.14.07,0,0l.13.05.5.17c.67.21,1.32.53,1.94.69,1.21.28,2.37.59,3.44.76l2.55.52c.62.13,1,.23,1,.23a29.67,29.67,0,0,1-3.62.28,18.55,18.55,0,0,1-3.83-.28,18.15,18.15,0,0,1-2-.55l-.51-.16-.13,0a.44.44,0,0,1-.19-.09l-.24-.12-1-.51c-.64-.37-1.34-.69-1.92-1.1s-1.15-.86-1.7-1.27c-1.1-.83-2-1.69-2.79-2.42C53.12,59.82,52.11,58.76,52.11,58.76Z"/></svg>