<svg id="Layer_1" data-name="Layer 1" xmlns="http://www.w3.org/2000/svg" viewBox="0 0 150 150"><defs><style>.cls-1,.cls-2{fill:#33ced4;}.cls-1{fill-opacity:0.01;}</style></defs><g id="_2044828470480" data-name=" 2044828470480"><path class="cls-1" d="M96,117.49a32.2,32.2,0,0,1,3.55-2.94,21.91,21.91,0,1,1,35.79,0,32.14,32.14,0,0,1,4,3.37,30.86,30.86,0,0,1,9.06,21.88,7.48,7.48,0,0,1-7.48,7.49H94a7.48,7.48,0,0,1-7.48-7.48,30.83,30.83,0,0,1,7-19.66,7.48,7.48,0,0,1-9.41-1l-3.27-3.3a16.88,16.88,0,0,1-6.26,1.2,17.17,17.17,0,0,1-6-1.09l-3.22,3.22A7.48,7.48,0,0,1,54.86,108.6l3.53-3.53a17,17,0,0,1,8.78-20.35V80.8a7.43,7.43,0,0,1,1.42-4.39H51.15a7.48,7.48,0,0,1-7.48-7.48,30.82,30.82,0,0,1,9.06-21.88,30.37,30.37,0,0,1,4-3.36,21.91,21.91,0,1,1,35.78,0,31.38,31.38,0,0,1,4,3.38,30.87,30.87,0,0,1,9.07,21.88,7.49,7.49,0,0,1-7.49,7.48H80.71a7.4,7.4,0,0,1,1.42,4.39v3.93A16.92,16.92,0,0,1,86.67,88h0A17,17,0,0,1,91,104.79l3.8,3.83A7.48,7.48,0,0,1,96,117.49Zm-82.18-2.93a21.91,21.91,0,1,1,35.78,0,30.05,30.05,0,0,1,4,3.38A30.87,30.87,0,0,1,62.7,139.8a7.48,7.48,0,0,1-7.48,7.48H8.29A7.49,7.49,0,0,1,.81,139.8a30.93,30.93,0,0,1,13-25.24ZM79.59,35.88a7.37,7.37,0,1,0-.18.16l.18-.16ZM60.49,61.45H88.73a16,16,0,0,0-28.24,0ZM73,101.29l.23.25a2.07,2.07,0,0,0,2.87-3,2,2,0,0,0-1.46-.6h0A2,2,0,0,0,72.59,100a2.08,2.08,0,0,0,.42,1.27Zm-36.27,5.45a7.15,7.15,0,1,0-.18.17l.18-.17ZM17.63,132.32H45.87a16,16,0,0,0-28.24,0Zm104.84-25.58a7.38,7.38,0,1,0-.18.16l.18-.16Zm-19.11,25.57h28.25a16,16,0,0,0-28.25,0Z"/><path class="cls-1" d="M80,76.08a7.11,7.11,0,0,1,1.78,4.72v4.14a16.63,16.63,0,0,1,4.63,3.27h0a16.7,16.7,0,0,1,4.17,16.66l3.94,4a7.15,7.15,0,0,1-10.14,10.07L81,115.47a16.7,16.7,0,0,1-6.34,1.25,16.49,16.49,0,0,1-6.07-1.15L65.21,119a7.16,7.16,0,0,1-10.12-10.12l3.67-3.67A16.69,16.69,0,0,1,67.5,84.93V80.8a7.1,7.1,0,0,1,1.77-4.72H51.15A7.15,7.15,0,0,1,44,68.93a30.54,30.54,0,0,1,9-21.65,32.19,32.19,0,0,1,4.21-3.52,21.57,21.57,0,1,1,34.86,0,31.05,31.05,0,0,1,4.23,3.53,30.52,30.52,0,0,1,9,21.65,7.16,7.16,0,0,1-7.16,7.15ZM14.31,114.64a21.58,21.58,0,1,1,34.86,0,31.05,31.05,0,0,1,4.23,3.53,30.54,30.54,0,0,1,9,21.65A7.15,7.15,0,0,1,55.22,147H8.29a7.16,7.16,0,0,1-7.15-7.16,30.57,30.57,0,0,1,9-21.65A31.35,31.35,0,0,1,14.31,114.64Zm85.74,0a21.58,21.58,0,1,1,34.85,0,29.12,29.12,0,0,1,4.23,3.53,30.5,30.5,0,0,1,9,21.64A7.16,7.16,0,0,1,141,147H94a7.16,7.16,0,0,1-7.16-7.15,30.54,30.54,0,0,1,9-21.65,30.22,30.22,0,0,1,4.21-3.52ZM79.82,36.12a7.72,7.72,0,1,0-.18.16l.18-.16ZM60,61.78H89.27a16.32,16.32,0,0,0-29.32,0ZM72.76,101.5l.24.26a2.34,2.34,0,0,0,1.65.65,2.41,2.41,0,0,0,1.69-.7,2.39,2.39,0,0,0-1.69-4.08h0a2.4,2.4,0,0,0-1.89,3.87ZM37,107a7.31,7.31,0,0,0-.09-10.2,7.34,7.34,0,0,0-10.28,0,7.27,7.27,0,0,0,10.19,10.36L37,107ZM17.09,132.65H46.41a16.09,16.09,0,0,0-3.13-4.38,16.32,16.32,0,0,0-26.19,4.38ZM122.7,107a7.72,7.72,0,1,0-.18.16Zm-19.87,25.66h29.32a16.63,16.63,0,0,0-3.13-4.38,16.32,16.32,0,0,0-26.19,4.38Z"/><path class="cls-1" d="M79.25,75.75a6.82,6.82,0,0,1,2.23,5v4.35a16.42,16.42,0,0,1,4.73,3.29v0a16.4,16.4,0,0,1,4,16.52l4.07,4.1a6.82,6.82,0,1,1-9.67,9.61l-3.58-3.61a16.37,16.37,0,0,1-12.57.11L65,118.71a6.83,6.83,0,0,1-9.66-9.65l3.82-3.81a16.38,16.38,0,0,1,8.68-20.11V80.8a6.78,6.78,0,0,1,2.23-5H51.15a6.83,6.83,0,0,1-6.83-6.83,30.26,30.26,0,0,1,8.87-21.42,31.22,31.22,0,0,1,4.45-3.67,21.24,21.24,0,1,1,33.92,0,30.23,30.23,0,0,1,13.34,25.1,6.82,6.82,0,0,1-6.83,6.82Zm-64.47,39a21.24,21.24,0,1,1,33.92,0,30.91,30.91,0,0,1,4.47,3.68A30.24,30.24,0,0,1,62,139.8a6.83,6.83,0,0,1-6.82,6.83H8.29a6.82,6.82,0,0,1-6.82-6.83,30.41,30.41,0,0,1,13.31-25.09Zm85.73,0a21.25,21.25,0,1,1,33.93,0,30.89,30.89,0,0,1,4.46,3.69,30.19,30.19,0,0,1,8.87,21.41,6.82,6.82,0,0,1-6.82,6.83H94a6.82,6.82,0,0,1-6.83-6.82,30.2,30.2,0,0,1,8.87-21.42,30.59,30.59,0,0,1,4.44-3.67ZM80,36.35A7.61,7.61,0,0,0,80,25.68a7.59,7.59,0,1,0-.1,10.84l.17-.17ZM59.43,62.1H89.79a16.67,16.67,0,0,0-30.36,0Zm13.08,39.62.25.27a2.69,2.69,0,0,0,1.89.75A2.71,2.71,0,0,0,77.36,100a2.7,2.7,0,0,0-2.71-2.72h0A2.71,2.71,0,0,0,71.93,100a2.73,2.73,0,0,0,.58,1.7Zm-35.32,5.5a7.82,7.82,0,1,0-.17.16l.17-.16ZM16.58,133H46.93A16.65,16.65,0,0,0,20,128,16.42,16.42,0,0,0,16.58,133Zm106.35-25.77a7.82,7.82,0,1,0-.18.17l.18-.17ZM102.31,133h30.35A16.64,16.64,0,0,0,105.72,128,16.73,16.73,0,0,0,102.31,133Z"/><path class="cls-1" d="M78.3,75.43a6.49,6.49,0,0,1,2.85,5.37v4.56A16,16,0,0,1,86,88.68h0a16,16,0,0,1,3.88,16.37l4.22,4.26a6.49,6.49,0,0,1-9.21,9.14l-3.74-3.77a16,16,0,0,1-12.72.11l-3.68,3.68a6.49,6.49,0,0,1-9.18-9.18l4-4a15.78,15.78,0,0,1-.91-5.32A16,16,0,0,1,63.3,88.68a16.26,16.26,0,0,1,4.85-3.33V80.8A6.49,6.49,0,0,1,71,75.43H51.15a6.5,6.5,0,0,1-6.5-6.5,30.06,30.06,0,0,1,13.46-25,20.91,20.91,0,1,1,33,0,30,30,0,0,1,13.48,25,6.5,6.5,0,0,1-6.5,6.49Zm-63,39.36a20.92,20.92,0,1,1,33,0,30,30,0,0,1,13.48,25,6.5,6.5,0,0,1-6.49,6.5H8.29a6.5,6.5,0,0,1-6.5-6.5,29.84,29.84,0,0,1,8.78-21.18,30.29,30.29,0,0,1,4.69-3.83Zm85.73,0a20.92,20.92,0,1,1,33,0,31,31,0,0,1,4.71,3.84,29.91,29.91,0,0,1,8.77,21.18,6.49,6.49,0,0,1-6.49,6.5H94a6.5,6.5,0,0,1-6.49-6.49,29.9,29.9,0,0,1,13.46-25ZM80.27,36.59a8.14,8.14,0,1,0-.17.16l.17-.16ZM58.93,62.43H90.29a17.19,17.19,0,0,0-3.68-5.5,17,17,0,0,0-24,0A17.19,17.19,0,0,0,58.93,62.43Zm13.34,39.51.25.27A3.05,3.05,0,0,0,77.69,100a3,3,0,0,0-3-3h0a3.06,3.06,0,0,0-2.38,5Zm-34.85,5.52a8.15,8.15,0,1,0-.17.16l.17-.16ZM16.08,133.31H47.43a17.19,17.19,0,0,0-3.68-5.5,17,17,0,0,0-27.68,5.51Zm107.07-25.86a7.93,7.93,0,0,0-.07-11.14,7.93,7.93,0,0,0-13.53,5.61A7.92,7.92,0,0,0,123,107.61ZM101.81,133.3h31.35a17,17,0,0,0-31.35,0Z"/><path class="cls-1" d="M77,75.1a6.17,6.17,0,0,1,3.81,5.7v4.77a15.83,15.83,0,0,1,4.92,3.34h0a15.69,15.69,0,0,1,3.75,16.23l4.36,4.4a6.16,6.16,0,0,1-8.74,8.68l-3.9-3.94a15.7,15.7,0,0,1-12.87.12l-3.84,3.84a6.17,6.17,0,0,1-8.72-8.72l4.1-4.11a15.75,15.75,0,0,1,8.59-19.86V80.8a6.17,6.17,0,0,1,3.81-5.7H51.15A6.17,6.17,0,0,1,45,68.93a29.56,29.56,0,0,1,8.68-21,29.11,29.11,0,0,1,4.94-4,20.59,20.59,0,1,1,32,0,29.69,29.69,0,0,1,13.64,25,6.17,6.17,0,0,1-6.17,6.17ZM15.74,114.87a20.59,20.59,0,1,1,32,0,28.82,28.82,0,0,1,5,4,29.52,29.52,0,0,1,8.68,21A6.17,6.17,0,0,1,55.22,146H8.29a6.17,6.17,0,0,1-6.17-6.17,29.56,29.56,0,0,1,8.68-21A30,30,0,0,1,15.74,114.87Zm85.73,0a20.59,20.59,0,1,1,32,0,29.69,29.69,0,0,1,13.64,24.94A6.17,6.17,0,0,1,141,146H94a6.17,6.17,0,0,1-6.16-6.17,29.61,29.61,0,0,1,13.61-24.93Zm-21-78a8.48,8.48,0,1,0-.17.16l.17-.16Zm-22,25.93H90.77a17.3,17.3,0,0,0-32.32,0ZM72,102.16l.26.28a3.32,3.32,0,0,0,2.37,1A3.39,3.39,0,0,0,77,97.62a3.39,3.39,0,0,0-2.39-1h0A3.38,3.38,0,0,0,71.27,100a3.4,3.4,0,0,0,.75,2.14Zm-34.37,5.53a8.27,8.27,0,0,0-.07-11.6,8.29,8.29,0,0,0-11.67,0,8.25,8.25,0,0,0,11.57,11.76l.17-.16ZM15.59,133.63H47.91a17.3,17.3,0,0,0-32.32,0Zm107.79-25.94a8.49,8.49,0,1,0-.17.16l.17-.16Zm-22.06,25.94h32.33a17.31,17.31,0,0,0-32.33,0Z"/><path class="cls-1" d="M59.09,44.08a20.27,20.27,0,1,1,31,0,29.31,29.31,0,0,1,13.8,24.87,5.84,5.84,0,0,1-5.84,5.84H51.15a5.85,5.85,0,0,1-5.84-5.84A29.26,29.26,0,0,1,59.09,44.08Zm21.4,41.71a15.4,15.4,0,0,1,5,3.35h0a15.38,15.38,0,0,1,3.6,16.09l4.5,4.54A5.83,5.83,0,0,1,85.35,118l-4.06-4.1a15.42,15.42,0,0,1-13,.12l-4,4A5.84,5.84,0,0,1,56,109.76l4.26-4.26a15.33,15.33,0,0,1,3.49-16.36,15.67,15.67,0,0,1,5-3.36v-5a5.84,5.84,0,1,1,11.68,0v5ZM16.23,115a20.27,20.27,0,1,1,31,0,29.85,29.85,0,0,1,5.22,4.15,29.23,29.23,0,0,1,8.58,20.72,5.84,5.84,0,0,1-5.83,5.84H8.29a5.84,5.84,0,0,1-5.84-5.84A29.25,29.25,0,0,1,11,119.08a29.6,29.6,0,0,1,5.2-4.13Zm85.73,0a20.26,20.26,0,1,1,31,0,29.39,29.39,0,0,1,13.8,24.86,5.84,5.84,0,0,1-5.84,5.84H94a5.85,5.85,0,0,1-5.84-5.84,29.22,29.22,0,0,1,8.59-20.72,29.58,29.58,0,0,1,5.19-4.14ZM80.72,37.07a8.6,8.6,0,0,0,0-12.09,8.58,8.58,0,1,0-.12,12.25l.17-.16ZM58,63.09H91.24a17.63,17.63,0,0,0-33.26,0Zm13.8,39.29a3.33,3.33,0,0,1,.25.28h0a3.74,3.74,0,0,0,5.24,0,3.73,3.73,0,0,0,0-5.25,3.68,3.68,0,0,0-2.62-1.08h0a3.72,3.72,0,0,0-2.87,6.07Zm-33.91,5.55a8.6,8.6,0,0,0-.06-12.08,8.58,8.58,0,1,0-.11,12.24l.17-.16ZM15.12,134H48.39a17.64,17.64,0,0,0-33.27,0Zm108.49-26a8.82,8.82,0,1,0-.17.16l.17-.16Zm-22.76,26h33.27a17.64,17.64,0,0,0-33.27,0Z"/><path class="cls-1" d="M59.59,44.15a19.93,19.93,0,1,1,30,0,29.26,29.26,0,0,1,5.49,4.3,28.93,28.93,0,0,1,8.48,20.49,5.51,5.51,0,0,1-5.51,5.51H51.15a5.51,5.51,0,0,1-5.51-5.51,28.93,28.93,0,0,1,8.48-20.49,29.49,29.49,0,0,1,5.47-4.29ZM80.16,86a15.18,15.18,0,0,1,5.12,3.36v0A15,15,0,0,1,89.7,100a15.16,15.16,0,0,1-1,5.3L93.39,110a5.5,5.5,0,1,1-7.8,7.75l-4.24-4.26a15.05,15.05,0,0,1-13.14.12l-4.16,4.16a5.51,5.51,0,0,1-7.8-7.79l4.41-4.41A15.06,15.06,0,0,1,69.14,86V80.8a5.51,5.51,0,0,1,11,0V86ZM16.73,115a19.94,19.94,0,1,1,30,0,29.67,29.67,0,0,1,5.49,4.3,28.89,28.89,0,0,1,8.48,20.49,5.51,5.51,0,0,1-5.5,5.51H8.29a5.51,5.51,0,0,1-5.51-5.51,29,29,0,0,1,14-24.77Zm85.73,0a19.93,19.93,0,1,1,30,0,29.19,29.19,0,0,1,5.48,4.3,28.89,28.89,0,0,1,8.49,20.48A5.51,5.51,0,0,1,141,145.3H94a5.51,5.51,0,0,1-5.51-5.51A28.9,28.9,0,0,1,97,119.31a29.42,29.42,0,0,1,5.46-4.29ZM81,37.31a9.47,9.47,0,1,0-.17.15l.17-.15ZM57.52,63.42H91.7a18,18,0,0,0-34.18,0Zm14,39.18a3.45,3.45,0,0,1,.26.28h0A4,4,0,1,0,74.65,96h0a4,4,0,0,0-3.11,6.61ZM38.1,108.17a9.15,9.15,0,1,0-.17.16l.17-.16ZM14.66,134.29H48.84a18,18,0,0,0-34.18,0Zm109.17-26.12a9.18,9.18,0,1,0-.16.15ZM100.4,134.29h34.18a18,18,0,0,0-34.18,0Z"/><path class="cls-1" d="M60.1,44.23a19.6,19.6,0,1,1,29,0,28.63,28.63,0,0,1,14.15,24.71,5.18,5.18,0,0,1-5.18,5.18H51.15A5.18,5.18,0,0,1,46,68.93,28.71,28.71,0,0,1,60.1,44.23Zm19.73,42A14.8,14.8,0,0,1,85,89.61h0a14.7,14.7,0,0,1,3.29,15.78l4.8,4.84a5.17,5.17,0,0,1-7.33,7.29l-4.4-4.44a14.71,14.71,0,0,1-13.28.13l-4.33,4.33a5.18,5.18,0,0,1-7.32-7.32l4.56-4.57a14.73,14.73,0,0,1,8.42-19.43V80.8a5.18,5.18,0,0,1,10.36,0v5.44ZM17.24,115.1a19.6,19.6,0,1,1,29,0A28.29,28.29,0,0,1,52,119.55a28.58,28.58,0,0,1,8.4,20.25A5.18,5.18,0,0,1,55.21,145H8.29a5.18,5.18,0,0,1-5.18-5.18,28.64,28.64,0,0,1,14.13-24.69Zm85.73,0a19.6,19.6,0,1,1,29,0,28.88,28.88,0,0,1,5.76,4.45,28.57,28.57,0,0,1,8.39,20.25A5.18,5.18,0,0,1,141,145H94a5.18,5.18,0,0,1-5.18-5.18,28.57,28.57,0,0,1,8.39-20.26A29.08,29.08,0,0,1,103,115.1ZM81.18,37.55a9.8,9.8,0,1,0-.17.15l.17-.15ZM57.07,63.75H92.15a18.29,18.29,0,0,0-35.08,0Zm14.22,39.07a3.58,3.58,0,0,1,.26.29h0a4.28,4.28,0,0,0,3.08,1.26,4.36,4.36,0,1,0,0-8.72h0a4.34,4.34,0,0,0-3.09,1.27,4.38,4.38,0,0,0-.27,5.89Zm-33,5.59a9.82,9.82,0,1,0-.17.15l.17-.15ZM14.22,134.62H49.29a18.28,18.28,0,0,0-35.07,0Zm109.84-26.21a9.82,9.82,0,1,0-.17.15ZM100,134.62H135a18.29,18.29,0,0,0-35.07,0Z"/><path class="cls-1" d="M60.62,44.31a19.27,19.27,0,1,1,28,0,28.33,28.33,0,0,1,14.34,24.63,4.84,4.84,0,0,1-4.85,4.85H51.15a4.85,4.85,0,0,1-4.85-4.85A28.34,28.34,0,0,1,60.62,44.31ZM79.5,86.47a14.36,14.36,0,0,1,5.31,3.37h0A14.4,14.4,0,0,1,88,105.48l5,5a4.84,4.84,0,0,1-6.87,6.83l-4.57-4.61a14.4,14.4,0,0,1-13.4.13l-4.5,4.5a4.85,4.85,0,0,1-6.86-6.86l4.72-4.72a14.37,14.37,0,0,1,3-15.9,14.46,14.46,0,0,1,5.33-3.38V80.8a4.85,4.85,0,1,1,9.7,0v5.67ZM17.76,115.18a19.27,19.27,0,1,1,28,0,28.57,28.57,0,0,1,6.05,4.61,28.23,28.23,0,0,1,8.3,20,4.85,4.85,0,0,1-4.85,4.85H8.29a4.85,4.85,0,0,1-4.85-4.85,28.27,28.27,0,0,1,8.29-20,29,29,0,0,1,6-4.6Zm85.73,0a19.28,19.28,0,1,1,28,0,28.36,28.36,0,0,1,14.35,24.63,4.86,4.86,0,0,1-4.85,4.86H94a4.85,4.85,0,0,1-4.85-4.85,28.4,28.4,0,0,1,14.32-24.62ZM81.4,37.79a9.82,9.82,0,1,0-.16.15ZM56.64,64.08H92.58a18.61,18.61,0,0,0-35.94,0ZM71,103a3.71,3.71,0,0,1,.27.29l0,0a4.7,4.7,0,0,0,8-3.34A4.72,4.72,0,0,0,78,96.69a4.67,4.67,0,0,0-3.32-1.36h0A4.7,4.7,0,0,0,71,103Zm-32.49,5.61a9.57,9.57,0,0,0,0-13.49,9.57,9.57,0,0,0-16.34,6.76,9.57,9.57,0,0,0,16.22,6.88ZM13.78,135H49.72a18.61,18.61,0,0,0-35.94,0Zm110.51-26.3a10.16,10.16,0,1,0-.17.15ZM99.51,135h36a18.63,18.63,0,0,0-35.95,0Z"/><path class="cls-1" d="M61.15,44.39a18.95,18.95,0,1,1,26.89,0A28,28,0,0,1,102.6,68.93a4.53,4.53,0,0,1-4.53,4.52H51.15a4.52,4.52,0,0,1-4.52-4.52A28,28,0,0,1,61.15,44.39Zm18,42.31a14,14,0,0,1,5.41,3.37v0a14,14,0,0,1,3,15.46l5.11,5.16a4.51,4.51,0,1,1-6.4,6.36l-4.75-4.79a14.1,14.1,0,0,1-13.53.14l-4.66,4.67a4.53,4.53,0,0,1-6.4-6.4l4.88-4.88a14.05,14.05,0,0,1,8.3-19.11V80.8a4.52,4.52,0,1,1,9,0v5.9ZM18.29,115.26a18.94,18.94,0,1,1,26.9,0A28,28,0,0,1,59.74,139.8a4.52,4.52,0,0,1-4.53,4.52H8.29a4.52,4.52,0,0,1-4.52-4.53A27.94,27.94,0,0,1,12,120a28.5,28.5,0,0,1,6.33-4.75Zm85.74,0a18.94,18.94,0,1,1,26.89,0,28.17,28.17,0,0,1,6.35,4.77,27.87,27.87,0,0,1,8.2,19.78,4.52,4.52,0,0,1-4.52,4.53H94a4.52,4.52,0,0,1-4.52-4.52A28,28,0,0,1,104,115.26ZM81.62,38a10.18,10.18,0,1,0-.15.14ZM56.22,64.41H93a18.94,18.94,0,0,0-36.79,0ZM70.8,103.26a3.58,3.58,0,0,1,.26.29l0,0A5,5,0,1,0,74.65,95h0a5,5,0,0,0-3.85,8.26Zm-32,5.63a10.17,10.17,0,1,0-.16.15A1.14,1.14,0,0,1,38.78,108.89ZM13.36,135.28H50.15a18.94,18.94,0,0,0-36.79,0Zm111.15-26.39a10.56,10.56,0,1,0-.16.14l.16-.14ZM99.09,135.27h36.79a18.94,18.94,0,0,0-36.79,0Z"/><path class="cls-1" d="M61.7,44.47l-.26-.26a18.62,18.62,0,1,1,26.33,0l-.18.2-.09.08a27.63,27.63,0,0,1,14.77,24.47,4.2,4.2,0,0,1-4.2,4.19H51.15A4.18,4.18,0,0,1,47,68.93,27.71,27.71,0,0,1,61.7,44.47ZM78.84,86.94a13.82,13.82,0,0,1,5.51,3.36v0a13.75,13.75,0,0,1,2.83,15.31l5.26,5.31a4.18,4.18,0,0,1-5.93,5.9l-4.93-5A13.67,13.67,0,0,1,68,112l-4.85,4.84a4.19,4.19,0,0,1-5.93-5.93l5-5a13.71,13.71,0,0,1,2.7-15.57,13.82,13.82,0,0,1,5.53-3.38V80.8a4.19,4.19,0,1,1,8.38,0v6.14Zm-60,28.4c-.08-.09-.17-.17-.26-.26a18.61,18.61,0,1,1,26.33,0l-.18.19a.6.6,0,0,0-.08.08A27.71,27.71,0,0,1,59.41,139.8,4.19,4.19,0,0,1,55.22,144H8.29a4.2,4.2,0,0,1-4.19-4.2,27.71,27.71,0,0,1,14.74-24.46Zm85.74,0-.27-.25a18.63,18.63,0,1,1,26.34,0l-.19.2-.08.08a27.66,27.66,0,0,1,14.76,24.46A4.2,4.2,0,0,1,141,144H94a4.2,4.2,0,0,1-4.19-4.19,27.61,27.61,0,0,1,8.1-19.56A28.14,28.14,0,0,1,104.58,115.33ZM81.85,38.27a10.51,10.51,0,1,0-.15.14Zm-26,26.47H93.42a19.27,19.27,0,0,0-37.62,0Zm14.76,38.74c.09.1.18.19.26.29l.05,0A5.36,5.36,0,0,0,80,100a5.33,5.33,0,0,0-5.35-5.35h0a5.36,5.36,0,0,0-4.09,8.81ZM39,109.13a10.25,10.25,0,0,0,0-14.44,10.22,10.22,0,1,0-.12,14.58l.15-.14ZM12.94,135.61H50.56a19.28,19.28,0,0,0-37.62,0Zm111.79-26.48a10.52,10.52,0,1,0-.15.14l.15-.14Zm-26,26.47H136.3a19.27,19.27,0,0,0-37.62,0Z"/><path class="cls-1" d="M62.27,44.54c-.21-.18-.4-.37-.6-.56a18.29,18.29,0,1,1,25.86,0l-.17.18-.42.4a27.38,27.38,0,0,1,15,24.39,3.86,3.86,0,0,1-3.87,3.86H51.15a3.88,3.88,0,0,1-3.87-3.87,27.4,27.4,0,0,1,15-24.39ZM78.52,87.18a13.43,13.43,0,0,1,5.59,3.36h0a13.41,13.41,0,0,1,2.66,15.15l5.43,5.47a3.86,3.86,0,0,1-5.47,5.44l-5.1-5.15a13.39,13.39,0,0,1-13.75.14l-5,5a3.86,3.86,0,0,1-5.46-5.46L62.63,106a13.4,13.4,0,0,1,8.16-18.77V80.8a3.87,3.87,0,1,1,7.73,0v6.38ZM19.41,115.42l-.6-.57a18.29,18.29,0,1,1,25.86,0l-.17.19-.42.39a27.38,27.38,0,0,1,15,24.39,3.86,3.86,0,0,1-3.86,3.86H8.29a3.86,3.86,0,0,1-3.86-3.87,27.33,27.33,0,0,1,15-24.38Zm85.73,0c-.2-.18-.4-.37-.59-.57a18.29,18.29,0,1,1,25.86,0,1.62,1.62,0,0,1-.18.19c-.13.13-.27.27-.41.39a27.72,27.72,0,0,1,7,5.07,27.25,27.25,0,0,1,8,19.33,3.86,3.86,0,0,1-3.86,3.86H94a3.86,3.86,0,0,1-3.86-3.86,27.24,27.24,0,0,1,8-19.32,27.6,27.6,0,0,1,7-5.07ZM82.07,38.51a10.46,10.46,0,1,0-.14.14,1.85,1.85,0,0,1,.14-.14ZM55.4,65.07H93.83a19.6,19.6,0,0,0-38.43,0Zm14.92,38.64h0a2.13,2.13,0,0,1,.23.26l.09.08a5.69,5.69,0,1,0,4-9.71h0a5.69,5.69,0,0,0-4.33,9.37Zm-31.1,5.67a10.88,10.88,0,1,0-.14.13l.14-.13ZM12.54,135.94H51a19.6,19.6,0,0,0-38.43,0ZM125,109.37a11.31,11.31,0,1,0-.15.13ZM98.27,135.93H136.7a19.6,19.6,0,0,0-38.43,0Z"/><path class="cls-1" d="M62.85,44.62c-.33-.28-.64-.57-1-.88a18,18,0,1,1,25.39,0l-.16.17-.77.71a27,27,0,0,1,15.25,24.31,3.53,3.53,0,0,1-3.54,3.53H51.15a3.55,3.55,0,0,1-3.54-3.54A27,27,0,0,1,62.85,44.62ZM78.19,87.43a13,13,0,0,1,5.69,3.34h0a13.09,13.09,0,0,1,2.51,15L92,111.4a3.52,3.52,0,1,1-5,5L81.69,111a13.06,13.06,0,0,1-13.84.15l-5.2,5.2a3.54,3.54,0,0,1-5-5L63,106a12.87,12.87,0,0,1-1.46-6,13.1,13.1,0,0,1,9.54-12.6V80.8a3.54,3.54,0,1,1,7.08,0v6.63ZM20,115.5c-.32-.29-.64-.58-.94-.88a18,18,0,1,1,25.38,0l-.16.17-.77.71A27,27,0,0,1,58.75,139.8a3.54,3.54,0,0,1-3.54,3.54H8.29a3.54,3.54,0,0,1-3.54-3.54A27,27,0,0,1,20,115.5Zm85.73,0c-.32-.28-.64-.57-.94-.88a18,18,0,1,1,25.38,0,1.37,1.37,0,0,1-.16.18c-.24.24-.5.47-.77.7a27,27,0,0,1,15.25,24.32,3.52,3.52,0,0,1-3.53,3.53H94a3.53,3.53,0,0,1-3.54-3.53,26.91,26.91,0,0,1,7.91-19.09,27.23,27.23,0,0,1,7.32-5.22ZM82.29,38.76h0a11.64,11.64,0,1,0-.15.13l.14-.12ZM55,65.39H94.22a19.93,19.93,0,0,0-39.22,0Zm15.33,38.82.07.07A6,6,0,0,0,80.65,100a6,6,0,0,0-6-6h0a6,6,0,0,0-4.57,9.92v0l.24.26Zm-30.88,5.41a11.21,11.21,0,1,0-.14.13l.14-.13ZM12.14,136.27H51.37a19.93,19.93,0,0,0-39.23,0Zm113-26.66a11.21,11.21,0,1,0-.14.13l.14-.13ZM97.87,136.26H137.1a19.93,19.93,0,0,0-39.23,0Z"/><path class="cls-1" d="M47.94,68.93A26.67,26.67,0,0,1,63.2,44.82c.08,0,.09-.06.1-.14a.13.13,0,0,0-.06-.15c-.38-.33-.75-.66-1.1-1a17.63,17.63,0,1,1,24.92,0l0,0-.14.15c-.3.29-.61.58-.93.85-.07,0-.08.07-.06.16s0,.1.09.13a26.94,26.94,0,0,1,7.47,5.26,26.58,26.58,0,0,1,7.81,18.86,3.21,3.21,0,0,1-3.21,3.2H51.15a3.21,3.21,0,0,1-3.21-3.21ZM71.44,80.8a3.21,3.21,0,1,1,6.42,0v6.74a.15.15,0,0,0,.13.17A12.81,12.81,0,0,1,83.65,91v0a12.7,12.7,0,0,1,2.39,14.7.15.15,0,0,0,0,.2l5.66,5.71a3.2,3.2,0,1,1-4.53,4.51l-5.38-5.42a.16.16,0,0,0-.22,0,12.71,12.71,0,0,1-13.7.15.16.16,0,0,0-.22,0l-5.28,5.29a3.21,3.21,0,0,1-4.54-4.54l5.46-5.46a.14.14,0,0,0,0-.2,12.75,12.75,0,0,1,7.94-18.25.15.15,0,0,0,.13-.17V80.8Zm-66.36,59a26.64,26.64,0,0,1,7.81-18.86,27,27,0,0,1,7.45-5.25c.08,0,.09,0,.1-.14s0-.1-.06-.15c-.38-.32-.75-.66-1.1-1a17.64,17.64,0,1,1,24.92,0l0,0-.14.15c-.3.3-.61.58-.93.85-.07,0-.07.07-.06.16s0,.1.1.13a27,27,0,0,1,7.46,5.26,26.58,26.58,0,0,1,7.81,18.86,3.21,3.21,0,0,1-3.2,3.21H8.29a3.21,3.21,0,0,1-3.21-3.21Zm85.74,0a26.67,26.67,0,0,1,15.26-24.11.15.15,0,0,0,.1-.14.15.15,0,0,0-.06-.16c-.39-.32-.75-.66-1.11-1a17.63,17.63,0,1,1,24.93,0l0,0a1,1,0,0,1-.14.15c-.3.29-.61.58-.93.85a.13.13,0,0,0-.06.15c0,.09,0,.1.1.14a26.72,26.72,0,0,1,15.28,24.12A3.21,3.21,0,0,1,141,143H94a3.2,3.2,0,0,1-3.21-3.2ZM82.5,39l0,0a11.51,11.51,0,1,0-.15.14ZM88.93,54.6A20.27,20.27,0,0,0,54.64,65.52a.13.13,0,0,0,0,.14c0,.06.06.06.14.06H94.41a.12.12,0,0,0,.13-.06.13.13,0,0,0,0-.14A20.21,20.21,0,0,0,88.93,54.6Zm-19.1,49.55h0l0,0,.23.25.08.09a6.35,6.35,0,1,0,4.48-10.84h0a6.35,6.35,0,0,0-4.82,10.47Zm-30.17,5.72h0a12.57,12.57,0,1,0-.15.12l.13-.11Zm6.42,15.61a20.27,20.27,0,0,0-34.3,10.91c0,.07,0,.09,0,.14s.06.07.14.07H51.55a.12.12,0,0,0,.13-.06.13.13,0,0,0,0-.14,20.2,20.2,0,0,0-5.64-10.91Zm79.32-15.62h0a11.24,11.24,0,0,0,0-15.86,11.21,11.21,0,1,0-.13,16l.13-.12Zm6.41,15.61a20.25,20.25,0,0,0-34.29,10.92.13.13,0,0,0,0,.14.12.12,0,0,0,.13.06h39.59a.14.14,0,0,0,.14-.06.14.14,0,0,0,0-.15,20.2,20.2,0,0,0-5.64-10.91Z"/><path class="cls-1" d="M48.27,68.93A26.4,26.4,0,0,1,63.34,45.12a.51.51,0,0,0,.11-.85q-.56-.47-1.08-1a17.29,17.29,0,1,1,24.46,0s0,0,0,0l-.12.13c-.3.28-.6.56-.92.83a.43.43,0,0,0-.17.45.46.46,0,0,0,.28.39A26.36,26.36,0,0,1,101,68.93a2.88,2.88,0,0,1-2.88,2.88H51.15a2.88,2.88,0,0,1-2.88-2.88ZM71.77,80.8a2.88,2.88,0,0,1,5.76,0v6.74a.48.48,0,0,0,.37.49,12.35,12.35,0,0,1,5.51,3.21h0a12.39,12.39,0,0,1,2.33,14.32.47.47,0,0,0,.09.58l5.67,5.71a2.87,2.87,0,1,1-4.07,4l-5.38-5.43a.49.49,0,0,0-.63-.06,12.39,12.39,0,0,1-13.34.14.5.5,0,0,0-.63.07l-5.29,5.29a2.87,2.87,0,0,1-4.06-4.07l5.45-5.45a.48.48,0,0,0,.09-.6A12.25,12.25,0,0,1,62.22,100,12.43,12.43,0,0,1,71.4,88a.48.48,0,0,0,.37-.49V80.8Zm-66.36,59A26.38,26.38,0,0,1,20.49,116a.48.48,0,0,0,.28-.39.45.45,0,0,0-.18-.45c-.37-.32-.73-.65-1.08-1a17.31,17.31,0,1,1,24.46,0l0,0-.12.13c-.29.29-.6.56-.92.83a.48.48,0,0,0-.17.45A.47.47,0,0,0,43,116,26.36,26.36,0,0,1,58.09,139.8a2.88,2.88,0,0,1-2.88,2.88H8.29a2.88,2.88,0,0,1-2.88-2.88Zm85.74,0a26.3,26.3,0,0,1,7.71-18.63,26.74,26.74,0,0,1,7.36-5.19.42.42,0,0,0,.28-.39.44.44,0,0,0-.17-.45,14.57,14.57,0,0,1-1.08-1,17.31,17.31,0,1,1,24.45,0l0,.05a1.36,1.36,0,0,1-.12.12c-.29.29-.6.57-.91.83a.48.48,0,0,0-.18.46.47.47,0,0,0,.29.39,26.36,26.36,0,0,1,15.09,23.82,2.88,2.88,0,0,1-2.88,2.87H94a2.88,2.88,0,0,1-2.87-2.88ZM82.71,39.26l.06,0a12.27,12.27,0,1,0-.16.14l.1-.1Zm6.46,15.11A20.58,20.58,0,0,0,54.32,65.46a.44.44,0,0,0,.11.41.42.42,0,0,0,.39.18H94.41a.5.5,0,0,0,.49-.59,20.58,20.58,0,0,0-5.73-11.09Zm-19.59,50,0,0,0,0a2,2,0,0,1,.19.22l0,0,.09.09a6.68,6.68,0,0,0,9.43-9.45,6.69,6.69,0,0,0-4.72-2h0a6.67,6.67,0,0,0-5.06,11Zm-29.71,5.76,0,0a12.34,12.34,0,1,0-.15.13l.11-.1Zm6.44,15.12a20.6,20.6,0,0,0-34.85,11.1.45.45,0,0,0,.11.41.44.44,0,0,0,.39.17H51.55a.42.42,0,0,0,.38-.18.45.45,0,0,0,.12-.41,20.66,20.66,0,0,0-5.74-11.09Zm79.3-15.12,0,0a11.9,11.9,0,1,0-.14.13ZM132,125.24a20.59,20.59,0,0,0-34.85,11.09.42.42,0,0,0,.12.41.44.44,0,0,0,.38.18h39.59a.44.44,0,0,0,.39-.18.44.44,0,0,0,.11-.41A20.46,20.46,0,0,0,132,125.24Z"/><path class="cls-1" d="M48.6,68.93a25.9,25.9,0,0,1,7.62-18.39,26.2,26.2,0,0,1,7.26-5.13A.83.83,0,0,0,63.66,44c-.36-.31-.72-.63-1.06-1a17,17,0,1,1,24,0l-.06.06-.1.11c-.29.28-.59.55-.9.82a.83.83,0,0,0,.18,1.39,26,26,0,0,1,14.9,23.52,2.55,2.55,0,0,1-2.55,2.55H51.15a2.55,2.55,0,0,1-2.55-2.55ZM72.1,80.8a2.55,2.55,0,0,1,5.1,0v6.74a.81.81,0,0,0,.61.81,12.06,12.06,0,0,1,5.37,3.12h0a12.07,12.07,0,0,1,2.28,13.94.79.79,0,0,0,.15,1l5.67,5.72a2.54,2.54,0,1,1-3.6,3.58l-5.38-5.43a.82.82,0,0,0-1-.11,12.06,12.06,0,0,1-13,.14.82.82,0,0,0-1,.12L62,115.69a2.55,2.55,0,0,1-3.6-3.6l5.45-5.46a.79.79,0,0,0,.15-1,12.11,12.11,0,0,1,7.54-17.31.81.81,0,0,0,.61-.8V80.8Zm-66.36,59a26,26,0,0,1,14.89-23.51.84.84,0,0,0,.18-1.4c-.37-.31-.73-.63-1.07-1a17,17,0,1,1,24,0l-.06.07a.94.94,0,0,1-.1.1c-.29.29-.59.56-.9.82a.85.85,0,0,0,.18,1.39,26,26,0,0,1,14.9,23.52,2.55,2.55,0,0,1-2.54,2.55H8.29a2.55,2.55,0,0,1-2.55-2.55Zm85.74,0a25.89,25.89,0,0,1,7.61-18.39,26.25,26.25,0,0,1,7.27-5.13.83.83,0,0,0,.18-1.39c-.37-.31-.72-.64-1.06-1a17,17,0,1,1,24,0l-.05.06-.11.11c-.28.28-.58.55-.89.81a.83.83,0,0,0,.18,1.39,26,26,0,0,1,14.9,23.53,2.55,2.55,0,0,1-2.55,2.54H94a2.55,2.55,0,0,1-2.54-2.55ZM82.93,39.52a.46.46,0,0,1,.07-.07,12.62,12.62,0,1,0-.16.14A.31.31,0,0,1,82.93,39.52ZM89.4,54.14A20.92,20.92,0,0,0,54,65.41a.83.83,0,0,0,.83,1H94.41a.74.74,0,0,0,.63-.3.75.75,0,0,0,.19-.67A20.9,20.9,0,0,0,89.4,54.14ZM69.33,104.58l0,0,0,0,.17.19.05.06.08.08a7,7,0,1,0,5-12h0a7,7,0,0,0-5.32,11.56Zm-29.25,5.79.06-.05a12.19,12.19,0,1,0-.15.14ZM46.54,125a20.91,20.91,0,0,0-35.4,11.27.77.77,0,0,0,.18.68.79.79,0,0,0,.64.29H51.55a.76.76,0,0,0,.63-.29.77.77,0,0,0,.19-.68A20.93,20.93,0,0,0,46.54,125Zm79.28-14.64.05-.05a12.7,12.7,0,1,0-.15.13l.1-.08ZM132.27,125a20.91,20.91,0,0,0-35.4,11.27.75.75,0,0,0,.18.67.77.77,0,0,0,.64.3h39.59a.83.83,0,0,0,.82-1A20.77,20.77,0,0,0,132.27,125Z"/><path class="cls-1" d="M48.93,68.93a25.69,25.69,0,0,1,14.7-23.22,1.08,1.08,0,0,0,.65-.9,1.11,1.11,0,0,0-.4-1q-.54-.45-1.05-1a16.65,16.65,0,1,1,23.53,0l-.07.08-.08.08c-.28.28-.58.55-.88.8a1.11,1.11,0,0,0-.4,1,1.08,1.08,0,0,0,.65.9,25.72,25.72,0,0,1,14.71,23.23,2.22,2.22,0,0,1-2.22,2.22H51.15a2.21,2.21,0,0,1-2.22-2.22ZM72.43,80.8a2.22,2.22,0,1,1,4.44,0v6.74a1.15,1.15,0,0,0,.86,1.13,11.69,11.69,0,0,1,5.22,3h0a11.73,11.73,0,0,1,2.21,13.56,1.12,1.12,0,0,0,.22,1.34l5.66,5.72a2.21,2.21,0,0,1-3.13,3.12L82.54,110a1.14,1.14,0,0,0-1.46-.15,11.78,11.78,0,0,1-12.64.14,1.12,1.12,0,0,0-1.43.16l-5.29,5.29a2.22,2.22,0,0,1-3.14-3.14L64,106.86a1.12,1.12,0,0,0,.2-1.36,11.77,11.77,0,0,1,7.33-16.84,1.14,1.14,0,0,0,.86-1.12V80.8Zm-66.36,59a25.69,25.69,0,0,1,14.7-23.22,1.08,1.08,0,0,0,.65-.9,1.1,1.1,0,0,0-.4-1c-.36-.3-.71-.62-1-1a16.65,16.65,0,1,1,23.52,0l-.07.08-.08.09c-.28.27-.58.54-.88.8a1.17,1.17,0,0,0,.25,1.94A25.7,25.7,0,0,1,57.44,139.8,2.22,2.22,0,0,1,55.22,142H8.29a2.21,2.21,0,0,1-2.22-2.22Zm85.73,0a25.74,25.74,0,0,1,14.7-23.22,1.16,1.16,0,0,0,.25-1.94c-.36-.31-.71-.62-1-1a16.64,16.64,0,1,1,23.53,0,.6.6,0,0,0-.08.08l-.08.08a11.13,11.13,0,0,1-.88.8,1.16,1.16,0,0,0,.26,1.94,25.72,25.72,0,0,1,14.71,23.23A2.22,2.22,0,0,1,141,142H94a2.24,2.24,0,0,1-2.23-2.22Zm-8.66-100,.09-.09a12.5,12.5,0,1,0-.16.15l.07-.06Zm6.49,14.14a21.24,21.24,0,0,0-36,11.44,1.16,1.16,0,0,0,1.15,1.36H94.41a1.08,1.08,0,0,0,.88-.41,1.11,1.11,0,0,0,.26-1,21.15,21.15,0,0,0-5.92-11.44ZM69.08,104.79l.06.07,0,0a1.1,1.1,0,0,1,.15.16l.08.09.08.08a7.27,7.27,0,0,0,5.18,2.13,7.32,7.32,0,1,0,0-14.64h0a7.33,7.33,0,0,0-5.57,12.09Zm-28.79,5.84a.6.6,0,0,0,.08-.08,12.54,12.54,0,1,0-.15.14l.07-.06Zm6.48,14.15a21.24,21.24,0,0,0-36,11.45,1.08,1.08,0,0,0,.26.94,1.09,1.09,0,0,0,.89.41H51.55a1.15,1.15,0,0,0,1.14-1.36,21.15,21.15,0,0,0-5.92-11.44ZM126,110.62l.08-.07a13,13,0,1,0-.16.14l.08-.07Zm6.48,14.15a21.24,21.24,0,0,0-36,11.45,1.15,1.15,0,0,0,1.14,1.36h39.59a1.1,1.1,0,0,0,.89-.42,1.08,1.08,0,0,0,.26-.94A21.24,21.24,0,0,0,132.51,124.77Z"/><path class="cls-1" d="M49.26,68.93A25.33,25.33,0,0,1,63.77,46a1.44,1.44,0,0,0,.84-1.16,1.46,1.46,0,0,0-.52-1.33,13.05,13.05,0,0,1-1-.94,16.32,16.32,0,1,1,23.06,0l-.09.1-.06.06c-.28.27-.57.53-.86.78A1.49,1.49,0,0,0,85.44,46a25.56,25.56,0,0,1,7.1,5A25.27,25.27,0,0,1,100,68.93a1.89,1.89,0,0,1-1.89,1.89H51.15a1.88,1.88,0,0,1-1.89-1.89ZM72.76,80.8a1.89,1.89,0,1,1,3.78,0v6.74A1.47,1.47,0,0,0,77.64,89a11.6,11.6,0,0,1,5.08,3v0A11.36,11.36,0,0,1,86.08,100a11.49,11.49,0,0,1-1.2,5.11,1.44,1.44,0,0,0,.27,1.71l5.67,5.72a1.88,1.88,0,0,1-2.66,2.66l-5.39-5.43a1.47,1.47,0,0,0-1.87-.2,11.43,11.43,0,0,1-12.28.14,1.47,1.47,0,0,0-1.85.21l-5.28,5.29a1.9,1.9,0,0,1-2.68-2.68l5.46-5.45a1.47,1.47,0,0,0,.26-1.76A11.43,11.43,0,0,1,71.66,89a1.47,1.47,0,0,0,1.1-1.44V80.8ZM6.4,139.8a25.42,25.42,0,0,1,14.51-22.92,1.44,1.44,0,0,0,.84-1.16,1.42,1.42,0,0,0-.52-1.33c-.35-.3-.69-.61-1-.94a16.32,16.32,0,1,1,23.06,0l-.09.1-.06.06c-.28.27-.56.53-.86.79a1.48,1.48,0,0,0,.32,2.48,25.56,25.56,0,0,1,7.1,5,25.28,25.28,0,0,1,7.43,17.93,1.9,1.9,0,0,1-1.9,1.89H8.29A1.89,1.89,0,0,1,6.4,139.8Zm85.73,0a25.37,25.37,0,0,1,14.51-22.92,1.44,1.44,0,0,0,.84-1.16,1.41,1.41,0,0,0-.52-1.33c-.35-.3-.69-.61-1-.94a16.31,16.31,0,1,1,23.07,0l-.09.09a.23.23,0,0,1-.07.07c-.27.27-.56.53-.86.78a1.44,1.44,0,0,0-.51,1.33,1.42,1.42,0,0,0,.84,1.16,25.4,25.4,0,0,1,14.52,22.93,1.89,1.89,0,0,1-1.89,1.89H94A1.89,1.89,0,0,1,92.13,139.8ZM83.35,40a.57.57,0,0,0,.11-.11,12.42,12.42,0,1,0-.16.16l0,0Zm6.51,13.65A21.57,21.57,0,0,0,53.35,65.3a1.4,1.4,0,0,0,.33,1.21,1.43,1.43,0,0,0,1.14.53H94.41a1.49,1.49,0,0,0,1.47-1.74,21.57,21.57,0,0,0-6-11.63ZM68.83,105l.08.09,0,0a.49.49,0,0,1,.12.13l.1.11.09.08a7.66,7.66,0,1,0,5.41-13.07h0A7.66,7.66,0,0,0,68.83,105ZM40.5,110.88l.11-.1a12.85,12.85,0,1,0-.16.15ZM47,124.55a21.57,21.57,0,0,0-36.52,11.62A1.49,1.49,0,0,0,12,137.91H51.55a1.44,1.44,0,0,0,1.14-.53,1.41,1.41,0,0,0,.33-1.21,21.52,21.52,0,0,0-6-11.62Zm79.23-13.68.1-.09a13.33,13.33,0,1,0-.16.14l.06,0Zm6.5,13.67a21.57,21.57,0,0,0-36.52,11.63,1.42,1.42,0,0,0,.33,1.21,1.44,1.44,0,0,0,1.14.53h39.59a1.48,1.48,0,0,0,1.47-1.74,21.56,21.56,0,0,0-6-11.62Z"/><path class="cls-1" d="M49.59,68.93A25.1,25.1,0,0,1,63.91,46.3a1.74,1.74,0,0,0,1-1.41,1.76,1.76,0,0,0-.63-1.62c-.35-.29-.68-.6-1-.92a16,16,0,1,1,22.6,0,.57.57,0,0,0-.11.11l0,0a10.36,10.36,0,0,1-.85.77,1.82,1.82,0,0,0,.4,3A25.05,25.05,0,0,1,99.64,68.93a1.56,1.56,0,0,1-1.57,1.56H51.15a1.56,1.56,0,0,1-1.56-1.56ZM73.09,80.8a1.56,1.56,0,1,1,3.12,0v6.74a1.8,1.8,0,0,0,1.35,1.76,11.06,11.06,0,0,1,4.92,2.87h0A11.09,11.09,0,0,1,84.58,105a1.81,1.81,0,0,0,.34,2.1l5.66,5.71A1.55,1.55,0,1,1,88.39,115L83,109.56a1.81,1.81,0,0,0-2.29-.24,11.13,11.13,0,0,1-11.93.13,1.8,1.8,0,0,0-2.25.25L61.25,115a1.56,1.56,0,0,1-2.2-2.2l5.45-5.46a1.79,1.79,0,0,0,.32-2.14A11.11,11.11,0,0,1,71.74,89.3a1.8,1.8,0,0,0,1.35-1.76V80.8Zm-66.36,59a25.05,25.05,0,0,1,14.32-22.62,1.77,1.77,0,0,0,1-1.41,1.75,1.75,0,0,0-.63-1.63c-.34-.29-.68-.6-1-.92a16,16,0,1,1,22.6,0,1.14,1.14,0,0,0-.11.11l0,.05c-.27.26-.55.52-.84.76a1.83,1.83,0,0,0,.39,3A25.05,25.05,0,0,1,56.78,139.8a1.56,1.56,0,0,1-1.57,1.56H8.29a1.56,1.56,0,0,1-1.56-1.56Zm85.73,0a25.05,25.05,0,0,1,14.32-22.63,1.73,1.73,0,0,0,1-1.41,1.75,1.75,0,0,0-.63-1.62c-.35-.3-.68-.6-1-.92a16,16,0,1,1,22.59,0l-.1.12,0,0c-.28.27-.56.52-.85.77a1.82,1.82,0,0,0,.4,3,25,25,0,0,1,14.33,22.63,1.56,1.56,0,0,1-1.56,1.56H94a1.56,1.56,0,0,1-1.56-1.56Zm-8.9-99.53.14-.12a14.06,14.06,0,1,0-.18.15l0,0ZM90.1,53.44A21.9,21.9,0,0,0,53,65.24a1.82,1.82,0,0,0,1.8,2.13H94.41a1.82,1.82,0,0,0,1.79-2.13A21.93,21.93,0,0,0,90.1,53.44ZM68.58,105.22l.1.11,0,0a.52.52,0,0,1,.1.11l.12.13.08.09A8,8,0,1,0,74.65,92h0a8,8,0,0,0-6.07,13.18Zm-27.87,5.91a.69.69,0,0,0,.13-.11,13.68,13.68,0,1,0-.16.14Zm6.53,13.18a21.92,21.92,0,0,0-37.08,11.81,1.71,1.71,0,0,0,.41,1.47,1.74,1.74,0,0,0,1.39.65H51.55a1.82,1.82,0,0,0,1.79-2.13,21.87,21.87,0,0,0-6.1-11.8Zm79.21-13.18.12-.12a13.18,13.18,0,1,0-.16.15l0,0ZM133,124.31a21.9,21.9,0,0,0-37.07,11.8,1.82,1.82,0,0,0,1.79,2.13h39.59a1.73,1.73,0,0,0,1.39-.64,1.78,1.78,0,0,0,.41-1.48A21.88,21.88,0,0,0,133,124.31Z"/><path class="cls-1" d="M49.92,68.93a24.61,24.61,0,0,1,7.23-17.46,24.94,24.94,0,0,1,6.9-4.87A2.14,2.14,0,0,0,64.51,43c-.34-.29-.66-.59-1-.9a15.66,15.66,0,1,1,22.14,0l-.13.14,0,0c-.27.26-.54.51-.83.75a2.16,2.16,0,0,0,.47,3.59A24.73,24.73,0,0,1,99.31,68.93a1.24,1.24,0,0,1-1.24,1.23H51.15a1.23,1.23,0,0,1-1.23-1.23ZM73.42,80.8a1.23,1.23,0,1,1,2.46,0v6.74a2.13,2.13,0,0,0,1.59,2.08,10.66,10.66,0,0,1,4.78,2.78h0a10.78,10.78,0,0,1,2,12.42,2.13,2.13,0,0,0,.39,2.48L90.35,113a1.22,1.22,0,0,1-1.73,1.73l-5.38-5.42a2.13,2.13,0,0,0-2.7-.29,10.78,10.78,0,0,1-11.57.13,2.12,2.12,0,0,0-2.66.3L61,114.76A1.23,1.23,0,0,1,59.28,113l5.45-5.46a2.12,2.12,0,0,0,.38-2.53A10.76,10.76,0,0,1,67,92.4a10.84,10.84,0,0,1,4.8-2.79,2.11,2.11,0,0,0,1.59-2.07V80.8Zm-66.36,59a24.61,24.61,0,0,1,7.23-17.46,24.94,24.94,0,0,1,6.9-4.87,2.14,2.14,0,0,0,.46-3.58c-.33-.29-.66-.59-1-.9a15.66,15.66,0,1,1,22.14,0l-.13.14,0,0c-.27.26-.54.51-.83.75a2.16,2.16,0,0,0,.47,3.59A24.73,24.73,0,0,1,56.45,139.8,1.23,1.23,0,0,1,55.21,141H8.29a1.24,1.24,0,0,1-1.23-1.24Zm85.73,0a24.73,24.73,0,0,1,14.13-22.33,2.06,2.06,0,0,0,1.21-1.67,2.11,2.11,0,0,0-.74-1.92,11.87,11.87,0,0,1-1-.9,15.66,15.66,0,1,1,22.13,0l-.12.13,0,0c-.27.26-.55.51-.83.75a2.11,2.11,0,0,0-.75,1.92,2.07,2.07,0,0,0,1.22,1.66,25.14,25.14,0,0,1,6.91,4.87,24.65,24.65,0,0,1,7.23,17.47A1.23,1.23,0,0,1,141,141H94A1.23,1.23,0,0,1,92.79,139.8Zm-9-99.28a1.07,1.07,0,0,0,.16-.14,13.89,13.89,0,1,0-.18.16l0,0Zm6.56,12.69a22.23,22.23,0,0,0-37.63,12,2.15,2.15,0,0,0,2.12,2.51H94.41a2.05,2.05,0,0,0,1.64-.76,2.07,2.07,0,0,0,.48-1.74,22.22,22.22,0,0,0-6.2-12Zm-22,52.23.12.12,0,0,.07.08.15.16.08.09a8.32,8.32,0,1,0,5.88-14.2h0a8.33,8.33,0,0,0-6.32,13.73Zm-27.41,5.94a.64.64,0,0,0,.15-.13,13.52,13.52,0,1,0-.16.15v0Zm6.55,12.7a22.23,22.23,0,0,0-37.63,12A2.15,2.15,0,0,0,12,138.57H51.55a2.16,2.16,0,0,0,2.12-2.51,22.19,22.19,0,0,0-6.2-12Zm79.19-12.7.15-.14a13.49,13.49,0,1,0-.17.16l0,0Zm6.55,12.7a22.24,22.24,0,0,0-37.64,12,2.15,2.15,0,0,0,2.12,2.5h39.59a2.15,2.15,0,0,0,2.12-2.51,22.18,22.18,0,0,0-6.19-12Z"/><path class="cls-2" d="M99.08,68.77h0a.22.22,0,0,1,0,.3l-1.58,2-.22.24-.24.22-.26.2-.28.17-.3.14-.31.11-.31.08h0l-.32,0H50.46l-.32,0h0l-.32-.08-.32-.12-.29-.14-.28-.17-.26-.2-.24-.22-.22-.24-1.56-2a.21.21,0,0,1,0-.3h0a3.27,3.27,0,0,1-.64-2A26.9,26.9,0,0,1,59.37,43.58l-.09-.12L59,43.13l-.24-.34-.22-.34-.22-.35-.21-.35-.2-.36L57.76,41l-.18-.37-.17-.37-.17-.38-.16-.38-.14-.39-.14-.39-.13-.4-.12-.4-.11-.4-1-4.14a.22.22,0,0,1,.15-.27h0a17.8,17.8,0,1,1,34.59,0h0a.21.21,0,0,1,.15.26l-1,4.15-.11.4-.12.4-.13.4-.14.39-.14.39-.16.38-.17.37-.17.38L88,41l-.2.36-.2.35-.2.36-.22.34-.22.34-.24.34-.24.33-.09.12a26.45,26.45,0,0,1,5.5,4.24,26.74,26.74,0,0,1,7.87,19,3.39,3.39,0,0,1-.64,2ZM69.53,78.66a3.38,3.38,0,1,1,6.76,0V85.4A12.94,12.94,0,0,1,82,88.74h0a12.9,12.9,0,0,1,2.43,14.9l5.67,5.72a3.37,3.37,0,0,1-4.63,4.9h0a.22.22,0,0,1-.31,0l-.75-.71-4.7-4.73a12.9,12.9,0,0,1-13.46.13l-4.61,4.62-.73.7a.21.21,0,0,1-.31,0h0A3.38,3.38,0,0,1,56,109.35l5.45-5.45a12.93,12.93,0,0,1,8.06-18.5V78.66ZM30,82a17.81,17.81,0,0,1,8.29,2h0a.23.23,0,0,1,.3-.09L40.65,85l.36.2.35.21.35.21.34.23.34.23.33.24.32.25.32.25.31.27.3.27.3.28.29.28.28.29.28.3.27.3.26.31.26.32.25.32.24.33.23.34.22.34.22.35.21.35.2.36.19.36.18.37L48,93l.16.38.16.38.14.39.14.39.13.4.12.4.11.4.1.41.09.41.08.42.07.42.06.42,0,.42,0,.43,0,.43,0,.44v.87l0,.44,0,.43,0,.43,0,.42-.06.42-.07.42-.08.42-.09.41-.1.41-.11.4-.12.4-.13.39-.14.4-.14.38-.16.39-.17.37-.17.38-.18.36-.19.37-.2.35-.21.36-.22.34-.22.34-.24.34-.24.33-.24.32-.26.32-.26.31-.27.3-.28.3-.24.25,0,0-.13.13-.13.12-.13.12-.13.13-.13.12-.15.13.19.1.25.12.24.13.24.13.25.13.24.13.23.14.24.14.23.14.24.15.23.14.23.15.22.15.23.16.23.16.22.15.22.16.22.17.21.16.22.17.21.17.21.17.21.18.21.18.21.18.2.18.2.18.2.19.2.18.2.19.19.2L51,118l.41.45.41.46.39.46.39.48.37.48.36.5.35.5.33.51.33.53.31.52.3.54.29.55.27.55.27.56.24.57.24.57.22.58.21.59.19.6.18.6.16.6.15.62.14.61.12.63.1.63.09.63.07.64.06.65,0,.64,0,.66v1l-.05.31v0l-.08.32-.11.31-1,2.19a.23.23,0,0,1-.29.12h0a3.38,3.38,0,0,1-3,1.87H6.55a3.38,3.38,0,0,1-3.38-3.38,26.87,26.87,0,0,1,15.36-24.27c-.39-.33-.76-.67-1.12-1A17.8,17.8,0,0,1,30,82Zm7.8,10a11.25,11.25,0,0,0-2.29-1.76l-.16,0-.24-.07L34.87,90,34.62,90l-.25,0-.25,0-.25,0-.26,0-.25,0-.26,0H32.05l-.26,0-.25,0-.26,0-.25,0-.25,0-.25,0-.25.05L30,90.1l-.24.06-.24.08-.23.07-.24.08-.23.09-.23.1-.23.1-.22.1-.22.11-.22.11-.21.12-.21.13-.21.13-.21.13-.2.14-.19.14-.2.15-.19.16-.18.15-.18.17-.18.16-.18.17-.17.18-.16.17-.17.19-.15.18-.16.19-.14.19-.15.2-.14.2-.13.21-.13.2-.13.22-.12.21-.11.22-.11.22-.11.22-.09.23-.1.23-.09.23-.08.23-.08.24-.07.24-.06.24-.06.25-.06.24,0,.25,0,.25,0,.26,0,.25,0,.26,0,.26v1l0,.26,0,.26,0,.25,0,.26,0,.25.05.25.06.24.06.25.06.24.07.24.08.24.08.23.09.24.09.22.1.23.11.22.11.22.11.22.12.22.12.21.14.21.13.2.14.2.14.2.15.19.15.19.16.19.16.18.17.18.17.17.17.17.18.17.18.16.19.16.19.15.19.15.2.14.2.14.2.14.21.13.21.12.22.12.21.12.22.11.23.1.22.1.23.09.24.09.23.08.24.08.24.07.24.07.24.06.25,0,.25.05.25,0,.25,0,.26,0,.26,0h1.57l.26,0,.25,0,.25,0,.19,0a11.08,11.08,0,0,0,3.34-2.2.24.24,0,0,1-.06-.23.25.25,0,0,1,.18-.15l.3,0A11,11,0,0,0,37.8,92Zm6.41,31.49A20,20,0,0,0,30,117.58h0a20.21,20.21,0,0,0-3.41.29l-.43.15-.42.16-.42.17-.42.18-.41.2-.4.2-.4.21-.4.22-.38.23-.39.23-.37.25-.37.26-.36.26-.36.27-.35.28-.34.29-.33.3-.33.3-.32.32-.25.25-.24.26-.24.26-.23.27-.23.27-.23.27-.21.28-.22.29-.2.29-.21.29-.19.29-.2.3-.18.31-.18.31-.18.31-.16.31-.17.32-.15.33-.15.32-.15.33-.14.33-.13.34-.13.34-.11.34-.12.34-.1.35-.1.35-.1.36-.08.35-.08.36-.07.36,0,.11H49.32a20,20,0,0,0-5.11-8.68ZM115.73,82a17.79,17.79,0,0,1,12.59,30.37h0a13.41,13.41,0,0,1-1.11,1,26.87,26.87,0,0,1,15.38,24.28,3.39,3.39,0,0,1-3.38,3.38H92.28a3.37,3.37,0,0,1-3-1.87h0a.23.23,0,0,1-.29-.12l-1-2.21-.11-.31-.08-.3v0l0-.31v-1l0-.65,0-.65.06-.64.07-.64.09-.64.1-.63.12-.62.14-.62.15-.61.16-.61.18-.6.2-.59.2-.59.22-.58.24-.58.25-.57.26-.56.27-.55.29-.54.3-.54.31-.53.33-.52.34-.51.35-.51.36-.49.37-.48.38-.48.4-.47.4-.45.42-.45.42-.44.2-.19.19-.19.2-.19.2-.18.2-.18.2-.18.21-.18.21-.18.21-.17.21-.18.21-.17.21-.16.22-.17.22-.16.22-.16.22-.16.23-.16.22-.15.23-.15.23-.15.23-.15.23-.14.24-.15.23-.14.24-.13.24-.14.24-.13.24-.13.24-.13.25-.12.19-.09-.15-.14-.14-.12-.13-.12-.13-.13-.13-.12-.13-.13-.28-.29-.28-.3-.27-.31-.26-.31-.26-.31-.25-.33-.24-.33-.23-.33-.22-.34-.22-.35-.21-.35-.2-.36-.19-.36-.18-.37-.18-.37-.16-.38-.16-.38-.15-.39-.13-.39L97,105l-.12-.4-.11-.4-.1-.41-.09-.41-.08-.42-.07-.42-.06-.42,0-.43,0-.43,0-.43,0-.43v-.88l0-.43,0-.43,0-.43,0-.43.06-.42.07-.42.08-.41.09-.42.1-.4.11-.41.12-.4.13-.4.14-.39.14-.38.16-.39.17-.37.17-.38.18-.37.19-.36.2-.36.21-.35.22-.35.22-.34.24-.33.24-.33.24-.32.26-.32.26-.31.27-.31.28-.29.58-.58.29-.28.31-.27.31-.26.32-.25.32-.25.33-.24.33-.23.34-.23.35-.21.35-.21.36-.2,2.06-1.1a.23.23,0,0,1,.3.09h0a17.81,17.81,0,0,1,8.29-2Zm-5.5,8.23a11,11,0,0,0,1.19,19.73l.19,0,.25,0,.26,0,.26,0H114l.25,0,.26,0,.25,0,.25,0,.25-.05.25,0,.24-.06.24-.07.24-.07.24-.08.24-.08.23-.09.23-.09.22-.1.22-.1.23-.11.21-.12.22-.12.21-.12.2-.13.21-.14.2-.13.2-.15.19-.15.19-.15.19-.16.18-.16.18-.16.17-.18,0,0,.13-.13.16-.18.16-.18.16-.19.15-.19.15-.19.14-.2.14-.2.14-.2.13-.21L122,105l.12-.22.11-.21.11-.23.11-.22.1-.23.09-.23.09-.23.08-.23.08-.24.07-.24.07-.24,0-.25.06-.24,0-.25,0-.25,0-.26,0-.25,0-.26V99.15l0-.25,0-.26,0-.25,0-.25,0-.25,0-.25L123,97.4l-.07-.24-.07-.24-.08-.24-.08-.24-.09-.23-.09-.23-.1-.22-.11-.23-.1-.22-.12-.22-.12-.21-.12-.21-.13-.21-.14-.2-.14-.2-.14-.2-.15-.2-.15-.18-.16-.19-.16-.18-.17-.18-.17-.18-.17-.17-.18-.16-.18-.16-.19-.16-.19-.15-.19-.15-.2-.15-.2-.14-.2-.13-.21-.13-.21-.12L118,91l-.21-.12-.22-.11-.23-.1-.22-.1-.23-.1-.23-.08-.24-.09-.24-.07-.23-.07-.25-.07-.24-.06-.25-.05-.25,0-.25,0-.25,0-.26,0-.25,0-.26,0h-1l-.26,0-.25,0-.26,0-.25,0-.25,0-.25,0-.25.05-.24.06-.25.06-.15,0Zm8.93,27.66a20.24,20.24,0,0,0-3.42-.29h0a20.08,20.08,0,0,0-19.3,14.56h35.09l0-.1-.08-.37-.07-.35-.09-.36-.09-.35-.1-.35-.11-.35-.11-.35-.12-.34-.13-.34-.13-.33-.14-.34-.14-.33-.15-.32-.16-.32-.16-.32-.17-.32-.17-.31-.18-.31-.19-.3-.19-.3-.2-.3-.2-.29-.21-.29-.21-.28-.22-.28-.22-.28-.23-.27-.24-.27-.23-.26-.25-.26-.24-.25L126,122l-.32-.31-.34-.29-.34-.29-.35-.28-.35-.28-.37-.26-.37-.26-.37-.24-.38-.24-.39-.23-.39-.22-.4-.21-.41-.2-.41-.2-.41-.18-.43-.17-.42-.16-.43-.15ZM72.86,39.94h0a11,11,0,0,0,7.8-3.23h0A10.84,10.84,0,0,0,83,33.25v-.71l0-.26,0-.25,0-.26,0-.25,0-.25,0-.25-.06-.24-.07-.24-.07-.24-.08-.24-.08-.23-.09-.24-.09-.22-.1-.23L82,28.92l-.1-.23-.12-.21-.12-.22-.12-.21-.13-.21-.14-.2-.14-.2-.14-.2-.15-.19-.15-.19-.16-.19-.16-.18-.17-.18L80,26.14,79.87,26l-.18-.17-.18-.16-.19-.16-.19-.15-.19-.15-.2-.14-.2-.14-.2-.14-.21-.13-.21-.12-.22-.12-.21-.12-.22-.11-.23-.1-.22-.1-.23-.09-.24-.09-.23-.08-.24-.08-.24-.07-.24-.07-.24-.06-.25-.05-.25-.05-.25,0-.25,0-.26,0-.26,0h-1.3l-.26,0-.26,0-.25,0-.25,0-.26,0-.24.05-.25.05-.25.06-.24.07-.24.07-.23.07-.24.09-.23.09-.23.09-.23.1-.22.1-.22.11-.22.12-.21.12-.21.12-.21.13-.21.13L67,25l-.19.15-.2.15-.19.15-.18.16L66,25.8l-.17.16-.18.17-.17.18-.16.18-.17.18-.15.18-.16.19-.15.2-.14.19-.14.21-.13.2-.13.21-.13.21-.12.21-.11.22-.11.22-.11.22-.09.23-.1.23-.09.23-.08.24-.08.23-.07.24-.06.25L63,31l-.06.25,0,.25,0,.25,0,.25,0,.25,0,.26,0,.26v.45a11,11,0,0,0,10.15,6.7ZM55.05,63.4H90.7l0-.11L90.55,63l-.12-.35-.13-.33-.13-.34L90,61.6l-.14-.33-.15-.33-.16-.32-.16-.32L89.25,60l-.17-.31-.18-.31-.19-.3-.19-.3-.2-.3-.2-.29-.21-.29-.21-.28-.22-.28L87.26,57,87,56.77l-.24-.26-.23-.27L86.31,56l-.25-.26-.32-.31-.32-.3-.34-.3-.34-.29-.35-.28L84,54l-.37-.27-.37-.25-.37-.25L82.55,53l-.39-.23-.39-.22-.4-.21-.41-.2-.41-.19-.41-.19-.43-.17-.42-.16-.43-.15-.44-.14L78,51l-.44-.12-.45-.11-.46-.1-.45-.09-.47-.08-.46-.06-.47-.06-.47,0-.48,0-.48,0h-1l-.48,0-.47,0-.47,0-.47.06-.47.06-.46.08-.45.09-.46.1-.45.11-.44.12-.44.13-.44.14-.43.15-.42.16-.42.17-.42.19-.41.19-.4.2-.4.21-.4.22L63.2,53l-.39.24-.37.24-.37.26-.36.26-.36.28-.35.28-.34.29-.33.29-.33.31-.32.31-.25.25-.24.26L59,56.5l-.23.27-.23.27-.23.28-.21.28-.22.28-.21.29-.2.29-.19.3-.2.3-.18.3-.18.31-.18.31-.17.32-.16.32-.15.32-.15.32-.15.33-.14.34-.13.33-.13.34-.11.34-.12.35,0,.11Zm13.61,38.38.08.07,0,0,.08.1.05,0,.06.07.19.18.2.17.21.17.22.15.22.15.24.13.24.12.24.11.26.1.26.09.26.07.27.07.28,0,.28,0,.28,0h.58l.28,0,.28,0,.27,0,.27-.07.27-.07.26-.09.25-.1.25-.11.24-.12.23-.14.23-.14.21-.16.21-.16.21-.18.19-.18.19-.19.17-.21.17-.21.15-.21.15-.23.13-.23.12-.24.11-.25.1-.25.09-.26.08-.27.06-.27,0-.27,0-.28,0-.28v-.58l0-.28,0-.28,0-.28-.06-.27-.08-.26-.08-.26L78,96l-.11-.24-.13-.24-.13-.24L77.53,95l-.16-.22-.16-.21L77,94.4l-.18-.2L76.66,94l-.2-.17-.21-.17L76,93.53l-.23-.15-.23-.13-.24-.12L75.08,93l-.25-.1-.26-.08-.27-.08L74,92.69l-.27,0-.28,0-.28,0h-.58l-.29,0-.27,0-.28,0-.27.06-.26.08-.26.08-.26.1-.24.11-.24.13-.24.13-.22.15-.22.15-.21.17-.2.17-.2.18-.18.2-.18.2-.16.21-.16.22-.14.22-.14.24-.12.24-.11.25-.1.25-.09.26-.07.26-.07.27,0,.28,0,.27,0,.29v.8l0,.26,0,.25,0,.24.06.24.07.24.09.23.09.23.1.22.11.22.11.21.13.2.14.2.14.19.15.19Z"/><path class="cls-2" d="M84.82,42.45A27.13,27.13,0,0,1,100,66.79a3.64,3.64,0,0,1-3.65,3.64H49.41a3.65,3.65,0,0,1-3.65-3.64A27,27,0,0,1,53.7,47.62a27.67,27.67,0,0,1,7.21-5.17c-.28-.24-.55-.5-.82-.77a18.07,18.07,0,1,1,25.62-.09h0l-.08.08c-.26.26-.53.52-.81.77ZM76.56,85.2a13,13,0,0,1,5.66,3.35v0a13.18,13.18,0,0,1,2.56,15l5.53,5.58a3.63,3.63,0,1,1-5.15,5.13L79.94,109a13.12,13.12,0,0,1-13.81.15L61,114.32a3.65,3.65,0,1,1-5.16-5.15l5.32-5.32A13.18,13.18,0,0,1,69.27,85.2V78.66a3.65,3.65,0,1,1,7.29,0V85.2ZM18.05,113.32c-.28-.25-.56-.5-.82-.77a18.06,18.06,0,1,1,25.62-.09h0l-.08.08c-.26.26-.53.52-.81.77a27.13,27.13,0,0,1,15.16,24.34,3.64,3.64,0,0,1-3.65,3.64H6.55a3.65,3.65,0,0,1-3.65-3.64,27,27,0,0,1,7.94-19.17A27.67,27.67,0,0,1,18.05,113.32Zm85.74,0c-.29-.25-.56-.5-.83-.77a18.07,18.07,0,1,1,25.62-.09h0l-.07.08c-.27.26-.54.52-.82.77a27.13,27.13,0,0,1,15.16,24.34,3.64,3.64,0,0,1-3.64,3.64H92.28a3.64,3.64,0,0,1-3.64-3.64,27,27,0,0,1,7.94-19.17,27.34,27.34,0,0,1,7.21-5.17Zm-23.12-77a10.8,10.8,0,1,0-7.81,3.34h0a10.73,10.73,0,0,0,7.61-3.15l.19-.19ZM53.39,63.14h39A19.79,19.79,0,0,0,72.87,47h0A19.82,19.82,0,0,0,53.39,63.14ZM68.67,102l.06.07A5.91,5.91,0,1,0,72.91,92h0a5.91,5.91,0,0,0-4.5,9.73l0,0,.24.26ZM37.8,107.22a10.78,10.78,0,1,0-7.8,3.33h0a10.73,10.73,0,0,0,7.61-3.16l.18-.18ZM10.53,134h39A19.82,19.82,0,0,0,30,117.84h0A19.82,19.82,0,0,0,10.53,134Zm113-26.79a10.78,10.78,0,1,0-7.81,3.33h0a10.7,10.7,0,0,0,7.61-3.16l.18-.18ZM96.26,134h39a19.82,19.82,0,0,0-19.49-16.17h0A19.82,19.82,0,0,0,96.26,134Z"/></g><g id="_2044828464656" data-name=" 2044828464656"><path class="cls-2" d="M87.24,40.37l0,0A17.84,17.84,0,1,0,62,40.41c.27.26.54.52.82.77a.19.19,0,0,1,.07.19.23.23,0,0,1-.12.17,27.19,27.19,0,0,0-7.15,5.12,26.81,26.81,0,0,0-7.88,19,3.43,3.43,0,0,0,3.43,3.43H98.05a3.42,3.42,0,0,0,3.43-3.43,26.94,26.94,0,0,0-15-24.14.22.22,0,0,1,0-.36c.28-.25.55-.5.81-.76l0,0Zm-4.73-5-.15.16a11,11,0,0,1-7.77,3.21h0a11,11,0,1,1,8-3.4ZM54.9,62A20,20,0,0,1,74.58,45.64h0A20,20,0,0,1,94.29,62a.2.2,0,0,1-.05.18.21.21,0,0,1-.17.08h-39a.23.23,0,0,1-.17-.08A.2.2,0,0,1,54.9,62Zm23.16,22.1V77.54a3.43,3.43,0,0,0-6.85,0v6.54a.22.22,0,0,1-.16.21,13,13,0,0,0-8,18.34.23.23,0,0,1,0,.26l-5.32,5.32a3.42,3.42,0,1,0,4.84,4.84l5.14-5.14a.23.23,0,0,1,.27,0,13,13,0,0,0,13.58-.14.2.2,0,0,1,.27,0L87,113a3.42,3.42,0,0,0,4.85-4.82l-5.54-5.58a.23.23,0,0,1,0-.25A13,13,0,0,0,83.8,87.61l0,0a12.77,12.77,0,0,0-5.56-3.29.21.21,0,0,1-.16-.21ZM70.22,101c-.07-.09-.15-.17-.22-.25h0l0,0a6.12,6.12,0,0,1,4.66-10.09h0A6.12,6.12,0,1,1,70.3,101.1l-.08-.08ZM44.38,111.24l0,0a17.83,17.83,0,1,0-25.31.09c.27.26.54.52.82.77a.19.19,0,0,1,.07.19.23.23,0,0,1-.12.17,26.91,26.91,0,0,0-15,24.13A3.44,3.44,0,0,0,8.27,140H55.19a3.44,3.44,0,0,0,3.43-3.43,26.94,26.94,0,0,0-15-24.14.22.22,0,0,1,0-.36c.28-.25.55-.5.81-.76l0,0Zm-4.74-4.95-.15.15a11,11,0,0,1-7.76,3.22h0a11,11,0,1,1,8-3.41l0,0ZM12,132.86a20,20,0,0,1,19.69-16.35h0a20,20,0,0,1,19.7,16.35.24.24,0,0,1,0,.18.21.21,0,0,1-.17.08h-39a.21.21,0,0,1-.17-.08.24.24,0,0,1-.05-.18Zm118.08-21.62,0,0a17.84,17.84,0,1,0-25.31.09c.26.26.53.52.81.77a.19.19,0,0,1,.07.19.23.23,0,0,1-.12.17,27.19,27.19,0,0,0-7.15,5.12,26.8,26.8,0,0,0-7.87,19A3.43,3.43,0,0,0,94,140h46.93a3.43,3.43,0,0,0,3.42-3.43,26.89,26.89,0,0,0-15-24.14.2.2,0,0,1-.12-.17.23.23,0,0,1,.07-.19c.28-.25.55-.5.81-.76l0,0Zm-4.74-4.95-.14.15a11,11,0,0,1-7.76,3.22h0a11,11,0,1,1,8-3.41l0,0Zm-27.6,26.57a20,20,0,0,1,19.68-16.35h0a20,20,0,0,1,19.69,16.35.2.2,0,0,1,0,.18.25.25,0,0,1-.17.08H98a.25.25,0,0,1-.17-.08.23.23,0,0,1,0-.18Z"/><path class="cls-2" d="M87.05,40.22l.06-.07a17.6,17.6,0,1,0-25,.09c.26.26.52.51.8.76a.43.43,0,0,1,.15.4.44.44,0,0,1-.25.35A26.67,26.67,0,0,0,48,65.67a3.18,3.18,0,0,0,3.18,3.19H98.06a3.19,3.19,0,0,0,3.18-3.19,26.64,26.64,0,0,0-14.9-23.92.45.45,0,0,1-.26-.35.47.47,0,0,1,.15-.41c.28-.24.54-.49.8-.75l0,0ZM82.66,35.6l-.13.14A11.26,11.26,0,0,1,74.59,39h0a11.21,11.21,0,1,1,8.15-3.49Zm-28,26.34A20.25,20.25,0,0,1,74.58,45.4h0A20.28,20.28,0,0,1,94.53,61.94a.47.47,0,0,1-.1.38.45.45,0,0,1-.36.17h-39a.47.47,0,0,1-.45-.55ZM77.82,84.09V77.54a3.19,3.19,0,0,0-6.37,0v6.54a.45.45,0,0,1-.34.44,12.74,12.74,0,0,0-7.83,18,.45.45,0,0,1-.08.53l-5.32,5.32a3.18,3.18,0,0,0,4.5,4.5l5.14-5.14a.45.45,0,0,1,.56-.07,12.7,12.7,0,0,0,13.33-.14.47.47,0,0,1,.58.07l5.23,5.27a3.17,3.17,0,1,0,4.5-4.48l-5.54-5.58a.44.44,0,0,1-.08-.52,12.72,12.72,0,0,0-2.47-14.52h0a12.56,12.56,0,0,0-5.46-3.23.45.45,0,0,1-.33-.44ZM70,101.17a2.23,2.23,0,0,0-.21-.22h0l0,0a6.36,6.36,0,0,1,4.84-10.49h0a6.36,6.36,0,1,1-4.5,10.86l-.06-.07,0,0Zm-25.86,9.92.06-.07a17.59,17.59,0,1,0-25,.09c.26.26.53.51.81.76a.43.43,0,0,1,.15.4.44.44,0,0,1-.25.35,26.69,26.69,0,0,0-14.9,23.92,3.19,3.19,0,0,0,3.19,3.19H55.19a3.19,3.19,0,0,0,3.19-3.19,26.67,26.67,0,0,0-14.91-23.92.45.45,0,0,1-.25-.35.45.45,0,0,1,.15-.41c.27-.24.54-.49.8-.75v0Zm-4.39-4.61-.13.13a11.22,11.22,0,0,1-7.93,3.29h0a11.21,11.21,0,1,1,8.14-3.48l-.07.06Zm-28,26.33a20.25,20.25,0,0,1,19.92-16.54h0a20.25,20.25,0,0,1,19.93,16.54.43.43,0,0,1-.09.38.46.46,0,0,1-.36.17h-39a.47.47,0,0,1-.45-.55Zm118.12-21.72A.19.19,0,0,1,130,111a17.6,17.6,0,1,0-25,.09c.26.26.53.51.8.76a.43.43,0,0,1,.15.4.44.44,0,0,1-.25.35,26.67,26.67,0,0,0-14.89,23.92A3.18,3.18,0,0,0,94,139.73h46.93a3.18,3.18,0,0,0,3.18-3.19,26.64,26.64,0,0,0-14.9-23.92.49.49,0,0,1-.26-.35.45.45,0,0,1,.16-.41c.27-.24.53-.49.79-.75l0,0Zm-4.39-4.61-.13.13a11.24,11.24,0,0,1-7.93,3.29h0a11.23,11.23,0,1,1,8.14-3.48l-.06.06Zm-28,26.33a20.28,20.28,0,0,1,19.92-16.54h0a20.28,20.28,0,0,1,19.93,16.54.47.47,0,0,1-.1.38.44.44,0,0,1-.35.17H98a.44.44,0,0,1-.35-.17.47.47,0,0,1-.1-.38Z"/><path class="cls-2" d="M86.84,40.06a.24.24,0,0,1,.08-.09,17.34,17.34,0,1,0-24.6.08c.26.26.52.51.79.75a.68.68,0,0,1,.24.64A.7.7,0,0,1,63,42,26.42,26.42,0,0,0,48.21,65.67a2.92,2.92,0,0,0,2.92,2.92H98.06A2.92,2.92,0,0,0,101,65.67,26.45,26.45,0,0,0,86.22,42a.68.68,0,0,1-.4-.55.71.71,0,0,1,.24-.64c.27-.24.53-.48.78-.73Zm-4-4.26-.13.12a11.45,11.45,0,0,1-8.12,3.37h0a11.48,11.48,0,1,1,8.34-3.57A.6.6,0,0,1,82.84,35.8ZM54.4,61.9A20.56,20.56,0,0,1,74.58,45.13h0A20.56,20.56,0,0,1,94.79,61.9a.71.71,0,0,1-.16.59.7.7,0,0,1-.56.26h-39a.73.73,0,0,1-.56-.26.7.7,0,0,1-.15-.59ZM77.55,84.09V77.54a2.92,2.92,0,0,0-5.84,0v6.54a.72.72,0,0,1-.52.7,12.47,12.47,0,0,0-9,12,12.28,12.28,0,0,0,1.36,5.64.73.73,0,0,1-.14.85l-5.32,5.32a2.92,2.92,0,0,0,4.13,4.13l5.14-5.14a.71.71,0,0,1,.89-.11,12.44,12.44,0,0,0,13-.14.71.71,0,0,1,.9.1l5.23,5.28a2.91,2.91,0,0,0,4.13-4.11L86,103a.72.72,0,0,1-.13-.83A12.46,12.46,0,0,0,83.44,88h0a12.35,12.35,0,0,0-5.34-3.17.71.71,0,0,1-.53-.69Zm-7.72,17.25a1.2,1.2,0,0,0-.18-.2h0l-.06-.06a6.63,6.63,0,0,1,5-10.93h0a6.62,6.62,0,1,1,0,13.24,6.58,6.58,0,0,1-4.69-1.92l-.06-.07,0,0ZM44,110.93a.35.35,0,0,1,.07-.09,17.34,17.34,0,1,0-24.59.08c.26.26.52.51.79.75a.7.7,0,0,1,.24.64.69.69,0,0,1-.4.55A26.45,26.45,0,0,0,5.35,136.54a2.92,2.92,0,0,0,2.92,2.92H55.19a2.91,2.91,0,0,0,2.92-2.92,26.42,26.42,0,0,0-14.75-23.69.68.68,0,0,1-.4-.55.69.69,0,0,1,.24-.64C43.46,111.42,43.73,111.18,44,110.93Zm-4-4.25-.12.11a11.45,11.45,0,0,1-8.12,3.37h0a11.48,11.48,0,1,1,8.33-3.56l-.08.08ZM11.54,132.76A20.56,20.56,0,0,1,31.72,116h0a20.54,20.54,0,0,1,20.19,16.76.69.69,0,0,1-.15.6.7.7,0,0,1-.56.26h-39a.73.73,0,0,1-.56-.26A.72.72,0,0,1,11.54,132.76Zm118.17-21.83a.24.24,0,0,1,.08-.09,17.34,17.34,0,1,0-24.6.08c.26.26.52.51.8.75a.73.73,0,0,1,.24.64.74.74,0,0,1-.4.55,26.42,26.42,0,0,0-14.75,23.68A2.92,2.92,0,0,0,94,139.46h46.93a2.92,2.92,0,0,0,2.92-2.92,26.45,26.45,0,0,0-14.76-23.69.7.7,0,0,1-.4-.55.71.71,0,0,1,.24-.64c.27-.24.53-.48.78-.73Zm-4-4.25-.12.11a11.45,11.45,0,0,1-8.12,3.37h0a11.48,11.48,0,1,1,8.33-3.56.6.6,0,0,1-.08.08ZM97.27,132.76A20.56,20.56,0,0,1,117.45,116h0a20.56,20.56,0,0,1,20.19,16.76.73.73,0,0,1-.71.86H98a.73.73,0,0,1-.71-.86Z"/><path class="cls-2" d="M86.61,39.86l.1-.1a17,17,0,1,0-24.18.08c.25.26.51.5.78.74a1,1,0,0,1,.34.9,1,1,0,0,1-.56.78A26.1,26.1,0,0,0,48.51,65.67a2.62,2.62,0,0,0,2.62,2.63H98.05a2.63,2.63,0,0,0,2.63-2.63A26.13,26.13,0,0,0,86.09,42.25a1,1,0,0,1-.56-.78,1,1,0,0,1,.33-.9c.26-.23.51-.46.76-.71ZM83,36l-.11.11a11.72,11.72,0,0,1-8.33,3.46h0a11.77,11.77,0,1,1,8.55-3.66L83,36ZM54.11,61.84a20.84,20.84,0,0,1,20.47-17h0a20.84,20.84,0,0,1,20.49,17,1,1,0,0,1-.22.84,1,1,0,0,1-.79.37h-39a1,1,0,0,1-1-1.21ZM77.26,84.09V77.54a2.63,2.63,0,0,0-5.25,0v6.54a1,1,0,0,1-.74,1,12.17,12.17,0,0,0-7.49,17.21,1,1,0,0,1-.19,1.19l-5.32,5.32A2.62,2.62,0,0,0,62,112.49l5.15-5.14a1,1,0,0,1,1.24-.16,12.15,12.15,0,0,0,12.74-.13,1,1,0,0,1,1.27.14l5.23,5.28a2.62,2.62,0,1,0,3.71-3.69l-5.53-5.58a1,1,0,0,1-.2-1.17,12.07,12.07,0,0,0,1.2-5.28,12.23,12.23,0,0,0-3.56-8.59l0,0A12,12,0,0,0,78,85.07a1,1,0,0,1-.73-1ZM69.6,101.52l-.15-.16h0l-.08-.09a6.91,6.91,0,0,1,5.27-11.41h0a6.92,6.92,0,1,1-4.9,11.81l-.06-.06-.07-.08Zm-25.85,9.21.09-.1a17,17,0,1,0-24.17.08c.25.26.51.5.78.74a1,1,0,0,1-.23,1.68A26.15,26.15,0,0,0,5.64,136.54a2.63,2.63,0,0,0,2.63,2.63H55.19a2.63,2.63,0,0,0,2.63-2.63,26.13,26.13,0,0,0-14.59-23.42,1,1,0,0,1-.56-.78,1,1,0,0,1,.33-.9c.26-.23.51-.46.75-.71Zm-3.59-3.83-.1.1a11.75,11.75,0,0,1-8.33,3.46h0a11.77,11.77,0,1,1,8.54-3.65l-.1.09ZM11.25,132.71a20.84,20.84,0,0,1,20.47-17h0a20.81,20.81,0,0,1,20.48,17,1,1,0,0,1-.21.84,1,1,0,0,1-.79.37h-39a1,1,0,0,1-.78-.37A1,1,0,0,1,11.25,132.71Zm118.24-22a.41.41,0,0,1,.09-.1,17,17,0,1,0-24.18.08c.25.26.51.5.78.74a1,1,0,0,1,.34.9,1,1,0,0,1-.56.78,26.1,26.1,0,0,0-14.58,23.41A2.62,2.62,0,0,0,94,139.17h46.93a2.62,2.62,0,0,0,2.62-2.63A26.13,26.13,0,0,0,129,113.12a1,1,0,0,1-.56-.78,1,1,0,0,1,.33-.9c.26-.23.51-.46.76-.71Zm-3.59-3.83-.11.1a11.71,11.71,0,0,1-8.32,3.46h0a11.77,11.77,0,1,1,8.55-3.65l-.1.09ZM97,132.71a20.84,20.84,0,0,1,20.47-17h0a20.84,20.84,0,0,1,20.48,17,1,1,0,0,1-1,1.21H98a1,1,0,0,1-1-1.21Z"/><path class="cls-2" d="M86.36,39.64l.11-.12a16.71,16.71,0,1,0-23.7.09c.24.25.5.48.76.72a1.34,1.34,0,0,1-.3,2.22,26.18,26.18,0,0,0-6.85,4.91,25.71,25.71,0,0,0-7.54,18.21A2.29,2.29,0,0,0,51.13,68H98.05a2.3,2.3,0,0,0,2.3-2.3A25.79,25.79,0,0,0,85.94,42.55a1.31,1.31,0,0,1-.74-1,1.29,1.29,0,0,1,.44-1.19c.25-.22.49-.44.72-.68Zm-3.1-3.37-.1.1a12.13,12.13,0,0,1-8.57,3.55h0a12.11,12.11,0,1,1,8.79-3.76,1.14,1.14,0,0,1-.11.11ZM53.78,61.78A21.17,21.17,0,0,1,74.58,44.5h0A21.19,21.19,0,0,1,95.41,61.78a1.35,1.35,0,0,1-.29,1.11,1.33,1.33,0,0,1-1.05.49h-39a1.33,1.33,0,0,1-1-.49,1.31,1.31,0,0,1-.29-1.11ZM76.92,84.09V77.54a2.29,2.29,0,0,0-4.58,0v6.54a1.32,1.32,0,0,1-1,1.3,12,12,0,0,0-5.1,3,11.81,11.81,0,0,0-2.18,13.73,1.34,1.34,0,0,1-.25,1.57L58.51,109a2.29,2.29,0,0,0,3.24,3.24l5.14-5.14a1.35,1.35,0,0,1,1.66-.2,11.73,11.73,0,0,0,6.08,1.69,11.87,11.87,0,0,0,6.31-1.82,1.32,1.32,0,0,1,1.68.19l5.23,5.27A2.28,2.28,0,1,0,91.08,109l-5.53-5.58a1.34,1.34,0,0,1-.26-1.54A11.83,11.83,0,0,0,83,88.4h0a11.55,11.55,0,0,0-5.07-3A1.34,1.34,0,0,1,76.92,84.09Zm-7.58,17.65-.11-.14h0l-.1-.11a7.26,7.26,0,0,1,5.52-12h0a7.25,7.25,0,1,1-5.14,12.39l-.06-.06-.09-.1ZM43.5,110.51l.11-.12a16.71,16.71,0,1,0-23.7.09c.24.25.5.48.76.72a1.35,1.35,0,0,1-.3,2.22,26,26,0,0,0-6.85,4.91A25.67,25.67,0,0,0,6,136.54a2.28,2.28,0,0,0,2.29,2.29H55.19a2.29,2.29,0,0,0,2.3-2.29,25.79,25.79,0,0,0-14.41-23.12,1.34,1.34,0,0,1-.75-1,1.32,1.32,0,0,1,.45-1.19c.25-.22.49-.44.72-.68Zm-3.11-3.36-.1.09a12.09,12.09,0,0,1-8.56,3.55h0A12.1,12.1,0,1,1,40.51,107l-.12.11Zm-29.47,25.5a21.17,21.17,0,0,1,20.8-17.28h0a21.17,21.17,0,0,1,20.81,17.28,1.28,1.28,0,0,1-.29,1.11,1.3,1.3,0,0,1-1,.49h-39a1.31,1.31,0,0,1-1-.49,1.28,1.28,0,0,1-.29-1.11Zm118.31-22.14.11-.12a16.71,16.71,0,1,0-23.7.09c.25.25.5.48.76.72a1.34,1.34,0,0,1-.3,2.22,25.78,25.78,0,0,0-14.39,23.12A2.29,2.29,0,0,0,94,138.83h46.93a2.29,2.29,0,0,0,2.29-2.29,25.79,25.79,0,0,0-14.41-23.12,1.36,1.36,0,0,1-.3-2.23c.25-.22.49-.44.72-.68Zm-3.11-3.36-.09.09a12.12,12.12,0,0,1-8.57,3.55h0a12.1,12.1,0,1,1,8.79-3.75l-.12.11Zm-29.47,25.5a21.17,21.17,0,0,1,20.8-17.28h0a21.17,21.17,0,0,1,20.81,17.28,1.35,1.35,0,0,1-.29,1.11,1.33,1.33,0,0,1-1,.49H98a1.33,1.33,0,0,1-1-.49,1.35,1.35,0,0,1-.29-1.11Z"/><path class="cls-2" d="M86.08,39.39a.75.75,0,0,1,.12-.14A16.33,16.33,0,1,0,63,39.34c.24.24.49.47.74.7a1.68,1.68,0,0,1,.58,1.53,1.71,1.71,0,0,1-1,1.33,25.79,25.79,0,0,0-6.75,4.83,25.32,25.32,0,0,0-7.43,17.94,1.91,1.91,0,0,0,1.91,1.91H98.05A1.9,1.9,0,0,0,100,65.67,25.39,25.39,0,0,0,85.77,42.89,1.74,1.74,0,0,1,85.39,40Zm-2.56-2.84-.09.09a12.46,12.46,0,0,1-8.84,3.66h0a12.49,12.49,0,1,1,9.07-3.88l-.13.13ZM53.4,61.71A21.56,21.56,0,0,1,74.58,44.12h0A21.56,21.56,0,0,1,95.78,61.71a1.73,1.73,0,0,1-1.71,2h-39a1.74,1.74,0,0,1-1.71-2ZM76.54,84.09V77.54a1.91,1.91,0,0,0-3.82,0v6.54a1.71,1.71,0,0,1-1.25,1.67,11.43,11.43,0,0,0-7,16.19,1.71,1.71,0,0,1-.32,2l-5.32,5.32a1.91,1.91,0,0,0,2.7,2.7l5.14-5.14a1.71,1.71,0,0,1,2.12-.26,11.45,11.45,0,0,0,12-.13,1.71,1.71,0,0,1,2.16.25L88.12,112a1.9,1.9,0,1,0,2.69-2.68l-5.53-5.58a1.7,1.7,0,0,1-.33-2,11.43,11.43,0,0,0-2.24-13.06h0a11.14,11.14,0,0,0-4.9-2.9,1.72,1.72,0,0,1-1.26-1.67ZM69,102a.55.55,0,0,0-.08-.1h0a.86.86,0,0,1-.13-.14,7.64,7.64,0,0,1,5.81-12.6h0a7.64,7.64,0,1,1-5.41,13l-.06-.07L69,102Zm-25.83,8.28.12-.14a16.32,16.32,0,1,0-23.15.09c.24.24.49.47.74.7a1.73,1.73,0,0,1-.38,2.86,25.63,25.63,0,0,0-6.75,4.83,25.32,25.32,0,0,0-7.43,17.94,1.9,1.9,0,0,0,1.91,1.91H55.19a1.9,1.9,0,0,0,1.91-1.91,25.39,25.39,0,0,0-14.19-22.78,1.67,1.67,0,0,1-1-1.32,1.74,1.74,0,0,1,.57-1.54c.24-.21.47-.42.69-.64Zm-2.57-2.83-.07.08a12.48,12.48,0,0,1-8.84,3.66h0a12.49,12.49,0,1,1,9.06-3.87A.86.86,0,0,1,40.64,107.43Zm-30.1,25.15A21.56,21.56,0,0,1,31.72,115h0a21.56,21.56,0,0,1,21.19,17.59,1.73,1.73,0,0,1-1.71,2h-39a1.73,1.73,0,0,1-1.71-2ZM129,110.26l.12-.14a16.32,16.32,0,1,0-23.16.09c.24.24.49.47.75.7a1.74,1.74,0,0,1-.39,2.86,25.58,25.58,0,0,0-6.74,4.83,25.29,25.29,0,0,0-7.44,17.94A1.91,1.91,0,0,0,94,138.45h46.93a1.91,1.91,0,0,0,1.91-1.91,25.42,25.42,0,0,0-14.2-22.78,1.74,1.74,0,0,1-.38-2.86l.69-.64Zm-2.57-2.83-.08.08a12.46,12.46,0,0,1-8.84,3.66h0a12.47,12.47,0,1,1,9.07-3.87l-.14.13Zm-30.1,25.15A21.53,21.53,0,0,1,117.45,115h0a21.53,21.53,0,0,1,21.19,17.59,1.73,1.73,0,0,1-1.7,2H98a1.73,1.73,0,0,1-1.7-2Z"/><path class="cls-2" d="M85.74,39.08l.14-.14A15.87,15.87,0,1,0,63.36,39c.23.23.47.46.72.68a2.19,2.19,0,0,1-.48,3.6A25.13,25.13,0,0,0,57,48.05a24.84,24.84,0,0,0-7.3,17.62,1.46,1.46,0,0,0,1.46,1.46H98.05a1.46,1.46,0,0,0,1.46-1.46A24.93,24.93,0,0,0,85.57,43.3a2.19,2.19,0,0,1-.48-3.6l.65-.62Zm-1.92-2.19-.07.07a12.94,12.94,0,0,1-9.16,3.79h0a12.93,12.93,0,1,1,9.4-4c0,.06-.11.11-.16.16ZM53,61.63a22,22,0,0,1,21.62-18h0a22,22,0,0,1,21.64,18,2.19,2.19,0,0,1-2.16,2.59h-39A2.19,2.19,0,0,1,53,61.63ZM76.09,84.09V77.54a1.46,1.46,0,0,0-2.92,0v6.54a2.18,2.18,0,0,1-1.58,2.11,11,11,0,0,0-8,10.57,10.91,10.91,0,0,0,1.19,5,2.16,2.16,0,0,1-.4,2.54L59.1,109.6a1.46,1.46,0,1,0,2.06,2.06l5.14-5.14a2.18,2.18,0,0,1,2.68-.33,11,11,0,0,0,11.51-.12,2.17,2.17,0,0,1,2.72.31l5.23,5.28a1.45,1.45,0,0,0,2-2L85,104a2.15,2.15,0,0,1-.42-2.49A11,11,0,0,0,82.39,89v0a10.77,10.77,0,0,0-4.71-2.78,2.15,2.15,0,0,1-1.58-2.1Zm-7.4,18.17s0-.06,0-.05h0a1.53,1.53,0,0,1-.18-.18,8.09,8.09,0,0,1,6.16-13.34h0a8.09,8.09,0,1,1-5.73,13.81l-.06-.07-.15-.16ZM42.88,110l.13-.14a15.88,15.88,0,1,0-22.51.08c.23.23.47.46.72.68a2.19,2.19,0,0,1-.48,3.6,25.13,25.13,0,0,0-6.63,4.75,24.84,24.84,0,0,0-7.3,17.62A1.46,1.46,0,0,0,8.27,138H55.19a1.46,1.46,0,0,0,1.46-1.46,24.93,24.93,0,0,0-13.94-22.37,2.14,2.14,0,0,1-1.2-1.67,2.1,2.1,0,0,1,.72-1.93l.65-.62ZM41,107.77l-.07.06a12.92,12.92,0,0,1-9.15,3.79h0a12.93,12.93,0,1,1,9.39-4C41.06,107.67,41,107.72,41,107.77ZM10.1,132.5a22,22,0,0,1,21.62-18h0a22,22,0,0,1,21.63,18,2.13,2.13,0,0,1-.46,1.8,2.16,2.16,0,0,1-1.69.79h-39a2.19,2.19,0,0,1-2.15-2.59ZM128.61,110l.14-.14a15.87,15.87,0,1,0-22.52.08c.23.23.48.46.72.68a2.17,2.17,0,0,1-.48,3.6,25.3,25.3,0,0,0-6.63,4.75,24.87,24.87,0,0,0-7.29,17.62A1.45,1.45,0,0,0,94,138h46.93a1.45,1.45,0,0,0,1.45-1.46,24.87,24.87,0,0,0-7.29-17.62,25.23,25.23,0,0,0-6.65-4.75,2.2,2.2,0,0,1-.48-3.61c.22-.19.44-.4.65-.61Zm-1.93-2.18-.06.06a12.94,12.94,0,0,1-9.15,3.79h0a12.93,12.93,0,1,1,9.39-4A1.21,1.21,0,0,1,126.68,107.77ZM95.83,132.5a22,22,0,0,1,21.62-18h0a22,22,0,0,1,21.63,18,2.19,2.19,0,0,1-2.15,2.59H98a2.19,2.19,0,0,1-2.15-2.59Z"/><path class="cls-2" d="M85.34,38.71l.15-.16a15.33,15.33,0,1,0-21.75.08c.23.23.46.45.7.66a2.72,2.72,0,0,1-.6,4.5,24.65,24.65,0,0,0-6.48,4.65,24.29,24.29,0,0,0-7.14,17.23.91.91,0,0,0,.91.91H98.05a.91.91,0,0,0,.92-.91,24.33,24.33,0,0,0-7.14-17.23,24.68,24.68,0,0,0-6.5-4.65,2.67,2.67,0,0,1-1.5-2.09,2.63,2.63,0,0,1,.9-2.41l.61-.58Zm-1.15-1.42-.06.06a13.47,13.47,0,0,1-9.54,3.95h0a13.48,13.48,0,1,1,9.8-4.19l-.19.18ZM52.42,61.53A22.58,22.58,0,0,1,74.58,43.12h0A22.56,22.56,0,0,1,96.76,61.53a2.72,2.72,0,0,1-2.69,3.23h-39a2.73,2.73,0,0,1-2.69-3.23ZM75.54,84.09V77.54a.91.91,0,0,0-1.82,0v6.54a2.7,2.7,0,0,1-2,2.63,10.44,10.44,0,0,0-6.43,14.78,2.7,2.7,0,0,1-.5,3.18L59.49,110a.91.91,0,0,0,1.28,1.29l5.14-5.15a2.71,2.71,0,0,1,3.35-.4,10.43,10.43,0,0,0,10.94-.12,2.7,2.7,0,0,1,3.4.39l5.23,5.27A.9.9,0,1,0,90.1,110l-5.53-5.58a2.68,2.68,0,0,1-.52-3.11,10.45,10.45,0,0,0-2-11.93h0a10.09,10.09,0,0,0-4.47-2.64,2.71,2.71,0,0,1-2-2.63Zm-7.3,18.48a1.62,1.62,0,0,1-.18-.19,8.64,8.64,0,0,1,6.57-14.25h0a8.63,8.63,0,1,1-6.12,14.74l-.06-.06-.18-.2,0,0Zm-25.76,7,.14-.16a15.32,15.32,0,1,0-21.74.08c.23.23.46.45.7.66a2.73,2.73,0,0,1-.6,4.5A24.44,24.44,0,0,0,7.36,136.54a.91.91,0,0,0,.91.91H55.19a.9.9,0,0,0,.91-.91,24.41,24.41,0,0,0-13.63-21.88,2.74,2.74,0,0,1-.61-4.5c.21-.19.42-.38.62-.58Zm-1.16-1.41,0,0a13.49,13.49,0,0,1-9.54,4h0A13.48,13.48,0,1,1,41.51,108l-.19.18ZM9.56,132.4A22.56,22.56,0,0,1,31.72,114h0A22.56,22.56,0,0,1,53.9,132.4a2.73,2.73,0,0,1-2.69,3.23h-39a2.74,2.74,0,0,1-2.69-3.23Zm118.65-22.82.15-.16a15.33,15.33,0,1,0-21.74.08q.33.34.69.66a2.72,2.72,0,0,1-.6,4.5,24.58,24.58,0,0,0-6.48,4.65,24.29,24.29,0,0,0-7.14,17.23.91.91,0,0,0,.91.91h46.93a.91.91,0,0,0,.91-.91,24.39,24.39,0,0,0-13.64-21.88,2.74,2.74,0,0,1-.6-4.51c.21-.18.41-.37.61-.57Zm-1.16-1.41,0,0a13.47,13.47,0,0,1-9.54,4h0a13.48,13.48,0,1,1,9.79-4.18l-.19.18ZM95.29,132.4A22.58,22.58,0,0,1,117.45,114h0a22.56,22.56,0,0,1,22.17,18.41,2.6,2.6,0,0,1-.58,2.24,2.64,2.64,0,0,1-2.1,1H98a2.74,2.74,0,0,1-2.69-3.23Z"/><path class="cls-2" d="M84.83,38.24l.16-.18a14.63,14.63,0,1,0-20.75.08q.32.33.66.63a3.42,3.42,0,0,1-.75,5.65A23.68,23.68,0,0,0,50.92,65.67a.21.21,0,0,0,.21.22H98.05a.22.22,0,0,0,.22-.22A23.72,23.72,0,0,0,85,44.41a3.43,3.43,0,0,1-.75-5.65c.19-.17.38-.34.56-.52Zm-.16-.44,0,0a14.18,14.18,0,0,1-10,4.16h0a14.18,14.18,0,1,1,10.3-4.41l-.21.21ZM51.74,61.4a23.22,23.22,0,0,1,22.84-19h0a23.24,23.24,0,0,1,22.86,19,3.44,3.44,0,0,1-3.38,4.06h-39a3.43,3.43,0,0,1-3.37-4.06ZM74.85,84.09V77.54a.21.21,0,0,0-.22-.21.21.21,0,0,0-.21.21v6.54a3.4,3.4,0,0,1-2.49,3.3,9.75,9.75,0,0,0-6,13.79,3.39,3.39,0,0,1-.63,4L60,110.48a.21.21,0,0,0,.3.3l5.14-5.14a3.41,3.41,0,0,1,4.2-.51A9.74,9.74,0,0,0,79.83,105a3.38,3.38,0,0,1,4.26.49l5.23,5.27a.21.21,0,0,0,.29,0,.22.22,0,0,0,0-.3l-5.54-5.58a3.38,3.38,0,0,1-.65-3.9,9.77,9.77,0,0,0-1.91-11.14l0,0a9.63,9.63,0,0,0-4.16-2.46,3.38,3.38,0,0,1-2.48-3.29Zm-7.11,19a2.18,2.18,0,0,1-.21-.22,9.33,9.33,0,0,1,7.1-15.39h0A9.33,9.33,0,1,1,68,103.36L68,103.3a2.62,2.62,0,0,1-.22-.25ZM42,109.11l.16-.18a14.62,14.62,0,1,0-20.76.08c.22.22.44.43.67.63a3.43,3.43,0,0,1-.75,5.65A23.7,23.7,0,0,0,8.05,136.54a.22.22,0,0,0,.22.22H55.19a.22.22,0,0,0,.22-.22,23.72,23.72,0,0,0-13.25-21.26,3.43,3.43,0,0,1-.76-5.64l.57-.53Zm-.18-.43,0,0a14.19,14.19,0,0,1-10,4.16h0A14.18,14.18,0,1,1,42,108.47l-.22.21ZM8.88,132.27a23.22,23.22,0,0,1,22.84-19h0a23.22,23.22,0,0,1,22.85,19,3.43,3.43,0,0,1-3.37,4.06h-39a3.43,3.43,0,0,1-3.37-4.06ZM127.7,109.11l.16-.18a14.63,14.63,0,1,0-20.75.08c.21.22.44.43.66.63a3.42,3.42,0,0,1-.75,5.65,23.68,23.68,0,0,0-13.23,21.25.21.21,0,0,0,.21.22h46.93a.21.21,0,0,0,.21-.22,23.68,23.68,0,0,0-13.25-21.26,3.43,3.43,0,0,1-.75-5.65c.19-.17.38-.34.56-.52Zm-.17-.43,0,0a14.2,14.2,0,0,1-10,4.16h0a14.19,14.19,0,1,1,10.29-4.4l-.21.21ZM94.61,132.27a23.24,23.24,0,0,1,22.84-19h0a23.24,23.24,0,0,1,22.86,19,3.44,3.44,0,0,1-3.37,4.06H98a3.43,3.43,0,0,1-3.37-4.06Z"/><path class="cls-2" d="M67,40.93a4.13,4.13,0,0,1,0,1,4.66,4.66,0,0,1-.19.84A25.49,25.49,0,0,1,69.38,42,15,15,0,0,1,67,40.93Zm15.37,1.82a4.37,4.37,0,0,1-.19-.83,5.6,5.6,0,0,1,0-1A14.62,14.62,0,0,1,79.79,42a23.1,23.1,0,0,1,2.59.72ZM39.52,113.62a4.37,4.37,0,0,1-.19-.83,4.2,4.2,0,0,1,0-1,15,15,0,0,1-2.37,1.11A23.1,23.1,0,0,1,39.52,113.62ZM24.15,111.8a4.13,4.13,0,0,1,0,1,4.37,4.37,0,0,1-.19.83c.85-.28,1.71-.52,2.59-.72a15,15,0,0,1-2.37-1.1Zm101.1,1.82a4.37,4.37,0,0,1-.19-.83,5.6,5.6,0,0,1,0-1,14.62,14.62,0,0,1-2.37,1.11,22.52,22.52,0,0,1,2.59.72Zm-15.37-1.82a4.13,4.13,0,0,1,0,1,4.64,4.64,0,0,1-.18.84,24.6,24.6,0,0,1,2.58-.73,15,15,0,0,1-2.37-1.1Z"/></g></svg>