<svg id="Layer_1" data-name="Layer 1" xmlns="http://www.w3.org/2000/svg" viewBox="0 0 150 150"><defs><style>.cls-1{fill:#33ced4;}.cls-2{fill:none;}.cls-3{fill:#ffd300;}.cls-4{fill:#f37721;}.cls-5{fill:#26a9e0;}</style></defs><path class="cls-1" d="M54.23,118.65c0,2.25,3.21,4.1,7.14,4.1H89.16c3.93,0,7.14-1.85,7.14-4.1s-3.21-4.1-7.14-4.1H61.37C57.44,114.55,54.23,116.39,54.23,118.65Z"/><path class="cls-1" d="M55.66,128.63c0,2.26,3.22,4.1,7.15,4.1H87.32c3.93,0,7.14-1.84,7.14-4.1s-3.21-4.1-7.14-4.1H62.81C58.88,124.53,55.66,126.37,55.66,128.63Z"/><path class="cls-1" d="M57.87,138.45a4.23,4.23,0,0,0,4.35,4.1c2.39,0,4.35,1.21,4.35,2.68s3.21,2.67,7.14,2.67h3c3.93,0,7.15-1.2,7.15-2.67s1.92-2.68,4.28-2.68a4.2,4.2,0,0,0,4.28-4.1c0-2.25-3.21-4.1-7.14-4.1H65C61.08,134.35,57.87,136.2,57.87,138.45Z"/><path class="cls-1" d="M125.05,37.28A54.17,54.17,0,0,0,75.11,4.17H74.9A54.17,54.17,0,0,0,20.69,58.39C20.69,73,31.12,88.9,31.56,89.58c2,3,16.18,22.56,25.59,22.42h35.7c10.39-.71,23.58-19.38,25.58-22.42.45-.68,10.88-16.62,10.88-31.19A53.88,53.88,0,0,0,125.05,37.28ZM112.48,85.64c-2.27,3.43-13.74,19.22-19.63,19.22H57.15c-5.77-.43-17.36-15.8-19.63-19.22-.09-.15-9.69-14.85-9.69-27.25a47.12,47.12,0,0,1,47-47.08h.28a47.14,47.14,0,0,1,47,47.08C122.17,70.79,112.57,85.49,112.48,85.64Z"/><path class="cls-2" d="M72.19,82.12l0-.51,0-.26V80.13c0-.33,0-.65,0-1l0-1c0-.32,0-.63-.08-.94s-.07-.6-.12-.87a1.18,1.18,0,0,0,0-.2l0-.1L72,76l0-.14v0h0v0l0-.06-.06-.16a5.44,5.44,0,0,0-.26-.68c-.12-.25-.26-.51-.41-.77s-.32-.51-.49-.77-.36-.51-.55-.76l-.29-.36-.06-.08h0l-.07-.09,0,0-.17-.2L68.87,71l-.64-.8-.63-.78c-1.61-2-3.16-3.8-4.53-5.35-.15,2.07-.27,4.48-.34,7,0,.34,0,.67,0,1s0,.67,0,1l0,1v.44h0v.13c0,.15,0,.3,0,.46q0,.47,0,.93c0,.31,0,.62.08.92s.08.58.14.85a4.21,4.21,0,0,0,.21.7l0,.16,0,.06v0h0l.06.13,0,.09,0,.09.09.18c.13.25.28.51.44.77s.33.52.51.79.37.52.57.78.39.51.59.77l.23.27,0,.06L66,83l.1.12,0,0,0,0v0l0,0,0,0,.08.1.17.19.33.39.66.76c1.45,1.67,2.86,3.23,4.15,4.6.18-1.88.35-4,.49-6.22Z"/><path class="cls-2" d="M81.35,70.2l-.63.8-.64.81-.16.2,0,0-.07.09h0l-.07.08-.28.36c-.2.25-.38.5-.55.76s-.35.52-.5.77a8.13,8.13,0,0,0-.4.77,4.34,4.34,0,0,0-.27.68l0,.16,0,.06v0h0v0l0,.14,0,.09,0,.1c0,.06,0,.13,0,.2,0,.27-.09.57-.12.87s-.06.62-.07.94,0,.64,0,1,0,.64,0,1v.43c0,.09,0,.19,0,.28v.51a2.26,2.26,0,0,0,0,.26l0,.51.06,1c.13,2.29.31,4.44.5,6.35,1.32-1.4,2.77-3,4.28-4.73.21-.25.43-.51.66-.76l.33-.39.16-.19.09-.1,0,0,0,0v0l0,0,0,0,.09-.12.19-.21,0-.06.23-.27.6-.77.56-.78c.18-.27.36-.53.52-.79a8.63,8.63,0,0,0,.43-.77,1,1,0,0,0,.09-.18l.05-.09,0-.09,0-.13h0v0l0-.06.06-.16a5.57,5.57,0,0,0,.2-.7,7.18,7.18,0,0,0,.14-.85c0-.3.07-.61.08-.92s0-.62,0-.93c0-.16,0-.31,0-.46v-.13h0v-.44c0-.35,0-.69,0-1s0-.68,0-1l0-1c-.07-2.63-.19-5.08-.34-7.19-1.41,1.58-3,3.46-4.66,5.5Z"/><circle class="cls-1" cx="74.86" cy="57.34" r="6.1" transform="translate(-8.22 12.73) rotate(-9.22)"/><path class="cls-3" d="M57.05,56.74a3.43,3.43,0,0,1,2.84-3.94,2.89,2.89,0,0,1,.5,0,3.43,3.43,0,0,0-3.23,4.76c0-.1,0-.19,0-.27C57.07,56.92,57.05,56.74,57.05,56.74Z"/><path class="cls-1" d="M63.83,56.76s0,.18-.08.51c0,.17,0,.37-.08.62s0,.25-.05.38l-.06.44c0,.31-.07.66-.11,1s-.08.78-.13,1.21c-.08.86-.16,1.84-.24,2.9v.22c1.37,1.55,2.92,3.37,4.53,5.35l.63.78.64.8.63.81.17.2,0,0,.07.09h0l.06.08.29.36c.19.25.37.5.55.76s.34.52.49.77.29.52.41.77a5.44,5.44,0,0,1,.26.68l.06.16,0,.06v0h0v0L72,76l0,.09,0,.1a1.18,1.18,0,0,1,0,.2c0,.27.09.57.12.87s.06.62.08.94l0,1c0,.32,0,.64,0,1v1.22l0,.26,0,.51-.06,1c-.14,2.23-.31,4.34-.49,6.22l.75.79c.74.78,1.43,1.48,2,2.09l.43.43.43-.43c.62-.61,1.31-1.31,2-2.09q.32-.31.63-.66c-.19-1.91-.37-4.06-.5-6.35l-.06-1,0-.51a2.26,2.26,0,0,1,0-.26v-.51c0-.09,0-.19,0-.28v-.43c0-.33,0-.65,0-1s0-.65,0-1,0-.63.07-.94.07-.6.12-.87c0-.07,0-.14,0-.2l0-.1,0-.09,0-.14v0h0v0l0-.06,0-.16a4.34,4.34,0,0,1,.27-.68,8.13,8.13,0,0,1,.4-.77c.15-.25.32-.51.5-.77s.35-.51.55-.76l.28-.36.07-.08h0l.07-.09,0,0,.16-.2.64-.81.63-.8.64-.78c1.65-2,3.25-3.92,4.66-5.5v-.07c-.07-1.06-.16-2-.24-2.9,0-.43-.08-.84-.12-1.21s-.08-.72-.12-1c0-.15,0-.3,0-.44l0-.38c0-.25-.06-.45-.09-.62,0-.33-.07-.51-.07-.51a3.42,3.42,0,0,1,3.49-4,3.44,3.44,0,0,0-3.16,1.8s-.08.16-.25.45-.18.32-.31.53l-.2.34-.22.38c-.16.26-.35.56-.54.88l-.65,1c-.47.73-1,1.55-1.6,2.43-1,1.55-2.25,3.29-3.6,5.14h0A5.69,5.69,0,0,1,74.79,68a5.7,5.7,0,0,1-4-2.14c-1.37-1.88-2.61-3.65-3.66-5.22-.59-.88-1.13-1.7-1.59-2.43-.24-.37-.46-.71-.65-1l-.54-.88-.23-.38-.2-.34-.16-.28c0,.13.06.26.08.39A3.44,3.44,0,0,1,63.83,56.76Z"/><path class="cls-3" d="M89.4,52.76h0Z"/><path class="cls-1" d="M53.44,70.71a6.1,6.1,0,1,0-8.56-1.12A6.11,6.11,0,0,0,53.44,70.71Z"/><path class="cls-4" d="M63.35,54.56s.08.16.25.45c0,.07.09.16.15.25a3.43,3.43,0,0,0-3.36-2.5,3.43,3.43,0,0,1,3,1.8Z"/><path class="cls-1" d="M73.64,102.56l-.21-.06-.19-.07a4.36,4.36,0,0,1-2.72-3.19,4.7,4.7,0,0,1-.08-1.12,4.62,4.62,0,0,1,.08-.65s0-.17.1-.51c0-.16.07-.37.11-.61s.08-.52.13-.83c.1-.62.21-1.37.32-2.23s.23-1.84.35-2.9c0-.35.07-.7.11-1-1.29-1.37-2.7-2.93-4.15-4.6L66.83,84l-.33-.39-.17-.19-.08-.1,0,0,0,0v0l0,0,0,0L66,83l-.18-.21,0-.06-.23-.27c-.2-.26-.4-.51-.59-.77s-.39-.52-.57-.78-.35-.53-.51-.79-.31-.52-.44-.77l-.09-.18,0-.09,0-.09-.06-.13h0v0l0-.06,0-.16a4.21,4.21,0,0,1-.21-.7c-.06-.27-.1-.55-.14-.85s-.06-.61-.08-.92,0-.62,0-.93c0-.16,0-.31,0-.46v-.13h0v-.44l0-1c0-.35,0-.68,0-1s0-.67,0-1c.07-2.56.19-5,.34-7l-.18-.2c-.7-.79-1.36-1.51-2-2.15l-.83-.88-.72-.75-.31-.31-.27-.28-.44-.43L58,58.71a3.33,3.33,0,0,1-.83-1.19c0,.11,0,.22,0,.34l0,.39c0,.14,0,.28,0,.44,0,.31.07.65.1,1s.08.77.12,1.21c.07.86.15,1.84.22,2.9.12,1.86.21,4,.27,6.27h0a5.7,5.7,0,0,1-1.86,4.25,5.67,5.67,0,0,1-4.49.74c-2.22-.65-4.29-1.3-6.08-1.9-1-.34-1.93-.67-2.75-1l-1.14-.42-1-.37-.42-.16-.36-.15-.57-.23-.47-.21a3.81,3.81,0,0,0-1.08-.28,3.43,3.43,0,1,0-.64,6.84l.51.06.61.08.39.05.44.06,1,.15,1.2.19c.85.15,1.82.32,2.86.52,2.1.4,4.53.91,7.11,1.53l1,.23,1,.25,1,.25.25.06.06,0,.11,0h0l.11,0,.44.11.9.26c.29.1.58.2.86.32s.54.23.79.35a6.26,6.26,0,0,1,.62.38l.14.1.06,0h0l.11.09.07.06.08.06.15.14a7.31,7.31,0,0,1,.63.62c.21.22.42.45.63.7s.41.49.61.74l.59.78.21.29,0,.06.16.23.09.12,0,.06,0,0v0l0,0,0,.06.07.1.15.21.29.42.56.83c1.49,2.21,2.84,4.3,3.95,6.13.56.91,1.06,1.76,1.5,2.51s.81,1.42,1.11,2c.15.28.28.52.39.74s.21.4.29.55l.24.46a4.35,4.35,0,0,0,4.12,2.46,4.19,4.19,0,0,1-1.21-.24Z"/><path class="cls-1" d="M58,58.71l.37.36.44.43.27.28.31.31.72.75.83.88c.6.64,1.26,1.36,2,2.15l.18.2v-.22c.08-1.06.16-2,.24-2.9,0-.43.08-.84.13-1.21s.07-.72.11-1l.06-.44c0-.13,0-.26.05-.38s.06-.45.08-.62c0-.33.08-.51.08-.51a3.44,3.44,0,0,0,0-1.11c0-.13,0-.26-.08-.39s-.11-.18-.15-.25c-.17-.29-.25-.45-.25-.45a3.43,3.43,0,0,0-3-1.8,2.89,2.89,0,0,0-.5,0,3.43,3.43,0,0,0-2.84,3.94s0,.18.07.51c0,.08,0,.17,0,.27A3.33,3.33,0,0,0,58,58.71Z"/><path class="cls-1" d="M71.76,101.29a4.37,4.37,0,0,1,.46-6.15l.39-.35c.12-.11.28-.25.45-.42s.39-.35.61-.57.75-.71,1.19-1.15l-.43-.43c-.61-.61-1.3-1.31-2-2.09l-.75-.79c0,.35-.08.7-.11,1-.12,1.06-.24,2-.35,2.9s-.22,1.61-.32,2.23c0,.31-.09.59-.13.83s-.08.45-.11.61c-.06.34-.1.51-.1.51a4.62,4.62,0,0,0-.08.65,4.7,4.7,0,0,0,.08,1.12,4.36,4.36,0,0,0,2.72,3.19l.19.07.21.06h0A4.4,4.4,0,0,1,71.76,101.29Z"/><path class="cls-1" d="M96.29,70.71a6.1,6.1,0,1,0-1.12-8.56A6.1,6.1,0,0,0,96.29,70.71Z"/><path class="cls-1" d="M115.65,73.5a3.43,3.43,0,0,0-3.74-3.1,3.81,3.81,0,0,0-1.08.28l-.48.21-.57.23-.36.15-.41.16-1,.37-1.14.42c-.81.29-1.74.62-2.75,1-1.79.6-3.85,1.25-6.08,1.9a4.82,4.82,0,0,1-6.35-5h0c.06-2.28.16-4.41.28-6.27.06-1.06.14-2,.22-2.9,0-.44.07-.84.11-1.21s.07-.72.11-1c0-.16,0-.3,0-.44s0-.27,0-.39,0-.45.07-.61c.05-.33.08-.51.08-.51a3.44,3.44,0,0,0-2.85-3.94l-.39,0a3.48,3.48,0,0,1,1.45.41,3.44,3.44,0,0,1,1.39,4.66,3.69,3.69,0,0,1-.68.88l-.37.36-.44.43-.28.28-.31.31-.72.75-.83.88c-.59.64-1.25,1.36-2,2.15l0,.05c.15,2.11.27,4.56.34,7.19l0,1c0,.34,0,.67,0,1s0,.68,0,1v.44h0v.13c0,.15,0,.3,0,.46q0,.47,0,.93c0,.31,0,.62-.08.92a7.18,7.18,0,0,1-.14.85,5.57,5.57,0,0,1-.2.7l-.06.16,0,.06v0h0l0,.13,0,.09-.05.09a1,1,0,0,1-.09.18,8.63,8.63,0,0,1-.43.77c-.16.26-.34.52-.52.79l-.56.78-.6.77-.23.27,0,.06-.19.21-.09.12,0,0,0,0v0l0,0,0,0-.09.1-.16.19L82.9,84c-.23.25-.45.51-.66.76-1.51,1.73-3,3.33-4.28,4.73,0,.31.06.62.1.92.11,1.06.23,2,.34,2.9s.22,1.61.32,2.23c0,.31.09.59.14.83s.07.45.1.61c.06.34.1.51.1.51a4.54,4.54,0,0,1-4.2,5.33,4.34,4.34,0,0,0,3-1.06,4.39,4.39,0,0,0,1.08-1.4l.23-.46c.08-.15.17-.34.29-.55s.25-.46.4-.74c.3-.55.67-1.21,1.11-2S82,95,82.51,94.11C83.63,92.28,85,90.19,86.46,88l.57-.83.28-.42.15-.21.07-.1,0-.06,0,0v0s.05-.07,0,0l0-.06.08-.12.16-.23,0-.06.2-.29.59-.78.61-.74c.21-.25.42-.48.63-.7s.43-.44.63-.62l.16-.14.07-.06.07-.06.12-.09h0l.05,0,.14-.1a5.48,5.48,0,0,1,.63-.38c.24-.12.51-.24.78-.35s.57-.22.87-.32l.89-.26.45-.11.1,0h0l.11,0,.06,0,.25-.06,1-.25,1-.25,1-.23c2.59-.62,5-1.13,7.11-1.53l2.86-.52,1.2-.19,1-.15.44-.06.38-.05.62-.08.51-.06A3.43,3.43,0,0,0,115.65,73.5Z"/><path class="cls-5" d="M89.39,52.76h0Z"/><path class="cls-1" d="M75.29,92.22l-.43.43c.44.44.84.82,1.19,1.15l.61.57.46.42.38.35a4.36,4.36,0,0,1,.46,6.15,4.48,4.48,0,0,1-.9.79,4.37,4.37,0,0,0,2-4.61s0-.17-.1-.51c0-.16-.06-.37-.1-.61s-.09-.52-.14-.83c-.1-.62-.2-1.37-.32-2.23s-.23-1.84-.34-2.9c0-.3-.07-.61-.1-.92q-.31.34-.63.66C76.6,90.91,75.91,91.61,75.29,92.22Z"/><path class="cls-1" d="M85.89,55.65a3.44,3.44,0,0,0,0,1.11s0,.18.07.51c0,.17.06.37.09.62l0,.38c0,.14,0,.29,0,.44,0,.31.08.66.12,1s.08.78.12,1.21c.08.86.17,1.84.24,2.9v.07l0-.05c.71-.79,1.37-1.51,2-2.15l.83-.88.72-.75.31-.31.28-.28.44-.43.37-.36a3.69,3.69,0,0,0,.68-.88,3.44,3.44,0,0,0-1.39-4.66,3.48,3.48,0,0,0-1.45-.41h0A3.43,3.43,0,0,0,85.89,55.65Z"/><path class="cls-5" d="M75.68,102.63a4.46,4.46,0,0,1-.88.09h-.22a3.62,3.62,0,0,1-.93-.15,4.19,4.19,0,0,0,1.21.24,4.36,4.36,0,0,0,2.2-.72A4.53,4.53,0,0,1,75.68,102.63Z"/><path class="cls-1" d="M78.11,101.5a4.47,4.47,0,0,0-.47-6.3l-.39-.35-.47-.43-.63-.59-1.22-1.18c-.45.45-.86.84-1.21,1.18l-.63.59-.47.43-.39.35a4.47,4.47,0,0,0-.47,6.3,4.53,4.53,0,0,0,1.93,1.31,5.06,5.06,0,0,0,1,.15h.22a4.58,4.58,0,0,0,.9-.09,4.44,4.44,0,0,0,1.42-.56A4.15,4.15,0,0,0,78.11,101.5Z"/></svg>