<svg xmlns="http://www.w3.org/2000/svg" viewBox="0 0 150 150"><defs><style>.cls-1{isolation:isolate;}.cls-2{fill:#ffd300;}.cls-3{fill:#b2b2b2;}.cls-3,.cls-6,.cls-9{mix-blend-mode:multiply;}.cls-4{fill:#8c3517;}.cls-5,.cls-9{fill:#33ced4;}.cls-6{fill:#ededed;}.cls-7{fill:#fffffa;}.cls-8{fill:#c3d5df;}</style></defs><g class="cls-1"><g id="Layer_1" data-name="Layer 1"><path class="cls-2" d="M57.05,56.74a3.43,3.43,0,0,1,2.84-3.94,2.89,2.89,0,0,1,.5,0,3.43,3.43,0,0,0-3.23,4.76c0-.1,0-.19,0-.27C57.07,56.92,57.05,56.74,57.05,56.74Z"/><path class="cls-3" d="M124.83,19.83H100.28v-1a4.6,4.6,0,0,0-4.6-4.6H86a6.92,6.92,0,1,0-13,0H63.34a4.6,4.6,0,0,0-4.6,4.6v1H34.19a3.33,3.33,0,0,0-3,3.32v121.3a3.34,3.34,0,0,0,3.34,3.34h90.06a3.34,3.34,0,0,0,3.34-3.34V23.15A3.33,3.33,0,0,0,124.83,19.83Zm-45.32-11a3,3,0,1,1-3,3A3,3,0,0,1,79.51,8.84Z"/><path class="cls-4" d="M125.94,21.21V142.5a3.34,3.34,0,0,1-3.34,3.34H32.53a3.34,3.34,0,0,1-3.34-3.34V21.21a3.34,3.34,0,0,1,3.2-3.34h90.34A3.35,3.35,0,0,1,125.94,21.21Z"/><rect class="cls-5" x="30.03" y="17.87" width="95.07" height="126.31" rx="2.5"/><path class="cls-6" d="M125.94,32.92V142.5a3.34,3.34,0,0,1-3.34,3.34H45.91l-9.15-9.15L118.37,25.35Z"/><polygon class="cls-7" points="118.37 25.35 36.76 25.35 36.76 136.69 105.47 136.69 118.37 123.79 118.37 25.35"/><polygon class="cls-8" points="105.47 136.69 118.37 123.79 105.47 123.79 105.47 136.69"/><path class="cls-5" d="M93.73,12.24H84.07a6.8,6.8,0,0,0,.42-2.35,6.93,6.93,0,0,0-13.85,0,6.8,6.8,0,0,0,.42,2.35H61.39a4.6,4.6,0,0,0-4.6,4.59V27.51H98.33V16.83A4.6,4.6,0,0,0,93.73,12.24Zm-16.17.66a3,3,0,1,1,3-3A3,3,0,0,1,77.56,12.9Z"/><path class="cls-9" d="M56.79,20.07v7.44H98.33V20.07Z"/><path class="cls-9" d="M56.79,24.93v2.58H98.33V24.93Z"/><rect class="cls-8" x="48.36" y="34.68" width="58.4" height="5.78"/><rect class="cls-5" x="69.23" y="52.95" width="40.68" height="2.79"/><rect class="cls-5" x="69.23" y="58.51" width="30.58" height="2.79"/><rect class="cls-5" x="69.23" y="47.37" width="30.58" height="2.79"/><path class="cls-5" d="M57.3,49.41c-.78.38-4.66,4.79-6.76,6.86l-1.6-1.61c-.19-.22-.59-.92-1-.47l-.59.85c-.39.46,0,1.21.32,1.44l2.59,3c.3.23.85.05,1.23-.41l.33-.39h0l6-8.59C58.25,49.62,59.15,48.6,57.3,49.41Z"/><path class="cls-5" d="M58.32,61.94h-11a2.1,2.1,0,0,1-2.1-2.1v-11a2.11,2.11,0,0,1,2.1-2.11h11a2.11,2.11,0,0,1,2.11,2.11v11A2.1,2.1,0,0,1,58.32,61.94Zm-11-14a.89.89,0,0,0-.89.9v11a.89.89,0,0,0,.89.89h11a.89.89,0,0,0,.9-.89v-11a.9.9,0,0,0-.9-.9Z"/><rect class="cls-5" x="69.23" y="74.76" width="40.68" height="2.79"/><rect class="cls-5" x="69.23" y="80.32" width="30.58" height="2.79"/><rect class="cls-5" x="69.23" y="69.17" width="30.58" height="2.79"/><path class="cls-5" d="M57.3,71.21c-.78.39-4.66,4.79-6.76,6.86l-1.6-1.6c-.19-.23-.59-.93-1-.47l-.59.85c-.39.46,0,1.21.32,1.44l2.59,3c.3.23.85.06,1.23-.4l.33-.39h0l6-8.59C58.25,71.43,59.15,70.4,57.3,71.21Z"/><path class="cls-5" d="M58.32,83.75h-11a2.11,2.11,0,0,1-2.1-2.11v-11a2.1,2.1,0,0,1,2.1-2.1h11a2.1,2.1,0,0,1,2.11,2.1v11A2.11,2.11,0,0,1,58.32,83.75Zm-11-14a.89.89,0,0,0-.89.89v11a.89.89,0,0,0,.89.9h11a.9.9,0,0,0,.9-.9v-11a.89.89,0,0,0-.9-.89Z"/><rect class="cls-5" x="69.23" y="96.56" width="40.68" height="2.79"/><rect class="cls-5" x="69.23" y="102.12" width="30.58" height="2.79"/><rect class="cls-5" x="69.23" y="90.98" width="30.58" height="2.79"/><path class="cls-5" d="M57.3,93c-.78.38-4.66,4.79-6.76,6.86l-1.6-1.61c-.19-.22-.59-.92-1-.47l-.59.86c-.39.45,0,1.2.32,1.43l2.59,3c.3.23.85,0,1.23-.41l.33-.39h0l6-8.59C58.25,93.23,59.15,92.21,57.3,93Z"/><path class="cls-5" d="M58.32,105.55h-11a2.1,2.1,0,0,1-2.1-2.1v-11a2.11,2.11,0,0,1,2.1-2.11h11a2.11,2.11,0,0,1,2.11,2.11v11A2.1,2.1,0,0,1,58.32,105.55Zm-11-14a.89.89,0,0,0-.89.9v11a.9.9,0,0,0,.89.9h11a.9.9,0,0,0,.9-.9v-11a.9.9,0,0,0-.9-.9Z"/><rect class="cls-5" x="69.23" y="118.37" width="40.68" height="2.79"/><rect class="cls-5" x="69.23" y="123.93" width="30.58" height="2.79"/><rect class="cls-5" x="69.23" y="112.79" width="30.58" height="2.79"/><path class="cls-5" d="M57.3,114.83c-.78.38-4.66,4.78-6.76,6.85l-1.6-1.6c-.19-.23-.59-.93-1-.47l-.59.85c-.39.46,0,1.21.32,1.44l2.59,3c.3.24.85.06,1.23-.4l.33-.39h0l6-8.59C58.25,115,59.15,114,57.3,114.83Z"/><path class="cls-5" d="M58.32,127.36h-11a2.11,2.11,0,0,1-2.1-2.11v-11a2.1,2.1,0,0,1,2.1-2.1h11a2.1,2.1,0,0,1,2.11,2.1v11A2.11,2.11,0,0,1,58.32,127.36Zm-11-14a.89.89,0,0,0-.89.89v11a.89.89,0,0,0,.89.9h11a.9.9,0,0,0,.9-.9v-11a.89.89,0,0,0-.9-.89Z"/></g></g></svg>