<svg id="Layer_1" data-name="Layer 1" xmlns="http://www.w3.org/2000/svg" viewBox="0 0 150 150"><defs><style>.cls-1{fill:#fff;}</style></defs><path d="M72.78,122A55.38,55.38,0,0,1,55.6,111.46a67.33,67.33,0,0,1-13-16,79.5,79.5,0,0,1-8.26-19.85,86.51,86.51,0,0,1-2.92-22.39,89.78,89.78,0,0,1,.78-11.69l1.32-9.81,9.45,3a35.94,35.94,0,0,0,10.71,1.63,36.56,36.56,0,0,0,17.94-4.78l4.12-2.34,4.12,2.34.18.1h0l.26.14A36.48,36.48,0,0,0,97.8,36.31a35.84,35.84,0,0,0,10.71-1.63l9.45-3,1.32,9.82a88,88,0,0,1,.78,11.69,86.82,86.82,0,0,1-2.86,22.2,79.8,79.8,0,0,1-8.12,19.71,67.65,67.65,0,0,1-12.78,16,55.61,55.61,0,0,1-16.9,10.68l-.15.06-.53.21-3,1.14Z"/><path class="cls-1" d="M74.76,116.84a49.81,49.81,0,0,1-15.45-9.53A61.65,61.65,0,0,1,47.4,92.63a74,74,0,0,1-7.68-18.46,82.19,82.19,0,0,1-2-31.9L38.17,39l3.15,1a41.11,41.11,0,0,0,12.37,1.89,42,42,0,0,0,20.69-5.51l1.37-.78,1.37.78.31.17.23.13A42,42,0,0,0,97.8,41.87,41.12,41.12,0,0,0,110.18,40l3.15-1,.44,3.27a83.56,83.56,0,0,1,.73,10.95A81,81,0,0,1,111.82,74a74.13,74.13,0,0,1-7.55,18.34A61.76,61.76,0,0,1,92.55,107a50,50,0,0,1-15.2,9.63l-.16.07-.45.17-1,.38Z"/><path d="M97.42,58A183.77,183.77,0,0,0,73.54,87.59,93.12,93.12,0,0,0,62.31,70.53c-1.67-2-4.72.54-3.1,2.57A98.82,98.82,0,0,1,71.42,92.67,2.09,2.09,0,0,0,75,93a179.79,179.79,0,0,1,25.09-31.76C102,59.35,99.31,56.13,97.42,58Z"/></svg>