<svg id="Layer_1" data-name="Layer 1" xmlns="http://www.w3.org/2000/svg" viewBox="0 0 150 150"><defs><style>.cls-1{fill:#33ced4;}</style></defs><path class="cls-1" d="M32.59,120.82a1.66,1.66,0,0,1-1.65-1.46L27,88a1.67,1.67,0,0,1,1.17-1.8l27.9-8.47a22.14,22.14,0,0,1,12.6-.68l25.77,3.42c7,1.35,7.64,8,7,11.34a.63.63,0,0,0,.23.7.59.59,0,0,0,.69,0l28.76-17.83a7.88,7.88,0,0,1,9.39.66,8.37,8.37,0,0,1,2.57,9.45,19.43,19.43,0,0,1-3.31,5.75,40.69,40.69,0,0,1-4.25,4.18c-.47.42-.95.84-1.42,1.28a40.62,40.62,0,0,1-4,3.22l-25.1,18a18.34,18.34,0,0,1-10.75,3.45l-61.72.14ZM30.46,89l3.6,28.48,60.25-.13a15,15,0,0,0,8.82-2.83l25.1-18a36.74,36.74,0,0,0,3.63-3q.73-.68,1.47-1.32a37.23,37.23,0,0,0,3.9-3.84A16,16,0,0,0,140,83.68a5.11,5.11,0,0,0-1.58-5.74,4.54,4.54,0,0,0-5.41-.45L104.13,95.38a3.95,3.95,0,0,1-5.94-4.2c.1-.59.94-6.38-4.3-7.4L68.12,80.36a19.21,19.21,0,0,0-11,.55Z"/><path class="cls-1" d="M18.07,129.86a7,7,0,0,1-6.88-6.08l-5.1-40.4a7,7,0,0,1,6-7.77l7.61-1a8.86,8.86,0,0,1,9.9,7.68l4.63,36.61a8.87,8.87,0,0,1-7.68,9.9l-7.61,1A6.65,6.65,0,0,1,18.07,129.86Zm2.77-52a5.49,5.49,0,0,0-.7,0l-7.61,1a3.63,3.63,0,0,0-3.14,4l5.11,40.4a3.58,3.58,0,0,0,1.37,2.4,3.52,3.52,0,0,0,2.67.73l7.61-1a5.53,5.53,0,0,0,4.79-6.17L26.31,82.75a5.52,5.52,0,0,0-5.47-4.84Z"/><path class="cls-1" d="M78.85,93.47,74.53,93a1.67,1.67,0,0,1,.35-3.32l4.15.44a1.67,1.67,0,0,1-.18,3.33Z"/><path class="cls-1" d="M64.73,92l-4.33-.45a1.66,1.66,0,0,1,.35-3.31l4.15.43A1.67,1.67,0,0,1,64.73,92Z"/><path class="cls-1" d="M102.4,96,78.68,93.46A1.67,1.67,0,1,1,79,90.14l23.54,2.49A1.66,1.66,0,0,1,102.4,96Z"/><path class="cls-1" d="M91,75.52,73,66.08l-18,9.44,3.43-20L44,41.34l20.09-2.92,9-18.21,9,18.21,20.09,2.92L87.58,55.51ZM73,62.88l14.22,7.48L84.54,54.52,96.05,43.31,80.15,41,73,26.59,65.93,41,50,43.31,61.54,54.52,58.82,70.36Z"/></svg>