<svg id="Layer_1" data-name="Layer 1" xmlns="http://www.w3.org/2000/svg" viewBox="0 0 150 150"><defs><style>.cls-1{fill:#33ced4;}</style></defs><path class="cls-1" d="M75,36.07A10.59,10.59,0,1,1,85.58,25.49,10.59,10.59,0,0,1,75,36.07Zm0-18.31a7.73,7.73,0,1,0,7.72,7.73A7.73,7.73,0,0,0,75,17.76Z"/><path class="cls-1" d="M93.89,70H56.11a1.43,1.43,0,0,1-1.43-1.43v-17a12.86,12.86,0,0,1,11.4-12.78,76.89,76.89,0,0,1,8.94-.3,76.51,76.51,0,0,1,8.9.3,12.86,12.86,0,0,1,11.4,12.78v17A1.43,1.43,0,0,1,93.89,70ZM57.54,67.12H92.46V51.52a10,10,0,0,0-8.86-9.94A75.68,75.68,0,0,0,75,41.3a76.07,76.07,0,0,0-8.62.28,10,10,0,0,0-8.86,9.94Z"/><path class="cls-1" d="M106.37,32.18A10.59,10.59,0,1,1,117,21.59,10.6,10.6,0,0,1,106.37,32.18Zm0-18.31a7.73,7.73,0,1,0,7.73,7.72A7.72,7.72,0,0,0,106.37,13.87Z"/><path class="cls-1" d="M43.63,32.18A10.59,10.59,0,1,1,54.21,21.59,10.6,10.6,0,0,1,43.63,32.18Zm0-18.31a7.73,7.73,0,1,0,7.72,7.72A7.73,7.73,0,0,0,43.63,13.87Z"/><path class="cls-1" d="M93.89,70H56.11a1.43,1.43,0,0,1-1.43-1.43v-17a12.86,12.86,0,0,1,11.4-12.78,76.89,76.89,0,0,1,8.94-.3,76.51,76.51,0,0,1,8.9.3,12.86,12.86,0,0,1,11.4,12.78v17A1.43,1.43,0,0,1,93.89,70ZM57.54,67.12H92.46V51.52a10,10,0,0,0-8.86-9.94A75.68,75.68,0,0,0,75,41.3a76.07,76.07,0,0,0-8.62.28,10,10,0,0,0-8.86,9.94Z"/><path class="cls-1" d="M97.46,66.08H93.89a1.43,1.43,0,0,1,0-2.86h3.57a1.43,1.43,0,0,1,0,2.86Z"/><path class="cls-1" d="M107.12,66.08h-4.83a1.43,1.43,0,0,1,0-2.86h4.83a1.43,1.43,0,0,1,0,2.86Z"/><path class="cls-1" d="M115.53,66.08H112a1.43,1.43,0,0,1,0-2.86h3.58a1.43,1.43,0,0,1,0,2.86Z"/><path class="cls-1" d="M125.26,66.08h-9.73a1.43,1.43,0,0,1,0-2.86h8.3V47.62A10,10,0,0,0,115,37.69a73,73,0,0,0-8.58-.28,73.38,73.38,0,0,0-8.61.28,10,10,0,0,0-7,4.07,12.87,12.87,0,0,1,4.49,9.76V64.65a1.43,1.43,0,1,1-2.86,0V51.52a10,10,0,0,0-4.35-8.24,1.43,1.43,0,0,1-.44-1.88,12.92,12.92,0,0,1,9.78-6.56,79.59,79.59,0,0,1,8.94-.29,77.13,77.13,0,0,1,8.91.29,12.86,12.86,0,0,1,11.39,12.78v17A1.43,1.43,0,0,1,125.26,66.08Z"/><path class="cls-1" d="M56.11,66.08a1.43,1.43,0,0,1-1.43-1.43V51.52a12.87,12.87,0,0,1,4.49-9.76,10,10,0,0,0-7-4.07,73.09,73.09,0,0,0-8.58-.28,73.38,73.38,0,0,0-8.61.28,10,10,0,0,0-8.86,9.93v15.6h8.3a1.43,1.43,0,0,1,0,2.86H24.74a1.43,1.43,0,0,1-1.43-1.43v-17A12.86,12.86,0,0,1,34.7,34.84a79.69,79.69,0,0,1,8.94-.29,79.39,79.39,0,0,1,8.91.29,12.92,12.92,0,0,1,9.78,6.56,1.43,1.43,0,0,1-.44,1.88,10,10,0,0,0-4.35,8.24V64.65A1.43,1.43,0,0,1,56.11,66.08Z"/><path class="cls-1" d="M38.05,66.08H34.47a1.43,1.43,0,0,1,0-2.86h3.58a1.43,1.43,0,0,1,0,2.86Z"/><path class="cls-1" d="M47.71,66.08H42.88a1.43,1.43,0,0,1,0-2.86h4.83a1.43,1.43,0,0,1,0,2.86Z"/><path class="cls-1" d="M56.11,66.08H52.54a1.43,1.43,0,0,1,0-2.86h3.57a1.43,1.43,0,0,1,0,2.86Z"/><path class="cls-1" d="M75,64.55a1.44,1.44,0,0,1-1-.39l-9-8.62a6.78,6.78,0,0,1-1.6-7.41A6.32,6.32,0,0,1,69.26,44,7.78,7.78,0,0,1,75,46.45,7.63,7.63,0,0,1,80.61,44a6.36,6.36,0,0,1,6,4.12A6.78,6.78,0,0,1,85,55.54l-9,8.62A1.44,1.44,0,0,1,75,64.55ZM69.39,46.87a3.49,3.49,0,0,0-3.32,2.3,3.89,3.89,0,0,0,.92,4.3l8,7.67,8-7.67a3.87,3.87,0,0,0,.91-4.3,3.44,3.44,0,0,0-3.23-2.3l0-1.43-.11,1.43a4.82,4.82,0,0,0-4.33,2.71,1.49,1.49,0,0,1-2.56,0A4.82,4.82,0,0,0,69.39,46.87Z"/><path class="cls-1" d="M114.65,129.09a1.76,1.76,0,0,1-.74-.16,1.83,1.83,0,0,1-.93-2.41,10.41,10.41,0,0,1,2.92-3.81L139,99.13a16.84,16.84,0,0,0,4.83-11.85V47.64a6.32,6.32,0,0,0-12.63-.1l-.33,26.88a21.85,21.85,0,0,1-6.43,15.19l-7.28,7.28a1.82,1.82,0,0,1-2.58-2.58L121.84,87a18.26,18.26,0,0,0,5.37-12.66l.32-26.88a10,10,0,0,1,19.93.15V87.28a20.51,20.51,0,0,1-5.87,14.4l-23.16,23.66a7.23,7.23,0,0,0-2.12,2.66A1.82,1.82,0,0,1,114.65,129.09Z"/><path class="cls-1" d="M83.68,129.09a1.82,1.82,0,0,1-1.83-1.82V113.68a20.14,20.14,0,0,1,5.94-14.33L111.3,75.83A9.42,9.42,0,0,1,118,73a9.52,9.52,0,0,1,6.76,2.82,9.35,9.35,0,0,1,2.86,6.7,9.2,9.2,0,0,1-2.73,6.57L111.43,102.6a1.82,1.82,0,1,1-2.58-2.58l13.49-13.47a5.65,5.65,0,0,0,0-8A6,6,0,0,0,118,76.69a5.81,5.81,0,0,0-4.15,1.72L90.37,101.93a16.51,16.51,0,0,0-4.87,11.75v13.59A1.81,1.81,0,0,1,83.68,129.09Z"/><path class="cls-1" d="M35.35,129.07A1.82,1.82,0,0,1,33.68,128a6.56,6.56,0,0,0-1.94-2.49c-.17-.16-23.33-23.82-23.33-23.82a20.51,20.51,0,0,1-5.87-14.4V47.64a10,10,0,0,1,19.93-.16l.32,26.9A18.25,18.25,0,0,0,28.16,87l7.28,7.28a1.82,1.82,0,0,1-2.58,2.58l-7.28-7.28a21.84,21.84,0,0,1-6.43-15.18l-.33-26.9a6.32,6.32,0,0,0-12.63.11V87.28A16.84,16.84,0,0,0,11,99.13L34.1,122.71A10.29,10.29,0,0,1,37,126.5a1.82,1.82,0,0,1-.92,2.41A1.8,1.8,0,0,1,35.35,129.07Z"/><path class="cls-1" d="M66.32,129.09a1.81,1.81,0,0,1-1.82-1.82V113.68a16.51,16.51,0,0,0-4.87-11.75L36.12,78.41A5.82,5.82,0,0,0,32,76.69a5.88,5.88,0,0,0-4.18,1.75A5.7,5.7,0,0,0,26,82.56a5.61,5.61,0,0,0,1.65,4L41.15,100a1.82,1.82,0,1,1-2.58,2.58L25.08,89.13a9.29,9.29,0,0,1,0-13.14A9.67,9.67,0,0,1,32,73a9.42,9.42,0,0,1,6.73,2.79L62.21,99.35a20.14,20.14,0,0,1,5.94,14.33v13.59A1.82,1.82,0,0,1,66.32,129.09Z"/><path class="cls-1" d="M62.85,145.45H33.68a5.3,5.3,0,0,1-5.3-5.29V127.27a1.82,1.82,0,0,1,1.83-1.82H66.32a1.82,1.82,0,0,1,1.83,1.82v12.89A5.3,5.3,0,0,1,62.85,145.45ZM32,129.09v11.07a1.64,1.64,0,0,0,1.65,1.64H62.85a1.64,1.64,0,0,0,1.65-1.64V129.09Z"/><path class="cls-1" d="M116.32,145.45H87.15a5.3,5.3,0,0,1-5.3-5.29V127.27a1.82,1.82,0,0,1,1.83-1.82h36.11a1.82,1.82,0,0,1,1.83,1.82v12.89A5.3,5.3,0,0,1,116.32,145.45ZM85.5,129.09v11.07a1.64,1.64,0,0,0,1.65,1.64h29.17a1.64,1.64,0,0,0,1.65-1.64V129.09Z"/><path class="cls-1" d="M114.66,129.09H95.93a1.82,1.82,0,1,1,0-3.64h18.73a1.82,1.82,0,1,1,0,3.64Z"/><path class="cls-1" d="M145.64,145.45H4.36a1.83,1.83,0,0,1,0-3.65H145.64a1.83,1.83,0,0,1,0,3.65Z"/></svg>