<svg xmlns="http://www.w3.org/2000/svg" xmlns:xlink="http://www.w3.org/1999/xlink" width="500" zoomAndPan="magnify" viewBox="0 0 375 374.999991" height="500" preserveAspectRatio="xMidYMid meet" version="1.0"><defs><g/></defs><path fill="#33ced4" d="M 198.921875 192.6875 C 191.667969 195.382812 178.929688 196.0625 172.785156 190.351562 C 174.753906 189.195312 177.707031 190.222656 179.953125 190.066406 C 182.582031 189.878906 185.191406 189.457031 187.757812 188.886719 C 192.769531 187.78125 197.632812 186.085938 202.421875 184.265625 C 205.554688 183.074219 208.710938 181.820312 212.035156 181.394531 C 216.367188 180.839844 221.375 182.113281 224.382812 185.429688 C 224.5 185.558594 224.207031 185.949219 224.046875 185.890625 C 223.265625 185.574219 222.054688 185.199219 220.53125 185.058594 C 213.113281 184.445312 206.78125 189.398438 200.210938 192.171875 C 199.78125 192.355469 199.351562 192.523438 198.921875 192.6875 M 144.960938 167.753906 C 144.726562 167.621094 144.933594 166.894531 145.199219 166.910156 C 148.074219 167.0625 154.039062 167.378906 161.363281 167.5 C 165.027344 167.5625 169.035156 167.582031 173.195312 167.5625 C 177.339844 167.523438 181.660156 167.484375 185.96875 167.445312 C 194.585938 167.355469 204.035156 167.648438 211.703125 169.851562 C 215.523438 170.902344 218.824219 172.363281 221.328125 173.871094 C 222.597656 174.589844 223.640625 175.394531 224.535156 176.046875 C 225.488281 176.738281 226.195312 177.578125 226.476562 178.300781 C 226.578125 178.585938 225.953125 179.007812 225.789062 178.847656 C 222.15625 175.5625 213.378906 176.726562 208.921875 176.796875 C 202.757812 176.894531 196.605469 177.359375 190.441406 177.574219 C 188.976562 177.625 187.511719 177.648438 186.046875 177.644531 C 171.746094 177.59375 157.558594 174.800781 144.960938 167.753906 M 151.820312 153.753906 C 140.410156 149.027344 130.242188 141.488281 123.011719 131.414062 C 120.652344 128.128906 119.1875 125.375 118.257812 123.5625 C 118.070312 123.199219 118.570312 122.886719 118.835938 123.195312 C 120.246094 124.867188 122.464844 127.410156 125.566406 130.257812 C 128.660156 133.101562 132.625 136.253906 137.398438 139.125 C 148.371094 145.851562 160.484375 149.144531 173.101562 151.160156 C 185.15625 153.085938 197.402344 154.152344 209.136719 157.519531 C 217.601562 159.945312 226.519531 164.132812 230.484375 172.503906 C 230.789062 173.148438 230.980469 173.765625 231.1875 174.277344 C 231.335938 174.667969 230.796875 174.90625 230.570312 174.570312 C 225.675781 166.328125 214.550781 163.710938 205.679688 162.460938 C 197.828125 161.355469 189.867188 161.347656 181.964844 160.667969 C 178.46875 160.363281 174.976562 159.925781 171.511719 159.328125 C 164.769531 158.160156 158.140625 156.371094 151.820312 153.753906 M 162.644531 139.636719 C 149.808594 134.316406 137.933594 126.6875 127.75 117.230469 C 122.867188 112.699219 119.050781 108.367188 116.074219 104.757812 C 114.640625 102.894531 113.351562 101.277344 112.320312 99.8125 C 111.308594 98.34375 110.460938 97.109375 109.785156 96.125 C 109.515625 95.730469 110.046875 95.296875 110.398438 95.617188 C 114.101562 99.152344 122.046875 106.375 133.039062 113.722656 C 139.441406 118.015625 146.148438 121.863281 153.078125 125.234375 C 163.949219 130.523438 175.371094 134.636719 187.109375 137.527344 C 197.691406 140.136719 208.730469 142.199219 218.320312 147.640625 C 223.15625 150.386719 227.5 154.023438 230.722656 158.585938 C 232.292969 160.8125 237.253906 167.585938 234.824219 170.28125 C 234.09375 169.015625 233.535156 167.585938 232.738281 166.316406 C 227.246094 157.066406 216.050781 152.476562 206.058594 150.148438 C 193.855469 147.304688 181.6875 145.960938 169.839844 142.242188 C 167.429688 141.484375 165.027344 140.628906 162.644531 139.640625 M 162.070312 115.4375 C 173.152344 122.359375 185.042969 127.980469 197.328125 132.136719 C 200.019531 133.046875 202.589844 134 205.210938 135.082031 C 212.3125 138.007812 219.214844 141.601562 225.226562 146.417969 C 228.242188 148.835938 231.019531 151.554688 233.453125 154.5625 C 235.71875 157.363281 237.246094 161.027344 239.3125 163.652344 C 239.871094 164.359375 239.59375 161.425781 239.601562 161.511719 C 239.5 160.261719 238.863281 158.851562 238.453125 157.671875 C 237.570312 155.15625 236.464844 152.71875 235.15625 150.394531 C 228.828125 139.183594 217.285156 131.410156 206.203125 125.453125 C 193.628906 118.695312 180.507812 113.152344 168.457031 105.433594 C 160.242188 100.1875 152.296875 94.375 144.859375 88.472656 C 137.398438 82.539062 130.476562 76.695312 124.761719 70.882812 C 121.90625 67.980469 119.308594 65.109375 117.09375 62.277344 C 114.890625 59.4375 112.949219 56.699219 111.417969 54.078125 C 111.003906 53.4375 110.667969 52.777344 110.320312 52.148438 C 109.976562 51.511719 109.640625 50.894531 109.320312 50.296875 C 108.753906 49.070312 108.15625 47.925781 107.703125 46.832031 C 107.273438 45.730469 106.824219 44.71875 106.492188 43.78125 C 106.171875 42.828125 105.886719 41.976562 105.632812 41.222656 C 105.445312 40.664062 104.597656 40.800781 104.652344 41.398438 C 104.859375 44.375 105.472656 48.941406 107.363281 54.609375 C 109.269531 60.253906 112.550781 66.921875 117.421875 73.796875 C 129.242188 90.480469 144.660156 104.566406 162.070312 115.4375 " fill-opacity="1" fill-rule="evenodd"/><g fill="#ffffff" fill-opacity="1"><g transform="translate(19.47303, 274.299649)"><g><path d="M 1.84375 0 L 1.84375 -1.109375 L 33.765625 -58.875 L 16.28125 -58.875 C 14.257812 -58.875 12.617188 -58.414062 11.359375 -57.5 C 10.097656 -56.582031 8.976562 -55.234375 8 -53.453125 L 3.765625 -46 L 2.859375 -46 L 3.5 -60.71875 L 48.484375 -60.71875 L 48.484375 -59.609375 L 16.5625 -1.84375 L 36.609375 -1.84375 C 38.640625 -1.84375 40.25 -2.316406 41.4375 -3.265625 C 42.632812 -4.210938 43.726562 -5.578125 44.71875 -7.359375 L 48.671875 -14.71875 L 49.59375 -14.71875 L 48.9375 0 Z M 1.84375 0 "/></g></g></g><g fill="#33ced4" fill-opacity="1"><g transform="translate(109.625368, 274.299649)"><g><path d="M 0.734375 0 L 0.734375 -0.921875 L 3.03125 -1.75 C 4.257812 -2.238281 5.210938 -2.832031 5.890625 -3.53125 C 6.566406 -4.238281 7.117188 -5.238281 7.546875 -6.53125 L 26.5 -60.90625 L 34.3125 -60.90625 L 52.984375 -6.15625 C 53.484375 -4.8125 54.035156 -3.785156 54.640625 -3.078125 C 55.253906 -2.378906 56.207031 -1.78125 57.5 -1.28125 L 58.609375 -0.921875 L 58.609375 0 L 35.234375 0 L 35.234375 -0.921875 L 36.609375 -1.375 C 37.898438 -1.863281 38.679688 -2.550781 38.953125 -3.4375 C 39.234375 -4.332031 39.191406 -5.394531 38.828125 -6.625 L 34.5 -19.875 L 14.078125 -19.875 L 9.65625 -6.90625 C 9.226562 -5.550781 9.085938 -4.472656 9.234375 -3.671875 C 9.390625 -2.878906 10.113281 -2.238281 11.40625 -1.75 L 13.4375 -0.921875 L 13.4375 0 Z M 14.71875 -21.71875 L 33.953125 -21.71875 L 24.65625 -50.328125 Z M 14.71875 -21.71875 "/></g></g></g><g fill="#ffffff" fill-opacity="1"><g transform="translate(208.051146, 274.299649)"><g><path d="M 2.03125 0 L 2.03125 -0.921875 L 4.140625 -1.75 C 5.179688 -2.175781 5.898438 -2.742188 6.296875 -3.453125 C 6.703125 -4.160156 6.90625 -5.125 6.90625 -6.34375 L 6.90625 -54.375 C 6.90625 -55.601562 6.734375 -56.566406 6.390625 -57.265625 C 6.054688 -57.972656 5.304688 -58.539062 4.140625 -58.96875 L 2.03125 -59.796875 L 2.03125 -60.71875 L 46.09375 -60.71875 L 46.640625 -46.546875 L 45.71875 -46.546875 L 41.765625 -55.203125 C 41.210938 -56.304688 40.628906 -57.191406 40.015625 -57.859375 C 39.398438 -58.535156 38.484375 -58.875 37.265625 -58.875 L 20.703125 -58.875 L 20.703125 -32.296875 L 30.546875 -32.296875 C 31.773438 -32.296875 32.707031 -32.613281 33.34375 -33.25 C 33.988281 -33.894531 34.554688 -34.769531 35.046875 -35.875 L 36.890625 -39.5625 L 37.8125 -39.5625 L 37.8125 -23 L 36.890625 -23 L 35.046875 -26.859375 C 34.492188 -27.960938 33.910156 -28.835938 33.296875 -29.484375 C 32.691406 -30.128906 31.773438 -30.453125 30.546875 -30.453125 L 20.703125 -30.453125 L 20.703125 -1.84375 L 39.28125 -1.84375 C 40.507812 -1.84375 41.457031 -2.160156 42.125 -2.796875 C 42.800781 -3.441406 43.359375 -4.347656 43.796875 -5.515625 L 47.5625 -14.171875 L 48.484375 -14.171875 L 47.9375 0 Z M 2.03125 0 "/></g></g></g><g fill="#ffffff" fill-opacity="1"><g transform="translate(297.748204, 274.299649)"><g><path d="M 2.03125 0 L 2.03125 -0.921875 L 3.953125 -1.5625 C 5.179688 -1.988281 5.976562 -2.554688 6.34375 -3.265625 C 6.71875 -3.972656 6.90625 -4.96875 6.90625 -6.25 L 6.90625 -54.375 C 6.90625 -55.601562 6.734375 -56.566406 6.390625 -57.265625 C 6.054688 -57.972656 5.304688 -58.539062 4.140625 -58.96875 L 2.03125 -59.796875 L 2.03125 -60.71875 L 28.34375 -60.71875 C 35.570312 -60.71875 41.117188 -59.351562 44.984375 -56.625 C 48.847656 -53.894531 50.78125 -50.109375 50.78125 -45.265625 C 50.78125 -42.566406 49.769531 -39.867188 47.75 -37.171875 C 45.726562 -34.472656 42.539062 -32.382812 38.1875 -30.90625 L 50.96875 -5.515625 C 51.519531 -4.472656 52.144531 -3.628906 52.84375 -2.984375 C 53.550781 -2.347656 54.488281 -1.78125 55.65625 -1.28125 L 56.859375 -0.828125 L 56.859375 0 L 40.390625 0 L 26.765625 -28.984375 L 20.515625 -28.984375 L 20.515625 -6.25 C 20.515625 -5.09375 20.695312 -4.144531 21.0625 -3.40625 C 21.4375 -2.664062 22.207031 -2.113281 23.375 -1.75 L 25.578125 -0.921875 L 25.578125 0 Z M 20.515625 -30.8125 L 24.9375 -30.8125 C 29.351562 -30.8125 32.539062 -31.992188 34.5 -34.359375 C 36.457031 -36.722656 37.4375 -40.234375 37.4375 -44.890625 C 37.4375 -49.617188 36.515625 -53.128906 34.671875 -55.421875 C 32.835938 -57.722656 29.742188 -58.875 25.390625 -58.875 L 20.515625 -58.875 Z M 20.515625 -30.8125 "/></g></g></g><g fill="#ffffff" fill-opacity="1"><g transform="translate(15.000319, 332.085653)"><g><path d="M 7.515625 0.28125 C 5.660156 0.28125 4.164062 -0.296875 3.03125 -1.453125 C 1.894531 -2.617188 1.328125 -4.132812 1.328125 -6 L 1.328125 -6.921875 C 1.328125 -7.148438 1.445312 -7.265625 1.6875 -7.265625 L 4.28125 -7.265625 C 4.519531 -7.265625 4.640625 -7.148438 4.640625 -6.921875 L 4.640625 -6.1875 C 4.640625 -5.101562 4.90625 -4.238281 5.4375 -3.59375 C 5.976562 -2.957031 6.671875 -2.640625 7.515625 -2.640625 C 8.359375 -2.640625 9.054688 -2.945312 9.609375 -3.5625 C 10.160156 -4.1875 10.4375 -5 10.4375 -6 C 10.4375 -6.6875 10.285156 -7.285156 9.984375 -7.796875 C 9.691406 -8.316406 9.304688 -8.78125 8.828125 -9.1875 C 8.347656 -9.59375 7.570312 -10.195312 6.5 -11 C 5.300781 -11.882812 4.363281 -12.640625 3.6875 -13.265625 C 3.007812 -13.898438 2.4375 -14.660156 1.96875 -15.546875 C 1.5 -16.441406 1.265625 -17.488281 1.265625 -18.6875 C 1.265625 -20.582031 1.828125 -22.085938 2.953125 -23.203125 C 4.078125 -24.316406 5.539062 -24.875 7.34375 -24.875 C 9.21875 -24.875 10.722656 -24.273438 11.859375 -23.078125 C 12.992188 -21.878906 13.5625 -20.3125 13.5625 -18.375 L 13.5625 -17.5 C 13.5625 -17.257812 13.441406 -17.140625 13.203125 -17.140625 L 10.609375 -17.140625 C 10.367188 -17.140625 10.25 -17.257812 10.25 -17.5 L 10.25 -18.4375 C 10.25 -19.488281 9.976562 -20.335938 9.4375 -20.984375 C 8.90625 -21.628906 8.207031 -21.953125 7.34375 -21.953125 C 6.519531 -21.953125 5.847656 -21.664062 5.328125 -21.09375 C 4.816406 -20.519531 4.5625 -19.71875 4.5625 -18.6875 C 4.5625 -17.75 4.816406 -16.957031 5.328125 -16.3125 C 5.847656 -15.664062 6.847656 -14.804688 8.328125 -13.734375 C 9.734375 -12.679688 10.789062 -11.828125 11.5 -11.171875 C 12.21875 -10.515625 12.769531 -9.789062 13.15625 -9 C 13.539062 -8.21875 13.734375 -7.289062 13.734375 -6.21875 C 13.734375 -4.25 13.160156 -2.671875 12.015625 -1.484375 C 10.867188 -0.304688 9.367188 0.28125 7.515625 0.28125 Z M 7.515625 0.28125 "/></g></g></g><g fill="#ffffff" fill-opacity="1"><g transform="translate(39.132531, 332.085653)"><g><path d="M 9.9375 -17.53125 C 9.9375 -17.757812 10.054688 -17.875 10.296875 -17.875 L 12.96875 -17.875 C 13.195312 -17.875 13.3125 -17.757812 13.3125 -17.53125 L 13.3125 -0.34375 C 13.3125 -0.113281 13.195312 0 12.96875 0 L 10.296875 0 C 10.054688 0 9.9375 -0.113281 9.9375 -0.34375 L 9.9375 -1.375 C 9.9375 -1.4375 9.914062 -1.46875 9.875 -1.46875 C 9.84375 -1.46875 9.804688 -1.445312 9.765625 -1.40625 C 9.066406 -0.300781 7.941406 0.25 6.390625 0.25 C 4.984375 0.25 3.847656 -0.175781 2.984375 -1.03125 C 2.117188 -1.882812 1.6875 -3.191406 1.6875 -4.953125 L 1.6875 -17.53125 C 1.6875 -17.757812 1.800781 -17.875 2.03125 -17.875 L 4.703125 -17.875 C 4.941406 -17.875 5.0625 -17.757812 5.0625 -17.53125 L 5.0625 -5.6875 C 5.0625 -3.675781 5.859375 -2.671875 7.453125 -2.671875 C 8.242188 -2.671875 8.851562 -2.957031 9.28125 -3.53125 C 9.71875 -4.101562 9.9375 -4.894531 9.9375 -5.90625 Z M 9.9375 -17.53125 "/></g></g></g><g fill="#ffffff" fill-opacity="1"><g transform="translate(63.475463, 332.085653)"><g><path d="M 8.78125 -18.15625 C 10.300781 -18.15625 11.507812 -17.644531 12.40625 -16.625 C 13.3125 -15.613281 13.765625 -14.273438 13.765625 -12.609375 L 13.765625 -5.296875 C 13.765625 -3.566406 13.3125 -2.203125 12.40625 -1.203125 C 11.507812 -0.210938 10.300781 0.28125 8.78125 0.28125 C 8.21875 0.28125 7.648438 0.175781 7.078125 -0.03125 C 6.503906 -0.238281 5.992188 -0.566406 5.546875 -1.015625 C 5.429688 -1.085938 5.375 -1.066406 5.375 -0.953125 L 5.375 6.359375 C 5.375 6.585938 5.253906 6.703125 5.015625 6.703125 L 2.359375 6.703125 C 2.117188 6.703125 2 6.585938 2 6.359375 L 2 -17.53125 C 2 -17.757812 2.117188 -17.875 2.359375 -17.875 L 5.015625 -17.875 C 5.253906 -17.875 5.375 -17.757812 5.375 -17.53125 L 5.375 -16.96875 C 5.375 -16.914062 5.394531 -16.882812 5.4375 -16.875 C 5.488281 -16.863281 5.535156 -16.882812 5.578125 -16.9375 C 6.023438 -17.351562 6.53125 -17.660156 7.09375 -17.859375 C 7.65625 -18.054688 8.21875 -18.15625 8.78125 -18.15625 Z M 10.4375 -12.359375 C 10.4375 -13.203125 10.191406 -13.894531 9.703125 -14.4375 C 9.222656 -14.976562 8.613281 -15.25 7.875 -15.25 C 7.144531 -15.25 6.546875 -14.976562 6.078125 -14.4375 C 5.609375 -13.894531 5.375 -13.203125 5.375 -12.359375 L 5.375 -5.515625 C 5.375 -4.671875 5.609375 -3.976562 6.078125 -3.4375 C 6.546875 -2.90625 7.144531 -2.640625 7.875 -2.640625 C 8.613281 -2.640625 9.222656 -2.90625 9.703125 -3.4375 C 10.191406 -3.976562 10.4375 -4.671875 10.4375 -5.515625 Z M 10.4375 -12.359375 "/></g></g></g><g fill="#ffffff" fill-opacity="1"><g transform="translate(87.923761, 332.085653)"><g><path d="M 8.78125 -18.15625 C 10.300781 -18.15625 11.507812 -17.644531 12.40625 -16.625 C 13.3125 -15.613281 13.765625 -14.273438 13.765625 -12.609375 L 13.765625 -5.296875 C 13.765625 -3.566406 13.3125 -2.203125 12.40625 -1.203125 C 11.507812 -0.210938 10.300781 0.28125 8.78125 0.28125 C 8.21875 0.28125 7.648438 0.175781 7.078125 -0.03125 C 6.503906 -0.238281 5.992188 -0.566406 5.546875 -1.015625 C 5.429688 -1.085938 5.375 -1.066406 5.375 -0.953125 L 5.375 6.359375 C 5.375 6.585938 5.253906 6.703125 5.015625 6.703125 L 2.359375 6.703125 C 2.117188 6.703125 2 6.585938 2 6.359375 L 2 -17.53125 C 2 -17.757812 2.117188 -17.875 2.359375 -17.875 L 5.015625 -17.875 C 5.253906 -17.875 5.375 -17.757812 5.375 -17.53125 L 5.375 -16.96875 C 5.375 -16.914062 5.394531 -16.882812 5.4375 -16.875 C 5.488281 -16.863281 5.535156 -16.882812 5.578125 -16.9375 C 6.023438 -17.351562 6.53125 -17.660156 7.09375 -17.859375 C 7.65625 -18.054688 8.21875 -18.15625 8.78125 -18.15625 Z M 10.4375 -12.359375 C 10.4375 -13.203125 10.191406 -13.894531 9.703125 -14.4375 C 9.222656 -14.976562 8.613281 -15.25 7.875 -15.25 C 7.144531 -15.25 6.546875 -14.976562 6.078125 -14.4375 C 5.609375 -13.894531 5.375 -13.203125 5.375 -12.359375 L 5.375 -5.515625 C 5.375 -4.671875 5.609375 -3.976562 6.078125 -3.4375 C 6.546875 -2.90625 7.144531 -2.640625 7.875 -2.640625 C 8.613281 -2.640625 9.222656 -2.90625 9.703125 -3.4375 C 10.191406 -3.976562 10.4375 -4.671875 10.4375 -5.515625 Z M 10.4375 -12.359375 "/></g></g></g><g fill="#ffffff" fill-opacity="1"><g transform="translate(112.372059, 332.085653)"><g><path d="M 7.453125 0.28125 C 5.617188 0.28125 4.171875 -0.226562 3.109375 -1.25 C 2.046875 -2.269531 1.515625 -3.617188 1.515625 -5.296875 L 1.515625 -12.578125 C 1.515625 -14.234375 2.050781 -15.578125 3.125 -16.609375 C 4.195312 -17.640625 5.640625 -18.15625 7.453125 -18.15625 C 9.273438 -18.15625 10.722656 -17.640625 11.796875 -16.609375 C 12.878906 -15.578125 13.421875 -14.234375 13.421875 -12.578125 L 13.421875 -5.296875 C 13.421875 -3.617188 12.878906 -2.269531 11.796875 -1.25 C 10.722656 -0.226562 9.273438 0.28125 7.453125 0.28125 Z M 7.453125 -2.671875 C 8.203125 -2.671875 8.820312 -2.929688 9.3125 -3.453125 C 9.800781 -3.984375 10.046875 -4.679688 10.046875 -5.546875 L 10.046875 -12.359375 C 10.046875 -13.203125 9.800781 -13.894531 9.3125 -14.4375 C 8.820312 -14.976562 8.203125 -15.25 7.453125 -15.25 C 6.703125 -15.25 6.082031 -14.976562 5.59375 -14.4375 C 5.113281 -13.894531 4.875 -13.203125 4.875 -12.359375 L 4.875 -5.546875 C 4.875 -4.679688 5.113281 -3.984375 5.59375 -3.453125 C 6.082031 -2.929688 6.703125 -2.671875 7.453125 -2.671875 Z M 7.453125 -2.671875 "/></g></g></g><g fill="#ffffff" fill-opacity="1"><g transform="translate(136.434027, 332.085653)"><g><path d="M 8.609375 -18.046875 C 9.191406 -18.046875 9.691406 -17.921875 10.109375 -17.671875 C 10.273438 -17.578125 10.335938 -17.425781 10.296875 -17.21875 L 9.765625 -14.546875 C 9.742188 -14.328125 9.601562 -14.253906 9.34375 -14.328125 C 9.039062 -14.441406 8.710938 -14.5 8.359375 -14.5 C 8.222656 -14.5 8.015625 -14.476562 7.734375 -14.4375 C 7.003906 -14.363281 6.398438 -13.960938 5.921875 -13.234375 C 5.441406 -12.515625 5.203125 -11.640625 5.203125 -10.609375 L 5.203125 -0.34375 C 5.203125 -0.113281 5.082031 0 4.84375 0 L 2.171875 0 C 1.941406 0 1.828125 -0.113281 1.828125 -0.34375 L 1.828125 -17.53125 C 1.828125 -17.757812 1.941406 -17.875 2.171875 -17.875 L 4.84375 -17.875 C 5.082031 -17.875 5.203125 -17.757812 5.203125 -17.53125 L 5.203125 -15.484375 C 5.203125 -15.421875 5.21875 -15.378906 5.25 -15.359375 C 5.28125 -15.347656 5.3125 -15.378906 5.34375 -15.453125 C 6.019531 -17.179688 7.109375 -18.046875 8.609375 -18.046875 Z M 8.609375 -18.046875 "/></g></g></g><g fill="#ffffff" fill-opacity="1"><g transform="translate(156.281468, 332.085653)"><g><path d="M 8.8125 -15.765625 C 8.8125 -15.535156 8.695312 -15.421875 8.46875 -15.421875 L 6 -15.421875 C 5.90625 -15.421875 5.859375 -15.375 5.859375 -15.28125 L 5.859375 -5.40625 C 5.859375 -4.46875 6.019531 -3.816406 6.34375 -3.453125 C 6.675781 -3.097656 7.195312 -2.929688 7.90625 -2.953125 L 8.21875 -2.953125 C 8.457031 -2.953125 8.578125 -2.832031 8.578125 -2.59375 L 8.578125 -0.34375 C 8.578125 -0.113281 8.457031 0 8.21875 0 L 7.125 0 C 5.625 0 4.492188 -0.289062 3.734375 -0.875 C 2.972656 -1.457031 2.59375 -2.570312 2.59375 -4.21875 L 2.59375 -15.28125 C 2.59375 -15.375 2.546875 -15.421875 2.453125 -15.421875 L 1.09375 -15.421875 C 0.851562 -15.421875 0.734375 -15.535156 0.734375 -15.765625 L 0.734375 -17.53125 C 0.734375 -17.757812 0.851562 -17.875 1.09375 -17.875 L 2.453125 -17.875 C 2.546875 -17.875 2.59375 -17.921875 2.59375 -18.015625 L 2.59375 -21.984375 C 2.59375 -22.222656 2.710938 -22.34375 2.953125 -22.34375 L 5.515625 -22.34375 C 5.742188 -22.34375 5.859375 -22.222656 5.859375 -21.984375 L 5.859375 -18.015625 C 5.859375 -17.921875 5.90625 -17.875 6 -17.875 L 8.46875 -17.875 C 8.695312 -17.875 8.8125 -17.757812 8.8125 -17.53125 Z M 8.8125 -15.765625 "/></g></g></g><g fill="#ffffff" fill-opacity="1"><g transform="translate(175.110409, 332.085653)"><g/></g></g><g fill="#ffffff" fill-opacity="1"><g transform="translate(191.305262, 332.085653)"><g><path d="M 7.515625 0.28125 C 5.660156 0.28125 4.164062 -0.296875 3.03125 -1.453125 C 1.894531 -2.617188 1.328125 -4.132812 1.328125 -6 L 1.328125 -6.921875 C 1.328125 -7.148438 1.445312 -7.265625 1.6875 -7.265625 L 4.28125 -7.265625 C 4.519531 -7.265625 4.640625 -7.148438 4.640625 -6.921875 L 4.640625 -6.1875 C 4.640625 -5.101562 4.90625 -4.238281 5.4375 -3.59375 C 5.976562 -2.957031 6.671875 -2.640625 7.515625 -2.640625 C 8.359375 -2.640625 9.054688 -2.945312 9.609375 -3.5625 C 10.160156 -4.1875 10.4375 -5 10.4375 -6 C 10.4375 -6.6875 10.285156 -7.285156 9.984375 -7.796875 C 9.691406 -8.316406 9.304688 -8.78125 8.828125 -9.1875 C 8.347656 -9.59375 7.570312 -10.195312 6.5 -11 C 5.300781 -11.882812 4.363281 -12.640625 3.6875 -13.265625 C 3.007812 -13.898438 2.4375 -14.660156 1.96875 -15.546875 C 1.5 -16.441406 1.265625 -17.488281 1.265625 -18.6875 C 1.265625 -20.582031 1.828125 -22.085938 2.953125 -23.203125 C 4.078125 -24.316406 5.539062 -24.875 7.34375 -24.875 C 9.21875 -24.875 10.722656 -24.273438 11.859375 -23.078125 C 12.992188 -21.878906 13.5625 -20.3125 13.5625 -18.375 L 13.5625 -17.5 C 13.5625 -17.257812 13.441406 -17.140625 13.203125 -17.140625 L 10.609375 -17.140625 C 10.367188 -17.140625 10.25 -17.257812 10.25 -17.5 L 10.25 -18.4375 C 10.25 -19.488281 9.976562 -20.335938 9.4375 -20.984375 C 8.90625 -21.628906 8.207031 -21.953125 7.34375 -21.953125 C 6.519531 -21.953125 5.847656 -21.664062 5.328125 -21.09375 C 4.816406 -20.519531 4.5625 -19.71875 4.5625 -18.6875 C 4.5625 -17.75 4.816406 -16.957031 5.328125 -16.3125 C 5.847656 -15.664062 6.847656 -14.804688 8.328125 -13.734375 C 9.734375 -12.679688 10.789062 -11.828125 11.5 -11.171875 C 12.21875 -10.515625 12.769531 -9.789062 13.15625 -9 C 13.539062 -8.21875 13.734375 -7.289062 13.734375 -6.21875 C 13.734375 -4.25 13.160156 -2.671875 12.015625 -1.484375 C 10.867188 -0.304688 9.367188 0.28125 7.515625 0.28125 Z M 7.515625 0.28125 "/></g></g></g><g fill="#ffffff" fill-opacity="1"><g transform="translate(215.437486, 332.085653)"><g><path d="M 13.3125 -7.90625 C 13.3125 -7.664062 13.195312 -7.546875 12.96875 -7.546875 L 5.015625 -7.546875 C 4.921875 -7.546875 4.875 -7.5 4.875 -7.40625 L 4.875 -5.515625 C 4.875 -4.671875 5.109375 -3.976562 5.578125 -3.4375 C 6.046875 -2.90625 6.65625 -2.640625 7.40625 -2.640625 C 8.0625 -2.640625 8.613281 -2.835938 9.0625 -3.234375 C 9.507812 -3.628906 9.789062 -4.144531 9.90625 -4.78125 C 9.976562 -4.96875 10.109375 -5.0625 10.296875 -5.0625 L 12.890625 -4.921875 C 13.003906 -4.921875 13.085938 -4.882812 13.140625 -4.8125 C 13.203125 -4.738281 13.222656 -4.65625 13.203125 -4.5625 C 13.046875 -3.039062 12.46875 -1.851562 11.46875 -1 C 10.46875 -0.144531 9.113281 0.28125 7.40625 0.28125 C 5.601562 0.28125 4.171875 -0.21875 3.109375 -1.21875 C 2.046875 -2.226562 1.515625 -3.578125 1.515625 -5.265625 L 1.515625 -12.578125 C 1.515625 -14.234375 2.046875 -15.578125 3.109375 -16.609375 C 4.171875 -17.640625 5.601562 -18.15625 7.40625 -18.15625 C 9.238281 -18.15625 10.679688 -17.640625 11.734375 -16.609375 C 12.785156 -15.578125 13.3125 -14.234375 13.3125 -12.578125 Z M 7.40625 -15.25 C 6.65625 -15.25 6.046875 -14.976562 5.578125 -14.4375 C 5.109375 -13.894531 4.875 -13.203125 4.875 -12.359375 L 4.875 -10.5 C 4.875 -10.40625 4.921875 -10.359375 5.015625 -10.359375 L 9.828125 -10.359375 C 9.921875 -10.359375 9.96875 -10.40625 9.96875 -10.5 L 9.96875 -12.359375 C 9.96875 -13.203125 9.734375 -13.894531 9.265625 -14.4375 C 8.804688 -14.976562 8.1875 -15.25 7.40625 -15.25 Z M 7.40625 -15.25 "/></g></g></g><g fill="#ffffff" fill-opacity="1"><g transform="translate(239.253601, 332.085653)"><g><path d="M 8.609375 -18.046875 C 9.191406 -18.046875 9.691406 -17.921875 10.109375 -17.671875 C 10.273438 -17.578125 10.335938 -17.425781 10.296875 -17.21875 L 9.765625 -14.546875 C 9.742188 -14.328125 9.601562 -14.253906 9.34375 -14.328125 C 9.039062 -14.441406 8.710938 -14.5 8.359375 -14.5 C 8.222656 -14.5 8.015625 -14.476562 7.734375 -14.4375 C 7.003906 -14.363281 6.398438 -13.960938 5.921875 -13.234375 C 5.441406 -12.515625 5.203125 -11.640625 5.203125 -10.609375 L 5.203125 -0.34375 C 5.203125 -0.113281 5.082031 0 4.84375 0 L 2.171875 0 C 1.941406 0 1.828125 -0.113281 1.828125 -0.34375 L 1.828125 -17.53125 C 1.828125 -17.757812 1.941406 -17.875 2.171875 -17.875 L 4.84375 -17.875 C 5.082031 -17.875 5.203125 -17.757812 5.203125 -17.53125 L 5.203125 -15.484375 C 5.203125 -15.421875 5.21875 -15.378906 5.25 -15.359375 C 5.28125 -15.347656 5.3125 -15.378906 5.34375 -15.453125 C 6.019531 -17.179688 7.109375 -18.046875 8.609375 -18.046875 Z M 8.609375 -18.046875 "/></g></g></g><g fill="#ffffff" fill-opacity="1"><g transform="translate(259.101042, 332.085653)"><g><path d="M 5.484375 0 C 5.265625 0 5.132812 -0.101562 5.09375 -0.3125 L 0.765625 -17.5 L 0.734375 -17.625 C 0.734375 -17.789062 0.835938 -17.875 1.046875 -17.875 L 4.046875 -17.875 C 4.273438 -17.875 4.398438 -17.769531 4.421875 -17.5625 L 6.953125 -5.515625 C 6.972656 -5.441406 6.992188 -5.40625 7.015625 -5.40625 C 7.046875 -5.40625 7.070312 -5.441406 7.09375 -5.515625 L 9.59375 -17.5625 C 9.632812 -17.769531 9.757812 -17.875 9.96875 -17.875 L 12.96875 -17.84375 C 13.082031 -17.84375 13.164062 -17.804688 13.21875 -17.734375 C 13.28125 -17.660156 13.285156 -17.566406 13.234375 -17.453125 L 8.953125 -0.3125 C 8.929688 -0.101562 8.804688 0 8.578125 0 Z M 5.484375 0 "/></g></g></g><g fill="#ffffff" fill-opacity="1"><g transform="translate(282.284985, 332.085653)"><g><path d="M 3.6875 -20.6875 C 3.03125 -20.6875 2.488281 -20.894531 2.0625 -21.3125 C 1.644531 -21.738281 1.4375 -22.28125 1.4375 -22.9375 C 1.4375 -23.59375 1.644531 -24.128906 2.0625 -24.546875 C 2.488281 -24.972656 3.03125 -25.1875 3.6875 -25.1875 C 4.363281 -25.1875 4.90625 -24.976562 5.3125 -24.5625 C 5.726562 -24.15625 5.9375 -23.613281 5.9375 -22.9375 C 5.9375 -22.28125 5.722656 -21.738281 5.296875 -21.3125 C 4.878906 -20.894531 4.34375 -20.6875 3.6875 -20.6875 Z M 2.390625 0 C 2.148438 0 2.03125 -0.113281 2.03125 -0.34375 L 2.03125 -17.53125 C 2.03125 -17.757812 2.148438 -17.875 2.390625 -17.875 L 5.0625 -17.875 C 5.289062 -17.875 5.40625 -17.757812 5.40625 -17.53125 L 5.40625 -0.34375 C 5.40625 -0.113281 5.289062 0 5.0625 0 Z M 2.390625 0 "/></g></g></g><g fill="#ffffff" fill-opacity="1"><g transform="translate(298.901279, 332.085653)"><g><path d="M 7.40625 0.28125 C 5.601562 0.28125 4.171875 -0.21875 3.109375 -1.21875 C 2.046875 -2.226562 1.515625 -3.585938 1.515625 -5.296875 L 1.515625 -12.578125 C 1.515625 -14.234375 2.046875 -15.578125 3.109375 -16.609375 C 4.171875 -17.640625 5.601562 -18.15625 7.40625 -18.15625 C 8.601562 -18.15625 9.648438 -17.925781 10.546875 -17.46875 C 11.453125 -17.019531 12.144531 -16.398438 12.625 -15.609375 C 13.101562 -14.828125 13.34375 -13.945312 13.34375 -12.96875 L 13.34375 -12.5 C 13.34375 -12.269531 13.226562 -12.15625 13 -12.15625 L 10.328125 -12.046875 C 10.085938 -12.046875 9.96875 -12.164062 9.96875 -12.40625 L 9.96875 -12.75 C 9.96875 -13.425781 9.722656 -14.007812 9.234375 -14.5 C 8.742188 -15 8.132812 -15.25 7.40625 -15.25 C 6.65625 -15.25 6.046875 -14.976562 5.578125 -14.4375 C 5.109375 -13.894531 4.875 -13.203125 4.875 -12.359375 L 4.875 -5.515625 C 4.875 -4.671875 5.109375 -3.976562 5.578125 -3.4375 C 6.046875 -2.90625 6.65625 -2.640625 7.40625 -2.640625 C 8.132812 -2.640625 8.742188 -2.882812 9.234375 -3.375 C 9.722656 -3.863281 9.96875 -4.445312 9.96875 -5.125 L 9.96875 -5.484375 C 9.96875 -5.710938 10.085938 -5.828125 10.328125 -5.828125 L 13 -5.796875 C 13.226562 -5.796875 13.34375 -5.675781 13.34375 -5.4375 L 13.34375 -4.921875 C 13.34375 -3.398438 12.800781 -2.148438 11.71875 -1.171875 C 10.644531 -0.203125 9.207031 0.28125 7.40625 0.28125 Z M 7.40625 0.28125 "/></g></g></g><g fill="#ffffff" fill-opacity="1"><g transform="translate(322.576906, 332.085653)"><g><path d="M 13.3125 -7.90625 C 13.3125 -7.664062 13.195312 -7.546875 12.96875 -7.546875 L 5.015625 -7.546875 C 4.921875 -7.546875 4.875 -7.5 4.875 -7.40625 L 4.875 -5.515625 C 4.875 -4.671875 5.109375 -3.976562 5.578125 -3.4375 C 6.046875 -2.90625 6.65625 -2.640625 7.40625 -2.640625 C 8.0625 -2.640625 8.613281 -2.835938 9.0625 -3.234375 C 9.507812 -3.628906 9.789062 -4.144531 9.90625 -4.78125 C 9.976562 -4.96875 10.109375 -5.0625 10.296875 -5.0625 L 12.890625 -4.921875 C 13.003906 -4.921875 13.085938 -4.882812 13.140625 -4.8125 C 13.203125 -4.738281 13.222656 -4.65625 13.203125 -4.5625 C 13.046875 -3.039062 12.46875 -1.851562 11.46875 -1 C 10.46875 -0.144531 9.113281 0.28125 7.40625 0.28125 C 5.601562 0.28125 4.171875 -0.21875 3.109375 -1.21875 C 2.046875 -2.226562 1.515625 -3.578125 1.515625 -5.265625 L 1.515625 -12.578125 C 1.515625 -14.234375 2.046875 -15.578125 3.109375 -16.609375 C 4.171875 -17.640625 5.601562 -18.15625 7.40625 -18.15625 C 9.238281 -18.15625 10.679688 -17.640625 11.734375 -16.609375 C 12.785156 -15.578125 13.3125 -14.234375 13.3125 -12.578125 Z M 7.40625 -15.25 C 6.65625 -15.25 6.046875 -14.976562 5.578125 -14.4375 C 5.109375 -13.894531 4.875 -13.203125 4.875 -12.359375 L 4.875 -10.5 C 4.875 -10.40625 4.921875 -10.359375 5.015625 -10.359375 L 9.828125 -10.359375 C 9.921875 -10.359375 9.96875 -10.40625 9.96875 -10.5 L 9.96875 -12.359375 C 9.96875 -13.203125 9.734375 -13.894531 9.265625 -14.4375 C 8.804688 -14.976562 8.1875 -15.25 7.40625 -15.25 Z M 7.40625 -15.25 "/></g></g></g><g fill="#ffffff" fill-opacity="1"><g transform="translate(346.393021, 332.085653)"><g><path d="M 6.921875 0.203125 C 5.160156 0.203125 3.769531 -0.222656 2.75 -1.078125 C 1.738281 -1.929688 1.234375 -3.082031 1.234375 -4.53125 L 1.234375 -4.84375 C 1.234375 -5.082031 1.347656 -5.203125 1.578125 -5.203125 L 4.078125 -5.203125 C 4.304688 -5.203125 4.421875 -5.082031 4.421875 -4.84375 L 4.421875 -4.59375 C 4.421875 -3.96875 4.664062 -3.4375 5.15625 -3 C 5.65625 -2.570312 6.265625 -2.359375 6.984375 -2.359375 C 7.691406 -2.359375 8.257812 -2.566406 8.6875 -2.984375 C 9.125 -3.410156 9.34375 -3.945312 9.34375 -4.59375 C 9.34375 -5.113281 9.191406 -5.546875 8.890625 -5.890625 C 8.585938 -6.242188 8.226562 -6.519531 7.8125 -6.71875 C 7.40625 -6.925781 6.78125 -7.203125 5.9375 -7.546875 C 5.019531 -7.953125 4.265625 -8.335938 3.671875 -8.703125 C 3.078125 -9.078125 2.546875 -9.613281 2.078125 -10.3125 C 1.609375 -11.019531 1.375 -11.914062 1.375 -13 C 1.375 -14.59375 1.867188 -15.832031 2.859375 -16.71875 C 3.859375 -17.601562 5.203125 -18.046875 6.890625 -18.046875 C 8.617188 -18.046875 9.976562 -17.585938 10.96875 -16.671875 C 11.96875 -15.765625 12.46875 -14.53125 12.46875 -12.96875 L 12.46875 -12.859375 C 12.46875 -12.617188 12.351562 -12.5 12.125 -12.5 L 9.6875 -12.5 C 9.457031 -12.5 9.34375 -12.617188 9.34375 -12.859375 L 9.34375 -13.109375 C 9.34375 -13.734375 9.117188 -14.269531 8.671875 -14.71875 C 8.234375 -15.164062 7.660156 -15.390625 6.953125 -15.390625 C 6.222656 -15.390625 5.644531 -15.164062 5.21875 -14.71875 C 4.800781 -14.269531 4.59375 -13.734375 4.59375 -13.109375 C 4.59375 -12.609375 4.734375 -12.191406 5.015625 -11.859375 C 5.296875 -11.535156 5.632812 -11.273438 6.03125 -11.078125 C 6.4375 -10.878906 7.070312 -10.59375 7.9375 -10.21875 C 8.894531 -9.800781 9.691406 -9.398438 10.328125 -9.015625 C 10.960938 -8.628906 11.519531 -8.082031 12 -7.375 C 12.476562 -6.675781 12.71875 -5.796875 12.71875 -4.734375 C 12.71875 -3.210938 12.195312 -2.007812 11.15625 -1.125 C 10.113281 -0.238281 8.703125 0.203125 6.921875 0.203125 Z M 6.921875 0.203125 "/></g></g></g></svg>