<svg width="81" height="81" viewBox="0 0 81 81" fill="none" xmlns="http://www.w3.org/2000/svg">
<g clip-path="url(#clip0_420_185)">
<path d="M45.9773 38.4391C46.2132 38.9005 46.6826 39.167 47.1679 39.167C47.3705 39.167 47.5785 39.1203 47.7719 39.0217C47.8505 38.9817 55.6986 34.995 59.5692 33.7724C60.2706 33.5497 60.6598 32.8004 60.4371 32.0991C60.2157 31.3977 59.4718 31.0071 58.7639 31.2285C54.6866 32.5179 46.8919 36.4778 46.5613 36.6458C45.9052 36.9791 45.644 37.7819 45.9773 38.4391Z" fill="#667085"/>
<path d="M47.1679 23.1673C47.3706 23.1673 47.5785 23.1205 47.772 23.022C47.8506 22.982 55.6986 18.9953 59.5692 17.7726C60.2706 17.55 60.6598 16.8006 60.4372 16.0994C60.2158 15.3979 59.4719 15.0073 58.7639 15.2287C54.6866 16.5181 46.892 20.4781 46.5613 20.646C45.9054 20.9793 45.644 21.782 45.9773 22.4393C46.2132 22.9005 46.6826 23.1673 47.1679 23.1673Z" fill="#667085"/>
<path d="M79.1664 20.5005C78.4291 20.5005 77.8331 21.0978 77.8331 21.8337V73.8333C77.8331 76.0386 76.0384 77.8333 73.8332 77.8333H41.8334V74.7654C43.7775 74.0854 48.8413 72.5001 53.8333 72.5001C65.4479 72.5001 73.3346 75.0721 73.4132 75.0986C73.8144 75.2319 74.2625 75.1654 74.6131 74.9146C74.9611 74.664 75.1664 74.2613 75.1664 73.8332V15.1672C75.1664 14.5419 74.7331 14.0005 74.1224 13.8658C74.1224 13.8658 73.0771 13.6326 71.2904 13.3044C70.569 13.1712 69.8718 13.6512 69.7383 14.3738C69.6051 15.0991 70.0837 15.7938 70.8077 15.9271C71.4891 16.0524 72.0597 16.163 72.4997 16.2511V72.0613C69.4783 71.2693 62.7692 69.8334 53.8332 69.8334C48.0238 69.8334 42.3173 71.7413 40.5519 72.388C38.9825 71.6948 34.2386 69.8334 28.4999 69.8334C19.3159 69.8334 11.7507 71.348 8.50009 72.1174V16.1991C11.1627 15.5444 19.0267 13.8338 28.4999 13.8338C33.3613 13.8338 37.5305 15.3471 39.1666 16.0311V68.5001C39.1666 68.9801 39.4252 69.4242 39.8425 69.6601C40.2598 69.8974 40.7745 69.8907 41.1865 69.6427C41.3186 69.5642 54.5291 61.6734 66.2543 57.7655C66.7996 57.5828 67.1663 57.0749 67.1663 56.5002V1.83391C67.1663 1.39657 66.9516 0.987194 66.5916 0.737977C66.2343 0.488604 65.7757 0.431261 65.3637 0.584697C54.6958 4.58592 43.9014 11.3032 43.7932 11.3699C43.1692 11.7605 42.9786 12.5832 43.3692 13.2073C43.7585 13.8313 44.5812 14.0219 45.2065 13.6313C45.3051 13.5687 54.6958 7.72605 64.4996 3.78342V55.5457C55.3983 58.7083 45.8957 63.8723 41.8331 66.1842V15.1672C41.8331 14.6619 41.5478 14.2005 41.0958 13.974C40.8664 13.8607 35.4025 11.1673 28.4999 11.1673C16.4521 11.1673 7.18947 13.774 6.8001 13.8858C6.22807 14.0485 5.83339 14.5726 5.83339 15.1672V73.8335C5.83339 74.2508 6.03073 74.6455 6.36276 74.8975C6.59744 75.0749 6.8801 75.1669 7.16681 75.1669C7.28947 75.1669 7.41213 75.1496 7.53212 75.1149C7.62415 75.0896 16.8441 72.5002 28.4999 72.5002C33.3746 72.5002 37.5399 74.0176 39.1666 74.6988V77.8335H7.16681C4.96152 77.8335 3.16685 76.0388 3.16685 73.8335V21.8339C3.16685 21.098 2.56951 20.5006 1.83358 20.5006C1.09764 20.5006 0.500305 21.098 0.500305 21.8339V73.8335C0.500305 77.5094 3.49091 80.5002 7.16697 80.5002H73.8332C77.5091 80.5002 80.4998 77.5096 80.4998 73.8335V21.8339C80.4997 21.0978 79.9037 20.5005 79.1664 20.5005Z" fill="#667085"/>
<path d="M45.9773 30.4391C46.2132 30.9005 46.6826 31.167 47.1679 31.167C47.3705 31.167 47.5785 31.1203 47.7719 31.0217C47.8505 30.9817 55.6986 26.995 59.5692 25.7724C60.2706 25.5497 60.6598 24.8004 60.4371 24.0991C60.2157 23.3977 59.4718 23.0071 58.7639 23.2285C54.6866 24.5179 46.8919 28.4778 46.5613 28.6458C45.9052 28.9791 45.644 29.7819 45.9773 30.4391Z" fill="#667085"/>
<path d="M45.9773 46.4388C46.2132 46.9002 46.6826 47.1668 47.1679 47.1668C47.3705 47.1668 47.5785 47.1201 47.7719 47.0215C47.8505 46.9815 55.6986 42.9948 59.5692 41.7721C60.2706 41.5495 60.6598 40.8001 60.4371 40.0989C60.2157 39.3975 59.4718 39.0068 58.7639 39.2282C54.6866 40.5176 46.8919 44.4776 46.5613 44.6455C45.9052 44.9788 45.644 45.7816 45.9773 46.4388Z" fill="#667085"/>
<path d="M32.8041 25.2446C24.5709 23.3125 15.2149 25.7739 14.8216 25.8793C14.111 26.0699 13.6883 26.8005 13.8789 27.5125C14.0389 28.1085 14.5775 28.5005 15.1656 28.5005C15.2803 28.5005 15.3963 28.4858 15.5124 28.4552C15.6017 28.4299 24.6096 26.0605 32.1963 27.8405C32.9096 28.0072 33.631 27.5631 33.7989 26.8458C33.9667 26.1299 33.5214 25.4125 32.8041 25.2446Z" fill="#667085"/>
<path d="M32.8041 33.2444C24.5709 31.3138 15.2149 33.7738 14.8216 33.8791C14.111 34.0697 13.6883 34.8005 13.8789 35.5124C14.0389 36.1083 14.5775 36.5004 15.1656 36.5004C15.2803 36.5004 15.3963 36.4857 15.5124 36.455C15.6017 36.4297 24.6096 34.0604 32.1963 35.8404C32.9096 36.0071 33.631 35.563 33.7989 34.8457C33.9667 34.1297 33.5214 33.4124 32.8041 33.2444Z" fill="#667085"/>
<path d="M45.9773 54.4388C46.2132 54.9002 46.6826 55.1668 47.1679 55.1668C47.3705 55.1668 47.5785 55.12 47.7719 55.0214C47.8505 54.9814 55.6986 50.9948 59.5692 49.7721C60.2706 49.5495 60.6598 48.8001 60.4371 48.0989C60.2157 47.3976 59.4718 47.0068 58.7639 47.2282C54.6866 48.5176 46.8919 52.4776 46.5613 52.6455C45.9052 52.9788 45.644 53.7816 45.9773 54.4388Z" fill="#667085"/>
<path d="M32.8041 41.2444C24.5709 39.3138 15.2149 41.7724 14.8216 41.8791C14.111 42.0697 13.6883 42.8005 13.8789 43.5124C14.0389 44.1083 14.5775 44.5018 15.1656 44.5018C15.2803 44.5018 15.3963 44.4858 15.5124 44.455C15.6017 44.4297 24.6096 42.0604 32.1963 43.8404C32.9096 44.0071 33.631 43.563 33.7989 42.8457C33.9667 42.1297 33.5214 41.4124 32.8041 41.2444Z" fill="#667085"/>
<path d="M32.8041 57.2443C24.5709 55.3123 15.2149 57.7737 14.8216 57.879C14.111 58.0696 13.6883 58.8004 13.8789 59.5123C14.0389 60.1082 14.5775 60.5016 15.1656 60.5016C15.2803 60.5016 15.3963 60.4857 15.5124 60.4549C15.6017 60.4296 24.6096 58.0602 32.1963 59.8402C32.9096 60.0055 33.631 59.5629 33.7989 58.8456C33.9667 58.1296 33.5214 57.4123 32.8041 57.2443Z" fill="#667085"/>
<path d="M32.8041 49.2443C24.5709 47.3123 15.2149 49.7723 14.8216 49.879C14.111 50.0696 13.6883 50.8004 13.8789 51.5123C14.0389 52.1082 14.5775 52.5016 15.1656 52.5016C15.2803 52.5016 15.3963 52.4857 15.5124 52.4549C15.6017 52.4296 24.6096 50.0602 32.1963 51.8402C32.9096 52.007 33.631 51.5629 33.7989 50.8456C33.9667 50.1296 33.5214 49.4123 32.8041 49.2443Z" fill="#667085"/>
</g>
<defs>
<clipPath id="clip0_420_185">
<rect width="80" height="80" fill="white" transform="translate(0.5 0.5)"/>
</clipPath>
</defs>
</svg>
