<svg width="23" height="7" viewBox="0 0 23 7" fill="none" xmlns="http://www.w3.org/2000/svg">
<path d="M1.12723 5.34358L1.13826 5.35534L1.15003 5.36637C1.61924 5.80626 2.24885 5.99361 2.968 5.99361H3.3944C4.11131 5.99361 4.73921 5.8071 5.19116 5.35516C5.65924 4.88708 5.8624 4.25323 5.8624 3.5256V2.968C5.8624 2.24822 5.66317 1.62065 5.1913 1.17111C4.74176 0.699235 4.11418 0.5 3.3944 0.5H2.968C2.24038 0.5 1.60653 0.703165 1.13845 1.17125C0.686504 1.62319 0.5 2.2511 0.5 2.968V3.5256C0.5 4.24476 0.687345 4.87436 1.12723 5.34358ZM9.28209 5.34358L9.29312 5.35534L9.30489 5.36637C9.7741 5.80626 10.4037 5.99361 11.1229 5.99361H11.5493C12.2662 5.99361 12.8941 5.8071 13.346 5.35516C13.8141 4.88708 14.0173 4.25323 14.0173 3.5256V2.968C14.0173 2.24822 13.818 1.62065 13.3462 1.17111C12.8966 0.699237 12.269 0.5 11.5493 0.5H11.1229C10.3952 0.5 9.76139 0.703165 9.2933 1.17125C8.84136 1.62319 8.65486 2.2511 8.65486 2.968V3.5256C8.65486 4.24476 8.8422 4.87436 9.28209 5.34358ZM17.4369 5.34358L17.448 5.35534L17.4597 5.36637C17.929 5.80626 18.5586 5.99361 19.2777 5.99361H19.7041C20.421 5.99361 21.0489 5.8071 21.5009 5.35516C21.969 4.88708 22.1721 4.25323 22.1721 3.5256V2.968C22.1721 2.24821 21.9729 1.62063 21.501 1.17109C21.0515 0.699231 20.4239 0.5 19.7041 0.5H19.2777C18.5501 0.5 17.9162 0.703165 17.4482 1.17125C16.9962 1.62319 16.8097 2.2511 16.8097 2.968V3.5256C16.8097 4.24476 16.9971 4.87436 17.4369 5.34358Z" fill="white" stroke="black"/>
</svg>
