<svg width="21" height="5" viewBox="0 0 21 5" fill="none" xmlns="http://www.w3.org/2000/svg">
<path d="M1.968 4.49361C1.33387 4.49361 0.841868 4.3296 0.492001 4.0016C0.164 3.65174 0 3.15974 0 2.5256V1.968C0 1.33387 0.164 0.852801 0.492001 0.524801C0.841868 0.174934 1.33387 0 1.968 0H2.3944C3.02854 0 3.5096 0.174934 3.8376 0.524801C4.18747 0.852801 4.3624 1.33387 4.3624 1.968V2.5256C4.3624 3.15974 4.18747 3.65174 3.8376 4.0016C3.5096 4.3296 3.02854 4.49361 2.3944 4.49361H1.968Z" fill="#667085"/>
<path d="M10.1229 4.49361C9.48872 4.49361 8.99673 4.3296 8.64686 4.0016C8.31886 3.65174 8.15486 3.15974 8.15486 2.5256V1.968C8.15486 1.33387 8.31886 0.852801 8.64686 0.524801C8.99673 0.174934 9.48872 0 10.1229 0H10.5493C11.1834 0 11.6645 0.174934 11.9925 0.524801C12.3423 0.852801 12.5173 1.33387 12.5173 1.968V2.5256C12.5173 3.15974 12.3423 3.65174 11.9925 4.0016C11.6645 4.3296 11.1834 4.49361 10.5493 4.49361H10.1229Z" fill="#667085"/>
<path d="M18.2777 4.49361C17.6436 4.49361 17.1516 4.3296 16.8017 4.0016C16.4737 3.65174 16.3097 3.15974 16.3097 2.5256V1.968C16.3097 1.33387 16.4737 0.852801 16.8017 0.524801C17.1516 0.174934 17.6436 0 18.2777 0H18.7041C19.3383 0 19.8193 0.174934 20.1473 0.524801C20.4972 0.852801 20.6721 1.33387 20.6721 1.968V2.5256C20.6721 3.15974 20.4972 3.65174 20.1473 4.0016C19.8193 4.3296 19.3383 4.49361 18.7041 4.49361H18.2777Z" fill="#667085"/>
</svg>
