<svg width="81" height="81" viewBox="0 0 81 81" fill="none" xmlns="http://www.w3.org/2000/svg">
<g clip-path="url(#clip0_420_477)">
<path fill-rule="evenodd" clip-rule="evenodd" d="M71.8986 45.6841V44.3594C71.8986 36.0137 68.6209 28.1406 62.6694 22.1889C56.7178 16.2372 48.8453 12.9612 40.5 12.9612C32.1547 12.9612 24.2813 16.2389 18.3314 22.1891C12.3816 28.1392 9.10219 36.0139 9.10219 44.3594V45.6839C6.68346 46.3732 4.54649 47.8135 3 49.7969V44.3594C3 23.6816 19.8225 6.85937 40.5 6.85937C61.1775 6.85937 78.0009 23.6819 78.0009 44.3594V49.7969C76.4541 47.8137 74.3169 46.3735 71.8981 45.6842L71.8986 45.6841ZM78.0014 64.8267V57.0515C77.9984 54.5821 77.0161 52.2146 75.2698 50.4685C73.5236 48.7224 71.156 47.7403 68.6866 47.7375H65.65V74.1406H68.6866C71.156 74.1378 73.5235 73.1556 75.2698 71.4095C77.016 69.6634 77.9984 67.296 78.0014 64.8265V64.8267ZM59.3711 73.397C59.3736 73.5933 59.4526 73.7809 59.5914 73.9198C59.7301 74.0587 59.9176 74.138 60.1139 74.1408H63.1506V47.7375H60.1139C59.9176 47.7402 59.7301 47.8194 59.5914 47.9583C59.4526 48.0972 59.3736 48.2848 59.3711 48.4811V73.397ZM50.435 20.2175C51.7413 20.2123 52.9932 19.6937 53.9205 18.7736C49.7817 16.5981 45.176 15.4614 40.5003 15.4614C35.8246 15.4614 31.219 16.5981 27.0802 18.7736C28.0074 19.6939 29.2594 20.2125 30.5658 20.2175H50.435ZM15.3502 47.7375H12.3142C9.84481 47.7403 7.47734 48.7224 5.73119 50.4686C3.98504 52.2147 3.00281 54.5821 3 57.0515V64.8267C3.00289 67.2961 3.98515 69.6635 5.73129 71.4095C7.47742 73.1556 9.84485 74.1378 12.3142 74.1406H15.3502V47.7375ZM21.6297 48.4811C21.6271 48.2847 21.548 48.097 21.4091 47.9581C21.2702 47.8192 21.0825 47.74 20.8861 47.7375H17.8502V74.1406H20.8861C21.0825 74.138 21.2702 74.0588 21.4091 73.9199C21.548 73.781 21.6271 73.5933 21.6297 73.3969V48.4811ZM68.7522 16.1078C61.1753 8.53125 51.1427 4.35938 40.5 4.35938C29.8573 4.35938 19.8255 8.53125 12.2486 16.1078C4.67172 23.6844 0.5 33.7173 0.5 44.3594V64.8265C0.503722 67.9587 1.74963 70.9615 3.96442 73.1763C6.17922 75.3911 9.18205 76.6369 12.3142 76.6406H20.8861C21.7461 76.6397 22.5706 76.2976 23.1788 75.6895C23.7869 75.0814 24.1289 74.2569 24.1298 73.3969V48.4811C24.1289 47.6211 23.7869 46.7965 23.1788 46.1884C22.5706 45.5803 21.7461 45.2382 20.8861 45.2373H12.3142C12.0753 45.2373 11.8373 45.247 11.6022 45.2609V44.3594C11.6043 39.5222 12.8204 34.763 15.139 30.5178C17.4577 26.2726 20.8047 22.6773 24.8734 20.0612C25.5736 20.8894 26.4452 21.5558 27.4279 22.0144C28.4107 22.473 29.4813 22.7129 30.5658 22.7175H50.435C51.5194 22.7128 52.5898 22.4729 53.5724 22.0143C54.555 21.5557 55.4265 20.8893 56.1266 20.0612C60.1955 22.6771 63.5427 26.2724 65.8615 30.5176C68.1803 34.7628 69.3965 39.5222 69.3986 44.3594V45.2608C69.1627 45.2469 68.9253 45.2372 68.6866 45.2372H60.1139C59.254 45.2381 58.4295 45.5802 57.8216 46.1883C57.2136 46.7965 56.8717 47.621 56.8709 48.4809V73.397C56.8716 74.257 57.2135 75.0815 57.8215 75.6896C58.4295 76.2978 59.254 76.6398 60.1139 76.6408H68.6866C71.8187 76.6371 74.8214 75.3912 77.0361 73.1764C79.2507 70.9616 80.4965 67.9588 80.5 64.8267V44.3594C80.5 33.7173 76.3281 23.6847 68.7522 16.1078V16.1078Z" fill="#667085"/>
</g>
<defs>
<clipPath id="clip0_420_477">
<rect width="80" height="80" fill="white" transform="translate(0.5 0.5)"/>
</clipPath>
</defs>
</svg>
