<svg width="81" height="81" viewBox="0 0 81 81" fill="none" xmlns="http://www.w3.org/2000/svg">
<g clip-path="url(#clip0_420_524)">
<path d="M78.8333 57.1667H73.8333V20.5C73.8333 16.8233 70.8434 13.8333 67.1666 13.8333H13.8333C10.1566 13.8333 7.16656 16.8231 7.16656 20.5V57.1667H2.16656C1.24547 57.1667 0.5 57.912 0.5 58.8332V60.5C0.5 64.1767 3.48984 67.1667 7.16672 67.1667H73.8334C77.5102 67.1667 80.5 64.1767 80.5 60.5V58.8332C80.5 57.912 79.7545 57.1667 78.8333 57.1667ZM10.5 20.5C10.5 18.6625 11.9958 17.1667 13.8333 17.1667H67.1666C69.0041 17.1667 70.4998 18.6625 70.4998 20.5V57.1667H48.8333H32.1667H10.5V20.5ZM73.8333 63.8332H7.16672C5.32922 63.8332 3.83344 62.3375 3.83344 60.5H8.83344H31.4766L32.655 61.6784C32.9675 61.9909 33.3906 62.1667 33.8334 62.1667H47.1667C47.6094 62.1667 48.0327 61.9909 48.3452 61.6784L49.5234 60.5H72.1667H77.1667C77.1667 62.3375 75.6709 63.8332 73.8333 63.8332Z" fill="#667085"/>
</g>
<defs>
<clipPath id="clip0_420_524">
<rect width="80" height="80" fill="white" transform="translate(0.5 0.5)"/>
</clipPath>
</defs>
</svg>
