<svg width="17" height="16" viewBox="0 0 17 16" fill="none" xmlns="http://www.w3.org/2000/svg">
<g clip-path="url(#clip0_2_609)">
<path d="M7.75545 7.33333H0.422119V2C0.422119 1.46957 0.632833 0.960859 1.00791 0.585786C1.38298 0.210714 1.89169 0 2.42212 0L7.75545 0V7.33333ZM1.75545 6H6.42212V1.33333H2.42212C2.24531 1.33333 2.07574 1.40357 1.95071 1.5286C1.82569 1.65362 1.75545 1.82319 1.75545 2V6Z" fill="#667085"/>
<path d="M16.4221 7.33333H9.08881V0H14.4221C14.9526 0 15.4613 0.210714 15.8364 0.585786C16.2114 0.960859 16.4221 1.46957 16.4221 2V7.33333ZM10.4221 6H15.0888V2C15.0888 1.82319 15.0186 1.65362 14.8935 1.5286C14.7685 1.40357 14.599 1.33333 14.4221 1.33333H10.4221V6Z" fill="#667085"/>
<path d="M7.75545 16H2.42212C1.89169 16 1.38298 15.7892 1.00791 15.4142C0.632833 15.0391 0.422119 14.5304 0.422119 14L0.422119 8.66663H7.75545V16ZM1.75545 9.99996V14C1.75545 14.1768 1.82569 14.3463 1.95071 14.4714C2.07574 14.5964 2.24531 14.6666 2.42212 14.6666H6.42212V9.99996H1.75545Z" fill="#667085"/>
<path d="M14.4221 16H9.08881V8.66663H16.4221V14C16.4221 14.5304 16.2114 15.0391 15.8364 15.4142C15.4613 15.7892 14.9526 16 14.4221 16ZM10.4221 14.6666H14.4221C14.599 14.6666 14.7685 14.5964 14.8935 14.4714C15.0186 14.3463 15.0888 14.1768 15.0888 14V9.99996H10.4221V14.6666Z" fill="#667085"/>
</g>
<defs>
<clipPath id="clip0_2_609">
<rect width="16" height="16" fill="white" transform="translate(0.422119)"/>
</clipPath>
</defs>
</svg>
