<svg width="81" height="81" viewBox="0 0 81 81" fill="none" xmlns="http://www.w3.org/2000/svg">
<g clip-path="url(#clip0_420_748)">
<path d="M56.5 0.5H24.5C20.0905 0.5 16.5 4.09047 16.5 8.5V72.5C16.5 76.9128 20.0905 80.5 24.5 80.5H56.5C60.9128 80.5 64.5 76.9128 64.5 72.5V8.5C64.5 4.09047 60.9128 0.5 56.5 0.5ZM61.3 72.5C61.3 75.1464 59.1464 77.3 56.5 77.3H24.5C21.8536 77.3 19.7 75.1464 19.7 72.5V8.5C19.7 5.85359 21.8536 3.7 24.5 3.7H56.5C59.1464 3.7 61.3 5.85359 61.3 8.5V72.5Z" fill="#667085"/>
<path d="M43.7 6.8999H37.3C36.4167 6.8999 35.7 7.61678 35.7 8.4999C35.7 9.38303 36.4168 10.0999 37.3 10.0999H43.7C44.5831 10.0999 45.2999 9.38303 45.2999 8.4999C45.2999 7.61678 44.5831 6.8999 43.7 6.8999Z" fill="#667085"/>
<path d="M40.5 70.8999C39.6169 70.8999 38.9 71.6168 38.9 72.4999C38.9 73.383 39.6169 74.0999 40.5 74.0999C41.3832 74.0999 42.1 73.383 42.1 72.4999C42.1 71.6168 41.3832 70.8999 40.5 70.8999Z" fill="#667085"/>
<path d="M62.9 13.3H18.1C17.2167 13.3 16.5 14.0169 16.5 14.9C16.5 15.7833 17.2167 16.5 18.1 16.5H62.9C63.7831 16.5 64.5 15.7832 64.5 14.9C64.5 14.0169 63.7831 13.3 62.9 13.3Z" fill="#667085"/>
<path d="M62.9 64.5H18.1C17.2167 64.5 16.5 65.2169 16.5 66.1C16.5 66.9831 17.2167 67.7 18.1 67.7H62.9C63.7831 67.7 64.5 66.9831 64.5 66.1C64.5 65.2169 63.7831 64.5 62.9 64.5Z" fill="#667085"/>
</g>
<defs>
<clipPath id="clip0_420_748">
<rect width="80" height="80" fill="white" transform="translate(0.5 0.5)"/>
</clipPath>
</defs>
</svg>
