<svg width="81" height="81" viewBox="0 0 81 81" fill="none" xmlns="http://www.w3.org/2000/svg">
<g clip-path="url(#clip0_420_214)">
<path d="M40.5 0.5C17.1668 0.5 17.1667 16.4131 17.1667 40.5C17.1667 64.5869 17.1668 80.5 40.5 80.5C63.8333 80.5 63.8333 64.5869 63.8333 40.5C63.8333 16.4131 63.8333 0.5 40.5 0.5ZM40.5 77.1667C21.2666 77.1667 20.5 66.5823 20.5 40.5C20.5 14.4177 21.2666 3.83328 40.5 3.83328C59.7335 3.83328 60.5001 14.4177 60.5001 40.5C60.5001 66.5823 59.7335 77.1667 40.5 77.1667Z" fill="#667085"/>
<path d="M40.5 67.1666C42.3409 67.1666 43.8333 65.6742 43.8333 63.8333C43.8333 61.9924 42.3409 60.5 40.5 60.5C38.6591 60.5 37.1667 61.9924 37.1667 63.8333C37.1667 65.6742 38.6591 67.1666 40.5 67.1666Z" fill="#667085"/>
</g>
<defs>
<clipPath id="clip0_420_214">
<rect width="80" height="80" fill="white" transform="translate(0.5 0.5)"/>
</clipPath>
</defs>
</svg>
