<svg width="81" height="81" viewBox="0 0 81 81" fill="none" xmlns="http://www.w3.org/2000/svg">
<g clip-path="url(#clip0_420_454)">
<path d="M73.8333 3.83325H7.16672C3.48984 3.83325 0.5 6.82325 0.5 10.5V57.1667C0.5 60.8434 3.48984 63.8334 7.16672 63.8334H30.5045C30.4327 66.4978 29.922 70.7562 28.0213 72.7559C27.323 73.4915 26.5206 73.8334 25.5002 73.8334C24.5789 73.8334 23.8334 74.5789 23.8334 75.5001C23.8334 76.4214 24.5789 77.1668 25.5002 77.1668H55.5002C56.4214 77.1668 57.1669 76.4214 57.1669 75.5001C57.1669 74.5789 56.4214 73.8334 55.5002 73.8334C54.4797 73.8334 53.6772 73.4915 52.9791 72.7559C51.0783 70.7562 50.5675 66.4978 50.4958 63.8334H73.8336C77.5103 63.8334 80.5003 60.8435 80.5003 57.1667V10.5C80.5 6.82325 77.5102 3.83325 73.8333 3.83325ZM31.3952 73.8332C33.4078 70.7475 33.7973 66.3039 33.8475 63.8332H47.1523C47.2027 66.304 47.592 70.7475 49.6047 73.8332H31.3952ZM77.1667 57.1667C77.1667 59.0042 75.6709 60.5 73.8334 60.5H7.16672C5.32922 60.5 3.83344 59.0042 3.83344 57.1667V50.5H77.1667V57.1667V57.1667ZM77.1667 47.1667H3.83328V10.5C3.83328 8.66247 5.32906 7.16669 7.16656 7.16669H73.8333C75.6708 7.16669 77.1666 8.66247 77.1666 10.5V47.1667H77.1667Z" fill="#667085"/>
<path d="M40.5 58.8333C42.3409 58.8333 43.8333 57.341 43.8333 55.5C43.8333 53.6591 42.3409 52.1667 40.5 52.1667C38.6591 52.1667 37.1667 53.6591 37.1667 55.5C37.1667 57.341 38.6591 58.8333 40.5 58.8333Z" fill="#667085"/>
</g>
<defs>
<clipPath id="clip0_420_454">
<rect width="80" height="80" fill="white" transform="translate(0.5 0.5)"/>
</clipPath>
</defs>
</svg>
