<svg width="81" height="81" viewBox="0 0 81 81" fill="none" xmlns="http://www.w3.org/2000/svg">
<g clip-path="url(#clip0_420_331)">
<path d="M72.1666 60.5H62.1666C61.2466 60.5 60.5 59.7533 60.5 58.8333C60.5 57.9133 61.2466 57.1667 62.1666 57.1667H72.1666C74.9233 57.1667 77.1666 54.9233 77.1666 52.1667V28.8333C77.1666 26.0767 74.9233 23.8333 72.1666 23.8333H8.83333C6.07666 23.8333 3.83333 26.0767 3.83333 28.8333V52.1667C3.83333 54.9233 6.07666 57.1667 8.83333 57.1667H18.8333C19.7533 57.1667 20.5 57.9133 20.5 58.8333C20.5 59.7533 19.7533 60.5 18.8333 60.5H8.83333C4.23667 60.5 0.5 56.76 0.5 52.1667V28.8333C0.5 24.24 4.23667 20.5 8.83333 20.5H72.1666C76.7633 20.5 80.5 24.24 80.5 28.8333V52.1667C80.5 56.76 76.7633 60.5 72.1666 60.5Z" fill="#667085"/>
<path d="M48.8334 70.5001H28.8334C27.9134 70.5001 27.1667 69.7534 27.1667 68.8334C27.1667 67.9134 27.9134 67.1667 28.8334 67.1667H48.8334C49.7534 67.1667 50.5 67.9134 50.5 68.8334C50.5 69.7534 49.7534 70.5001 48.8334 70.5001Z" fill="#667085"/>
<path d="M48.8334 63.8333H28.8334C27.9134 63.8333 27.1667 63.0866 27.1667 62.1667C27.1667 61.2467 27.9134 60.5 28.8334 60.5H48.8334C49.7534 60.5 50.5 61.2467 50.5 62.1667C50.5 63.0866 49.7534 63.8333 48.8334 63.8333Z" fill="#667085"/>
<path d="M35.5 57.1666H28.8334C27.9134 57.1666 27.1667 56.4199 27.1667 55.4999C27.1667 54.5799 27.9134 53.8333 28.8334 53.8333H35.5C36.42 53.8333 37.1667 54.5799 37.1667 55.4999C37.1667 56.4199 36.42 57.1666 35.5 57.1666Z" fill="#667085"/>
<path d="M62.1667 23.8333C61.2467 23.8333 60.5 23.0867 60.5 22.1667V8.83333C60.5 6.07666 58.2567 3.83333 55.5 3.83333H25.5C22.7434 3.83333 20.5 6.07666 20.5 8.83333V22.1667C20.5 23.0867 19.7534 23.8333 18.8334 23.8333C17.9134 23.8333 17.1667 23.0867 17.1667 22.1667V8.83333C17.1667 4.24 20.9034 0.5 25.5 0.5H55.5C60.0967 0.5 63.8334 4.24 63.8334 8.83333V22.1667C63.8334 23.0867 63.0867 23.8333 62.1667 23.8333Z" fill="#667085"/>
<path d="M55.5 80.5H25.5C20.9034 80.5 17.1667 76.76 17.1667 72.1666V45.4999C17.1667 44.5799 17.9134 43.8333 18.8334 43.8333H62.1667C63.0867 43.8333 63.8334 44.5799 63.8334 45.4999V72.1666C63.8334 76.76 60.0967 80.5 55.5 80.5ZM20.5 47.1666V72.1666C20.5 74.9233 22.7434 77.1666 25.5 77.1666H55.5C58.2567 77.1666 60.5 74.9233 60.5 72.1666V47.1666H20.5Z" fill="#667085"/>
</g>
<defs>
<clipPath id="clip0_420_331">
<rect width="80" height="80" fill="white" transform="translate(0.5 0.5)"/>
</clipPath>
</defs>
</svg>
