<svg width="81" height="81" viewBox="0 0 81 81" fill="none" xmlns="http://www.w3.org/2000/svg">
<path d="M15.872 65.2052C16.8377 65.2052 17.6206 64.4223 17.6206 63.4566C17.6206 62.4909 16.8377 61.708 15.872 61.708C14.9063 61.708 14.1234 62.4909 14.1234 63.4566C14.1234 64.4223 14.9063 65.2052 15.872 65.2052Z" fill="#667085"/>
<path d="M22.9097 65.2052C23.8754 65.2052 24.6583 64.4223 24.6583 63.4566C24.6583 62.4909 23.8754 61.708 22.9097 61.708C21.9439 61.708 21.1611 62.4909 21.1611 63.4566C21.1611 64.4223 21.9439 65.2052 22.9097 65.2052Z" fill="#667085"/>
<path d="M29.9475 65.2052C30.9132 65.2052 31.6961 64.4223 31.6961 63.4566C31.6961 62.4909 30.9132 61.708 29.9475 61.708C28.9818 61.708 28.1989 62.4909 28.1989 63.4566C28.1989 64.4223 28.9818 65.2052 29.9475 65.2052Z" fill="#667085"/>
<path d="M76.4356 50.9621C76.435 50.9462 76.4342 50.9303 76.4328 50.9145C76.4315 50.9029 76.4298 50.892 76.4282 50.8809C76.4012 50.6537 76.3001 50.4367 76.1284 50.2706L31.6408 7.2473C29.2183 4.92386 25.3567 5.00417 23.0331 7.42652L22.1769 8.31917C21.7887 8.72386 21.8019 9.36667 22.2064 9.75495L31.5736 18.747C31.9781 19.1354 32.6211 19.1223 33.0095 18.7176C33.3978 18.3129 33.3847 17.6701 32.9801 17.2817L24.3453 8.99277L24.4987 8.83292C26.047 7.21855 28.6203 7.1648 30.2315 8.71058L72.9109 49.9851H67.0481L35.5298 19.729C35.1253 19.3406 34.4822 19.3539 34.0939 19.7584C33.7056 20.1629 33.7187 20.8059 34.1233 21.1943L65.6239 51.4332V56.1947H62.595V52.4676C62.595 51.9067 62.1403 51.452 61.5793 51.452H9.31217C8.75123 51.452 8.29654 51.9067 8.29654 52.4676V56.1947H5.57764C5.0167 56.1947 4.56201 56.6493 4.56201 57.2103V65.5354C4.56201 68.3931 6.88701 70.7181 9.74467 70.7181H9.98217V72.8695C9.98217 74.2907 11.1383 75.4468 12.5595 75.4468H68.4406C69.8618 75.4468 71.0179 74.2907 71.0179 72.8695V70.7181H71.2554C74.1131 70.7181 76.4381 68.3931 76.4381 65.5354V57.2103V51.0004C76.4379 50.9871 76.4362 50.9751 76.4356 50.9621V50.9621ZM67.6553 52.0162H74.4067V56.1948H67.6553V52.0162ZM74.4067 65.5357C74.4067 67.2734 72.9929 68.6872 71.2553 68.6872H59.9848C59.4239 68.6872 58.9692 69.1418 58.9692 69.7028C58.9692 70.2637 59.4239 70.7184 59.9848 70.7184H68.9865V72.8698C68.9865 73.1709 68.7415 73.4159 68.4404 73.4159H12.5595C12.2584 73.4159 12.0134 73.1709 12.0134 72.8698V70.7184H55.6442C56.2051 70.7184 56.6598 70.2637 56.6598 69.7028C56.6598 69.1418 56.2051 68.6872 55.6442 68.6872H9.74467C8.00701 68.6872 6.59326 67.2734 6.59326 65.5357V58.2262H14.9775C15.5384 58.2262 15.9931 57.7715 15.9931 57.2106C15.9931 56.6496 15.5384 56.195 14.9775 56.195H10.3278V53.4836H60.5639V56.195H18.9342C18.3733 56.195 17.9186 56.6496 17.9186 57.2106C17.9186 57.7715 18.3733 58.2262 18.9342 58.2262H74.4065V65.5357H74.4067Z" fill="#667085"/>
<path d="M17.927 48.0457C18.1048 48.4022 18.4638 48.6085 18.8367 48.6085C18.9891 48.6085 19.1436 48.5741 19.2891 48.5016C19.7911 48.2513 19.9953 47.6416 19.745 47.1396L16.1245 39.8766C15.8741 39.3744 15.2639 39.1704 14.7625 39.4207C14.2605 39.671 14.0562 40.2807 14.3066 40.7827L17.927 48.0457Z" fill="#667085"/>
<path d="M35.2739 48.6085C35.6468 48.6085 36.0059 48.4024 36.1836 48.0457L39.804 40.7827C40.0543 40.2807 39.8501 39.671 39.3481 39.4207C38.8467 39.1709 38.2365 39.3745 37.986 39.8766L34.3656 47.1396C34.1153 47.6416 34.3195 48.2513 34.8215 48.5016C34.967 48.5741 35.1215 48.6085 35.2739 48.6085Z" fill="#667085"/>
<path d="M28.0709 45.3377V37.3118C28.0709 36.7508 27.6162 36.2961 27.0553 36.2961C26.4944 36.2961 26.0397 36.7508 26.0397 37.3118V45.3377C26.0397 45.8986 26.4944 46.3533 27.0553 46.3533C27.6162 46.3533 28.0709 45.8986 28.0709 45.3377Z" fill="#667085"/>
</svg>
