<svg width="81" height="81" viewBox="0 0 81 81" fill="none" xmlns="http://www.w3.org/2000/svg">
<g clip-path="url(#clip0_420_635)">
<path d="M73.3741 14.3142C62.3671 11.2983 51.2954 6.60221 41.3559 0.733789C40.8279 0.42207 40.1728 0.42207 39.645 0.733789C29.4187 6.77081 18.9453 11.2128 7.62582 14.3142C6.89457 14.5144 6.3877 15.1791 6.3877 15.9374V33.132C6.3877 50.8387 14.5563 62.5593 21.4091 69.2735C28.7866 76.5024 37.3803 80.5 40.5004 80.5C43.6203 80.5 52.214 76.5024 59.5915 69.2735C66.4441 62.5594 74.6123 50.8388 74.6123 33.132V15.9372C74.6123 15.1791 74.1054 14.5144 73.3741 14.3142ZM71.2466 33.1318C71.2466 49.6698 63.6277 60.6065 57.2359 66.8693C49.9811 73.9779 42.2243 77.1341 40.5004 77.1341C38.7765 77.1341 31.0194 73.9779 23.7644 66.8693C17.3727 60.6063 9.75347 49.6698 9.75347 33.1318V17.2147C20.5781 14.1413 30.6591 9.85205 40.5008 4.13284C50.0967 9.70033 60.6806 14.2028 71.2466 17.2141V33.1318Z" fill="#667085"/>
<path d="M25.5841 17.0265C25.2435 16.1617 24.2664 15.7368 23.4014 16.0776C20.3952 17.2621 17.3096 18.3524 14.2304 19.3184C13.5286 19.5387 13.0511 20.1887 13.0511 20.924V27.4226C13.0511 28.352 13.8047 29.1054 14.734 29.1054C15.6632 29.1054 16.4168 28.352 16.4168 27.4226V22.1538C19.1791 21.2601 21.9385 20.2715 24.6352 19.2088C25.5 18.8684 25.9249 17.8913 25.5841 17.0265Z" fill="#667085"/>
<path d="M28.7808 17.3456C29.0065 17.3456 29.2358 17.3001 29.4556 17.2042L29.4865 17.1908C30.3379 16.8176 30.7214 15.8265 30.3482 14.9754C29.9748 14.124 28.9781 13.7389 28.1276 14.1117L28.1005 14.1234C27.2486 14.4954 26.8639 15.4858 27.2359 16.3373C27.512 16.9695 28.1315 17.3456 28.7808 17.3456Z" fill="#667085"/>
<path d="M60.5503 54.763C59.7726 54.2547 58.7298 54.4733 58.2209 55.2513C56.8342 57.3738 55.2073 59.4063 53.3848 61.2917C51.8861 62.8421 50.262 64.2871 48.5578 65.5863C47.8189 66.1497 47.6767 67.2057 48.24 67.9449C48.5714 68.3791 49.0725 68.6075 49.5793 68.6075C49.9353 68.6075 50.2939 68.4952 50.5986 68.2627C52.4368 66.861 54.1884 65.3027 55.8043 63.6311C57.7748 61.593 59.5357 59.393 61.0385 57.0922C61.5471 56.3141 61.3282 55.2713 60.5503 54.763Z" fill="#667085"/>
<path d="M44.6496 68.2254L44.5531 68.2823C43.7489 68.7481 43.474 69.7775 43.9397 70.5817C44.2517 71.1208 44.8165 71.4217 45.3976 71.4217C45.6835 71.4217 45.9738 71.3487 46.239 71.1948L46.3504 71.1293C47.1524 70.6597 47.4218 69.6289 46.9521 68.8268C46.4821 68.0251 45.4512 67.7562 44.6496 68.2254Z" fill="#667085"/>
<path d="M29.0295 37.0654C27.9962 36.0319 26.622 35.4632 25.1604 35.4632C23.6989 35.4632 22.3245 36.0321 21.2908 37.0654C19.1575 39.1991 19.1575 42.671 21.2908 44.8046L31.2276 54.7411C32.261 55.7743 33.6353 56.3432 35.097 56.3432C36.5587 56.3432 37.9329 55.7743 38.9665 54.7408L59.7104 33.9968C61.8435 31.8626 61.8435 28.3912 59.7101 26.2582C58.6766 25.2248 57.3024 24.656 55.8405 24.656C54.3788 24.656 53.0046 25.2249 51.971 26.2582L35.0968 43.1324L29.0295 37.0654ZM54.351 28.6382C54.7487 28.2405 55.2779 28.0216 55.8407 28.0216C56.4038 28.0216 56.9326 28.2405 57.3305 28.6382C58.1516 29.4593 58.1516 30.7958 57.3302 31.6172L36.5867 52.361C36.189 52.7586 35.6598 52.9775 35.097 52.9775C34.5342 52.9775 34.0049 52.7586 33.6071 52.361L23.6706 42.4247C22.8492 41.6033 22.8492 40.2668 23.6703 39.4457C24.0681 39.048 24.5973 38.8288 25.1603 38.8288C25.7232 38.8288 26.2521 39.0477 26.6498 39.4454L33.9068 46.7025C34.2226 47.018 34.6504 47.1954 35.0968 47.1954C35.5432 47.1954 35.971 47.0182 36.2865 46.7025L54.351 28.6382Z" fill="#667085"/>
</g>
<defs>
<clipPath id="clip0_420_635">
<rect width="80" height="80" fill="white" transform="translate(0.5 0.5)"/>
</clipPath>
</defs>
</svg>
