<svg width="17" height="16" viewBox="0 0 17 16" fill="none" xmlns="http://www.w3.org/2000/svg">
<g clip-path="url(#clip0_2_620)">
<path d="M0.422119 2V7.33333H7.75545V0H2.42212C1.89169 0 1.38298 0.210714 1.00791 0.585786C0.632833 0.960859 0.422119 1.46957 0.422119 2H0.422119ZM6.42212 6H1.75545V2C1.75545 1.82319 1.82569 1.65362 1.95071 1.5286C2.07574 1.40357 2.24531 1.33333 2.42212 1.33333H6.42212V6Z" fill="#667085"/>
<path d="M0.422119 14C0.422119 14.5304 0.632833 15.0391 1.00791 15.4142C1.38298 15.7892 1.89169 16 2.42212 16H7.75545V8.66663H0.422119V14ZM1.75545 9.99996H6.42212V14.6666H2.42212C2.24531 14.6666 2.07574 14.5964 1.95071 14.4714C1.82569 14.3463 1.75545 14.1768 1.75545 14V9.99996Z" fill="#667085"/>
<path d="M13.7554 14.278V1.72396L15.4781 3.44396L16.4221 2.50063L14.5028 0.583964C14.1278 0.209633 13.6196 -0.000610352 13.0898 -0.000610352C12.5599 -0.000610352 12.0517 0.209633 11.6768 0.583964L9.76011 2.4973L10.7021 3.44063L12.4221 1.7213V14.2773L10.6988 12.556L9.75677 13.4993L11.6761 15.416C12.0511 15.7903 12.5593 16.0005 13.0891 16.0005C13.6189 16.0005 14.1271 15.7903 14.5021 15.416L16.4221 13.5026L15.4801 12.5593L13.7554 14.278Z" fill="#667085"/>
</g>
<defs>
<clipPath id="clip0_2_620">
<rect width="16" height="16" fill="white" transform="translate(0.422119)"/>
</clipPath>
</defs>
</svg>
