<svg width="81" height="81" viewBox="0 0 81 81" fill="none" xmlns="http://www.w3.org/2000/svg">
<g clip-path="url(#clip0_420_614)">
<path d="M40.5 7.53125C41.1472 7.53125 41.6719 7.00658 41.6719 6.35938C41.6719 5.71217 41.1472 5.1875 40.5 5.1875C39.8528 5.1875 39.3281 5.71217 39.3281 6.35938C39.3281 7.00658 39.8528 7.53125 40.5 7.53125Z" fill="#667085"/>
<path d="M65.2656 0.5H15.7344C12.5034 0.5 9.875 3.12844 9.875 6.35938V74.6406C9.875 77.8716 12.5034 80.5 15.7344 80.5H65.2656C68.4966 80.5 71.125 77.8716 71.125 74.6406V6.35938C71.125 3.12844 68.4966 0.5 65.2656 0.5ZM68.7812 74.6406C68.7812 76.5791 67.2041 78.1562 65.2656 78.1562H15.7344C13.7958 78.1562 12.2188 76.5791 12.2188 74.6406V6.35938C12.2188 4.42094 13.7958 2.84375 15.7344 2.84375H65.2656C67.2041 2.84375 68.7812 4.42094 68.7812 6.35938V74.6406Z" fill="#667085"/>
<path d="M65.2656 9.875H15.7344C15.0872 9.875 14.5625 10.3995 14.5625 11.0469V35.8125C14.5625 36.4598 15.0872 36.9844 15.7344 36.9844C16.3816 36.9844 16.9062 36.4598 16.9062 35.8125V12.2188H64.0938V64.0938H16.9062V40.5C16.9062 39.8527 16.3816 39.3281 15.7344 39.3281C15.0872 39.3281 14.5625 39.8527 14.5625 40.5V65.2656C14.5625 65.913 15.0872 66.4375 15.7344 66.4375H65.2656C65.913 66.4375 66.4375 65.913 66.4375 65.2656V11.0469C66.4375 10.3995 65.913 9.875 65.2656 9.875Z" fill="#667085"/>
<path d="M45.1875 68.7812H35.8125C33.8739 68.7812 32.2969 70.3584 32.2969 72.2969C32.2969 74.2353 33.8739 75.8125 35.8125 75.8125H45.1875C47.1259 75.8125 48.7031 74.2353 48.7031 72.2969C48.7031 70.3584 47.1259 68.7812 45.1875 68.7812ZM45.1875 73.4688H35.8125C35.1662 73.4688 34.6406 72.9431 34.6406 72.2969C34.6406 71.6506 35.1662 71.125 35.8125 71.125H45.1875C45.8338 71.125 46.3594 71.6506 46.3594 72.2969C46.3594 72.9431 45.8338 73.4688 45.1875 73.4688Z" fill="#667085"/>
</g>
<defs>
<clipPath id="clip0_420_614">
<rect width="80" height="80" fill="white" transform="translate(0.5 0.5)"/>
</clipPath>
</defs>
</svg>
