<svg width="81" height="81" viewBox="0 0 81 81" fill="none" xmlns="http://www.w3.org/2000/svg">
<g clip-path="url(#clip0_420_623)">
<path d="M70.4313 20.1688L51.2313 0.968788C50.6062 0.343737 49.5937 0.343737 48.9688 0.968788L35.7001 14.2375L35.2313 13.7687C34.6063 13.1437 33.5938 13.1437 32.9689 13.7687L5.49381 41.2438C2.27495 44.4641 0.5 48.7453 0.5 53.3C0.5 63.0047 8.39691 70.9 18.1 70.9C22.5875 70.9 26.9843 69.0797 30.1562 65.9062L57.6313 38.4311C58.2564 37.8061 58.2564 36.7936 57.6313 36.1687L57.1626 35.6999L70.4313 22.4312C71.0563 21.8063 71.0563 20.7938 70.4313 20.1688ZM27.8938 63.6437C25.3156 66.2219 21.7469 67.7001 18.1 67.7001C10.1593 67.7001 3.69995 61.2406 3.69995 53.3C3.69995 49.6 5.14056 46.1219 7.75626 43.5062L34.1 17.1625L54.2376 37.3L27.8938 63.6437ZM54.9001 33.4375L37.9625 16.5001L50.1001 4.36254L67.0377 21.3001L54.9001 33.4375Z" fill="#667085"/>
<path d="M44.147 15.3918C43.5438 16.02 43.5533 17.0153 44.1689 17.6309L45.7689 19.2309C46.0814 19.5434 46.4909 19.6997 46.9002 19.6997C47.3096 19.6997 47.7189 19.5434 48.0315 19.2309L52.8315 14.4309C53.4565 13.8059 53.4565 12.7934 52.8315 12.1685L51.2315 10.5684C51.0783 10.4153 50.894 10.2903 50.694 10.2107C49.5689 9.75587 49.5689 9.74342 44.147 15.3918Z" fill="#667085"/>
<path d="M52.1718 25.6342L53.7719 27.2343C54.0843 27.5467 54.4938 27.703 54.9032 27.703C55.3125 27.703 55.7219 27.5467 56.0345 27.2343L60.8345 22.4343C61.4595 21.8092 61.4595 20.7967 60.8345 20.1718L59.2344 18.5718C59.0813 18.4186 58.8969 18.2937 58.697 18.214C57.5751 17.7594 57.572 17.7468 52.1501 23.3953C51.5469 24.0234 51.5562 25.0186 52.1718 25.6342Z" fill="#667085"/>
<path d="M32.8502 34.4064C32.7221 34.947 32.8845 35.5141 33.2751 35.9064L33.2759 35.9071L23.7942 45.3877L22.9751 42.9297C22.7813 42.3531 22.9281 41.7265 23.3625 41.2938L24.5733 40.0821C24.8328 40.1481 25.0901 40.2345 25.3563 40.2345C26.175 40.2345 26.9939 39.922 27.6188 39.2985C28.8657 38.0517 28.8657 36.0204 27.6188 34.7734C26.3688 33.5264 24.3438 33.5264 23.0937 34.7734C22.2675 35.5996 22.0419 36.7608 22.3106 37.8192L21.1001 39.0297C19.8032 40.3249 19.3595 42.2079 19.9376 43.9437L21.2625 47.9188L20.4833 48.6981C19.4255 48.4293 18.2658 48.6549 17.4375 49.4811C16.1906 50.728 16.1906 52.7592 17.4375 54.0061C18.0626 54.6295 18.8813 54.9421 19.7 54.9421C20.5187 54.9421 21.3375 54.6297 21.9624 54.0061C22.7883 53.1801 23.0142 52.0188 22.7456 50.9604L25.7901 47.9164L29.7624 49.2405C30.2655 49.4092 30.7812 49.492 31.2936 49.492C32.5406 49.492 33.7562 49.0014 34.6749 48.0826L35.5398 47.2177L35.5405 47.2185C35.853 47.5294 36.2625 47.6857 36.6718 47.6857C37.0812 47.6857 37.4905 47.5294 37.8031 47.217L40.0656 44.9545C40.6906 44.3295 40.6906 43.317 40.0656 42.6921L37.8031 40.4296C37.1781 39.8045 36.1656 39.8062 35.5407 40.4281L33.2751 42.6907C32.9751 42.9907 32.8064 43.3986 32.8064 43.8235C32.8064 44.2485 32.9751 44.6563 33.2751 44.9563L33.2759 44.9571L32.4126 45.8203C31.9782 46.2531 31.3502 46.3969 30.7751 46.2063L28.3194 45.3877L35.5399 38.1679L35.5407 38.1686C35.8438 38.4718 36.2532 38.6359 36.672 38.6359C36.7939 38.6359 36.9189 38.6218 37.0407 38.5937C37.5781 38.4656 38.0157 38.0673 38.1907 37.5423L39.322 34.1485C39.5127 33.5735 39.3627 32.9391 38.9346 32.511C38.5096 32.0844 37.8753 31.9343 37.297 32.1235L33.9002 33.2548C33.3752 33.4314 32.9751 33.8656 32.8502 34.4064ZM25.3563 37.0344L26.4876 38.1672L25.3595 37.0407C25.3581 37.0393 25.3577 37.0374 25.3563 37.036V37.0344V37.0344ZM19.7001 51.7453V51.7438C19.7001 51.7438 19.7034 51.7456 19.7048 51.747L20.8313 52.8751L19.7001 51.7453Z" fill="#667085"/>
</g>
<defs>
<clipPath id="clip0_420_623">
<rect width="80" height="80" fill="white" transform="translate(0.5 0.5)"/>
</clipPath>
</defs>
</svg>
