<svg width="81" height="81" viewBox="0 0 81 81" fill="none" xmlns="http://www.w3.org/2000/svg">
<g clip-path="url(#clip0_420_649)">
<path d="M27.1668 21.8333C24.2213 21.8333 21.8335 24.2211 21.8335 27.1665V53.8333C21.8335 56.7787 24.2213 59.1665 27.1668 59.1665H53.8335C56.779 59.1665 59.1668 56.7787 59.1668 53.8333V27.1667C59.1668 24.2212 56.779 21.8334 53.8335 21.8334H27.1668V21.8333ZM56.5001 27.1667V53.8334C56.5001 55.3062 55.3062 56.5001 53.8333 56.5001H27.1668C25.694 56.5001 24.5001 55.3062 24.5001 53.8334V27.1667C24.5001 25.6939 25.694 24.5 27.1668 24.5H53.8335C55.3062 24.5 56.5001 25.6939 56.5001 27.1667V27.1667Z" fill="#667085"/>
<path d="M49.8333 0.5H31.1667C28.9577 0.5 27.1668 2.29094 27.1668 4.5V7.16672C27.1668 12.42 25.8453 15.3253 24.8841 16.752C19.9939 17.8295 16.5085 22.1592 16.5 27.1667V32.5H15.1667C12.9577 32.5 11.1667 34.2909 11.1667 36.5V44.5C11.1667 46.7091 12.9577 48.5 15.1667 48.5H16.5V53.8333C16.5083 58.8408 19.9938 63.1705 24.8841 64.248C25.8455 65.6747 27.1668 68.58 27.1668 73.8333V76.5C27.1668 78.7091 28.9577 80.5 31.1667 80.5H49.8335C52.0427 80.5 53.8335 78.7092 53.8335 76.5V73.8333C53.8335 68.58 55.1549 65.6747 56.1161 64.248C61.0063 63.1705 64.4918 58.8408 64.5002 53.8333V37.8333H65.8335C68.0425 37.8333 69.8335 36.0423 69.8335 33.8333V31.1666C69.8335 28.9575 68.0425 27.1666 65.8335 27.1666H64.5C64.4918 22.1591 61.0063 17.8294 56.116 16.7519C55.1546 15.3252 53.8333 12.4198 53.8333 7.16656V4.5C53.8333 2.29094 52.0425 0.5 49.8333 0.5V0.5ZM29.8333 7.16672V4.5C29.8333 3.76359 30.4303 3.16672 31.1666 3.16672H49.8333C50.5697 3.16672 51.1666 3.76375 51.1666 4.5V7.16672C51.0627 10.37 51.6664 13.5567 52.9346 16.5H28.0653C29.3336 13.5567 29.9372 10.3698 29.8333 7.16672V7.16672ZM15.1667 45.8333C14.4303 45.8333 13.8335 45.2363 13.8335 44.5V36.5C13.8335 35.7636 14.4305 35.1667 15.1667 35.1667H16.5V45.8334H15.1667V45.8333ZM51.1668 73.8333V76.5C51.1668 77.2364 50.5697 77.8333 49.8335 77.8333H31.1667C30.4303 77.8333 29.8335 77.2364 29.8335 76.5V73.8333C29.9374 70.63 29.3336 67.4433 28.0655 64.5H52.9349C51.6664 67.4433 51.0628 70.6302 51.1668 73.8333ZM65.8333 29.8333C66.5697 29.8333 67.1666 30.4303 67.1666 31.1666V33.8333C67.1666 34.5697 66.5697 35.1666 65.8333 35.1666H64.5V29.8333H65.8333ZM61.8333 27.1667V53.8334C61.8289 58.2498 58.2497 61.8291 53.8333 61.8334H27.1668C22.7503 61.8291 19.1711 58.2498 19.1667 53.8334V27.1667C19.1711 22.7503 22.7503 19.1711 27.1668 19.1667H53.8335C58.2499 19.1711 61.8289 22.7502 61.8333 27.1667Z" fill="#667085"/>
<path d="M33.4427 35.5573C32.9221 35.0369 32.078 35.0369 31.5574 35.5573L27.5574 39.5574C27.0369 40.078 27.0369 40.922 27.5574 41.4427L31.5574 45.4427C32.0805 45.948 32.9122 45.9408 33.4265 45.4264C33.9408 44.9121 33.948 44.0805 33.4427 43.5574L30.3854 40.5L33.4427 37.4427C33.9632 36.922 33.9632 36.078 33.4427 35.5573Z" fill="#667085"/>
<path d="M49.4427 35.5574C48.9195 35.0521 48.0878 35.0593 47.5736 35.5737C47.0592 36.088 47.052 36.9196 47.5574 37.4427L50.6147 40.5001L47.5574 43.5574C47.2108 43.8921 47.0717 44.3879 47.1938 44.8541C47.3158 45.3204 47.6799 45.6844 48.1459 45.8063C48.612 45.9283 49.1078 45.7893 49.4427 45.4427L53.4427 41.4427C53.9632 40.9221 53.9632 40.078 53.4427 39.5574L49.4427 35.5574Z" fill="#667085"/>
<path d="M42.0573 35.7601L36.7241 43.7601C36.3153 44.3728 36.4808 45.2007 37.0934 45.6095C37.7061 46.0182 38.5341 45.8528 38.9428 45.2401L44.2761 37.2401C44.5405 36.8438 44.5733 36.3365 44.3623 35.9093C44.1512 35.4821 43.7284 35.2001 43.253 35.1693C42.7775 35.1385 42.3217 35.3638 42.0573 35.7601V35.7601Z" fill="#667085"/>
</g>
<defs>
<clipPath id="clip0_420_649">
<rect width="80" height="80" fill="white" transform="translate(0.5 0.5)"/>
</clipPath>
</defs>
</svg>
